<svg xmlns="http://www.w3.org/2000/svg" width="72.665" height="36.959" viewBox="0 0 72.665 36.959"><g transform="translate(0 0)"><path d="M2.2,13.6H5.718l2.143,8.168L10.207,13.6h2.75L15.1,21.768,17.4,13.6h3.235L16.8,25.731H13.482l-2.062-7.6L9.2,25.731H5.839Z" transform="translate(-1.31 -8.101)"/><path d="M51.4,0h3.356V7.44a4.223,4.223,0,0,1,3.963-2.224c2.386,0,4.084,1.456,4.084,4.691V17.63H59.447V10.392c0-1.658-.647-2.426-2.143-2.426a2.412,2.412,0,0,0-2.548,2.669v7H51.4S51.4,0,51.4,0Z" transform="translate(-30.615)"/><path d="M84.6,2.32A1.831,1.831,0,0,1,86.5.5a1.807,1.807,0,0,1,1.9,1.82,1.9,1.9,0,0,1-3.8,0ZM84.843,5.8H88.2V17.928H84.843Z" transform="translate(-50.39 -0.298)"/><path d="M98.437,18.261V12.114H96.9V9.728h1.537V7.1h3.356V9.728h2.548v2.386h-2.548v5.863c0,.97.485,1.456,1.334,1.456a3.212,3.212,0,0,0,1.294-.243v2.588a6.063,6.063,0,0,1-2.062.323C99.811,22.1,98.437,20.808,98.437,18.261Z" transform="translate(-57.717 -4.229)"/><path d="M118,19.41v-.2a6.008,6.008,0,0,1,6.227-6.308c3.154,0,5.9,1.82,5.9,6.187v.93H121.4c.081,2.022,1.173,3.195,3.033,3.195,1.537,0,2.3-.687,2.548-1.7h3.195c-.4,2.628-2.467,4.084-5.823,4.084C120.669,25.6,118,23.292,118,19.41Zm8.9-1.456c-.121-1.82-1.051-2.709-2.628-2.709a2.8,2.8,0,0,0-2.79,2.709Z" transform="translate(-70.284 -7.684)"/><path d="M0,58.953H3.154c.121,1.092.647,1.739,2.1,1.739,1.294,0,1.9-.485,1.9-1.334S6.429,58.185,4.691,57.9C1.456,57.417.2,56.487.2,54.1c0-2.548,2.3-3.8,4.812-3.8,2.709,0,4.731.97,5.014,3.761H6.955c-.2-1.011-.728-1.456-1.9-1.456-1.092,0-1.7.526-1.7,1.254,0,.768.566,1.051,2.345,1.334,3.033.445,4.731,1.213,4.731,3.8,0,2.628-1.9,4-5.1,4C2.022,63.038.121,61.582,0,58.953Z" transform="translate(0 -29.96)"/><path d="M38.039,60.873A4.5,4.5,0,0,1,34.157,63.1c-2.952,0-5.257-2.1-5.257-6.146v-.2c0-4,2.3-6.349,5.338-6.349a4.053,4.053,0,0,1,3.842,2.1v-1.82h3.356v16.3H38.079V60.873Zm.081-4.044v-.2c0-2.426-1.051-3.639-2.911-3.639-1.9,0-2.911,1.294-2.911,3.68v.2c0,2.426,1.173,3.6,2.831,3.6C36.907,60.469,38.12,59.3,38.12,56.829Z" transform="translate(-17.214 -30.02)"/><path d="M65.4,58.945V51.1h3.356v7.359c0,1.658.687,2.426,2.1,2.426a2.432,2.432,0,0,0,2.548-2.669V51.1h3.356V63.231H73.407v-1.9a4.063,4.063,0,0,1-3.842,2.143C67.179,63.514,65.4,62.1,65.4,58.945Z" transform="translate(-38.954 -30.437)"/><path d="M97.6,59.458c0-2.831,2.588-3.882,6.308-3.882h1.375v-.485c0-1.456-.445-2.224-1.981-2.224a1.817,1.817,0,0,0-2.062,1.7H98.045c.2-2.871,2.467-4.165,5.459-4.165s5.1,1.213,5.1,4.488v7.926h-3.275V61.358a4.144,4.144,0,0,1-3.68,1.7C99.46,63.1,97.6,62.046,97.6,59.458Zm7.683-.849V57.6h-1.294c-1.941,0-3.073.4-3.073,1.7,0,.89.526,1.456,1.779,1.456C104.151,60.752,105.283,59.943,105.283,58.609Z" transform="translate(-58.134 -30.02)"/><path d="M130.5,50.8h3.356v2.3a4.014,4.014,0,0,1,3.922-2.507v3.154c-2.467-.04-3.922.809-3.922,3.114v6.066H130.5Z" transform="translate(-77.73 -30.139)"/><path d="M149.6,56.91v-.2a6.008,6.008,0,0,1,6.227-6.308c3.154,0,5.9,1.82,5.9,6.187v.93H153c.081,2.022,1.173,3.195,3.033,3.195,1.537,0,2.3-.687,2.548-1.7h3.195c-.4,2.628-2.467,4.084-5.823,4.084C152.269,63.1,149.6,60.792,149.6,56.91Zm8.9-1.456c-.121-1.82-1.051-2.709-2.628-2.709a2.8,2.8,0,0,0-2.79,2.709Z" transform="translate(-89.106 -30.02)"/></g></svg>