<svg xmlns="http://www.w3.org/2000/svg" width="44.763" height="65.896" viewBox="0 0 44.763 65.896"><defs><style>.a,.b{fill:#1b1c20;}.a{fill-rule:evenodd;}</style></defs><g transform="translate(0)"><g transform="translate(0 0)"><path class="a" d="M26.35,32.394v27l14.057,7.642v5.3h7.311V20.93L26.35,32.394ZM49.765,20.93V72.321h7.311v-5.3l14.037-7.642V51.734l-14.33,7.935V32.082l8.481,4.7V51.753l5.849-2.944V32.374L49.765,20.93ZM40.68,59.688a34.913,34.913,0,0,1-4.387-2.047c-1.17-.877-2.924-1.482-4.094-2.359V36.78l4.094-2.359,4.387-2.34Z" transform="translate(-26.35 -20.93)"/><rect class="b" width="44.763" height="4.523" transform="translate(0 61.373)"/></g></g></svg>