<svg xmlns="http://www.w3.org/2000/svg" width="80.409" height="44.407" viewBox="0 0 80.409 44.407"><defs><style>.a{fill:#1b1c20;}</style></defs><g transform="translate(0 0)"><path class="a" d="M18.089,25.471h4.219V39.428H18.089Zm-4.369-.95V51.034h4.369V40.395h4.219V51.034h4.369V24.52H13.72Z" transform="translate(-13.72 -24.52)"/><path class="a" d="M49.019,25.471h4.219V39.428H49.019Zm-4.369-.95V51.034h4.369V40.395h4.219V51.034h4.369V24.52H44.65Z" transform="translate(6.927 -24.52)"/><path class="a" d="M40.727,27.321l-2.468-2.8H33.89V51.034h4.369V25.854l2.468,2.818,2.368-2.685V51.034h4.369V24.52H43.095Z" transform="translate(-0.256 -24.52)"/><path class="a" d="M67.127,24.52H54.17v.934h4.286v25.58h4.369V25.454h4.3Z" transform="translate(13.282 -24.52)"/><path class="a" d="M28.489,25.47h3.2V39.428h-3.2Zm6.57,14.924h1V24.52H24.12V51.034h4.369V40.395h1.051l3.585,10.639h4.369L33.908,40.395h1.151Z" transform="translate(-6.778 -24.52)"/><path class="a" d="M56.335,50.889l1.618-4.069,1.618,4.069Zm2.034-5.069h-.817l-3.5,8.771h.817l1.2-2.985h3.8l1.2,2.985h.817Z" transform="translate(13.202 -10.302)"/><path class="a" d="M20.889,53.531l-3.135-7.7H16.92L20.472,54.6h.817l3.485-8.788H23.94Z" transform="translate(-11.584 -10.308)"/><path class="a" d="M29.962,46.434c1.317,0,2.835.484,2.835,1.868v3.852c0,1.284-1.467,1.868-2.818,1.868s-2.818-.584-2.818-1.868V48.3c0-1.351,1.517-1.851,2.8-1.868m.017-.684c-1.718,0-3.569.8-3.569,2.568V52.17c0,1.7,1.8,2.585,3.569,2.585,1.784,0,3.585-.884,3.585-2.585V48.318c0-1.768-1.851-2.568-3.585-2.568" transform="translate(-5.249 -10.348)"/><path class="a" d="M39.188,53.874h-2.5V46.52h2.5c.884,0,2.368.233,2.368,1.751v3.885c0,1.5-1.484,1.718-2.368,1.718m0-8.054H35.92v8.771h3.268c1.934,0,3.135-.934,3.135-2.435V48.271c-.017-1.534-1.184-2.451-3.135-2.451" transform="translate(1.099 -10.302)"/><path class="a" d="M50.946,45.82l-5.019,4.769V45.82H45.16v8.771h.767v-3l1.117-1.034,3.935,4.035h.967l-4.352-4.536L51.98,45.82Z" transform="translate(7.267 -10.302)"/></g></svg>