<?xml version="1.0" encoding="utf-8"?>
<!-- Generator: Adobe Illustrator 24.2.0, SVG Export Plug-In . SVG Version: 6.00 Build 0)  -->
<svg version="1.1" id="Layer_1" xmlns="http://www.w3.org/2000/svg" xmlns:xlink="http://www.w3.org/1999/xlink" x="0px" y="0px"
	 viewBox="0 0 70 70" style="enable-background:new 0 0 70 70;" xml:space="preserve">
<g>
	<path d="M8.2,25.2c0.9,0,1.7,0,2.6,0c0.5,2,1.1,4,1.6,6c0,0,0.1,0,0.1,0c0.2-0.5,0.3-1,0.5-1.5c0.4-1.3,0.8-2.7,1.1-4
		c0.1-0.3,0.3-0.5,0.6-0.5c0.5,0,1,0,1.6,0c0.5,2,1.1,4,1.6,6c0,0,0.1,0,0.1,0c0.6-2,1.1-4,1.7-6c0.8,0,1.6,0,2.4,0
		c-0.3,1-0.6,2-0.9,3c-0.6,1.9-1.2,3.7-1.8,5.6c-0.1,0.4-0.3,0.6-0.7,0.5c-0.6,0-1.4,0.2-1.9-0.1c-0.4-0.3-0.4-1.1-0.6-1.7
		c-0.3-1.2-0.7-2.4-1-3.6c0,0-0.1-0.1-0.1-0.1c-0.3,1-0.6,2-0.9,2.9c-0.2,0.7-0.5,1.5-0.7,2.2c-0.1,0.3-0.2,0.4-0.6,0.4
		c-0.5,0-1,0-1.5,0c-0.4,0-0.6-0.1-0.7-0.5c-0.7-2.3-1.4-4.6-2.1-6.9C8.5,26.4,8.3,25.8,8.2,25.2z"/>
	<path d="M23.2,37.8c0-0.3,0-0.7,0-1c0.8,0,1.6,0,2.5,0c0,4.1,0,8.1,0,12.2c-0.8,0-1.6,0-2.5,0c0-1.4,0-2.9,0-4.3
		c-0.1,0-0.1,0-0.2,0c-1,1.2-2.3,1.6-3.8,1.3c-1.5-0.3-2.4-1.4-2.8-2.8c-0.4-1.5-0.4-3,0.3-4.4c0.8-1.8,2.9-2.7,4.8-2
		C22.2,36.9,22.7,37.4,23.2,37.8z M18.9,41.1c0,0.4,0,0.7,0.1,1c0,0.2,0.1,0.5,0.2,0.7c0.3,0.8,1,1.3,1.9,1.3c0.9,0,1.6-0.4,2-1.2
		c0.4-0.9,0.4-1.9,0.2-2.9c-0.3-1-1-1.6-2-1.6c-1,0-1.8,0.5-2.1,1.6C18.9,40.4,18.9,40.8,18.9,41.1z"/>
	<path d="M31.8,34.3c-0.9,0-1.7,0-2.5,0c0-1.2,0-2.3,0-3.4c0-0.7,0-1.4,0-2.1c0-1.2-0.5-1.7-1.5-1.8c-1.2,0-2,0.6-2,1.7
		c-0.1,1.3,0,2.5,0,3.8c0,0.6,0,1.2,0,1.8c-0.9,0-1.7,0-2.5,0c0-4.4,0-8.8,0-13.3c0.8,0,1.6,0,2.5,0c0,1.8,0,3.5,0,5.4
		c0.2-0.1,0.2-0.2,0.3-0.2c1-1.2,2.6-1.6,4-1.1c1.3,0.5,1.8,1.6,1.8,2.9C31.9,30.1,31.8,32.2,31.8,34.3z"/>
	<path d="M55.9,41.8c0.1,1.9,1.3,2.8,3,2.4c0.5-0.1,0.9-0.4,1.1-0.9c0.1-0.1,0.3-0.3,0.4-0.3c0.7,0,1.3,0,2,0c-0.1,0.8-0.4,1.5-1,2
		c-1.6,1.5-5.9,1.7-7.5-1c-1.2-1.9-0.8-4.8,0.8-6.3c1.6-1.5,4.3-1.6,6-0.4c1.1,0.8,1.5,1.8,1.7,3.1c0.1,0.4,0,0.9,0,1.4
		C60.3,41.8,58.1,41.8,55.9,41.8z M60,40.2c0-1.3-0.7-2-1.9-2c-1.2,0-2.1,0.9-2,2C57.3,40.2,58.6,40.2,60,40.2z"/>
	<path d="M52.8,30.3c-2.2,0-4.4,0-6.6,0c0.1,0.9,0.3,1.7,1.1,2.1c0.8,0.5,1.6,0.4,2.5,0c0.2-0.1,0.3-0.2,0.4-0.3
		c0.2-0.7,0.8-0.6,1.3-0.6c0.4,0,0.8,0,1.3,0c0,0.9-0.4,1.5-1,2c-2.1,2-6.4,1.1-7.6-1.5c-0.8-1.8-0.5-4.3,0.8-5.6
		c1.3-1.4,3.5-1.8,5.4-1.1c1.7,0.7,2.4,2.1,2.5,3.8C52.8,29.5,52.8,29.9,52.8,30.3z M50.3,28.8c0.1-1.3-0.7-2-1.9-2.1
		c-1.2,0-2.1,0.9-2.1,2.1C47.6,28.8,49,28.8,50.3,28.8z"/>
	<path d="M43.3,45.8c0-0.3,0-0.6,0-0.9c-0.1,0-0.2,0.1-0.2,0.1c-1.1,1.1-2.4,1.3-3.9,0.8c-1.1-0.3-1.6-1.1-1.7-2.2
		c-0.1-1.1,0.2-2,1.3-2.6c1-0.5,2.1-0.7,3.1-0.7c0.4,0,0.8,0,1.3,0c0.3-1,0-1.8-0.7-2c-0.8-0.3-1.9-0.1-2.2,0.9
		c0,0.1-0.2,0.3-0.3,0.3c-0.7,0-1.3,0-2.1,0c0.1-1.2,0.6-2,1.5-2.5c1.5-0.8,3.1-0.8,4.7-0.2c0.9,0.4,1.5,1.1,1.5,2
		c0.1,2.3,0,4.6,0,6.9C44.9,45.8,44.1,45.8,43.3,45.8z M43.1,41.8c-0.9,0.1-1.8,0.2-2.6,0.4c-0.6,0.1-0.7,0.7-0.7,1.2
		c0.1,0.5,0.4,0.8,0.9,0.9C42.4,44.5,43.3,43.6,43.1,41.8z"/>
	<path d="M33.6,36.7c0.8,0,1.5,0,2.1,0c0.1,0,0.3,0.3,0.3,0.4c0,0.8,0,1.6,0,2.4c0,1.8,0,3.7,0,5.5c0,0.2,0,0.5,0,0.7
		c-0.8,0-1.6,0-2.5,0c0-0.4,0-0.8,0-1.1c-0.1,0-0.1-0.1-0.2-0.1c0,0.1,0,0.2-0.1,0.3c-1,1.3-2.9,1.5-4.1,1c-1.1-0.5-1.6-1.5-1.7-2.7
		c-0.1-2.1,0-4.2,0-6.2c0-0.1,0-0.1,0.1-0.2c0.7,0,1.4,0,2.1,0c0.1,0,0.3,0.3,0.3,0.5c0,1.6,0,3.1,0,4.7c0,0.2,0,0.4,0,0.6
		c0.1,1.1,0.5,1.6,1.4,1.7c1,0.1,1.9-0.4,2.1-1.4c0.1-0.3,0.1-0.7,0.1-1C33.6,40.1,33.6,38.4,33.6,36.7z"/>
	<path d="M15,39.3c-0.8,0-1.5,0-2.2,0c-0.4-1-1.1-1.3-2-1c-0.4,0.1-0.7,0.4-0.8,0.8c0,0.5,0.3,0.7,0.7,0.8c0.8,0.2,1.6,0.3,2.3,0.5
		c1.8,0.4,2.5,1.4,2.3,3.1c-0.1,1.2-0.9,1.9-1.9,2.2c-1.3,0.4-2.6,0.4-3.9-0.1c-1.2-0.4-1.9-1.4-1.9-2.7c0.7,0,1.4,0,2.1,0
		c0.1,0,0.3,0.2,0.3,0.3c0.4,1,2,1.3,2.8,0.6c0.5-0.4,0.3-1.2-0.3-1.4c-0.5-0.2-1.1-0.3-1.7-0.4c-0.5-0.1-1-0.3-1.5-0.4
		c-1.9-0.6-1.8-3.4-0.6-4.3c1.3-1.1,4.1-1.2,5.4-0.1C14.6,37.7,15,38.4,15,39.3z"/>
	<path d="M37.2,25.2c0.4,0,0.7,0,1.1,0c0-0.7,0-1.3,0-1.9c0.9,0,1.7,0,2.5,0c0,0.6,0,1.2,0,1.9c0.7,0,1.3,0,1.9,0c0,0.6,0,1.1,0,1.8
		c-0.4,0-0.9,0-1.3,0c-0.4,0-0.6,0.1-0.6,0.6c0,1.2,0,2.5,0,3.7c0,1,0.4,1.4,1.4,1.2c0.2,0,0.3,0,0.6-0.1c0,0.6,0,1.1,0,1.7
		c0,0.1-0.2,0.3-0.4,0.3c-0.8,0-1.6,0.1-2.4,0c-1-0.2-1.6-1-1.7-2.1c-0.1-1.5-0.1-3-0.1-4.5c0-0.2,0-0.5,0-0.8c-0.4,0-0.7,0-1.1-0.1
		C37.2,26.4,37.2,25.8,37.2,25.2z"/>
	<path d="M49.9,36.7c0,0.5,0,1,0,1.5c0.7-1,1.6-1.6,2.9-1.6c0,0.8,0,1.5,0,2.3c-0.4,0.1-0.9,0.1-1.3,0.2c-1,0.2-1.5,0.8-1.6,1.8
		c-0.1,1.4,0,2.8,0,4.1c0,0.2,0,0.5,0,0.8c-0.8,0-1.6,0-2.5,0c0-3,0-6,0-9.1C48.3,36.7,49.1,36.7,49.9,36.7z"/>
	<path d="M36,34.3c-0.8,0-1.6,0-2.4,0c0-3,0-6,0-9.1c0.8,0,1.6,0,2.4,0C36,28.3,36,31.3,36,34.3z"/>
	<path d="M34.8,23.9c-0.8,0-1.4-0.6-1.4-1.4c0-0.8,0.7-1.4,1.5-1.4c0.8,0,1.4,0.6,1.4,1.4C36.2,23.3,35.6,23.9,34.8,23.9z"/>
</g>
</svg>
