<?xml version="1.0" encoding="utf-8"?>
<!-- Generator: Adobe Illustrator 23.0.1, SVG Export Plug-In . SVG Version: 6.00 Build 0)  -->
<svg version="1.1" id="Layer_1" xmlns="http://www.w3.org/2000/svg" xmlns:xlink="http://www.w3.org/1999/xlink" x="0px" y="0px"
	 viewBox="0 0 70 70" style="enable-background:new 0 0 70 70;" xml:space="preserve">
<g>
	<g>
		<path d="M26.48,25.56l-3.66-3.66l1.9-1.9c0.36-0.36,0.75-0.57,1.16-0.62s0.79,0.1,1.13,0.44c0.42,0.42,0.53,0.91,0.33,1.46
			c0.33-0.16,0.64-0.16,0.93,0.01c0.2,0.11,0.49,0.33,0.89,0.66c0.01,0.01,0.04,0.03,0.07,0.06c0.04,0.03,0.07,0.05,0.08,0.07
			c0.02,0.01,0.04,0.03,0.07,0.06c0.03,0.03,0.06,0.04,0.08,0.05c0.02,0.01,0.05,0.02,0.08,0.04c0.03,0.02,0.06,0.03,0.09,0.04
			c0.03,0.01,0.06,0.01,0.1,0.02l-0.97,0.97c-0.09-0.04-0.19-0.09-0.28-0.16c-0.1-0.07-0.21-0.16-0.34-0.27
			c-0.13-0.11-0.21-0.19-0.25-0.22c-0.24-0.19-0.46-0.29-0.64-0.28c-0.18,0.01-0.39,0.12-0.61,0.34l-0.59,0.59l1.36,1.36
			L26.48,25.56z M25.39,22.57l0.67-0.67c0.18-0.18,0.29-0.35,0.33-0.52c0.04-0.16-0.03-0.33-0.21-0.51
			c-0.28-0.28-0.62-0.23-1.01,0.16l-0.66,0.66L25.39,22.57z"/>
		<path d="M29.36,15.36l0.77,0.77l-1.98,1.98l0.63,0.63l1.81-1.81l0.74,0.74l-1.81,1.81l0.71,0.71l2.02-2.02l0.8,0.8l-2.97,2.97
			l-3.66-3.66L29.36,15.36z"/>
		<path d="M33.41,18.62l-3.66-3.66l1.57-1.57c0.56-0.56,1.16-0.85,1.8-0.85c0.63,0,1.24,0.29,1.81,0.86
			c0.61,0.61,0.92,1.23,0.92,1.85c0,0.62-0.31,1.24-0.92,1.85L33.41,18.62z M33.56,16.88l0.52-0.52c0.62-0.62,0.59-1.27-0.1-1.96
			c-0.33-0.33-0.67-0.5-1.02-0.52c-0.35-0.01-0.69,0.14-1.01,0.47l-0.46,0.46L33.56,16.88z"/>
		<path d="M29.43,24.57l5.03,2.29l-0.99,0.99l-0.9-0.43l-1.26,1.26l0.43,0.91l-0.98,0.98l-2.29-5.03L29.43,24.57z M31.67,26.95
			l-1.69-0.87l0.86,1.7L31.67,26.95z"/>
		<path d="M34.64,26.68l-3.66-3.66l1.61-1.61c0.45-0.45,0.9-0.7,1.35-0.77c0.45-0.06,0.89,0.12,1.32,0.55
			c0.4,0.4,0.58,0.81,0.55,1.25s-0.24,0.85-0.64,1.24l-0.81,0.81l1.22,1.22L34.64,26.68z M33.64,23.77l0.54-0.54
			c0.1-0.1,0.18-0.18,0.23-0.25c0.05-0.07,0.1-0.15,0.14-0.25c0.04-0.09,0.04-0.19,0.01-0.28c-0.03-0.1-0.1-0.2-0.2-0.3
			c-0.17-0.17-0.33-0.24-0.5-0.21c-0.17,0.03-0.34,0.13-0.52,0.31l-0.62,0.62L33.64,23.77z"/>
		<path d="M38.06,23.27l-3.66-3.66l1.61-1.61c0.45-0.45,0.9-0.7,1.35-0.76c0.45-0.06,0.89,0.12,1.32,0.55
			c0.4,0.4,0.58,0.81,0.55,1.25c-0.03,0.43-0.24,0.85-0.64,1.24l-0.81,0.81l1.22,1.22L38.06,23.27z M37.05,20.35l0.54-0.54
			c0.1-0.1,0.18-0.18,0.23-0.25c0.05-0.07,0.1-0.15,0.14-0.25c0.04-0.09,0.04-0.19,0.01-0.29c-0.03-0.1-0.1-0.2-0.2-0.3
			c-0.17-0.17-0.33-0.24-0.5-0.21c-0.17,0.03-0.34,0.13-0.52,0.31l-0.62,0.62L37.05,20.35z"/>
		<path d="M43.22,16.46l0.82,0.82l-2.57,2.58l-3.66-3.66l0.96-0.96l2.83,2.83L43.22,16.46z"/>
		<path d="M43.67,10.34l0.77,0.77l-1.98,1.98l0.63,0.63l1.81-1.81l0.74,0.74l-1.81,1.81l0.71,0.71l2.02-2.02l0.8,0.8l-2.97,2.97
			l-3.66-3.66L43.67,10.34z"/>
	</g>
	<circle cx="35" cy="45.66" r="14"/>
</g>
</svg>
