<?xml version="1.0" encoding="utf-8"?>
<!-- Generator: Adobe Illustrator 23.0.1, SVG Export Plug-In . SVG Version: 6.00 Build 0)  -->
<svg version="1.1" id="Layer_1" xmlns="http://www.w3.org/2000/svg" xmlns:xlink="http://www.w3.org/1999/xlink" x="0px" y="0px"
	 viewBox="0 0 70 70" style="enable-background:new 0 0 70 70;" xml:space="preserve">
<g>
	<path d="M11.18,45.87c-0.41-0.71-0.81-1.43-1.22-2.14c-1.17-2.03-2.34-4.05-3.51-6.08c-0.1-0.17-0.14-0.34-0.14-0.54
		c-0.01-0.29-0.06-0.58-0.14-0.86c-0.09-0.31-0.25-0.38-0.57-0.3c-0.03,0.01-0.05,0.01-0.08,0.01c-0.01-0.01-0.02-0.03-0.04-0.04
		c0.08-0.09,0.16-0.17,0.23-0.27c0.05-0.06,0.11-0.13,0.12-0.2c0.07-0.45-0.25-0.96-0.69-1.1c-0.21-0.07-0.42-0.06-0.6,0.1
		c-0.11,0.11-0.16,0.24-0.12,0.39c0.04,0.16,0.17,0.19,0.31,0.2c0.07,0.01,0.13,0.02,0.21,0.03c-0.28,0.26-0.46,0.27-0.65,0.05
		c-0.18-0.2-0.16-0.57,0.04-0.75c0.04-0.04,0.09-0.07,0.15-0.11c-0.01-0.03-0.02-0.07-0.04-0.1c-1.13-1.96-2.26-3.92-3.39-5.88
		C1.04,28.28,1.02,28.26,1,28.23c0-0.02,0-0.05,0-0.07c0.12-0.2,0.25-0.39,0.35-0.59c0.07-0.14,0.16-0.19,0.32-0.19
		c1.2,0.01,2.39-0.01,3.59,0.01c0.33,0.01,0.51-0.12,0.67-0.37c0.02-0.04,0.04-0.08,0.07-0.12c0.03-0.03,0.06-0.07,0.1-0.09
		c0.25-0.11,0.35-0.31,0.29-0.58c-0.02-0.08-0.03-0.16-0.05-0.24c-0.04-0.14,0.04-0.23,0.15-0.21c0.31,0.06,0.35-0.14,0.38-0.36
		c0-0.03,0.02-0.05,0.03-0.09c0.14,0.1,0.26,0.19,0.4,0.3c0.06-0.32,0.26-0.48,0.54-0.54c0.33-0.08,0.61-0.25,0.88-0.46
		c0.25-0.2,0.54-0.31,0.86-0.33c0.32-0.01,0.64,0,0.98,0c0.01-0.03,0.04-0.1,0.07-0.18c0.2,0.25,0.39,0.49,0.6,0.75
		c0.05-0.05,0.11-0.09,0.14-0.13c0.19-0.3,0.47-0.46,0.81-0.53c0.2-0.04,0.41-0.07,0.61-0.1c0.23,0,0.46,0,0.69,0
		c0.48,0.18,0.99,0.28,1.49,0.39c0.37,0.08,0.7,0.25,0.94,0.57c0.02,0.03,0.05,0.05,0.06,0.08c0.08,0.27,0.3,0.36,0.54,0.42
		c0.07,0.02,0.13,0.05,0.2,0.05c0.3,0.03,0.48,0.2,0.61,0.46c0.03,0.06,0.09,0.1,0.14,0.15c0.13,0.15,0.27,0.29,0.4,0.44
		c0.12,0.14,0.11,0.28-0.02,0.41c-0.06,0.07-0.13,0.12-0.25,0.22c0.13,0.02,0.22,0.05,0.3,0.05c1.28,0,2.55,0,3.83,0
		c0.13,0,0.21,0.03,0.27,0.15c0.09,0.18,0.2,0.36,0.31,0.54c0.06,0.09,0.05,0.16,0,0.25c-0.93,1.61-1.86,3.21-2.79,4.82
		c-0.11,0.19-0.14,0.4-0.13,0.61c0.02,0.41-0.1,0.59-0.51,0.66c-0.13,0.02-0.27,0.03-0.41,0.03c-0.41,0.01-0.65,0.31-0.58,0.71
		c0.03,0.2,0.03,0.41,0.02,0.61c-0.01,0.21,0.02,0.41,0.13,0.59c0.05,0.07,0.08,0.2,0.05,0.26c-0.04,0.08-0.16,0.11-0.24,0.16
		c-0.01-0.02-0.02-0.03-0.03-0.05c0.08-0.06,0.15-0.12,0.26-0.21c-0.15-0.08-0.28-0.16-0.42-0.21c-0.15-0.05-0.25,0.05-0.33,0.17
		c-0.24,0.35-0.36,0.74-0.42,1.16c-0.03,0.22-0.04,0.45-0.07,0.67c-0.03,0.23-0.11,0.33-0.34,0.37c-0.14,0.03-0.23,0.09-0.3,0.22
		c-1.31,2.29-2.64,4.57-3.95,6.85c-0.02,0.04-0.05,0.08-0.07,0.12C11.83,45.87,11.51,45.87,11.18,45.87z M17.15,32.96
		c0.25,0.18,0.5,0.35,0.75,0.52C17.74,33.11,17.5,32.94,17.15,32.96c-0.02-0.02-0.03-0.06-0.05-0.07c-0.21-0.09-0.43-0.17-0.66-0.26
		c0.02,0.15,0.04,0.31,0.06,0.49C16.71,32.91,16.93,32.94,17.15,32.96z M15.62,34.44c0.05-0.11,0.09-0.22,0.16-0.31
		c0.11-0.13,0.24-0.25,0.36-0.37c0.03-0.04,0.07-0.08,0.08-0.13c0.03-0.17,0.14-0.35-0.04-0.52c-0.03-0.02-0.02-0.09-0.02-0.13
		c0.01-0.15,0.04-0.3,0.03-0.45c-0.03-0.55-0.08-1.1-0.12-1.65c-0.02-0.27-0.06-0.54-0.23-0.76c-0.2-0.26-0.31-0.56-0.34-0.89
		c-0.02-0.22-0.09-0.43-0.31-0.53c-0.18-0.08-0.29-0.22-0.37-0.39c-0.13-0.26-0.35-0.41-0.61-0.52c-0.16-0.06-0.31-0.14-0.46-0.22
		c-0.01-0.01-0.02-0.02-0.04-0.05c0.06,0.01,0.1,0.01,0.19,0.02c-0.13-0.09-0.24-0.16-0.37-0.24c0.03,0.07,0.05,0.1,0.09,0.18
		c-0.12-0.08-0.2-0.13-0.27-0.2c-0.09-0.08-0.17-0.09-0.29-0.03c-0.18,0.1-0.36,0.08-0.53-0.04c-0.17-0.12-0.34-0.25-0.52-0.37
		c-0.1-0.06-0.21-0.1-0.33-0.16c-0.02,0.14-0.02,0.25-0.04,0.36c-0.04,0.25-0.15,0.43-0.4,0.54c-0.26,0.12-0.5,0.27-0.75,0.42
		c-0.14,0.08-0.27,0.19-0.42,0.24c-0.38,0.13-0.6,0.38-0.72,0.75c-0.09,0.3-0.26,0.54-0.52,0.73c-0.69,0.53-1.06,1.26-1.26,2.08
		c0.12,0.04,0.26,0.04,0.32,0.11c0.15,0.21,0.26,0.44,0.25,0.72c-0.01,0.23-0.03,0.47,0.02,0.69c0.1,0.43,0.06,0.84-0.03,1.26
		c-0.06-0.01-0.12-0.03-0.2-0.05c0.06,0.23,0.1,0.43,0.15,0.62c0.02,0,0.04,0,0.06,0c0-0.16,0-0.33,0-0.49
		c0.06,0.03,0.08,0.06,0.09,0.1c0.12,0.48,0.26,0.96,0.36,1.45c0.1,0.5,0.36,0.88,0.82,1.1c0.17,0.08,0.34,0.14,0.52,0.19
		c1.07,0.3,2.17,0.4,3.27,0.45c0.83,0.04,1.42-0.31,1.82-1.04c0.15-0.27,0.21-0.56,0.13-0.86c-0.18-0.64,0.05-1.16,0.47-1.62
		c-0.09,0.24-0.18,0.47-0.26,0.71c-0.15,0.44-0.17,0.88,0.04,1.31c0.15,0.29,0.32,0.57,0.49,0.85c0.02,0.04,0.07,0.05,0.11,0.08
		c0.01-0.01,0.02-0.02,0.03-0.03c-0.02-0.06-0.05-0.12-0.07-0.19c-0.12-0.3-0.25-0.59-0.36-0.89c-0.21-0.61-0.2-1.22,0.14-1.79
		c0.01-0.02,0.01-0.04,0.02-0.07C15.69,34.42,15.65,34.43,15.62,34.44z M9.29,37.46c0,0.2,0.01,0.37,0,0.55
		c-0.02,0.45,0.12,0.82,0.44,1.15c0.52,0.55,0.91,1.2,1.02,1.96c0.09,0.58,0.09,1.18,0.12,1.77c0.02,0.4,0.03,0.79,0.28,1.15
		c0.19,0.27,0.34,0.58,0.54,0.91c0.13-0.33,0.36-0.55,0.42-0.89c0.11-0.69,0.24-1.38,0.4-2.06c0.11-0.46,0.26-0.92,0.41-1.37
		c0.05-0.16,0.13-0.33,0.24-0.45c0.24-0.24,0.26-0.52,0.24-0.83c-0.01-0.16,0.01-0.33,0.04-0.49c0.03-0.14,0.15-0.17,0.28-0.19
		c0.12-0.02,0.18,0.06,0.22,0.16c0.06,0.14,0.12,0.29,0.18,0.43c0.01,0,0.02,0,0.03,0c0.07-0.42,0.14-0.84,0.22-1.29
		C12.59,38.39,10.95,37.98,9.29,37.46z M10.77,43.36c0.01,0,0.03,0,0.04-0.01c-0.01-0.07-0.01-0.14-0.02-0.22
		c-0.04-0.44-0.09-0.88-0.1-1.32c-0.03-0.84-0.28-1.59-0.78-2.26c-0.35-0.46-0.72-0.91-1.09-1.36c-0.46-0.56-0.86-1.15-1.03-1.87
		c-0.03-0.13-0.08-0.27-0.15-0.39c-0.1-0.18-0.11-0.36-0.05-0.55c0.15-0.51,0.32-1.01,0.46-1.52c0.04-0.14,0.02-0.3,0.03-0.45
		c-0.02,0-0.04,0-0.06-0.01c-0.36,0.41-0.66,0.85-0.89,1.34c-0.21,0.43-0.24,0.88-0.14,1.34c0.06,0.25,0.09,0.51,0.13,0.76
		c0.02,0.1,0.03,0.22,0.09,0.31c0.64,1.13,1.3,2.25,1.95,3.38C9.69,41.49,10.23,42.42,10.77,43.36z M5.19,33.7
		c0.11-0.45,0.02-0.82-0.22-1.15c-0.5-0.68-0.53-1.39-0.18-2.14c0.05-0.11,0.08-0.23,0.13-0.39c-0.13,0.1-0.22,0.17-0.32,0.25
		c-0.01-0.22,0.04-0.29,0.23-0.32c0.05-0.01,0.12-0.01,0.14-0.05c0.08-0.14,0.17-0.28,0.21-0.43c0.08-0.3,0.12-0.61,0.18-0.91
		c0.03-0.18-0.04-0.27-0.23-0.27c-0.96,0-1.92,0-2.88,0c-0.05,0-0.1,0.01-0.17,0.02C3.11,30.1,4.14,31.88,5.19,33.7z M18.59,28.28
		c0.06,0.22,0.1,0.42-0.06,0.59c-0.09,0.09-0.1,0.18-0.04,0.28c0.22,0.33,0.42,0.66,0.67,0.97c0.16,0.2,0.3,0.39,0.34,0.64
		c0.03,0.16,0.03,0.32,0.05,0.52c0.58-1.01,1.15-1.99,1.73-3C20.37,28.28,19.49,28.28,18.59,28.28z M11.29,44.61
		c-0.1,0.06-0.19,0.11-0.27,0.16c-0.05-0.07-0.09-0.12-0.13-0.17c-0.02,0.01-0.04,0.03-0.06,0.04c0.08,0.15,0.17,0.29,0.25,0.44
		c0.02-0.01,0.04-0.02,0.06-0.03c-0.02-0.06-0.04-0.13-0.07-0.2c0.09-0.05,0.17-0.1,0.27-0.15c0.1,0.18,0.19,0.34,0.29,0.5
		c-0.12,0.07-0.23,0.14-0.34,0.21c0.03,0.14,0.1,0.21,0.24,0.19c0.1-0.01,0.2-0.01,0.29,0c0.14,0.02,0.22-0.04,0.24-0.19
		c-0.11-0.07-0.22-0.13-0.34-0.21c0.17-0.3,0.34-0.59,0.51-0.88c0.1,0.06,0.18,0.11,0.26,0.15c-0.02,0.09-0.04,0.15-0.06,0.21
		c0.02,0.01,0.04,0.01,0.06,0.02c0.08-0.14,0.17-0.29,0.25-0.43c-0.01-0.01-0.03-0.02-0.04-0.04c-0.05,0.05-0.1,0.1-0.16,0.16
		c-0.08-0.05-0.17-0.1-0.26-0.15c0.13-0.22,0.25-0.43,0.37-0.64c0.1,0.06,0.18,0.1,0.26,0.15c-0.02,0.08-0.04,0.15-0.06,0.21
		c0.02,0.01,0.04,0.01,0.06,0.02c0.08-0.15,0.17-0.29,0.25-0.44c-0.02-0.01-0.04-0.03-0.05-0.04c-0.05,0.05-0.09,0.11-0.14,0.16
		c-0.09-0.05-0.17-0.1-0.26-0.15c0.13-0.22,0.24-0.42,0.37-0.64c0.1,0.06,0.18,0.11,0.26,0.16c-0.02,0.09-0.04,0.15-0.05,0.21
		c0.02,0.01,0.04,0.01,0.06,0.02c0.08-0.15,0.16-0.29,0.25-0.44c-0.02-0.01-0.04-0.02-0.06-0.04c-0.04,0.05-0.09,0.11-0.13,0.16
		c-0.09-0.05-0.17-0.1-0.27-0.16c0.12-0.21,0.24-0.42,0.37-0.64c0.1,0.06,0.18,0.1,0.26,0.15c-0.02,0.08-0.04,0.15-0.06,0.21
		c0.19-0.15,0.29-0.37,0.24-0.45c-0.04,0.05-0.08,0.11-0.12,0.16c-0.09-0.05-0.18-0.1-0.27-0.16c0.12-0.22,0.24-0.42,0.37-0.64
		c0.1,0.06,0.18,0.1,0.26,0.15c-0.02,0.08-0.04,0.15-0.05,0.21c0.02,0.01,0.04,0.01,0.06,0.02c0.08-0.15,0.16-0.29,0.24-0.44
		c-0.02-0.01-0.04-0.02-0.05-0.04c-0.04,0.05-0.09,0.1-0.14,0.16c-0.09-0.05-0.17-0.11-0.26-0.16c0.13-0.22,0.24-0.42,0.37-0.63
		c0.1,0.06,0.19,0.11,0.26,0.15c-0.03,0.08-0.04,0.14-0.06,0.2c0.02,0.01,0.04,0.02,0.06,0.02c0.08-0.15,0.16-0.29,0.24-0.44
		c-0.02-0.01-0.04-0.02-0.05-0.04c-0.04,0.05-0.09,0.11-0.13,0.16c-0.09-0.05-0.17-0.1-0.27-0.16c0.12-0.22,0.24-0.42,0.37-0.64
		c0.1,0.06,0.19,0.11,0.26,0.15c-0.02,0.09-0.04,0.15-0.05,0.21c0.02,0.01,0.04,0.01,0.05,0.02c0.08-0.15,0.16-0.29,0.25-0.44
		c-0.02-0.01-0.03-0.02-0.05-0.04c-0.04,0.05-0.09,0.1-0.14,0.16c-0.08-0.05-0.17-0.1-0.26-0.16c0.13-0.22,0.25-0.43,0.37-0.64
		c0.1,0.06,0.19,0.11,0.26,0.16c-0.03,0.08-0.05,0.14-0.07,0.2c0.02,0.01,0.04,0.02,0.06,0.03c0.08-0.15,0.17-0.29,0.25-0.44
		c-0.02-0.02-0.05-0.04-0.07-0.06c-0.04,0.06-0.07,0.13-0.11,0.19c-0.1-0.06-0.19-0.11-0.26-0.15c0.04-0.2,0.24-0.32,0.2-0.54
		c-0.05,0.04-0.08,0.1-0.11,0.15c-1.16,2-2.31,4.01-3.48,6.01c-0.04,0.07-0.11,0.11-0.17,0.17c-0.06-0.06-0.13-0.11-0.16-0.17
		c-0.27-0.46-0.54-0.92-0.8-1.39c-1.39-2.41-2.78-4.82-4.17-7.22c-0.03-0.05-0.06-0.09-0.09-0.14c-0.02,0.01-0.03,0.02-0.05,0.03
		c0.1,0.19,0.19,0.39,0.29,0.58c-0.06,0.05-0.12,0.11-0.19,0.16c0.01,0.01,0.02,0.02,0.02,0.03c0.07-0.03,0.14-0.07,0.22-0.11
		c0.12,0.21,0.24,0.42,0.37,0.63c-0.1,0.06-0.18,0.1-0.29,0.17c-0.03-0.07-0.06-0.14-0.09-0.2c-0.03,0.02-0.05,0.05-0.08,0.07
		c0.09,0.14,0.17,0.29,0.26,0.43c0.02-0.01,0.04-0.02,0.06-0.03c-0.02-0.06-0.05-0.13-0.07-0.2c0.09-0.05,0.17-0.1,0.26-0.15
		c0.13,0.22,0.25,0.43,0.37,0.64c-0.09,0.05-0.18,0.11-0.26,0.15c-0.06-0.06-0.11-0.11-0.16-0.16c-0.01,0.01-0.03,0.03-0.04,0.04
		c0.08,0.15,0.17,0.29,0.25,0.44c0.02-0.01,0.04-0.02,0.06-0.03c-0.02-0.06-0.04-0.13-0.07-0.2c0.08-0.05,0.17-0.09,0.26-0.15
		c0.13,0.22,0.25,0.42,0.37,0.64c-0.1,0.06-0.18,0.11-0.26,0.15c-0.06-0.06-0.11-0.11-0.16-0.16c-0.01,0.01-0.03,0.03-0.04,0.04
		c0.08,0.14,0.17,0.29,0.25,0.43c0.02-0.01,0.04-0.02,0.06-0.03c-0.02-0.06-0.05-0.13-0.07-0.2c0.09-0.05,0.17-0.1,0.27-0.15
		c0.12,0.21,0.24,0.42,0.37,0.64c-0.1,0.06-0.18,0.11-0.26,0.15c-0.06-0.06-0.11-0.11-0.16-0.16c-0.01,0.01-0.03,0.03-0.04,0.04
		c0.08,0.14,0.17,0.29,0.25,0.43c0.02-0.01,0.04-0.02,0.06-0.03c-0.02-0.06-0.05-0.13-0.07-0.2c0.09-0.05,0.17-0.1,0.27-0.15
		c0.12,0.21,0.24,0.42,0.37,0.64c-0.09,0.06-0.18,0.11-0.26,0.15c-0.06-0.06-0.11-0.11-0.16-0.16c-0.01,0.01-0.03,0.03-0.04,0.04
		c0.08,0.15,0.17,0.29,0.25,0.44c0.02-0.01,0.04-0.02,0.06-0.03c-0.02-0.06-0.04-0.12-0.07-0.2c0.08-0.05,0.17-0.1,0.27-0.15
		c0.13,0.22,0.24,0.43,0.37,0.64c-0.1,0.06-0.18,0.11-0.26,0.15c-0.06-0.06-0.11-0.11-0.15-0.16C8.77,41,8.75,41.02,8.74,41.03
		c0.08,0.14,0.17,0.29,0.25,0.43c0.02-0.01,0.04-0.02,0.06-0.02C9.03,41.37,9,41.3,8.98,41.23c0.08-0.05,0.17-0.1,0.26-0.15
		c0.12,0.21,0.24,0.42,0.37,0.64c-0.1,0.06-0.18,0.11-0.26,0.16c-0.06-0.06-0.1-0.11-0.15-0.16c-0.02,0.01-0.03,0.03-0.05,0.04
		c0.08,0.14,0.17,0.29,0.25,0.43c0.02-0.01,0.04-0.01,0.06-0.02c-0.02-0.07-0.04-0.14-0.06-0.21c0.08-0.05,0.16-0.09,0.26-0.15
		c0.13,0.22,0.24,0.42,0.37,0.64c-0.1,0.06-0.18,0.11-0.26,0.16c-0.05-0.06-0.09-0.11-0.16-0.19c0,0.22,0.18,0.48,0.28,0.44
		c-0.03-0.06-0.05-0.11-0.08-0.17c0.09-0.05,0.18-0.1,0.27-0.15c0.13,0.22,0.24,0.42,0.37,0.64c-0.1,0.06-0.18,0.11-0.27,0.16
		c-0.05-0.06-0.09-0.12-0.13-0.17c-0.02,0.01-0.04,0.02-0.06,0.03c0.08,0.15,0.16,0.3,0.24,0.44c0.02-0.01,0.04-0.01,0.06-0.02
		c-0.02-0.07-0.04-0.14-0.06-0.21c0.08-0.05,0.17-0.09,0.26-0.15c0.13,0.22,0.24,0.42,0.37,0.64c-0.1,0.06-0.18,0.11-0.27,0.16
		c-0.05-0.06-0.09-0.11-0.13-0.17c-0.05,0.13,0.13,0.44,0.26,0.44c-0.03-0.06-0.05-0.12-0.08-0.19c0.09-0.05,0.17-0.1,0.27-0.15
		C11.04,44.19,11.16,44.39,11.29,44.61z M12.03,44.9c0.01,0.02,0.02,0.03,0.03,0.05c0.05-0.05,0.11-0.1,0.16-0.15
		c0.08,0.05,0.16,0.1,0.24,0.14c-0.33,0.75-0.37,0.78-1.04,0.76c-0.01,0-0.03,0-0.03,0c-0.05-0.03-0.11-0.04-0.13-0.08
		c-0.2-0.33-0.39-0.67-0.6-1.02c0.09-0.05,0.18-0.1,0.26-0.15c0.06,0.06,0.1,0.11,0.14,0.16c0.02-0.01,0.03-0.03,0.05-0.04
		c-0.09-0.14-0.17-0.29-0.26-0.43c-0.02,0.01-0.04,0.02-0.06,0.03c0.02,0.06,0.05,0.13,0.08,0.2c-0.09,0.05-0.17,0.1-0.27,0.15
		c-0.13-0.22-0.25-0.42-0.37-0.64c0.1-0.06,0.18-0.1,0.26-0.15c0.06,0.06,0.11,0.11,0.16,0.15c0.01-0.01,0.03-0.03,0.04-0.04
		c-0.08-0.14-0.17-0.29-0.25-0.43c-0.02,0.01-0.04,0.02-0.06,0.03c0.02,0.06,0.04,0.13,0.07,0.2c-0.09,0.05-0.17,0.1-0.27,0.15
		c-0.13-0.22-0.24-0.42-0.37-0.64c0.1-0.06,0.18-0.1,0.26-0.15c0.06,0.06,0.11,0.11,0.16,0.15c0.01-0.01,0.03-0.03,0.04-0.04
		c-0.09-0.14-0.17-0.28-0.26-0.43c-0.02,0.01-0.04,0.02-0.06,0.03c0.02,0.06,0.05,0.13,0.07,0.2c-0.09,0.05-0.17,0.1-0.27,0.15
		c-0.13-0.22-0.24-0.42-0.37-0.64c0.1-0.06,0.18-0.11,0.26-0.15c0.06,0.06,0.11,0.11,0.16,0.16c0.01-0.01,0.03-0.03,0.04-0.04
		c-0.08-0.15-0.17-0.29-0.25-0.44c-0.02,0.01-0.04,0.02-0.06,0.03c0.02,0.06,0.04,0.13,0.07,0.2c-0.08,0.05-0.17,0.1-0.27,0.15
		c-0.13-0.22-0.24-0.42-0.37-0.63c0.1-0.06,0.18-0.11,0.26-0.15c0.06,0.06,0.11,0.11,0.16,0.15c0.01-0.01,0.03-0.03,0.04-0.04
		c-0.08-0.14-0.17-0.29-0.25-0.43c-0.02,0.01-0.04,0.02-0.06,0.03c0.02,0.07,0.04,0.13,0.06,0.21c-0.09,0.05-0.17,0.1-0.26,0.15
		C8.82,41.4,8.7,41.2,8.58,40.98c0.1-0.06,0.18-0.11,0.26-0.15c0.05,0.06,0.09,0.11,0.14,0.16c0.02-0.01,0.04-0.03,0.05-0.04
		c-0.08-0.15-0.17-0.29-0.25-0.44c-0.02,0.01-0.04,0.02-0.06,0.03c0.02,0.06,0.04,0.13,0.07,0.2c-0.08,0.05-0.17,0.1-0.27,0.15
		c-0.13-0.22-0.24-0.42-0.37-0.64c0.1-0.06,0.18-0.11,0.26-0.16c0.05,0.07,0.09,0.11,0.13,0.16c0.02-0.01,0.04-0.02,0.05-0.03
		c-0.08-0.15-0.16-0.29-0.24-0.44c-0.02,0.01-0.04,0.01-0.06,0.02c0.02,0.07,0.04,0.13,0.06,0.21c-0.08,0.05-0.16,0.09-0.26,0.15
		c-0.13-0.22-0.24-0.42-0.37-0.64c0.1-0.06,0.19-0.11,0.27-0.16c0.05,0.07,0.09,0.12,0.13,0.17c0.02-0.01,0.04-0.03,0.06-0.04
		c-0.08-0.15-0.17-0.29-0.25-0.44c-0.02,0.01-0.04,0.02-0.06,0.03c0.02,0.06,0.04,0.13,0.06,0.21c-0.08,0.05-0.17,0.09-0.26,0.15
		c-0.13-0.22-0.24-0.42-0.37-0.64c0.1-0.06,0.19-0.11,0.27-0.16c0.05,0.07,0.09,0.12,0.13,0.17c0.02-0.01,0.04-0.03,0.06-0.04
		c-0.08-0.15-0.17-0.29-0.25-0.44c-0.02,0.01-0.04,0.02-0.06,0.03c0.02,0.07,0.04,0.13,0.07,0.21c-0.09,0.05-0.17,0.1-0.26,0.15
		C7.14,38.5,7.03,38.3,6.9,38.09c0.09-0.05,0.18-0.11,0.26-0.16c0.05,0.06,0.1,0.11,0.14,0.16c0.02-0.01,0.04-0.03,0.05-0.04
		c-0.08-0.15-0.17-0.29-0.25-0.44c-0.02,0.01-0.04,0.02-0.06,0.03c0.02,0.06,0.04,0.13,0.07,0.21C7.03,37.9,6.95,37.95,6.85,38
		c-0.13-0.22-0.24-0.43-0.37-0.64c0.1-0.06,0.18-0.1,0.26-0.15c0.05,0.06,0.1,0.11,0.14,0.16c0.02-0.01,0.04-0.03,0.06-0.04
		c-0.09-0.15-0.17-0.29-0.26-0.44c-0.02,0.01-0.04,0.02-0.06,0.02c0.02,0.07,0.04,0.13,0.06,0.2c-0.31,0.21-0.32,0.25-0.12,0.58
		c0.63,1.09,1.26,2.19,1.9,3.28c0.9,1.57,1.81,3.13,2.71,4.7c0.05,0.09,0.11,0.13,0.22,0.13c0.17-0.01,0.35-0.01,0.52,0
		c0.14,0.01,0.21-0.05,0.28-0.17c1.01-1.75,2.02-3.5,3.03-5.26c0.31-0.54,0.62-1.07,0.93-1.62c-0.13-0.06-0.25-0.08-0.36,0.02
		c-0.02,0.02,0,0.07,0,0.11c0.08-0.05,0.14-0.08,0.2-0.12c0.01,0.01,0.02,0.02,0.03,0.04c-0.05,0.08-0.1,0.16-0.16,0.27
		c-0.11-0.1-0.2-0.18-0.31-0.28c-0.05,0.08-0.12,0.2-0.18,0.31c0.01,0.01,0.03,0.03,0.04,0.04c0.05-0.05,0.1-0.1,0.16-0.16
		c0.08,0.05,0.17,0.1,0.26,0.15c-0.13,0.22-0.25,0.43-0.37,0.64c-0.1-0.06-0.18-0.11-0.26-0.15c0.02-0.09,0.04-0.15,0.06-0.21
		c-0.02-0.01-0.04-0.01-0.06-0.02c-0.08,0.14-0.16,0.29-0.25,0.43c0.02,0.01,0.03,0.02,0.05,0.04c0.05-0.05,0.1-0.1,0.15-0.16
		c0.08,0.05,0.17,0.1,0.26,0.15c-0.13,0.23-0.25,0.43-0.37,0.64c-0.1-0.06-0.18-0.11-0.26-0.15c0.02-0.08,0.04-0.15,0.06-0.21
		c-0.02-0.01-0.04-0.01-0.06-0.02c-0.08,0.14-0.17,0.29-0.25,0.43c0.02,0.01,0.03,0.03,0.05,0.04c0.05-0.05,0.1-0.1,0.16-0.16
		c0.08,0.05,0.17,0.1,0.26,0.15c-0.13,0.22-0.25,0.43-0.37,0.64c-0.1-0.06-0.18-0.1-0.26-0.15c0.02-0.08,0.04-0.15,0.06-0.21
		c-0.02-0.01-0.04-0.01-0.06-0.02c-0.08,0.15-0.17,0.29-0.25,0.44c0.02,0.01,0.04,0.03,0.05,0.04c0.05-0.05,0.09-0.1,0.15-0.16
		c0.08,0.05,0.17,0.1,0.26,0.15c-0.12,0.22-0.24,0.42-0.37,0.64c-0.1-0.06-0.18-0.11-0.26-0.15c0.02-0.09,0.04-0.15,0.06-0.21
		c-0.02-0.01-0.04-0.01-0.06-0.02c-0.08,0.15-0.19,0.28-0.24,0.44c0.02,0.01,0.04,0.02,0.05,0.03c0.04-0.05,0.08-0.1,0.13-0.17
		c0.09,0.05,0.18,0.11,0.27,0.16c-0.13,0.22-0.24,0.42-0.37,0.64c-0.1-0.06-0.18-0.11-0.26-0.15c0.02-0.08,0.04-0.15,0.06-0.21
		c-0.02-0.01-0.04-0.01-0.05-0.02c-0.09,0.14-0.2,0.28-0.24,0.44c0.02,0.01,0.03,0.02,0.05,0.03c0.04-0.05,0.08-0.1,0.13-0.16
		c0.09,0.05,0.17,0.1,0.27,0.16c-0.12,0.21-0.24,0.42-0.37,0.64c-0.1-0.06-0.18-0.1-0.26-0.15c0.02-0.08,0.04-0.15,0.06-0.21
		c-0.02-0.01-0.04-0.01-0.06-0.02c-0.08,0.14-0.17,0.29-0.25,0.43c0.02,0.01,0.04,0.03,0.06,0.04c0.04-0.05,0.09-0.1,0.14-0.16
		c0.08,0.05,0.17,0.1,0.26,0.16c-0.13,0.22-0.25,0.42-0.37,0.64c-0.1-0.06-0.19-0.11-0.26-0.15c0.03-0.08,0.05-0.14,0.07-0.2
		c-0.02-0.01-0.04-0.02-0.06-0.03c-0.08,0.15-0.16,0.29-0.25,0.44c0.02,0.01,0.04,0.02,0.05,0.04c0.04-0.05,0.09-0.1,0.14-0.16
		c0.09,0.05,0.17,0.1,0.27,0.16c-0.13,0.22-0.25,0.42-0.37,0.64c-0.1-0.06-0.19-0.11-0.26-0.16c0.02-0.08,0.04-0.14,0.06-0.21
		c-0.02-0.01-0.04-0.01-0.05-0.02C12.19,44.62,12.11,44.76,12.03,44.9z M17.63,27.47c-0.13-0.08-0.23-0.15-0.34-0.2
		c-0.34-0.13-0.69-0.27-1.04-0.36c-0.1-0.03-0.28,0.02-0.36,0.1c-0.2,0.21-0.39,0.29-0.65,0.11c-0.05,0.09-0.09,0.16-0.13,0.24
		c-0.16,0.27-0.36,0.3-0.58,0.08c-0.08-0.08-0.14-0.18-0.21-0.27c-0.06-0.08-0.11-0.16-0.16-0.24c-0.5,0.23-0.71,0.15-0.9-0.35
		c-0.03-0.09-0.06-0.18-0.09-0.29c-0.17,0.07-0.32,0.13-0.48,0.2c0,0.02,0,0.03-0.01,0.05c0.09,0.04,0.19,0.09,0.29,0.13
		c-0.01,0.14-0.03,0.28,0.14,0.37c0.27,0.14,0.54,0.3,0.81,0.45c0.15,0.08,0.31,0.16,0.47,0.2c0.17,0.05,0.35,0.04,0.52,0.07
		c0.64,0.12,1.27,0.09,1.9,0.01C17.1,27.73,17.37,27.67,17.63,27.47z M10.9,27.52c0-0.2,0.01-0.38,0-0.56
		c-0.02-0.16-0.1-0.3-0.27-0.34c-0.27-0.06-0.52-0.01-0.71,0.21c-0.07,0.09-0.13,0.19-0.19,0.29c-0.13,0.2-0.27,0.23-0.44,0.07
		c-0.12-0.12-0.23-0.26-0.34-0.39c-0.14-0.16-0.29-0.15-0.39,0.03c-0.07,0.12-0.14,0.25-0.22,0.37c-0.06,0.08-0.14,0.14-0.23,0.05
		c-0.13-0.13-0.26-0.2-0.42-0.05c-0.11-0.21-0.22-0.41-0.32-0.6c-0.02,0-0.04,0.01-0.06,0.01c-0.01,0.11-0.03,0.23-0.03,0.34
		c-0.01,0.2-0.02,0.22-0.21,0.17C6.9,27.07,6.73,27,6.56,26.94c0.03,0.2,0.16,0.33,0.35,0.43c0.26,0.13,0.54,0.21,0.83,0.18
		c0.38-0.04,0.77-0.08,1.15-0.13c0.58-0.08,1.17-0.13,1.74,0.08C10.7,27.52,10.78,27.51,10.9,27.52z M4.22,33.04
		c-0.02,0.01-0.05,0.02-0.07,0.03c0.08,0.15,0.16,0.29,0.24,0.44c0.02-0.01,0.04-0.01,0.06-0.02c-0.02-0.07-0.04-0.14-0.05-0.21
		c0.08-0.05,0.17-0.1,0.26-0.15c0.13,0.22,0.24,0.42,0.37,0.64c-0.06,0.04-0.1,0.07-0.14,0.09c-0.04,0.02-0.09,0.04-0.13,0.06
		c-0.04-0.06-0.08-0.11-0.11-0.17c-0.06,0.12,0.09,0.4,0.23,0.42C4.84,34.11,4.83,34.06,4.8,34c0.11-0.05,0.22-0.1,0.35-0.16
		c-0.02-0.05-0.05-0.12-0.08-0.18c-0.7-1.22-1.41-2.44-2.11-3.66c-0.3-0.53-0.61-1.05-0.91-1.58c-0.09-0.16-0.05-0.22,0.12-0.23
		c0.04,0,0.08,0,0.12,0c0.92,0,1.84,0,2.76,0c0.06,0,0.11-0.02,0.17-0.03c0-0.02,0-0.04-0.01-0.06c-0.19,0-0.38,0-0.57,0
		c0-0.12,0-0.22,0-0.3c0.08-0.03,0.14-0.05,0.2-0.07c-0.01-0.01-0.01-0.03-0.02-0.04c-0.17,0-0.33,0-0.5,0
		c0,0.02-0.01,0.03-0.01,0.05c0.07,0.02,0.13,0.04,0.21,0.06c0,0.09,0,0.18,0,0.28c-0.25,0-0.49,0-0.72,0c0-0.11,0-0.2,0-0.28
		c0.08-0.03,0.14-0.04,0.2-0.06C4,27.73,4,27.71,3.99,27.7c-0.17,0-0.33,0-0.5,0c0,0.02-0.01,0.03-0.01,0.05
		c0.07,0.02,0.13,0.03,0.2,0.05c0,0.1,0,0.19,0,0.28c-0.25,0-0.48,0-0.72,0c0-0.1,0-0.19,0-0.28c0.07-0.02,0.14-0.04,0.2-0.06
		c0-0.01-0.01-0.03-0.01-0.04c-0.17,0-0.33,0-0.5,0c0,0.02,0,0.04-0.01,0.05c0.06,0.01,0.13,0.02,0.2,0.04c0,0.09,0,0.19,0,0.29
		c-0.34,0-0.67,0-1.01,0c0-0.14,0-0.26,0-0.38c-0.15-0.05-0.24-0.01-0.3,0.12c-0.04,0.08-0.08,0.17-0.14,0.24
		c-0.09,0.12-0.06,0.22,0.04,0.31c0.11-0.06,0.22-0.12,0.35-0.19c0.1,0.18,0.2,0.34,0.3,0.52c-0.1,0.06-0.19,0.11-0.27,0.16
		c-0.05-0.07-0.09-0.12-0.14-0.19c-0.02,0.2,0.16,0.48,0.27,0.45C1.93,29.06,1.91,29,1.88,28.94c0.09-0.05,0.18-0.1,0.27-0.16
		c0.13,0.22,0.24,0.42,0.37,0.63c-0.05,0.03-0.09,0.06-0.14,0.09c-0.04,0.03-0.09,0.05-0.13,0.07c-0.05-0.06-0.09-0.11-0.13-0.17
		c-0.03,0.13,0.1,0.38,0.28,0.5c-0.04-0.1-0.06-0.17-0.09-0.24c0.09-0.05,0.17-0.1,0.26-0.15c0.13,0.22,0.25,0.43,0.37,0.64
		c-0.1,0.06-0.18,0.1-0.27,0.15c-0.05-0.06-0.08-0.11-0.13-0.17c-0.05,0.12,0.1,0.4,0.26,0.47c-0.03-0.09-0.06-0.15-0.08-0.22
		c0.09-0.05,0.17-0.1,0.26-0.15c0.12,0.22,0.24,0.42,0.37,0.64c-0.1,0.06-0.18,0.11-0.27,0.16c-0.05-0.06-0.09-0.11-0.13-0.17
		c-0.01,0.01-0.03,0.02-0.04,0.03c0.04,0.17,0.15,0.3,0.24,0.45c0.02-0.01,0.04-0.01,0.05-0.02c-0.02-0.07-0.04-0.13-0.07-0.21
		c0.09-0.05,0.17-0.1,0.26-0.15c0.13,0.22,0.25,0.43,0.37,0.64c-0.1,0.06-0.19,0.11-0.27,0.15c-0.05-0.06-0.09-0.11-0.13-0.17
		c-0.02,0.01-0.04,0.02-0.06,0.04c0.07,0.15,0.16,0.3,0.25,0.44c0.02-0.01,0.03-0.01,0.05-0.02c-0.02-0.07-0.04-0.13-0.06-0.21
		c0.08-0.05,0.17-0.1,0.26-0.15c0.13,0.22,0.25,0.43,0.37,0.64c-0.1,0.06-0.18,0.1-0.27,0.15c-0.05-0.06-0.08-0.11-0.13-0.17
		c-0.05,0.1,0.06,0.33,0.25,0.46C4.02,32.7,4,32.63,3.97,32.55c0.08-0.05,0.17-0.1,0.26-0.15c0.13,0.22,0.24,0.42,0.37,0.64
		c-0.1,0.06-0.19,0.11-0.28,0.16C4.29,33.14,4.26,33.09,4.22,33.04z M3.61,27.91c-0.09-0.01-0.16-0.02-0.22-0.03c0-0.1,0-0.2,0-0.29
		c0.25,0,0.48,0,0.71,0c0,0.11,0,0.2,0,0.29c-0.07,0.01-0.13,0.02-0.23,0.03c0.17,0.11,0.48,0.1,0.55-0.01
		c-0.07-0.01-0.13-0.02-0.2-0.03c0-0.1,0-0.2,0-0.3c0.21,0,0.41,0,0.61,0c0.03,0,0.07,0.01,0.11,0.01c0,0.1,0,0.2,0,0.29
		c-0.07,0.01-0.13,0.02-0.19,0.03c0.09,0.12,0.41,0.12,0.5,0c-0.06-0.01-0.12-0.02-0.19-0.03c0-0.1,0-0.19,0-0.29
		c0.15-0.05,0.33,0.04,0.45-0.09c-1.3-0.03-2.6-0.03-3.9-0.02c-0.05,0-0.11,0.05-0.14,0.09c-0.11,0.17-0.22,0.35-0.31,0.54
		c-0.03,0.05-0.03,0.15,0,0.2c1.12,1.95,2.24,3.89,3.37,5.84c0.03,0.05,0.07,0.08,0.1,0.12c0.02-0.01,0.03-0.02,0.05-0.04
		c-0.09-0.15-0.17-0.31-0.27-0.47c0.1-0.06,0.18-0.1,0.27-0.15c0.02,0.03,0.05,0.06,0.06,0.09c0.02,0.04,0.02,0.08,0.03,0.11
		c0.02-0.02,0.04-0.04,0.06-0.06c0.01-0.13-0.15-0.39-0.29-0.44c0.03,0.08,0.06,0.15,0.09,0.21c-0.09,0.05-0.17,0.1-0.27,0.15
		c-0.13-0.22-0.25-0.43-0.37-0.64c0.1-0.06,0.18-0.11,0.27-0.15c0.05,0.06,0.09,0.11,0.16,0.19c0-0.19-0.15-0.44-0.28-0.47
		c0.03,0.07,0.05,0.13,0.08,0.2c-0.09,0.05-0.17,0.1-0.27,0.15c-0.13-0.22-0.24-0.42-0.37-0.64c0.1-0.06,0.19-0.1,0.27-0.15
		c0.05,0.07,0.09,0.11,0.15,0.19c0-0.19-0.16-0.45-0.29-0.49c0.03,0.07,0.05,0.13,0.08,0.2c-0.09,0.05-0.17,0.1-0.27,0.16
		C3.39,32,3.27,31.8,3.15,31.58c0.1-0.06,0.19-0.11,0.27-0.15c0.05,0.06,0.09,0.11,0.15,0.18c0.01-0.19-0.15-0.45-0.28-0.46
		c0.03,0.06,0.05,0.12,0.08,0.19C3.28,31.4,3.2,31.44,3.1,31.5c-0.13-0.22-0.25-0.42-0.37-0.64c0.1-0.06,0.18-0.1,0.26-0.15
		c0.05,0.06,0.1,0.11,0.16,0.19c-0.01-0.21-0.17-0.45-0.29-0.47c0.03,0.07,0.05,0.13,0.08,0.2c-0.09,0.05-0.18,0.1-0.27,0.15
		c-0.13-0.22-0.24-0.42-0.37-0.63c0.05-0.03,0.09-0.06,0.14-0.08c0.04-0.02,0.09-0.05,0.13-0.07c0.05,0.06,0.09,0.11,0.15,0.17
		c0.02-0.18-0.15-0.44-0.27-0.45c0.03,0.06,0.05,0.12,0.08,0.19c-0.09,0.05-0.17,0.1-0.26,0.15C2.25,30.01,2.23,30,2.22,29.98
		c-0.11-0.18-0.21-0.37-0.32-0.56c0.09-0.05,0.18-0.1,0.26-0.15c0.06,0.06,0.1,0.11,0.17,0.18c-0.02-0.2-0.17-0.44-0.29-0.47
		c0.03,0.07,0.05,0.13,0.08,0.2c-0.09,0.05-0.17,0.1-0.27,0.15c-0.12-0.21-0.24-0.42-0.36-0.62c-0.31-0.54-0.31-0.54,0.03-1.05
		c0.02-0.03,0.06-0.08,0.1-0.08c0.27-0.01,0.55,0,0.84,0c0,0.06,0,0.11,0,0.15c0,0.05-0.01,0.1-0.01,0.15
		c-0.08,0.01-0.14,0.02-0.22,0.03c0.12,0.12,0.46,0.11,0.52-0.01c-0.06-0.01-0.12-0.02-0.19-0.02c0-0.1,0-0.19,0-0.3
		c0.12,0,0.24,0,0.35,0c0.12,0,0.24,0,0.37,0c0,0.07,0,0.11,0,0.16c0,0.05-0.01,0.1-0.01,0.15c-0.07,0.01-0.14,0.02-0.22,0.03
		C3.17,28.01,3.49,28.01,3.61,27.91z M6.09,30.14c0,0.01,0.01,0.02,0.01,0.02c0.57-0.1,1.15-0.19,1.72-0.32
		c0.59-0.13,0.93-0.51,1.04-1.1c0.03-0.14-0.01-0.21-0.16-0.23c-0.2-0.03-0.37-0.01-0.54,0.1c-0.44,0.3-0.91,0.54-1.29,0.93
		C6.64,29.78,6.35,29.95,6.09,30.14z M19.36,33.18c0.03-0.03,0.04-0.04,0.04-0.04c0.94-1.62,1.88-3.24,2.81-4.86
		c0.02-0.04,0.01-0.12-0.01-0.17c-0.08-0.16-0.19-0.32-0.27-0.48c-0.06-0.12-0.13-0.16-0.27-0.16c-1.21,0.01-2.43,0-3.64,0
		c-0.06,0-0.11,0-0.17,0c0.12,0.16,0.29,0.05,0.45,0.13c0,0.07-0.01,0.15,0,0.23c0.03,0.17,0.23,0.22,0.3,0.07
		c-0.07-0.01-0.13-0.01-0.2-0.02c0-0.1,0-0.19,0-0.29c0.25,0,0.48,0,0.73,0c0,0.11,0,0.2,0,0.29c-0.07,0.01-0.13,0.02-0.22,0.03
		c0.16,0.12,0.47,0.1,0.52-0.01c-0.06-0.01-0.12-0.01-0.18-0.02c0-0.11,0-0.2,0-0.29c0.25,0,0.48,0,0.73,0c0,0.06,0,0.1,0,0.15
		c0,0.05-0.01,0.1-0.01,0.15c-0.07,0.01-0.14,0.02-0.22,0.03c0.13,0.11,0.45,0.11,0.54,0c-0.07-0.01-0.13-0.02-0.2-0.03
		c0-0.1,0-0.2,0-0.29c0.25,0,0.48,0,0.71,0c0,0.11,0,0.2,0,0.29c-0.07,0.01-0.13,0.02-0.23,0.03c0.17,0.11,0.48,0.1,0.54-0.01
		c-0.07-0.01-0.13-0.02-0.19-0.03c0-0.1,0-0.2,0-0.3c0.27,0,0.52,0,0.77,0c0.11,0,0.47,0.57,0.42,0.67c-0.12,0.24-0.26,0.47-0.4,0.7
		c-0.1-0.06-0.19-0.11-0.27-0.15c0.03-0.08,0.05-0.14,0.07-0.2c-0.02-0.01-0.04-0.02-0.06-0.03c-0.08,0.15-0.17,0.29-0.25,0.44
		c0.02,0.01,0.04,0.03,0.06,0.04c0.04-0.05,0.09-0.1,0.14-0.17c0.09,0.06,0.18,0.11,0.26,0.16c-0.13,0.22-0.24,0.42-0.37,0.64
		c-0.1-0.06-0.19-0.11-0.26-0.15c0.03-0.08,0.04-0.14,0.06-0.2c-0.02-0.01-0.04-0.02-0.06-0.02c-0.08,0.15-0.16,0.29-0.25,0.44
		c0.02,0.01,0.03,0.03,0.05,0.04c0.04-0.05,0.09-0.1,0.14-0.16c0.08,0.05,0.17,0.1,0.26,0.16c-0.13,0.22-0.25,0.43-0.37,0.64
		c-0.11-0.06-0.19-0.11-0.26-0.16c0.03-0.08,0.05-0.14,0.07-0.2c-0.02-0.01-0.04-0.02-0.06-0.03c-0.08,0.15-0.16,0.29-0.25,0.44
		c0.02,0.01,0.04,0.02,0.06,0.04c0.04-0.05,0.09-0.1,0.13-0.16c0.09,0.05,0.17,0.1,0.26,0.16c-0.13,0.22-0.25,0.43-0.37,0.64
		c-0.1-0.06-0.19-0.11-0.26-0.15c0.02-0.08,0.04-0.15,0.06-0.21c-0.02-0.01-0.04-0.01-0.06-0.02c-0.08,0.15-0.17,0.29-0.25,0.44
		c0.02,0.01,0.03,0.03,0.05,0.04c0.05-0.05,0.09-0.1,0.15-0.16c0.09,0.05,0.17,0.1,0.26,0.15c-0.13,0.22-0.25,0.43-0.37,0.64
		c-0.1-0.06-0.18-0.11-0.26-0.15c0.03-0.08,0.05-0.14,0.07-0.2c-0.02-0.01-0.04-0.02-0.06-0.03c-0.08,0.15-0.17,0.29-0.25,0.44
		c0.02,0.01,0.04,0.03,0.06,0.04c0.04-0.05,0.09-0.1,0.14-0.16c0.09,0.05,0.17,0.1,0.26,0.15c-0.13,0.22-0.25,0.42-0.37,0.64
		c-0.1-0.06-0.18-0.11-0.26-0.16c0.02-0.08,0.04-0.14,0.06-0.2c-0.02-0.01-0.04-0.01-0.06-0.02c-0.08,0.14-0.17,0.29-0.25,0.43
		c0.02,0.01,0.04,0.03,0.05,0.04c0.05-0.05,0.1-0.11,0.15-0.16c0.09,0.05,0.17,0.1,0.25,0.15C19.51,32.83,19.34,32.95,19.36,33.18z
		 M17.71,36.13c0.15-0.51-0.04-1.16-0.46-1.54c-0.13-0.12-0.29-0.22-0.44-0.33c-0.13-0.09-0.19-0.39-0.12-0.52
		c0.06-0.1,0.24-0.13,0.41-0.05c0.13,0.06,0.26,0.12,0.37,0.21c0.25,0.19,0.53,0.28,0.85,0.28c-0.17-0.1-0.35-0.2-0.51-0.31
		c-0.16-0.12-0.31-0.26-0.46-0.38c-0.37-0.31-0.59-0.27-0.81,0.16c-0.03,0.06-0.05,0.13-0.05,0.2c0.01,0.24,0.01,0.47,0.05,0.7
		c0.05,0.33,0.11,0.67,0.37,0.91C17.16,35.69,17.43,35.9,17.71,36.13z M12.23,43.96c0.31-0.55,0.63-1.09,0.94-1.64
		c0.02-0.03,0.03-0.08,0.04-0.11c0.06-0.57,0.12-1.14,0.17-1.71c0.01-0.09-0.01-0.19-0.02-0.29c-0.21,0.12-0.35,0.29-0.45,0.57
		c-0.08,0.22-0.12,0.45-0.19,0.68C12.46,42.27,12.31,43.1,12.23,43.96z M18.01,31.51c-0.34,0-0.66-0.01-0.99,0
		c-0.24,0.01-0.48,0.03-0.64,0.24c-0.04,0.06-0.04,0.18-0.01,0.25c0.02,0.05,0.14,0.1,0.2,0.08c0.5-0.13,0.92,0.03,1.29,0.35
		c0.17,0.15,0.32,0.32,0.49,0.49c0.17,0.17,0.34,0.16,0.46-0.06c0.05-0.1,0.08-0.23,0.11-0.34c0.03-0.13-0.02-0.2-0.17-0.23
		C18.2,32.19,18.08,32.06,18.01,31.51z M19.04,27.75c0-0.02-0.01-0.03-0.01-0.05c-0.17,0-0.33,0-0.5,0c0,0.02-0.01,0.03-0.01,0.05
		c0.07,0.02,0.13,0.04,0.21,0.06c0,0.09,0,0.18,0,0.28c-0.08,0.01-0.15,0.02-0.22,0.02c0,0.02,0,0.04-0.01,0.05
		c0.06,0.01,0.13,0.03,0.19,0.03c0.81,0,1.61,0.01,2.42,0c0.24,0,0.28,0.08,0.17,0.28c-0.7,1.2-1.39,2.41-2.08,3.62
		c-0.05,0.09-0.08,0.19-0.12,0.29c0.01,0.01,0.02,0.01,0.04,0.02c0.07-0.12,0.14-0.24,0.22-0.37c0.1,0.06,0.18,0.1,0.26,0.15
		c-0.02,0.08-0.03,0.14-0.04,0.21c0.02,0,0.03,0.01,0.05,0.01c0.24-0.38,0.24-0.38,0.17-0.46c-0.03,0.05-0.07,0.11-0.11,0.17
		c-0.09-0.05-0.18-0.1-0.27-0.16c0.13-0.22,0.25-0.43,0.37-0.64c0.1,0.06,0.18,0.11,0.26,0.15c-0.02,0.08-0.04,0.14-0.06,0.21
		c0.02,0.01,0.04,0.01,0.06,0.02c0.08-0.15,0.19-0.28,0.23-0.44c-0.02-0.01-0.04-0.02-0.06-0.03c-0.04,0.05-0.08,0.1-0.12,0.16
		c-0.09-0.05-0.17-0.1-0.27-0.16c0.13-0.22,0.25-0.43,0.37-0.64c0.1,0.06,0.18,0.11,0.26,0.15c-0.02,0.08-0.04,0.14-0.06,0.21
		c0.02,0.01,0.04,0.01,0.06,0.02c0.08-0.14,0.16-0.29,0.24-0.43c-0.02-0.01-0.03-0.02-0.05-0.04c-0.05,0.05-0.09,0.1-0.15,0.16
		c-0.08-0.05-0.17-0.1-0.26-0.15c0.13-0.22,0.24-0.42,0.37-0.64c0.1,0.06,0.19,0.11,0.26,0.15c-0.02,0.09-0.04,0.15-0.05,0.21
		c0.02,0.01,0.04,0.01,0.06,0.02c0.08-0.14,0.16-0.29,0.24-0.43c-0.02-0.01-0.03-0.03-0.05-0.04c-0.05,0.05-0.1,0.1-0.15,0.16
		c-0.08-0.05-0.17-0.1-0.26-0.15c0.13-0.22,0.25-0.43,0.37-0.64c0.09,0.05,0.18,0.1,0.26,0.15c-0.02,0.08-0.04,0.15-0.06,0.21
		c0.02,0.01,0.04,0.01,0.06,0.02c0.08-0.15,0.17-0.29,0.25-0.44c-0.01-0.01-0.03-0.02-0.04-0.04c-0.05,0.05-0.1,0.1-0.16,0.16
		c-0.08-0.05-0.17-0.1-0.26-0.15c0.17-0.29,0.33-0.57,0.5-0.86c0.13,0.07,0.24,0.13,0.35,0.19c0.12-0.1,0.12-0.2,0.04-0.32
		c-0.05-0.07-0.1-0.15-0.14-0.24c-0.06-0.14-0.16-0.16-0.3-0.11c0,0.13,0,0.26,0,0.38c-0.34,0-0.66,0-0.99,0c0-0.1,0-0.2,0-0.29
		c0.08-0.02,0.14-0.04,0.21-0.06c0-0.02-0.01-0.03-0.01-0.05c-0.17,0-0.34,0-0.51,0c0,0.02-0.01,0.03-0.01,0.05
		c0.07,0.02,0.13,0.04,0.2,0.06c0,0.09,0,0.19,0,0.28c-0.24,0-0.48,0-0.71,0c0-0.11,0-0.2,0-0.28c0.08-0.02,0.14-0.04,0.2-0.06
		c-0.01-0.01-0.01-0.03-0.02-0.04c-0.17,0-0.33,0-0.5,0c0,0.02-0.01,0.03-0.01,0.05c0.07,0.02,0.13,0.04,0.21,0.06
		c0,0.09,0,0.19,0,0.28c-0.25,0-0.48,0-0.72,0c0-0.1,0-0.19,0-0.28C18.91,27.78,18.98,27.76,19.04,27.75z M7.88,32.54
		c-0.1,0.07-0.22,0.12-0.27,0.21c-0.41,0.73-0.81,1.46-1.2,2.19c-0.16,0.31-0.13,0.62,0.03,0.92c0.09,0.17,0.19,0.34,0.29,0.51
		c0.08,0.14,0.17,0.28,0.25,0.42c0-0.09-0.03-0.18-0.05-0.26c-0.27-0.87-0.16-1.67,0.34-2.44c0.24-0.37,0.43-0.76,0.65-1.14
		C7.98,32.83,7.98,32.71,7.88,32.54z M7.31,31.87c-0.2,0.07-0.24,0.11-0.28,0.31c-0.09,0.44-0.34,0.67-0.78,0.7
		c-0.23,0.01-0.47,0-0.7-0.01C5.43,32.86,5.39,32.9,5.38,33c-0.03,0.3,0.02,0.4,0.3,0.52c0.11,0.05,0.23,0.09,0.36,0.13
		c0.31,0.08,0.63,0.03,0.81-0.23C7.16,32.96,7.39,32.46,7.31,31.87z M15.64,25.09c-0.66-0.56-1.41-0.56-2.18-0.34
		c-0.64,0.19-1.38,0.93-1.4,1.34c0.15-0.12,0.3-0.27,0.48-0.39c0.16-0.1,0.34-0.16,0.51-0.24c0.65-0.34,1.35-0.44,2.07-0.41
		C15.29,25.06,15.47,25.08,15.64,25.09z M19.13,30.28c-0.08,0.25-0.23,0.42-0.44,0.5c-0.29,0.11-0.37,0.32-0.4,0.59
		c0,0.03-0.01,0.06-0.01,0.08c-0.11,0.55,0.11,0.74,0.64,0.57c0.25-0.08,0.46-0.34,0.48-0.57C19.44,31.04,19.31,30.67,19.13,30.28z
		 M11.35,26.14c-0.62-0.69-1.35-1.21-2.29-1.35c-0.07-0.01-0.15,0.01-0.21,0.04c-0.27,0.14-0.54,0.3-0.81,0.45
		c-0.03,0.02-0.05,0.06-0.1,0.12c0.44,0.02,0.83,0.04,1.24,0.06c0.05-0.12,0.1-0.25,0.15-0.39c0.06,0.07,0.11,0.12,0.15,0.18
		c0.03,0.05,0.04,0.12,0.08,0.17c0.04,0.05,0.1,0.12,0.16,0.13C10.28,25.69,10.84,25.83,11.35,26.14z M14.7,37.63
		c-0.06,0.1-0.13,0.18-0.15,0.27c-0.09,0.4-0.18,0.79-0.24,1.2c-0.06,0.46-0.08,0.93-0.12,1.39c0.26-0.37,0.48-0.76,0.7-1.15
		c0.02-0.03,0.01-0.08,0.02-0.12c0.01-0.32,0.04-0.64,0.03-0.96C14.93,38.05,14.96,37.8,14.7,37.63z M10.61,27.75
		c-0.07-0.16-0.19-0.24-0.35-0.25c-0.15-0.01-0.31-0.05-0.46-0.04c-0.57,0.04-1.14,0.1-1.71,0.15c0.08,0.05,0.15,0.07,0.23,0.08
		c0.41,0.1,0.82,0.2,1.06,0.6c0.02,0.03,0.08,0.04,0.12,0.04C9.93,28.26,10.29,28.03,10.61,27.75z M14.78,25.81
		c0.09-0.04,0.16-0.07,0.22-0.11c0.12-0.08,0.2-0.06,0.29,0.04c0.1,0.11,0.22,0.21,0.35,0.27c0.31,0.13,0.62,0.23,0.94,0.33
		c0.05,0.02,0.15-0.01,0.16-0.04c0.01-0.06,0.01-0.16-0.03-0.19c-0.2-0.16-0.42-0.3-0.63-0.45c-0.07-0.05-0.14-0.12-0.17-0.19
		c-0.06-0.17-0.15-0.28-0.35-0.29c-0.31-0.01-0.61-0.04-0.94-0.07C14.67,25.37,14.72,25.58,14.78,25.81z M13.45,41.85
		c0.14-0.24,0.28-0.5,0.43-0.74c0.13-0.2,0.18-0.41,0.17-0.64c-0.02-0.27-0.07-0.53-0.11-0.8c-0.04-0.26-0.08-0.52-0.13-0.78
		c-0.01-0.05-0.08-0.1-0.13-0.14c-0.04,0.05-0.08,0.1-0.11,0.16c-0.02,0.06-0.02,0.12-0.02,0.19
		C13.51,40.02,13.48,40.93,13.45,41.85z M13.8,24.57c-0.12-0.22-0.32-0.29-0.54-0.26c-0.23,0.03-0.46,0.07-0.68,0.16
		c-0.29,0.11-0.5,0.34-0.56,0.65c-0.07,0.33-0.09,0.66-0.14,0.99c0.02,0,0.03,0.01,0.05,0.01C12.26,25.25,12.92,24.77,13.8,24.57z
		 M16.24,35.09c-0.02-0.01-0.05-0.01-0.07-0.02c-0.03,0.05-0.06,0.1-0.08,0.15c-0.07,0.18-0.1,0.38-0.19,0.55
		c-0.2,0.35-0.16,0.66,0.06,0.98c0.27,0.41,0.45,0.85,0.44,1.35c0,0.03,0.02,0.06,0.03,0.09c0.27-0.34,0.29-0.99,0.03-1.32
		c-0.2-0.25-0.24-0.52-0.22-0.82C16.26,35.74,16.24,35.41,16.24,35.09z M7.76,30.29c-0.01-0.02-0.02-0.04-0.03-0.06
		c-0.34,0.05-0.69,0.1-1.03,0.17c-0.3,0.05-0.6,0.11-0.89,0.19c-0.2,0.05-0.42,0.15-0.48,0.36c-0.1,0.35-0.05,0.7,0.13,1.03
		c0.03-0.68,0.46-1,1.04-1.2c0.21-0.07,0.42-0.12,0.62-0.2C7.34,30.49,7.55,30.39,7.76,30.29z M5.16,34.17
		c0.15,0.09,0.29,0.17,0.42,0.26c0.4,0.28,0.58,0.65,0.45,1.13c-0.05,0.17,0.03,0.27,0.16,0.36c0.01-0.1,0.02-0.2-0.01-0.29
		c-0.08-0.3-0.05-0.58,0.12-0.86c0.11-0.18,0.19-0.39,0.27-0.59c0.03-0.06,0.03-0.13,0.05-0.22c-0.45,0.1-0.85-0.01-1.23-0.2
		C5.32,33.9,5.24,34.03,5.16,34.17z M13.51,26.72c0.05-0.03,0.09-0.05,0.14-0.07c0.4-0.19,0.65-0.08,0.81,0.34
		c0.06,0.16,0.16,0.3,0.26,0.49c0.15-0.15,0.27-0.25,0.36-0.37c0.13-0.16,0.18-0.18,0.36-0.08c0.06,0.03,0.12,0.06,0.22,0.11
		c0-0.16,0.01-0.29,0-0.42c-0.01-0.15-0.03-0.31-0.05-0.46c0-0.04-0.02-0.08-0.03-0.12c-0.03,0.02-0.07,0.03-0.09,0.06
		c-0.11,0.16-0.21,0.32-0.31,0.49c-0.1,0.18-0.21,0.22-0.34,0.08c-0.28-0.32-0.66-0.4-1.05-0.47c-0.3-0.05-0.39,0.06-0.3,0.35
		C13.49,26.67,13.5,26.69,13.51,26.72z M8.99,28.31c-0.1-0.07-0.15-0.12-0.22-0.14c-0.31-0.09-0.61-0.18-0.93-0.24
		c-0.42-0.07-0.84-0.1-1.22-0.33c-0.03-0.02-0.08-0.02-0.17-0.04c0.1,0.11,0.17,0.2,0.25,0.27c0.3,0.27,0.61,0.54,0.92,0.8
		c0.04,0.03,0.12,0.02,0.18,0c0.27-0.09,0.53-0.2,0.81-0.28C8.72,28.32,8.83,28.33,8.99,28.31z M9.13,24.68
		c1.06,0.25,1.88,0.8,2.5,1.65c0-0.01,0-0.04-0.01-0.06c-0.11-0.3-0.19-0.6-0.33-0.88c-0.08-0.16-0.21-0.32-0.36-0.42
		c-0.21-0.14-0.45-0.23-0.68-0.32C9.89,24.53,9.53,24.51,9.13,24.68z M18.8,33.79c-0.29-0.36-0.56-0.73-0.86-1.08
		c-0.22-0.25-0.5-0.42-0.83-0.5c-0.19-0.04-0.38-0.03-0.53,0.12c-0.12,0.12-0.13,0.2,0.02,0.26c0.26,0.12,0.53,0.23,0.8,0.29
		c0.52,0.12,0.97,0.33,1.18,0.87C18.63,33.86,18.69,33.88,18.8,33.79z M8.56,36.91c0.02-0.02,0.03-0.04,0.05-0.06
		C8.5,36.18,8.27,35.56,7.85,35c-0.26,0.53-0.13,1.3,0.3,1.68C8.27,36.78,8.42,36.83,8.56,36.91z M18.26,28.65
		c-0.06-0.33-0.14-0.62-0.46-0.75c-0.06-0.02-0.14-0.02-0.21-0.01c-0.19,0.05-0.38,0.13-0.58,0.17c-0.34,0.06-0.69,0.09-1.04,0.13
		C16.7,28.49,17.51,28.4,18.26,28.65z M6.19,27.24c-0.13,0.14-0.24,0.27-0.35,0.4c-0.08,0.1-0.16,0.21-0.22,0.32
		c-0.08,0.16-0.02,0.26,0.15,0.31c0.05,0.01,0.1,0.03,0.15,0.03c0.39,0,0.77,0,1.18,0C6.74,27.98,6.39,27.67,6.19,27.24z M16.8,36.8
		c0.08-0.11,0.16-0.22,0.24-0.33c0.03-0.05,0.07-0.11,0.06-0.15c-0.05-0.2-0.11-0.39-0.18-0.58c-0.02-0.05-0.07-0.09-0.1-0.14
		c-0.23-0.28-0.44-0.58-0.52-0.95c-0.02,0.12-0.03,0.24,0.01,0.34c0.11,0.33,0.15,0.66,0.1,1C16.35,36.38,16.47,36.62,16.8,36.8z
		 M17.69,29.81c-0.5-0.11-0.92-0.34-1.3-0.68c-0.11-0.1-0.24-0.18-0.38-0.23c-0.07-0.03-0.2-0.01-0.24,0.04
		c-0.05,0.05-0.06,0.17-0.03,0.24c0.13,0.35,0.42,0.51,0.76,0.61C16.89,29.89,17.29,29.86,17.69,29.81z M18.77,30.33
		c-0.07-0.16-0.16-0.16-0.28-0.13c-0.33,0.06-0.66,0.1-0.98,0.15c-0.02,0-0.05,0.01-0.07,0.01c-0.25,0.11-0.51,0.21-0.75,0.34
		c-0.12,0.06-0.22,0.17-0.34,0.26c0.32-0.05,0.61-0.11,0.89-0.13c0.44-0.03,0.86-0.12,1.26-0.31
		C18.59,30.47,18.67,30.39,18.77,30.33z M8.92,26.28c0.04,0.31,0.2,0.42,0.53,0.33c0.27-0.08,0.55-0.14,0.83-0.21
		c0.48-0.11,0.84,0.16,0.87,0.66c0,0.08,0,0.16,0,0.26c0.47-0.33,0.44-0.79-0.05-1.01c-0.3-0.14-0.62-0.2-0.94-0.06
		c-0.11,0.05-0.23,0.08-0.35,0.08C9.51,26.33,9.21,26.3,8.92,26.28z M12.22,26.47c0.08-0.02,0.15-0.03,0.2-0.07
		c0.52-0.37,1.07-0.36,1.66-0.22c0.33,0.08,0.66,0.12,1,0.15c0.08,0.01,0.2-0.08,0.25-0.16c0.03-0.04-0.04-0.15-0.07-0.25
		c-0.36,0.24-0.72,0.25-1.08,0.16c-0.16-0.04-0.32-0.09-0.48-0.13c-0.36-0.09-0.73-0.16-1.1-0.07
		C12.3,25.96,12.18,26.13,12.22,26.47z M16.13,28.38c0.27,0.43,0.66,0.65,1.07,0.84c0.25-0.28,0.5-0.48,0.88-0.48
		c0-0.02-0.01-0.05-0.01-0.07C17.43,28.57,16.79,28.48,16.13,28.38z M7.36,28.88c-0.24-0.24-0.45-0.31-0.72-0.26
		c-0.18,0.21-0.3,0.41-0.47,0.56c-0.15,0.14-0.35,0.24-0.52,0.37c-0.08,0.06-0.16,0.14-0.24,0.21c0.01,0.02,0.02,0.03,0.03,0.05
		C6.11,29.57,6.71,29.19,7.36,28.88z M7.04,31.9c0.55-0.55,0.7-0.79,0.63-1.12c-0.22,0.08-0.44,0.16-0.65,0.26
		c-0.12,0.06-0.23,0.14-0.34,0.23c-0.07,0.05-0.06,0.12,0,0.19C6.81,31.59,6.92,31.75,7.04,31.9z M14.54,25.14
		c-0.56,0.02-1.09,0.2-1.63,0.48c0.3,0.06,0.55,0.13,0.82,0.17c0.34,0.05,0.51-0.04,0.67-0.35C14.44,25.34,14.49,25.25,14.54,25.14z
		 M8.26,36.98c0.35,0.45,0.4,1.1,0.98,1.44c-0.07-0.35-0.12-0.67-0.19-0.98C9,37.25,8.87,37.13,8.69,37.08
		C8.55,37.04,8.4,37.01,8.26,36.98z M16.85,33.89c-0.01,0.02-0.02,0.04-0.03,0.07c0.18,0.4,0.59,0.57,0.88,0.88
		c0.08-0.18,0.15-0.32,0.22-0.48c-0.26-0.15-0.51-0.31-0.77-0.44C17.07,33.88,16.96,33.9,16.85,33.89z M16.67,38.19
		c-0.05,0.08-0.07,0.12-0.1,0.16c-0.06,0.1-0.13,0.17-0.26,0.14c-0.15-0.03-0.11-0.14-0.11-0.23c0-0.19,0-0.38,0-0.57
		c-0.08,0.08-0.12,0.18-0.18,0.25c-0.06,0.07-0.15,0.17-0.23,0.18c-0.17,0.02-0.2,0.13-0.2,0.25c0,0.11,0.03,0.21,0.05,0.28
		c0.24,0,0.45-0.01,0.66,0C16.5,38.66,16.69,38.47,16.67,38.19z M6.05,32.37c-0.03-0.06-0.06-0.12-0.1-0.17
		c-0.21-0.3-0.03-0.8,0.23-0.86c0.04-0.01,0.09-0.04,0.12-0.08c0.09-0.13,0.17-0.26,0.26-0.39c-0.13,0.06-0.28,0.11-0.42,0.19
		c-0.39,0.2-0.57,0.54-0.56,0.97C5.58,32.27,5.78,32.42,6.05,32.37z M11.77,25.88c0.04-0.65,0.16-1.24,0.81-1.57
		c-0.28,0.07-0.54,0.16-0.79,0.28c-0.15,0.07-0.26,0.22-0.24,0.39C11.6,25.28,11.69,25.58,11.77,25.88z M15.02,39.04
		c0.02,0,0.03,0.01,0.05,0.01c0.11-0.19,0.28-0.38,0.31-0.58c0.04-0.37-0.01-0.75-0.03-1.12c-0.03,0-0.05,0-0.08,0
		C14.94,37.87,15.12,38.47,15.02,39.04z M17.62,27.09c-0.33-0.1-0.65-0.2-1.01-0.31c0.06-0.07,0.09-0.1,0.12-0.14
		c-0.13-0.09-0.25-0.18-0.39-0.26c-0.29-0.17-0.49-0.11-0.65,0.22c0.08,0.01,0.15,0,0.22,0.02c0.12,0.03,0.26,0.04,0.35,0.11
		C16.67,27.04,17.17,26.99,17.62,27.09z M5.38,30.4c0.6-0.23,1.07-0.64,1.55-1.03c-0.42,0.16-0.84,0.33-1.24,0.52
		C5.49,29.99,5.35,30.15,5.38,30.4z M14.85,37.5c0.01,0.01,0.03,0.02,0.04,0.04c0.02-0.02,0.06-0.04,0.07-0.06
		c0.05-0.09,0.09-0.19,0.13-0.28c0.07-0.14,0.2-0.16,0.3-0.04c0.04,0.05,0.06,0.12,0.08,0.19c0.05,0.22,0.09,0.44,0.14,0.67
		c0.17-0.14,0.31-0.29,0.23-0.49c-0.14-0.3-0.32-0.59-0.5-0.91C15.15,36.93,15,37.21,14.85,37.5z M4.8,31.31c-0.01,0-0.03,0-0.04,0
		c-0.01,0.09-0.03,0.17-0.02,0.26c0.07,0.55,0.41,0.9,0.89,1.11c0.24,0.11,0.48,0.14,0.74,0.07c0.33-0.09,0.56-0.47,0.44-0.74
		c-0.02,0.06-0.03,0.11-0.05,0.16c-0.26,0.64-1.01,0.76-1.43,0.21c-0.1-0.13-0.17-0.3-0.25-0.45C4.98,31.73,4.9,31.52,4.8,31.31z
		 M5.44,28.55c-0.03,0.24-0.06,0.5-0.09,0.81c0.32-0.23,0.65-0.37,0.83-0.68C5.93,28.63,5.69,28.59,5.44,28.55z M15.69,29.34
		c-0.01,0.01-0.03,0.02-0.04,0.03c0.1,0.18,0.19,0.38,0.3,0.55c0.04,0.06,0.14,0.11,0.21,0.11c0.45,0,0.9,0,1.34-0.02
		c0.23-0.01,0.46-0.05,0.7-0.08c0-0.02,0-0.04-0.01-0.06c-0.31,0.02-0.63,0.05-0.94,0.07C16.64,29.99,16.09,29.87,15.69,29.34z
		 M15.69,35.85c0.16-0.51,0.31-1,0.46-1.52C15.7,34.67,15.48,35.38,15.69,35.85z M17.24,30.37c-0.35,0-0.69,0-1.06,0
		c0.05,0.18,0.08,0.33,0.11,0.44C16.61,30.67,16.92,30.52,17.24,30.37z M14.87,28.1c0.05,0.28,0.24,0.49,0.5,0.54
		c0.12,0.02,0.26-0.06,0.39-0.1c0-0.03,0-0.05,0-0.08C15.46,28.34,15.17,28.22,14.87,28.1z M8.52,29.6
		c0.01,0.01,0.02,0.02,0.03,0.03c0.18-0.12,0.37-0.22,0.52-0.37c0.22-0.21,0.16-0.56-0.11-0.66C8.94,28.99,8.81,29.32,8.52,29.6z
		 M7.99,25.53c0.31,0.3,0.71,0.15,1.07,0.25c0.03-0.09,0.06-0.15,0.09-0.25C8.74,25.53,8.37,25.53,7.99,25.53z M18.26,29.55
		c-0.07-0.19-0.12-0.34-0.19-0.52c-0.18,0.1-0.36,0.19-0.53,0.29c0.01,0.02,0.01,0.05,0.02,0.07
		C17.78,29.44,18.01,29.49,18.26,29.55z M10.82,26.01c0-0.01,0.01-0.03,0.01-0.04c-0.37-0.11-0.74-0.22-1.1-0.33
		C10.01,26.04,10.42,26.02,10.82,26.01z M9.39,25.58c-0.05,0.16-0.06,0.29,0.05,0.42c0.13,0.15,0.43,0.21,0.59,0.16
		C9.83,25.98,9.61,25.78,9.39,25.58z M18.6,33.31c0.12,0.13,0.22,0.25,0.33,0.37c0.21-0.29,0.16-0.48-0.16-0.6
		C18.72,33.15,18.67,33.23,18.6,33.31z M18.08,31.06c-0.27,0.04-0.52,0.08-0.75,0.12c0.14,0.07,0.3,0.15,0.45,0.23
		c0.13,0.07,0.23,0.02,0.26-0.13C18.05,31.21,18.07,31.14,18.08,31.06z M18.52,33.84c-0.13-0.31-0.28-0.56-0.6-0.66
		C18.09,33.41,18.08,33.8,18.52,33.84z M16.5,31.48c0.33-0.03,0.64-0.06,0.92-0.08c0.02,0.01,0-0.01-0.02-0.01
		c-0.19-0.05-0.39-0.09-0.59-0.13C16.62,31.22,16.53,31.29,16.5,31.48z M7.66,25.61c0.31,0.26,0.61,0.43,0.99,0.51
		C8.55,25.95,7.98,25.66,7.66,25.61z M17.06,35.74c0.06,0.21,0.1,0.38,0.15,0.55c0.12-0.05,0.24-0.09,0.38-0.15
		C17.41,36,17.25,35.88,17.06,35.74z M16.93,26.67c0.23-0.02,0.43-0.04,0.67-0.06c-0.15-0.12-0.26-0.21-0.37-0.3
		C17.14,26.43,17.05,26.54,16.93,26.67z M16.95,25.86c-0.04,0.26-0.07,0.48-0.1,0.71C17.17,26.4,17.19,26.25,16.95,25.86z
		 M12.4,26.99c0.17,0.07,0.32,0.13,0.5,0.21c-0.05-0.17-0.1-0.3-0.14-0.45C12.64,26.83,12.54,26.9,12.4,26.99z M8.59,26.22
		c-0.14-0.05-0.28-0.09-0.41-0.16C8.04,26,7.91,25.92,7.72,25.99C8,26.17,8.29,26.22,8.59,26.22z M7.79,26.21
		c0,0.02-0.01,0.03-0.01,0.05c0.21,0.15,0.53,0.19,0.76,0.08C8.28,26.29,8.03,26.25,7.79,26.21z M8.24,27.12
		c0.07-0.15,0.12-0.29,0.19-0.43c-0.19-0.06-0.23,0.08-0.29,0.18C8.08,26.97,8.12,27.04,8.24,27.12z M21.05,27.69
		c-0.01,0.02-0.02,0.04-0.03,0.05c0.07,0.02,0.13,0.04,0.2,0.06c0.02,0.08-0.03,0.24,0.16,0.16c0-0.1,0-0.18,0-0.28
		C21.26,27.69,21.16,27.69,21.05,27.69z M7.43,32.64c0.18-0.15,0.4-0.28,0.28-0.6C7.61,32.25,7.52,32.44,7.43,32.64z M6.25,32.08
		c0.15,0.06,0.19-0.01,0.21-0.1c0.03-0.11,0.07-0.22-0.09-0.32C6.33,31.81,6.29,31.95,6.25,32.08z M1.97,27.69c0,0.11,0,0.2,0,0.28
		c0.2,0.06,0.12-0.11,0.16-0.17c0.08-0.03,0.14-0.05,0.2-0.07c-0.01-0.02-0.01-0.03-0.02-0.05C2.2,27.69,2.09,27.69,1.97,27.69z
		 M12.14,45.31c0.06-0.11,0.12-0.22,0.18-0.32c-0.01-0.01-0.03-0.02-0.04-0.04c-0.05,0.05-0.1,0.1-0.15,0.15
		c-0.05-0.03-0.1-0.05-0.17-0.08c-0.03,0.05-0.05,0.09-0.08,0.14C11.97,45.22,12.05,45.26,12.14,45.31z M1.58,28.62
		c0.06-0.03,0.12-0.06,0.16-0.08c0.06,0.06,0.11,0.1,0.16,0.15c0.01-0.01,0.03-0.03,0.04-0.04c-0.06-0.1-0.12-0.21-0.19-0.32
		c-0.09,0.06-0.17,0.1-0.25,0.15C1.53,28.54,1.55,28.58,1.58,28.62z M9.25,26.91c0.2,0.2,0.42,0.15,0.52-0.1
		C9.61,26.85,9.43,26.88,9.25,26.91z M11.15,45.19c0.07,0.14,0.09,0.14,0.31-0.04c-0.06-0.09-0.09-0.22-0.19-0.28
		c-0.01,0.01-0.03,0.02-0.04,0.03c0.02,0.06,0.05,0.12,0.07,0.19C11.25,45.11,11.2,45.15,11.15,45.19z M7.01,25.72
		c0.08,0.27,0.24,0.43,0.46,0.41C7.33,26,7.19,25.88,7.01,25.72z M21.86,28.49c-0.09-0.05-0.17-0.1-0.26-0.15
		c-0.02,0.05-0.04,0.08-0.06,0.12c0.06,0.04,0.1,0.07,0.15,0.1c-0.02,0.07-0.04,0.14-0.06,0.21c0.02,0.01,0.03,0.01,0.05,0.02
		C21.73,28.69,21.79,28.6,21.86,28.49z M7.71,26.96c0.02,0.01,0.03,0.03,0.05,0.04C7.88,26.9,8,26.8,8.13,26.7
		c-0.01-0.01-0.02-0.03-0.03-0.04c-0.06-0.01-0.12-0.02-0.19-0.03C7.84,26.75,7.77,26.85,7.71,26.96z M8.55,26.5
		c-0.27-0.01-0.5-0.02-0.74-0.03C8.05,26.55,8.29,26.65,8.55,26.5z M17.1,26.84c0.17,0.09,0.57,0.15,0.66,0.09
		c0.02-0.01,0.01-0.06,0.02-0.09C17.54,26.84,17.32,26.84,17.1,26.84z M14.52,26c0.28,0.06,0.5-0.01,0.64-0.17
		C14.93,25.89,14.72,25.95,14.52,26z M9.99,26.61c-0.01-0.03-0.02-0.05-0.03-0.08c-0.21,0.08-0.41,0.15-0.62,0.23
		c0.01,0.02,0.02,0.04,0.02,0.06C9.57,26.76,9.78,26.68,9.99,26.61z M19.41,32.69c-0.02-0.01-0.04-0.02-0.06-0.03
		c-0.04,0.05-0.08,0.1-0.12,0.16c-0.08-0.04-0.16-0.07-0.24-0.11c-0.01,0.02-0.02,0.03-0.03,0.05c0.1,0.06,0.2,0.13,0.31,0.2
		C19.33,32.86,19.37,32.77,19.41,32.69z M14.15,25.94c0.28,0.02,0.34-0.03,0.36-0.29C14.4,25.74,14.28,25.84,14.15,25.94z
		 M14.71,26.4c0,0.01,0,0.03,0,0.04c0.1,0.05,0.21,0.1,0.33,0.16c0.01-0.07,0.02-0.11,0.02-0.17C14.93,26.42,14.82,26.41,14.71,26.4
		z M7.44,26.31c-0.12-0.07-0.22-0.12-0.31-0.18c-0.01,0.01-0.02,0.03-0.04,0.04c0.08,0.07,0.15,0.15,0.24,0.21
		C7.33,26.39,7.39,26.34,7.44,26.31z M7.82,26.6c-0.1-0.03-0.16-0.05-0.25-0.08c0.03,0.12,0.05,0.21,0.08,0.33
		C7.72,26.76,7.76,26.69,7.82,26.6z M7.19,26.57c-0.15-0.06-0.29-0.12-0.42-0.18C6.86,26.56,6.98,26.61,7.19,26.57z M18.91,34.25
		c0.02,0.01,0.03,0.03,0.05,0.04c0.09-0.11,0.19-0.22,0.28-0.34c-0.01-0.01-0.03-0.02-0.04-0.04C19.1,34.03,19.01,34.14,18.91,34.25
		z"/>
	<path d="M67,44.94c-0.37,0.61-1.25,0.69-1.76,0.15c0.04-0.04,0.08-0.09,0.14-0.15c0.24,0.27,0.54,0.34,0.88,0.31
		c0.29-0.03,0.5-0.2,0.53-0.43c0.05-0.33-0.1-0.54-0.44-0.6c-0.18-0.03-0.37-0.05-0.54-0.1c-0.35-0.09-0.52-0.31-0.52-0.65
		c0-0.36,0.19-0.61,0.54-0.69c0.38-0.09,0.73-0.03,1.05,0.25c-0.04,0.05-0.08,0.09-0.13,0.14c-0.22-0.21-0.47-0.27-0.75-0.24
		c-0.28,0.03-0.47,0.2-0.49,0.47c-0.03,0.28,0.09,0.45,0.38,0.53c0.12,0.04,0.25,0.06,0.37,0.07c0.34,0.03,0.61,0.16,0.75,0.48
		C67,44.64,67,44.79,67,44.94z"/>
	<path d="M29.31,36.3c-0.36,0-0.69,0-1.05,0c0-0.07,0-0.14,0-0.21c0-2.33-0.01-4.66,0-6.99c0-0.52-0.17-0.8-0.76-0.89
		c-0.24-0.04-0.5-0.02-0.74,0.02c-0.41,0.08-0.61,0.34-0.61,0.75c0,0.6,0,1.21,0,1.81c0,1.76,0,3.52,0,5.28c0,0.07,0,0.14,0,0.21
		c-0.36,0-0.7,0-1.06,0c0-0.07,0-0.14,0-0.21c0-2.4,0.01-4.8,0-7.2c-0.01-0.9,0.44-1.37,1.25-1.54c0.81-0.18,1.62-0.18,2.38,0.26
		c0.04,0.02,0.13,0,0.18-0.03c0.89-0.44,1.81-0.45,2.72-0.1c0.56,0.22,0.84,0.67,0.84,1.28c0,2.46,0,4.91,0,7.37
		c0,0.05,0,0.1-0.01,0.16c-0.34,0-0.68,0-1.04,0c0-0.07,0-0.14,0-0.21c0-2.34,0-4.67,0-7.01c0-0.54-0.19-0.79-0.72-0.87
		c-0.26-0.04-0.53-0.02-0.79,0.02c-0.35,0.06-0.54,0.29-0.58,0.63c-0.01,0.09-0.01,0.18-0.01,0.28c0,2.31,0,4.62,0,6.94
		C29.31,36.15,29.31,36.22,29.31,36.3z"/>
	<path d="M42.99,27.36c0.37,0,0.7,0,1.06,0c0,0.07,0,0.13,0,0.19c0,2.37,0,4.74,0,7.11c0,0.14-0.01,0.28-0.02,0.41
		c-0.06,0.74-0.6,1.09-1.17,1.24c-0.62,0.16-1.24,0.15-1.86-0.01c-0.22-0.06-0.43-0.17-0.62-0.29c-0.42-0.27-0.55-0.7-0.55-1.18
		c0-2.43,0-4.85,0-7.28c0-0.06,0-0.11,0-0.18c0.35,0,0.7,0,1.06,0c0,0.08,0,0.15,0,0.22c0,2.35,0,4.69,0,7.04
		c0,0.5,0.22,0.76,0.73,0.83c0.3,0.04,0.6,0.04,0.88-0.07c0.35-0.13,0.48-0.33,0.48-0.71c0-2.35,0-4.7,0-7.06
		C42.99,27.54,42.99,27.46,42.99,27.36z"/>
	<path d="M51.45,34.6c0.33,0,0.67,0,1.01,0c0.08,0.63,0.28,0.81,0.92,0.86c0.29,0.02,0.57,0,0.84-0.15
		c0.23-0.13,0.36-0.32,0.36-0.58c0-0.44,0-0.89,0-1.33c0-0.35-0.15-0.56-0.49-0.67c-0.48-0.17-0.97-0.33-1.45-0.49
		c-0.53-0.17-0.97-0.45-1.14-1.02c-0.04-0.15-0.06-0.3-0.06-0.46c-0.01-0.62,0.02-1.23-0.01-1.85c-0.03-0.94,0.47-1.4,1.3-1.59
		c0.56-0.12,1.14-0.13,1.69,0.03c0.27,0.08,0.55,0.22,0.77,0.39c0.43,0.32,0.46,0.81,0.42,1.31c-0.34,0-0.68,0-1.03,0
		c-0.01-0.01-0.01-0.02-0.01-0.03c-0.02-0.47-0.2-0.72-0.67-0.79c-0.28-0.04-0.59-0.03-0.87,0.02c-0.37,0.07-0.56,0.34-0.57,0.72
		c0,0.55-0.01,1.09,0,1.64c0,0.31,0.14,0.55,0.45,0.66c0.51,0.18,1.02,0.36,1.53,0.53c0.56,0.18,0.97,0.49,1.13,1.08
		c0.03,0.11,0.04,0.24,0.04,0.36c0,0.52-0.01,1.04,0,1.55c0.03,0.82-0.36,1.3-1.14,1.5c-0.74,0.2-1.49,0.21-2.21-0.11
		C51.61,35.89,51.33,35.33,51.45,34.6z"/>
	<path d="M66.81,27.37c0,0.29,0,0.56,0,0.86c-0.1,0-0.19,0-0.28,0c-0.59,0-1.17,0-1.76,0c-0.43,0-0.72,0.27-0.72,0.71
		c-0.01,0.77,0,1.54,0,2.31c0,0.02,0.01,0.04,0.01,0.09c0.73,0,1.47,0,2.21,0c0,0.33,0,0.65,0,0.98c-0.73,0-1.46,0-2.21,0
		c0,0.08-0.01,0.14-0.01,0.2c0,0.71,0,1.43,0,2.14c0,0.52,0.27,0.79,0.79,0.79c0.59,0,1.18,0,1.78,0c0.06,0,0.12,0,0.2,0
		c0,0.29,0,0.57,0,0.85c-0.89,0-1.78,0.04-2.65-0.01C63.49,36.24,63,35.62,63,34.94c0-2.07,0-4.14,0-6.21
		c0-0.76,0.56-1.35,1.33-1.37c0.8-0.02,1.6,0,2.4,0C66.75,27.36,66.78,27.37,66.81,27.37z"/>
	<path d="M66.89,39.53c0,0.07,0,0.12,0,0.19c-13.95,0-27.89,0-41.84,0c0-0.06,0-0.12,0-0.19C38.99,39.53,52.93,39.53,66.89,39.53z"
		/>
	<path d="M52.5,45.4c-0.21-0.86-0.43-1.74-0.65-2.61c0.15-0.05,0.22-0.02,0.25,0.14c0.15,0.64,0.31,1.28,0.47,1.92
		c0.01,0.04,0.02,0.09,0.05,0.18c0.13-0.48,0.25-0.91,0.36-1.35c0.07-0.26,0.14-0.52,0.21-0.78c0.02-0.08,0.04-0.14,0.14-0.13
		c0.1,0,0.12,0.05,0.14,0.13c0.18,0.67,0.36,1.34,0.54,2.01c0.01,0.02,0.01,0.04,0.05,0.07c0.02-0.07,0.04-0.14,0.06-0.22
		c0.15-0.61,0.3-1.23,0.44-1.84c0.04-0.16,0.11-0.18,0.26-0.13c-0.22,0.88-0.44,1.75-0.66,2.62c-0.07,0-0.14,0-0.21,0
		c-0.2-0.74-0.4-1.47-0.61-2.26c-0.03,0.1-0.05,0.15-0.07,0.21c-0.17,0.63-0.34,1.25-0.5,1.88C52.73,45.39,52.68,45.47,52.5,45.4z"
		/>
	<path d="M60.81,45.4c-0.17,0.06-0.25,0-0.32-0.14c-0.15-0.32-0.32-0.64-0.49-0.95c-0.03-0.05-0.11-0.1-0.17-0.1
		c-0.19-0.01-0.39,0-0.6,0c0,0.41,0,0.8,0,1.21c-0.07,0-0.13,0-0.2,0c0-0.87,0-1.74,0-2.64c0.19,0,0.39,0,0.58,0
		c0.2,0,0.4-0.01,0.6,0.02c0.35,0.05,0.55,0.29,0.57,0.61c0.03,0.38-0.14,0.64-0.48,0.77c-0.03,0.01-0.06,0.02-0.12,0.04
		C60.4,44.61,60.6,45.01,60.81,45.4z M59.23,44.01c0.31,0,0.6,0.01,0.89,0c0.27-0.01,0.44-0.21,0.45-0.47
		c0.02-0.27-0.12-0.52-0.37-0.54c-0.32-0.03-0.65-0.01-0.98-0.01C59.23,43.32,59.23,43.65,59.23,44.01z"/>
	<path d="M29.39,44.21c0.21,0.4,0.41,0.8,0.62,1.19c-0.17,0.05-0.25,0-0.32-0.14c-0.15-0.32-0.31-0.63-0.48-0.93
		c-0.03-0.06-0.11-0.11-0.18-0.11c-0.19-0.01-0.39-0.01-0.6-0.01c0,0.41,0,0.8,0,1.2c-0.08,0-0.14,0-0.2,0c0-0.88,0-1.75,0-2.62
		c0.4,0,0.8-0.03,1.19,0.01c0.34,0.03,0.54,0.28,0.57,0.59c0.03,0.39-0.12,0.65-0.46,0.78C29.48,44.18,29.44,44.19,29.39,44.21z
		 M28.42,44.01c0.31,0,0.61,0.01,0.91,0c0.26-0.02,0.42-0.21,0.44-0.47c0.02-0.29-0.12-0.52-0.38-0.55
		c-0.32-0.03-0.64-0.01-0.97-0.01C28.42,43.32,28.42,43.65,28.42,44.01z"/>
	<path d="M62.2,45.42c0-0.89,0-1.75,0-2.67c0.42,0.03,0.83,0.01,1.23,0.09c0.36,0.06,0.53,0.37,0.55,0.71
		c0.02,0.39,0.02,0.79-0.02,1.18c-0.05,0.41-0.32,0.66-0.74,0.68C62.89,45.44,62.55,45.42,62.2,45.42z M62.41,45.23
		c0.26,0,0.51,0.01,0.75,0c0.34-0.03,0.55-0.2,0.58-0.55c0.04-0.36,0.04-0.73,0.02-1.1c-0.01-0.26-0.14-0.5-0.41-0.56
		c-0.31-0.06-0.63-0.06-0.95-0.09C62.41,43.73,62.41,44.47,62.41,45.23z"/>
	<path d="M50.97,45.41c-0.17,0.06-0.24-0.01-0.28-0.16c-0.04-0.15-0.07-0.36-0.18-0.43c-0.11-0.08-0.31-0.03-0.47-0.03
		c-0.21,0-0.41-0.01-0.62,0c-0.06,0-0.13,0.06-0.16,0.11c-0.06,0.11-0.1,0.23-0.13,0.35c-0.04,0.16-0.12,0.21-0.28,0.15
		c0.2-0.54,0.4-1.08,0.6-1.63c0.11-0.3,0.22-0.6,0.34-0.9c0.02-0.04,0.08-0.09,0.13-0.1c0.04,0,0.11,0.04,0.12,0.08
		C50.35,43.71,50.66,44.55,50.97,45.41z M50.46,44.59c-0.18-0.51-0.35-0.99-0.53-1.48c-0.01,0-0.03,0-0.04,0.01
		c-0.17,0.49-0.34,0.97-0.52,1.47C49.74,44.59,50.09,44.59,50.46,44.59z"/>
	<path d="M36.11,45.41c-0.16,0.05-0.23-0.01-0.27-0.15c-0.05-0.16-0.08-0.36-0.19-0.45c-0.11-0.08-0.31-0.03-0.47-0.03
		c-0.21,0-0.41-0.01-0.62,0c-0.05,0-0.12,0.05-0.14,0.1c-0.06,0.12-0.11,0.24-0.14,0.37c-0.03,0.16-0.12,0.19-0.28,0.15
		c0.08-0.21,0.16-0.42,0.23-0.63c0.23-0.63,0.46-1.26,0.7-1.89c0.02-0.05,0.08-0.1,0.12-0.11c0.04,0,0.12,0.05,0.13,0.09
		c0.31,0.83,0.62,1.67,0.92,2.5C36.11,45.38,36.11,45.39,36.11,45.41z M35.06,43.06c-0.19,0.54-0.36,1.03-0.54,1.52
		c0.37,0,0.72,0,1.08,0C35.43,44.08,35.25,43.59,35.06,43.06z"/>
	<path d="M57.82,45.41c-0.16,0.04-0.24,0.01-0.28-0.15c-0.04-0.16-0.08-0.37-0.19-0.45c-0.11-0.08-0.32-0.03-0.49-0.03
		c-0.2,0-0.39,0.01-0.59,0c-0.11,0-0.15,0.04-0.18,0.13c-0.03,0.12-0.09,0.23-0.12,0.34c-0.04,0.14-0.11,0.2-0.27,0.15
		c0.01-0.04,0.02-0.09,0.04-0.14c0.29-0.79,0.58-1.57,0.87-2.36c0.03-0.08,0.05-0.17,0.15-0.14c0.06,0.02,0.11,0.08,0.13,0.14
		C57.21,43.74,57.51,44.57,57.82,45.41z M57.3,44.59c-0.18-0.5-0.35-0.99-0.54-1.53c-0.19,0.54-0.36,1.03-0.54,1.53
		C56.58,44.59,56.93,44.59,57.3,44.59z"/>
	<path d="M44.77,42.95c0,0.35,0,0.68,0,1.03c0.39,0,0.77,0,1.16,0c0,0.07,0,0.13,0,0.19c-0.39,0-0.77,0-1.16,0c0,0.35,0,0.69,0,1.05
		c0.45,0,0.91,0,1.37,0c0,0.07,0,0.13,0,0.19c-0.53,0-1.05,0-1.58,0c0-0.88,0-1.75,0-2.63c0.53,0,1.05,0,1.58,0c0,0.05,0,0.1,0,0.17
		C45.69,42.95,45.23,42.95,44.77,42.95z"/>
	<path d="M31.41,42.78c0.53,0,1.04,0,1.58,0c0,0.05,0.01,0.1,0.01,0.17c-0.47,0-0.92,0-1.38,0c0,0.35,0,0.68,0,1.03
		c0.39,0,0.77,0,1.17,0c0,0.07,0.01,0.12,0.01,0.19c-0.4,0-0.78,0-1.18,0c0,0.36,0,0.69,0,1.05c0.46,0,0.91,0,1.38,0
		c0,0.07,0.01,0.12,0.01,0.19c-0.53,0-1.05,0-1.59,0C31.41,44.54,31.41,43.67,31.41,42.78z"/>
	<path d="M26.59,44.67c0.06,0,0.12,0,0.18,0c-0.04,0.45-0.41,0.77-0.88,0.78c-0.46,0-0.87-0.32-0.89-0.76
		c-0.02-0.39-0.02-0.78,0-1.17c0.03-0.45,0.42-0.76,0.89-0.76c0.47,0,0.83,0.31,0.89,0.77c-0.12,0.03-0.19,0.02-0.24-0.12
		c-0.11-0.33-0.41-0.5-0.75-0.45c-0.33,0.05-0.56,0.29-0.58,0.65c-0.02,0.32-0.01,0.64,0,0.97c0.01,0.39,0.23,0.64,0.57,0.7
		c0.36,0.06,0.65-0.12,0.79-0.49C26.57,44.73,26.58,44.7,26.59,44.67z"/>
	<path d="M42.32,45.41c-0.28-0.86-0.57-1.74-0.86-2.62c0.15-0.05,0.22-0.02,0.27,0.14c0.22,0.69,0.44,1.38,0.68,2.11
		c0.03-0.09,0.06-0.14,0.07-0.2c0.21-0.64,0.42-1.28,0.62-1.92c0.05-0.14,0.11-0.18,0.26-0.12c-0.08,0.24-0.15,0.48-0.23,0.72
		c-0.19,0.59-0.39,1.18-0.58,1.77C42.52,45.41,42.46,45.45,42.32,45.41z"/>
	<path d="M38.03,45.42c-0.08,0-0.13,0-0.21,0c0-0.81,0-1.62,0-2.45c-0.27,0-0.52,0-0.78,0c0-0.07-0.01-0.12-0.01-0.17
		c0.03-0.01,0.04-0.02,0.06-0.02c0.53,0,1.06,0,1.59,0c0.04,0,0.09,0.06,0.13,0.09c-0.04,0.03-0.08,0.09-0.13,0.09
		c-0.21,0.01-0.42,0-0.66,0C38.03,43.79,38.03,44.6,38.03,45.42z"/>
	<path d="M40.08,42.78c0.06,0,0.12,0,0.18,0c0,0.88,0,1.75,0,2.63c-0.06,0-0.11,0.01-0.18,0.01C40.08,44.54,40.08,43.67,40.08,42.78
		z"/>
	<path d="M11.01,31.41c0.15,0.08,0.16,0.09,0.15,0.28c0.07,0.09,0.12,0.16,0.2,0.26C11.25,31.97,11.18,32,11.11,32
		c-0.39-0.02-0.76,0.08-1.13,0.21c-0.46,0.17-0.88,0.08-1.28-0.18c-0.05-0.03-0.09-0.08-0.13-0.12c0.01-0.01,0.02-0.03,0.02-0.04
		c0.04,0.01,0.09,0.02,0.13,0.03c0.33,0.1,0.39,0.08,0.48-0.25c0.06-0.23,0.2-0.41,0.38-0.56c0.25-0.19,0.52-0.24,0.83-0.14
		c-0.07,0.01-0.15,0.03-0.22,0.04c-0.4,0.07-0.66,0.32-0.83,0.68c-0.03,0.07-0.03,0.19,0,0.26c0.02,0.04,0.15,0.05,0.22,0.03
		c0.25-0.05,0.49-0.12,0.74-0.16c0.17-0.03,0.35-0.04,0.53-0.04c0.22-0.01,0.26-0.07,0.16-0.27C11.02,31.47,11.02,31.45,11.01,31.41
		z"/>
	<path d="M14.06,30.94c0.45-0.17,1.01,0.11,1.19,0.55c0.01,0.02,0.01,0.04,0.02,0.07c0.12,0.36,0.12,0.36,0.51,0.37
		c0.01,0,0.03,0.01,0.08,0.03c-0.07,0.06-0.12,0.12-0.18,0.15c-0.35,0.17-0.71,0.27-1.09,0.12c-0.39-0.15-0.79-0.26-1.21-0.23
		c-0.03,0-0.07-0.01-0.1-0.02c-0.03-0.01-0.05-0.03-0.07-0.04c0-0.25,0.19-0.18,0.32-0.2c0-0.09,0-0.18,0-0.29
		c0.04,0.04,0.07,0.05,0.07,0.06c-0.02,0.22,0.12,0.23,0.29,0.25c0.28,0.03,0.55,0.09,0.83,0.14c0.07,0.01,0.15,0.05,0.22,0.05
		c0.08,0,0.2,0,0.23-0.05c0.04-0.05,0.02-0.17-0.01-0.24c-0.17-0.35-0.43-0.61-0.83-0.68C14.24,30.97,14.16,30.96,14.06,30.94z"/>
	<path d="M11.61,30.4c-0.45-0.25-0.91-0.46-1.44-0.43c-0.53,0.03-0.98,0.26-1.4,0.6c0.06-0.31,0.49-0.66,0.95-0.77
		C10.47,29.62,11.11,29.8,11.61,30.4z"/>
	<path d="M10.59,35.15c0.33-0.3,0.66-0.61,1.01-0.88c0.15-0.11,0.34-0.03,0.5,0.07c0.04,0.02,0.07,0.06,0.1,0.09
		c0.36-0.28,0.6-0.23,0.86,0.14c0.18,0.26,0.39,0.5,0.61,0.78c-0.17-0.11-0.31-0.19-0.43-0.3c-0.1-0.08-0.19-0.19-0.26-0.29
		c-0.25-0.36-0.25-0.36-0.66-0.2c-0.1,0.04-0.16,0.03-0.24-0.04c-0.23-0.22-0.27-0.21-0.51,0c-0.24,0.2-0.48,0.39-0.72,0.58
		c-0.06,0.05-0.15,0.07-0.22,0.1C10.6,35.18,10.6,35.16,10.59,35.15z"/>
	<path d="M15.71,30.76c-0.78-0.51-1.54-0.74-2.37-0.2c0.05-0.32,0.29-0.52,0.67-0.55c0.65-0.04,1.19,0.23,1.67,0.64
		C15.7,30.66,15.7,30.68,15.71,30.76z"/>
	<path d="M13.62,35.5c-0.25-0.11-0.51-0.2-0.74-0.33c-0.2-0.11-0.37-0.25-0.62-0.12c-0.06,0.03-0.18,0.04-0.23,0
		c-0.19-0.11-0.34-0.02-0.51,0.04c-0.14,0.06-0.28,0.13-0.42,0.19c-0.23,0.1-0.46,0.05-0.68-0.06c0.11,0,0.21,0.02,0.32,0
		c0.18-0.03,0.35-0.08,0.53-0.14c0.15-0.05,0.28-0.13,0.42-0.19c0.12-0.05,0.24-0.06,0.37,0.03c0.06,0.04,0.18-0.01,0.27-0.01
		c0.13-0.01,0.28-0.06,0.38-0.01c0.33,0.16,0.64,0.35,0.95,0.53C13.64,35.46,13.63,35.48,13.62,35.5z"/>
	<path d="M11.5,30.81c0.39,0.61,0.33,1.99-0.1,2.5c0.07-0.42,0.17-0.83,0.19-1.24C11.6,31.66,11.53,31.25,11.5,30.81z"/>
	<path d="M13.41,35.59c-0.35,0.1-0.7,0.21-1.06,0.29c-0.5,0.12-0.91-0.15-1.31-0.42c0.09,0.02,0.19,0.02,0.26,0.06
		c0.52,0.36,1.06,0.29,1.61,0.1c0.15-0.05,0.32-0.07,0.48-0.1C13.4,35.55,13.41,35.57,13.41,35.59z"/>
	<path d="M12.9,35.48c-0.27-0.05-0.51-0.12-0.76-0.13c-0.25-0.01-0.5,0.05-0.77,0.08C11.8,35.12,12.59,35.14,12.9,35.48z"/>
	<path d="M11.38,33.52c0.11-0.05,0.22-0.13,0.33-0.16c0.06-0.01,0.15,0.05,0.21,0.09c0.01,0.01-0.01,0.09-0.04,0.13
		c-0.01,0.01-0.09,0-0.1-0.02c-0.05-0.14-0.13-0.07-0.2-0.03c-0.05,0.03-0.11,0.04-0.17,0.06C11.4,33.56,11.39,33.54,11.38,33.52z"
		/>
	<path d="M12.77,33.6c-0.05-0.02-0.09-0.03-0.12-0.05c-0.1-0.07-0.17-0.05-0.22,0.06c-0.02,0.04-0.06,0.08-0.09,0.09
		c-0.02,0.01-0.06-0.03-0.1-0.04c0.09-0.09,0.17-0.21,0.28-0.26c0.06-0.02,0.17,0.08,0.26,0.12C12.78,33.52,12.77,33.55,12.77,33.6z
		"/>
	<path d="M12.75,32.41c0-0.19,0-0.33,0-0.49C12.86,32.01,12.86,32.27,12.75,32.41z"/>
</g>
</svg>
