<?xml version="1.0" encoding="utf-8"?>
<!-- Generator: Adobe Illustrator 23.0.1, SVG Export Plug-In . SVG Version: 6.00 Build 0)  -->
<svg version="1.1" id="Layer_1" xmlns="http://www.w3.org/2000/svg" xmlns:xlink="http://www.w3.org/1999/xlink" x="0px" y="0px"
	 viewBox="0 0 70 70" style="enable-background:new 0 0 70 70;" xml:space="preserve">
<g>
	<g>
		<path d="M23.7,13.6c0.7,1.4,1,2.7,0.7,4.2c-0.2-1-0.5-2-1-2.9s-1.3-1.7-2.2-2.3c0.1,0,0.3,0,0.4,0c3.7,0,7.4,0,11.1,0
			c0.3,0,0.6-0.1,0.7-0.4c0.2-0.5,0.6-1,0.8-1.5c0.5-0.8,0.9-0.8,1.4,0c0.1,0.2,0.3,0.5,0.5,0.8c0.2-0.3,0.3-0.6,0.5-0.9
			c0.4-0.7,0.9-0.7,1.3,0c0.2,0.3,0.3,0.6,0.5,0.9c0.2-0.3,0.4-0.6,0.6-0.9c0.4-0.6,0.9-0.6,1.2,0c0.5,0.9,1,1.8,1.5,2.7
			c0.1,0.1,0.1,0.2,0.2,0.2c2.6,1.1,4.7,2.7,6.9,4.5c0.6,0.5,1.2,0.9,1.8,1.4c0.5,0.4,1,0.5,1.5,0.1c0.7-0.4,1.3-0.9,2-1.3
			c0.1-0.1,0.2-0.2,0.5-0.3c0,0.2,0,0.5,0,0.7c-0.1,0.4-0.2,0.8-0.3,1.2c0,0.1,0.1,0.3,0.1,0.4c0.3,0.2,0.7,0.4,1,0.6
			c0.6,0.4,0.6,0.8,0,1.1c-0.3,0.2-0.6,0.4-0.9,0.5c-0.2,0.1-0.3,0.2-0.2,0.5s0.2,0.7,0.3,1c0,0.2,0,0.4,0,0.8
			c-0.5-0.3-0.8-0.6-1.1-0.9c-0.4-0.3-0.9-0.6-1.4-0.8c-0.5-0.2-0.9-0.2-1.3,0.1c-0.9,0.7-1.7,1.4-2.6,2c-2,1.6-4,3-6.4,4
			c-0.1,0.1-0.2,0.2-0.3,0.3c-0.4,0.7-0.9,1.5-1.3,2.2c-0.4,0.7-0.9,0.7-1.3,0c-0.2-0.3-0.3-0.6-0.5-0.9c-0.2,0.3-0.4,0.6-0.6,0.9
			c-0.4,0.6-0.9,0.6-1.2,0c-0.2-0.3-0.3-0.6-0.5-0.9c-0.2,0.3-0.3,0.6-0.5,0.9c-0.4,0.7-0.9,0.7-1.3,0c-0.3-0.4-0.5-0.9-0.7-1.3
			c-0.2-0.3-0.4-0.4-0.8-0.4c-3.7,0-7.4,0-11.1,0c-0.2,0-0.3,0-0.5,0c1.9-1.2,2.8-3,3.1-5.2c0.3,0.7,0.1,2.5-0.6,4.1
			c1.8-0.4,4.1-3.9,4.4-6.4C28.7,18.1,26.2,14.9,23.7,13.6z M35,28.7c2.5-1,4.9-3.9,4.8-7.6c0-4.1-2.8-6.7-4.8-7.5
			C39.8,17.6,39.9,24.7,35,28.7z M44,25.6c0.9-0.5,1.7-1,2.5-1.4c0.6-0.4,0.6-0.8,0-1.2c-0.3-0.2-0.6-0.3-1-0.6
			c0.4-0.2,0.7-0.4,0.9-0.6c0.6-0.4,0.6-0.8,0-1.2c-0.3-0.2-0.6-0.3-0.9-0.6c0.2-0.1,0.4-0.2,0.6-0.3c0.2-0.1,0.3-0.2,0.5-0.3
			c0.5-0.3,0.5-0.8,0-1.1c-0.2-0.1-0.4-0.3-0.6-0.4c-0.6-0.4-1.2-0.7-1.9-1.1C45.5,19.8,45.5,22.6,44,25.6z M40.6,16.8
			c1.5,3,1.5,5.8,0,8.8c0.9-0.5,1.7-1,2.5-1.5c0.5-0.3,0.5-0.8,0-1.1c-0.3-0.2-0.6-0.4-1-0.6c0.3-0.2,0.6-0.4,0.9-0.5
			c0.7-0.4,0.7-0.9,0-1.3c-0.3-0.2-0.6-0.3-0.9-0.5c0.4-0.2,0.7-0.4,1-0.6c0.5-0.3,0.5-0.8,0-1.1C42.3,17.8,41.5,17.4,40.6,16.8z
			 M32.9,16.5c0-0.7-0.6-1.3-1.3-1.3s-1.3,0.6-1.3,1.3s0.6,1.3,1.3,1.3C32.4,17.8,32.9,17.2,32.9,16.5z"/>
		<path d="M26.5,17.9c-1,2.2-1,4.3,0,6.5h-0.1c-0.2-0.1-0.3-0.3-0.5-0.4c-0.6-0.4-1.2-0.8-1.8-1.1c-0.5-0.3-1-0.2-1.4,0.1
			c-0.3,0.2-0.6,0.5-0.9,0.7c-2.2,1.3-4.6,1.2-6.6-0.4c-0.7-0.5-1.2-1.2-1.8-1.8c-0.1-0.1-0.1-0.3,0-0.4c1.2-1.6,2.7-2.8,4.7-3.1
			c1.5-0.2,3,0.2,4.2,1.2c0.9,0.8,1.7,0.6,2.5,0.1c0.6-0.4,1.1-0.8,1.7-1.2C26.5,17.9,26.5,17.9,26.5,17.9z M18.8,20
			c-0.7,0-1.3,0.5-1.3,1.2s0.5,1.3,1.2,1.3S20,22,20,21.3C20,20.5,19.5,20,18.8,20z"/>
	</g>
	<g>
		<path d="M18.2,42.2l-0.3,0.4v0.8H17v-3.2h0.9v1.3l1.2-1.3h1l-1.3,1.4l1.4,1.8h-1.1L18.2,42.2z"/>
		<path d="M22.3,42.2v1.2h-0.9v-1.2l-1.2-2.1h1l0.8,1.3l0.8-1.3h0.9L22.3,42.2z"/>
		<path d="M23.8,40.1h0.9v3.2h-0.9V40.1z"/>
		<path d="M28.6,40.1l-1.4,3.2h-0.9L25,40.1h1l0.9,2.1l0.9-2.1H28.6z"/>
		<path d="M16.9,45.6h0.9v3.2h-0.9V45.6z"/>
		<path d="M21.6,45.6v3.2h-0.7l-1.4-1.7v1.7h-0.9v-3.2h0.7l1.4,1.7v-1.7H21.6z"/>
		<path d="M22.9,46.3h-1v-0.7h2.9v0.7h-1v2.5h-0.9V46.3z"/>
		<path d="M27.7,48.1v0.7h-2.6v-3.2h2.5v0.7H26v0.5h1.4v0.7H26v0.6H27.7z"/>
		<path d="M29.6,48h-0.5v0.9h-0.9v-3.2h1.5c0.3,0,0.5,0,0.8,0.1c0.2,0.1,0.4,0.2,0.5,0.4s0.2,0.4,0.2,0.6c0,0.2-0.1,0.4-0.2,0.6
			c-0.1,0.2-0.3,0.3-0.5,0.4l0.7,1h-1L29.6,48z M30,46.5c-0.1-0.1-0.2-0.1-0.4-0.1h-0.5v0.9h0.5c0.2,0,0.3,0,0.4-0.1
			s0.1-0.2,0.1-0.3C30.2,46.7,30.1,46.5,30,46.5z"/>
		<path d="M34.7,45.6v3.2H34l-1.4-1.7v1.7h-0.9v-3.2h0.7l1.4,1.7v-1.7H34.7z"/>
		<path d="M37.5,48.2h-1.4l-0.3,0.6h-0.9l1.4-3.2h0.9l1.4,3.2h-0.9L37.5,48.2z M37.2,47.5l-0.4-1l-0.4,1H37.2z"/>
		<path d="M39.3,46.3h-1v-0.7h2.9v0.7h-1v2.5h-0.9V46.3z"/>
		<path d="M41.5,45.6h0.9v3.2h-0.9V45.6z"/>
		<path d="M43.8,48.7c-0.3-0.1-0.5-0.3-0.6-0.6C43,47.8,43,47.6,43,47.2s0.1-0.6,0.2-0.9c0.2-0.3,0.4-0.5,0.6-0.6
			c0.3-0.1,0.6-0.2,0.9-0.2c0.3,0,0.6,0.1,0.9,0.2c0.3,0.1,0.5,0.3,0.6,0.6c0.2,0.3,0.2,0.5,0.2,0.9s-0.1,0.6-0.2,0.9
			c-0.2,0.3-0.4,0.5-0.6,0.6c-0.3,0.1-0.6,0.2-0.9,0.2C44.3,48.9,44,48.8,43.8,48.7z M45.1,48c0.1-0.1,0.2-0.2,0.3-0.3
			s0.1-0.3,0.1-0.5s0-0.3-0.1-0.5c-0.1-0.1-0.2-0.2-0.3-0.3s-0.3-0.1-0.4-0.1c-0.2,0-0.3,0-0.4,0.1c-0.1,0.1-0.2,0.2-0.3,0.3
			s-0.1,0.3-0.1,0.5s0,0.3,0.1,0.5c0.1,0.1,0.2,0.2,0.3,0.3s0.3,0.1,0.4,0.1S45,48.1,45.1,48z"/>
		<path d="M50,45.6v3.2h-0.7l-1.4-1.7v1.7H47v-3.2h0.7l1.4,1.7v-1.7H50z"/>
		<path d="M52.8,48.2h-1.4l-0.3,0.6h-0.9l1.4-3.2h0.9l1.4,3.2H53L52.8,48.2z M52.6,47.5l-0.4-1l-0.4,1H52.6z"/>
		<path d="M54.3,45.6h0.9v2.5h1.5v0.7h-2.4V45.6z"/>
		<path d="M19.1,53.7h-1.4l-0.3,0.6h-0.9l1.4-3.2h0.9l1.4,3.2h-0.9L19.1,53.7z M18.8,53.1l-0.4-1l-0.4,1H18.8z"/>
		<path d="M20.6,51.1h1.5c0.4,0,0.7,0.1,0.9,0.2c0.3,0.1,0.5,0.3,0.6,0.6c0.2,0.2,0.2,0.5,0.2,0.9s-0.1,0.6-0.2,0.9
			c-0.2,0.2-0.4,0.4-0.6,0.6c-0.3,0.1-0.6,0.2-0.9,0.2h-1.5V51.1z M22.1,53.6c0.3,0,0.5-0.1,0.7-0.2c0.2-0.2,0.3-0.4,0.3-0.6
			c0-0.3-0.1-0.5-0.3-0.6S22.4,52,22.1,52h-0.6v1.6H22.1L22.1,53.6z"/>
		<path d="M27.5,51.1l-1.4,3.2h-0.9l-1.4-3.2h1l0.9,2.1l0.9-2.1H27.5z"/>
		<path d="M30.3,53.6v0.7h-2.6v-3.2h2.5v0.7h-1.6v0.5H30V53h-1.4v0.6H30.3z"/>
		<path d="M32.3,53.5h-0.5v0.9h-0.9v-3.2h1.5c0.3,0,0.5,0,0.8,0.1c0.2,0.1,0.4,0.2,0.5,0.4s0.2,0.4,0.2,0.6c0,0.2-0.1,0.4-0.2,0.6
			c-0.1,0.2-0.3,0.3-0.5,0.4l0.7,1h-1L32.3,53.5z M32.7,52c-0.1-0.1-0.2-0.1-0.4-0.1h-0.5v0.9h0.5c0.2,0,0.3,0,0.4-0.1
			c0.1-0.1,0.1-0.2,0.1-0.3C32.9,52.2,32.8,52.1,32.7,52z"/>
		<path d="M35,51.9h-1v-0.7h2.9v0.7h-1v2.5H35V51.9z"/>
		<path d="M37.2,51.1h0.9v3.2h-0.9V51.1z"/>
		<path d="M39.1,54.3c-0.2-0.1-0.4-0.2-0.6-0.3l0.3-0.7c0.1,0.1,0.3,0.2,0.5,0.2c0.2,0.1,0.4,0.1,0.6,0.1c0.3,0,0.5-0.1,0.5-0.3
			c0-0.1,0-0.2-0.1-0.2S40,53,39.8,53c-0.2-0.1-0.4-0.1-0.6-0.2c-0.2-0.1-0.3-0.2-0.4-0.3c-0.1-0.1-0.2-0.3-0.2-0.5s0.1-0.4,0.2-0.5
			c0.1-0.2,0.3-0.3,0.5-0.4s0.5-0.1,0.8-0.1c0.2,0,0.4,0,0.6,0.1c0.2,0,0.4,0.1,0.5,0.2L40.9,52c-0.3-0.2-0.6-0.2-0.9-0.2
			c-0.2,0-0.3,0-0.4,0.1c-0.1,0.1-0.1,0.1-0.1,0.2c0,0.1,0,0.2,0.1,0.2s0.3,0.1,0.5,0.1c0.2,0.1,0.4,0.1,0.6,0.2
			c0.2,0.1,0.3,0.2,0.4,0.3c0.1,0.1,0.2,0.3,0.2,0.5s-0.1,0.4-0.2,0.5s-0.3,0.3-0.5,0.4c-0.2,0.1-0.5,0.1-0.8,0.1
			C39.6,54.4,39.4,54.4,39.1,54.3z"/>
		<path d="M41.8,51.1h0.9v3.2h-0.9V51.1z"/>
		<path d="M46.4,51.1v3.2h-0.7l-1.4-1.7v1.7h-0.9v-3.2h0.7l1.4,1.7v-1.7H46.4z"/>
		<path d="M49.2,52.7H50V54c-0.2,0.1-0.4,0.2-0.6,0.3c-0.2,0.1-0.5,0.1-0.7,0.1c-0.3,0-0.6-0.1-0.9-0.2c-0.3-0.1-0.5-0.3-0.6-0.6
			C47,53.3,47,53.1,47,52.7c0-0.3,0.1-0.6,0.2-0.9c0.2-0.3,0.4-0.5,0.6-0.6c0.3-0.1,0.6-0.2,0.9-0.2c0.3,0,0.6,0.1,0.8,0.2
			c0.2,0.1,0.4,0.2,0.6,0.4l-0.6,0.5c-0.2-0.2-0.5-0.4-0.8-0.4s-0.4,0.1-0.6,0.3s-0.3,0.4-0.3,0.7c0,0.2,0,0.3,0.1,0.5
			c0.1,0.1,0.2,0.2,0.3,0.3s0.3,0.1,0.5,0.1s0.2,0,0.4-0.1v-0.8H49.2z"/>
		<path d="M17.9,57.4v0.7h1.4v0.7h-1.4v1.1H17v-3.2h2.5v0.7H17.9z"/>
		<path d="M22.5,59.2v0.7h-2.6v-3.2h2.5v0.7h-1.6v0.5h1.4v0.7h-1.4v0.6H22.5z"/>
		<path d="M23.4,59.8c-0.2-0.1-0.4-0.2-0.6-0.3l0.3-0.7c0.1,0.1,0.3,0.2,0.5,0.2c0.2,0.1,0.4,0.1,0.6,0.1c0.3,0,0.5-0.1,0.5-0.3
			c0-0.1,0-0.2-0.1-0.2s-0.3-0.1-0.5-0.1c-0.2-0.1-0.4-0.1-0.6-0.2s-0.3-0.2-0.4-0.3s-0.2-0.3-0.2-0.5s0.1-0.4,0.2-0.5
			c0.1-0.2,0.3-0.3,0.5-0.4s0.5-0.1,0.8-0.1c0.2,0,0.4,0,0.6,0.1c0.2,0,0.4,0.1,0.5,0.2l-0.3,0.7c-0.3-0.2-0.6-0.2-0.9-0.2
			c-0.2,0-0.3,0-0.4,0.1s-0.1,0.1-0.1,0.2c0,0.1,0,0.2,0.1,0.2s0.3,0.1,0.5,0.1c0.2,0.1,0.4,0.1,0.6,0.2c0.2,0.1,0.3,0.2,0.4,0.3
			s0.2,0.3,0.2,0.5s-0.1,0.4-0.2,0.5s-0.3,0.3-0.5,0.4c-0.2,0.1-0.5,0.1-0.8,0.1C23.9,59.9,23.6,59.9,23.4,59.8z"/>
		<path d="M26.7,57.4h-1v-0.7h2.9v0.7h-1v2.5h-0.9V57.4z"/>
		<path d="M28.9,56.6h0.9v3.2h-0.9V56.6z"/>
		<path d="M33.7,56.6l-1.4,3.2h-0.9L30,56.6h1l0.9,2.1l0.9-2.1H33.7z"/>
		<path d="M35.9,59.2h-1.4l-0.3,0.6h-0.9l1.4-3.2h0.9l1.4,3.2h-0.9L35.9,59.2z M35.6,58.6l-0.4-1l-0.4,1H35.6z"/>
		<path d="M37.4,56.6h0.9v2.5h1.5v0.7h-2.4V56.6z"/>
	</g>
</g>
</svg>
