<?xml version="1.0" encoding="utf-8"?>
<!-- Generator: Adobe Illustrator 23.0.1, SVG Export Plug-In . SVG Version: 6.00 Build 0)  -->
<svg version="1.1" id="Layer_1" xmlns="http://www.w3.org/2000/svg" xmlns:xlink="http://www.w3.org/1999/xlink" x="0px" y="0px"
	 viewBox="0 0 70 70" style="enable-background:new 0 0 70 70;" xml:space="preserve">
<g>
	<path d="M46.28,44.81c-0.91-0.29-1.79-0.57-2.68-0.84c0.32-1.42,1.82-3.36,3.82-3.72c1.02-0.19,1.99-0.01,2.95,0.25
		c1.61,0.43,3.2,0.93,4.81,1.34c1.53,0.39,2.23,0.04,2.95-1.38c0.03-0.07,0.07-0.13,0.12-0.22c0.9,0.28,1.79,0.56,2.74,0.86
		c-0.58,1.49-1.43,2.68-2.88,3.37c-1.26,0.6-2.55,0.48-3.84,0.13c-1.55-0.42-3.08-0.89-4.63-1.3C47.75,42.8,47.24,43.04,46.28,44.81
		z"/>
	<path d="M58.25,33c0.91,0.29,1.8,0.56,2.74,0.86c-0.54,1.43-1.35,2.58-2.7,3.29c-1.26,0.66-2.59,0.6-3.91,0.24
		c-1.56-0.42-3.11-0.9-4.67-1.31c-1.96-0.51-2.43-0.3-3.44,1.49c-0.88-0.28-1.78-0.56-2.68-0.84c0.41-2.35,3.13-4.23,5.53-3.72
		c1.88,0.4,3.73,0.97,5.59,1.47c0.26,0.07,0.51,0.13,0.77,0.18c1.12,0.24,1.85-0.08,2.44-1.07C58.04,33.42,58.12,33.24,58.25,33z"/>
	<path d="M58.27,25.76c0.89,0.28,1.79,0.56,2.68,0.85c-0.62,2.62-3.27,4.27-5.96,3.66c-1.68-0.38-3.33-0.91-4.99-1.36
		c-0.31-0.09-0.63-0.16-0.95-0.23c-1.16-0.25-1.9,0.09-2.49,1.13c-0.09,0.16-0.17,0.33-0.27,0.53c-0.9-0.28-1.8-0.57-2.7-0.85
		c0.53-2.5,3.2-4.25,5.73-3.68c1.85,0.41,3.67,0.97,5.5,1.46c0.08,0.02,0.15,0.05,0.22,0.06c1.68,0.41,2.32,0.12,3.13-1.43
		C58.19,25.85,58.23,25.82,58.27,25.76z"/>
	<path d="M13.32,34.49c1.2,0.92,1,2.3,0.33,2.87c-0.33,0.28-0.81,0.51-1.23,0.55c-0.99,0.08-1.99,0.02-2.99,0.04
		C9.1,37.94,9,37.79,9,37.48c0.01-1.84,0.01-3.68,0-5.51c0-0.32,0.12-0.44,0.44-0.44c0.83,0.01,1.65,0.02,2.48,0
		c0.79-0.02,1.42,0.22,1.77,0.96C14.04,33.21,13.86,33.87,13.32,34.49z M9.7,37.25c0.94,0,1.83,0.02,2.71-0.01
		c0.58-0.01,1.05-0.51,1.09-1.08c0.04-0.58-0.35-1.19-0.92-1.22c-0.95-0.06-1.91-0.02-2.88-0.02C9.7,35.72,9.7,36.46,9.7,37.25z
		 M9.7,34.24c0.87,0,1.67,0.02,2.48-0.01c0.56-0.02,0.99-0.45,1.01-0.97c0.03-0.5-0.36-1.02-0.87-1.04
		c-0.86-0.04-1.73-0.01-2.62-0.01C9.7,32.89,9.7,33.54,9.7,34.24z"/>
	<path d="M32.95,25.86c0-0.89,0.02-1.78-0.01-2.66c-0.02-0.44,0.14-0.57,0.57-0.55c0.64,0.03,1.28,0,1.92,0.01
		c1.75,0.01,3.14,1.37,3.19,3.12c0.05,1.69-1.23,3.13-2.95,3.25c-0.76,0.05-1.53,0.02-2.29,0.03c-0.32,0.01-0.44-0.12-0.44-0.45
		C32.96,27.69,32.95,26.77,32.95,25.86z M33.65,23.37c0,1.67,0,3.32,0,5c0.63,0,1.22,0.01,1.81,0c1.28-0.03,2.36-1.03,2.46-2.25
		c0.1-1.37-0.72-2.53-2.06-2.73C35.15,23.29,34.41,23.37,33.65,23.37z"/>
	<path d="M28.73,41.63c0,0.74,0,1.41,0,2.13c0.81,0,1.6,0,2.39,0c0.14,0,0.28,0,0.42,0c0.24-0.01,0.49,0.05,0.42,0.34
		c-0.04,0.14-0.28,0.32-0.44,0.33c-0.75,0.03-1.5,0.02-2.24,0.02c-0.17,0-0.34,0-0.54,0c0,0.76,0,1.48,0,2.26c0.93,0,1.84,0,2.76,0
		c0.14,0,0.3-0.04,0.42,0.01c0.12,0.06,0.28,0.21,0.28,0.32c0,0.11-0.18,0.31-0.28,0.31c-1.18,0.02-2.37,0.02-3.55,0
		c-0.11,0-0.31-0.22-0.31-0.34c-0.02-1.9-0.02-3.8,0-5.7c0-0.11,0.21-0.32,0.33-0.32c1.15-0.02,2.31-0.01,3.46-0.02
		c0.24,0,0.43,0.11,0.35,0.36c-0.04,0.14-0.26,0.3-0.4,0.31c-0.87,0.03-1.74,0.01-2.62,0.01C29.05,41.63,28.91,41.63,28.73,41.63z"
		/>
	<path d="M35.54,34.53c0.9,0.89,1.82,1.78,2.72,2.68c0.17,0.17,0.5,0.42,0.22,0.7c-0.26,0.26-0.51-0.01-0.75-0.26
		c-0.87-0.89-1.75-1.78-2.62-2.66c-0.45,0.25-0.62,0.58-0.58,1.05c0.04,0.5,0,1,0.01,1.49c0,0.24-0.07,0.39-0.34,0.39
		c-0.28,0-0.32-0.17-0.32-0.4c0-1.87,0-3.74,0-5.61c0-0.24,0.06-0.39,0.34-0.39c0.28,0.01,0.32,0.18,0.32,0.41
		c-0.01,0.83,0,1.65,0,2.48c0.06,0.03,0.07,0.03,0.13,0.05c0.76-0.79,1.53-1.58,2.29-2.37c0.15-0.16,0.29-0.36,0.48-0.44
		c0.05-0.02,0.11-0.03,0.18-0.04c0.26-0.02,0.45,0.28,0.29,0.49c-0.01,0.01-0.02,0.02-0.03,0.03C37.13,32.93,36.36,33.7,35.54,34.53
		z"/>
	<path d="M30.24,37.93c-1.41-0.01-2.65-0.92-3.05-2.26c-0.41-1.35,0.1-2.79,1.26-3.59c1.14-0.78,2.71-0.73,3.8,0.13
		c0.11,0.09,0.26,0.18,0.29,0.29c0.03,0.12-0.05,0.36-0.13,0.38c-0.14,0.04-0.36,0.01-0.48-0.08c-0.96-0.72-2.02-0.82-2.97-0.25
		c-1.26,0.76-1.63,2.37-0.82,3.58c0.81,1.22,2.43,1.5,3.62,0.63c0.08-0.06,0.15-0.11,0.22-0.18c0.18-0.19,0.39-0.21,0.5,0.01
		c0.06,0.13,0.03,0.39-0.07,0.5C31.91,37.63,31.07,37.93,30.24,37.93z"/>
	<path d="M25.1,47.36c-0.98-0.01-1.73-0.69-1.81-1.55c-0.02-0.23-0.03-0.49,0.28-0.47c0.13,0.01,0.33,0.21,0.37,0.35
		c0.17,0.66,0.63,1.06,1.2,1c0.56-0.06,1-0.55,0.99-1.11c-0.01-0.62-0.45-1.05-1.15-1.11c-0.92-0.08-1.56-0.64-1.68-1.47
		c-0.13-0.87,0.32-1.63,1.12-1.94c1.08-0.4,2.3,0.36,2.37,1.47c0.01,0.21,0.02,0.41-0.28,0.43c-0.25,0.01-0.35-0.1-0.39-0.35
		c-0.11-0.67-0.58-1.04-1.2-0.98c-0.56,0.05-0.99,0.54-0.98,1.11c0.01,0.6,0.43,1,1.12,1.07c0.97,0.09,1.65,0.72,1.72,1.6
		c0.07,0.91-0.46,1.67-1.32,1.89C25.31,47.35,25.16,47.35,25.1,47.36z"/>
	<path d="M35.82,42.04c-0.28,0.6-0.54,1.13-0.78,1.66c-0.5,1.07-1,2.14-1.5,3.22c-0.05,0.1-0.07,0.25-0.14,0.29
		c-0.15,0.08-0.33,0.1-0.49,0.14c-0.03-0.15-0.14-0.32-0.09-0.44c0.14-0.38,0.33-0.74,0.51-1.1c0.68-1.47,1.36-2.94,2.06-4.39
		c0.09-0.18,0.28-0.39,0.46-0.42c0.12-0.02,0.34,0.22,0.42,0.39c0.86,1.78,1.69,3.57,2.53,5.36c0.09,0.2,0.31,0.44-0.03,0.59
		c-0.3,0.13-0.47-0.06-0.6-0.34c-0.69-1.5-1.4-2.99-2.1-4.48C35.99,42.38,35.92,42.24,35.82,42.04z"/>
	<path d="M29.03,23.73c-0.27,0.56-0.51,1.06-0.74,1.57c-0.51,1.1-1.02,2.2-1.53,3.3c-0.05,0.11-0.09,0.28-0.18,0.32
		c-0.15,0.07-0.34,0.09-0.5,0.07c-0.04,0-0.11-0.28-0.06-0.38c0.87-1.91,1.76-3.81,2.66-5.71c0.17-0.36,0.55-0.36,0.71-0.01
		c0.9,1.9,1.8,3.8,2.68,5.7c0.05,0.11-0.06,0.29-0.09,0.43c-0.17-0.04-0.35-0.06-0.49-0.14c-0.09-0.05-0.12-0.21-0.17-0.33
		c-0.69-1.47-1.37-2.93-2.06-4.4C29.19,24.04,29.13,23.92,29.03,23.73z"/>
	<path d="M23.64,32.58c-0.77,1.65-1.49,3.2-2.21,4.75c-0.06,0.13-0.09,0.3-0.19,0.37c-0.16,0.11-0.36,0.14-0.54,0.2
		c-0.02-0.16-0.1-0.36-0.05-0.48c0.61-1.35,1.24-2.68,1.86-4.02c0.24-0.52,0.47-1.05,0.74-1.56c0.07-0.13,0.26-0.27,0.4-0.28
		c0.12-0.01,0.3,0.15,0.36,0.27c0.89,1.87,1.77,3.74,2.64,5.61c0.05,0.12-0.05,0.31-0.08,0.46c-0.18-0.07-0.46-0.09-0.53-0.22
		c-0.41-0.79-0.77-1.6-1.15-2.4C24.5,34.41,24.09,33.54,23.64,32.58z"/>
	<path d="M16.5,37.27c0.98,0,1.9,0,2.82,0c0.12,0,0.27-0.04,0.37,0.01c0.14,0.07,0.23,0.22,0.35,0.33
		c-0.12,0.11-0.24,0.31-0.36,0.31c-1.15,0.02-2.3,0.01-3.46,0.02c-0.28,0-0.39-0.12-0.39-0.4c0-1.87,0-3.74,0.02-5.6
		c0-0.13,0.19-0.35,0.32-0.38c0.31-0.07,0.33,0.18,0.33,0.42c0,1.57,0,3.14,0,4.72C16.5,36.86,16.5,37.02,16.5,37.27z"/>
</g>
</svg>
