<svg xmlns="http://www.w3.org/2000/svg" xmlns:xlink="http://www.w3.org/1999/xlink" width="84.058" height="65.838" viewBox="0 0 84.058 65.838"><defs><style>.a{fill:#1b1c20;}.b{clip-path:url(#a);}.c{fill:none;stroke:#1b1c20;stroke-miterlimit:10;}</style><clipPath id="a"><ellipse cx="20.301" cy="20.301" rx="20.301" ry="20.301"/></clipPath></defs><g transform="translate(0)"><g transform="translate(0 0)"><g transform="translate(0 0)"><path class="a" d="M100.141,49.551a.05.05,0,0,0-.047.047V50a.05.05,0,0,0,.047.047h.772v2.619a.05.05,0,0,0,.047.047h.421a.05.05,0,0,0,.047-.047V50.042h.772a.05.05,0,0,0,.047-.047v-.4a.05.05,0,0,0-.047-.047Zm4.912,0c-.023,0-.047,0-.047.023,0,0-.772,1.824-.865,2.011-.07-.187-.865-2.011-.865-2.011,0-.023-.023-.023-.047-.023h-.515a.05.05,0,0,0-.047.047v3.064a.05.05,0,0,0,.047.047h.421a.023.023,0,0,0,.023-.023v-.023s0-1.778-.023-2.152c.14.327.772,1.778.772,1.778,0,.023.023.023.047.023h.327c.023,0,.023,0,.047-.023,0,0,.608-1.427.748-1.778,0,.374-.023,2.152-.023,2.152a.023.023,0,0,0,.023.023l.023.023h.421a.05.05,0,0,0,.047-.047V49.6a.05.05,0,0,0-.047-.047ZM36.572,56.38c0,1.076,0,3.508,1.4,5.192.023.047.07.07.094.117a5.268,5.268,0,0,0,4.21,1.637,12.221,12.221,0,0,0,4.3-.585.438.438,0,0,0,.281-.421v-1.4a.421.421,0,0,0-.164-.351h0c-.023-.023-.047-.023-.047-.047a.643.643,0,0,0-.421-.047,18.031,18.031,0,0,1-3.929.351,2.774,2.774,0,0,1-2.2-.8,4.169,4.169,0,0,1-.8-2.315V57.62H47.05a.45.45,0,0,0,.444-.468v-.8c0-2.619-.257-5.379-2.643-6.455h0l-.14-.07a6.538,6.538,0,0,0-2.409-.421C36.572,49.457,36.572,54.673,36.572,56.38Zm12.934,0c0,1.216,0,4.14,1.988,5.777A5.6,5.6,0,0,0,55.212,63.3a12.221,12.221,0,0,0,4.3-.585.42.42,0,0,0,.257-.421v-1.4a.4.4,0,0,0-.21-.374.023.023,0,0,1-.023-.023.524.524,0,0,0-.421-.023,18.03,18.03,0,0,1-3.929.351,3.234,3.234,0,0,1-1.707-.4,3.273,3.273,0,0,1-1.263-2.736V57.6h7.718a.45.45,0,0,0,.444-.468v-.8c0-2.83-.281-5.824-3.274-6.689a1.493,1.493,0,0,0-.164-.047h0a6.738,6.738,0,0,0-1.778-.21C49.506,49.457,49.506,54.673,49.506,56.38Zm37.187,0c0,1.473,0,5.543,3.625,6.642a7.058,7.058,0,0,0,2.1.281,12.221,12.221,0,0,0,4.3-.585.438.438,0,0,0,.281-.421v-1.4a.4.4,0,0,0-.21-.374.179.179,0,0,0-.117-.047.771.771,0,0,0-.327,0,18.031,18.031,0,0,1-3.929.351,4.039,4.039,0,0,1-.982-.117h0l-.047-.023c-1.45-.4-1.8-1.661-1.918-2.994l-.023-.094h7.742a.45.45,0,0,0,.444-.468v-.8c0-3.111-.351-6.385-4.163-6.876a7.452,7.452,0,0,0-1.052-.07C86.693,49.457,86.693,54.673,86.693,56.38Zm-56.2-9.636a2.718,2.718,0,0,1,.678,2.082c0,1.848-.982,2.736-3.017,2.736H24.176V46.019h3.766a3.61,3.61,0,0,1,2.479.678C30.444,46.721,30.468,46.721,30.491,46.744Zm3.3,7.414a4.651,4.651,0,0,0-1.637-1.45.336.336,0,0,1-.07-.047.29.29,0,0,0,.07-.047A4.693,4.693,0,0,0,34.14,48.8c0-1.965-.772-5.216-5.8-5.4H21.954a.457.457,0,0,0-.444.3h0v.023h0v.023h0v.023h0V43.8h0v.023h0v.023h0V62.531h0a.48.48,0,0,0,.491.491h6.081c4.35,0,6.759-2.035,6.759-5.754a5.457,5.457,0,0,0-.912-3.087h0Zm-5.637.047c2.269,0,3.3.585,3.578,2.152h0l.023.07a5.231,5.231,0,0,1,.047.889c0,1.544-.444,3.134-3.7,3.134H24.176V54.205Zm61.254,1.006c.14-1.707.585-3.3,2.994-3.3a2.685,2.685,0,0,1,.444.023h.047c1.59.187,1.941,1.286,1.965,3.274V55.3h-5.5Zm-37.187,0c.117-1.707.585-3.3,2.994-3.3a3.529,3.529,0,0,1,.912.094h0l.047.023c1.216.327,1.473,1.4,1.52,3.181V55.3h-5.52Zm-12.934,0c.117-1.707.585-3.3,2.994-3.3a3.233,3.233,0,0,1,1.263.211c.982.421,1.216,1.45,1.263,3.087V55.3h-5.52ZM65.41,43.938a.469.469,0,0,0-.468-.468H63.211a.461.461,0,0,0-.421.468V62.625a.453.453,0,0,0,.234.4h0a.451.451,0,0,0,.234.07h1.684a.469.469,0,0,0,.468-.468Zm5.8,6.221a.436.436,0,0,0-.4-.444h0c-.023,0-.047-.023-.094-.023H69.035a.45.45,0,0,0-.444.468V62.625a.482.482,0,0,0,.257.421.683.683,0,0,0,.211.047h1.684a.469.469,0,0,0,.468-.468V50.159Zm4.982.374L76,50a.429.429,0,0,0-.374-.3H74.578a.469.469,0,0,0-.468.468V62.625a.462.462,0,0,0,.281.421.55.55,0,0,0,.187.047h1.754a.469.469,0,0,0,.468-.468V52.545l.047-.023a5.565,5.565,0,0,1,2.853-.608,6.224,6.224,0,0,1,.7.047c1.076.164,1.31.748,1.31,1.614v9.051a.428.428,0,0,0,.3.421.551.551,0,0,0,.187.047h1.754a.469.469,0,0,0,.468-.468V53.644a3.746,3.746,0,0,0-3.391-4.093h0l-.094-.023a6.85,6.85,0,0,0-1.24-.094,6.576,6.576,0,0,0-3.415,1.029Zm-6.338-3.485H69.9a1.5,1.5,0,1,0,0-2.994h-.094a1.5,1.5,0,0,0,.047,2.994Z" transform="translate(-21.51 2.511)"/><g transform="translate(17.144)"><g class="b"><path class="c" d="M69.465,43.968A20.852,20.852,0,0,1,68.857,49a20.31,20.31,0,0,1-39.409,0A21.355,21.355,0,0,1,28.84,44.2a22.1,22.1,0,0,1,.538-4.841,20.337,20.337,0,0,1,40.087,4.607Z" transform="translate(-28.84 -23.784)"/><path class="a" d="M68.905,39.37H29.379a19.333,19.333,0,0,0-.538,4.841,19.1,19.1,0,0,0,.608,4.795H68.858a20.14,20.14,0,0,0,.047-9.636ZM34.969,58.6a20.3,20.3,0,0,0,28.37,0ZM49.025,23.77a20.3,20.3,0,0,0-14.267,5.987H63.549A20.18,20.18,0,0,0,49.025,23.77Z" transform="translate(-28.841 -23.77)"/></g></g></g></g></g></svg>