<svg xmlns="http://www.w3.org/2000/svg" width="71.436" height="64.316" viewBox="0 0 71.436 64.316"><defs><style>.a{fill:#1b1c20;}</style></defs><g transform="translate(0 0)"><g transform="translate(0 0)"><g transform="translate(0 0)"><path class="a" d="M47.385,51.415,45.32,53.253h2.065a.8.8,0,0,1,.59-.113,8.138,8.138,0,0,0,1.929.113,2.465,2.465,0,0,1,.908-.136c.34.045,1.475.159,1.475.159a4.422,4.422,0,0,1-1.089-.522,8.136,8.136,0,0,1-1.679-1.793C49.268,50.326,47.385,51.415,47.385,51.415Z" transform="translate(7.417 10.785)"/><path class="a" d="M49.869,49.791a10.786,10.786,0,0,0,1.52,1.657,1.366,1.366,0,0,1,.658,1.021c.091.431,1.634,1.067,1.861,1.725.227.635.25,1.044.726,1.316a4.174,4.174,0,0,1,1.43,1.861c0,.386.091.5.477.613s.93.908,1.271,1.5c.34.567.681,1.566,1.18,1.906s.613.363.908.25a1.432,1.432,0,0,1,1.021-.068,1.713,1.713,0,0,0,.976-.136,2.079,2.079,0,0,1-.272-.93.984.984,0,0,1,.272-.772c.045,0-.068-.182-.2-.613s.113-1.293.045-1.611-.454-.658-.386-1.271.658-1.2.567-1.725c-.091-.5-.522-1.362-.408-1.725s0-.159-.068-.749a1.105,1.105,0,0,1,.363-1.044c.159-.113-.272-1.044-.091-1.316s-.318-.726-.182-1.021A4.451,4.451,0,0,0,61.918,47c-.023-.545-.136-.34,0-.635a8.838,8.838,0,0,1,1.2-1.225,2.319,2.319,0,0,0,.567-.25,1.341,1.341,0,0,0,.318-.431s-2.36-.068-2.678,0a5.347,5.347,0,0,1-2.088-.023c-.182-.227-.454-.068-.84,0a13.918,13.918,0,0,1-1.475.068v.272a3.559,3.559,0,0,1,1.679.885c.431.59.34,2.519.386,2.723s.454.5.431.681-.3.658-.272.93.431.772.25.84-.454.454-.386.658a1.885,1.885,0,0,1,.272,1.112v1.5a.826.826,0,0,0-.25.772c.113.454.227.227.227.84v.613a3.308,3.308,0,0,1-.976-.84c-.2-.386-.113-.5-.431-.749a3.592,3.592,0,0,1-.93-1.044c-.113-.295-.2-.295-.522-.7a7,7,0,0,1-.7-1.225c-.068-.159-.272-.25-.749-.681s-.726-.726-.7-1.044-.454-.681-1.021-1.293-.658-.386-.772-1.112S51.412,46.546,51.3,46.41s-.2-.567-.386-.749a5.659,5.659,0,0,1-.522-1.112H48.575a10.157,10.157,0,0,1-1.044.045c-.272-.023-2.2,0-2.2,0v.113a6.784,6.784,0,0,1,1.316.862,1.007,1.007,0,0,0,.454.567.5.5,0,0,1,.272.386,5.477,5.477,0,0,0,.045,1,2.838,2.838,0,0,1,0,.772,4.169,4.169,0,0,0,0,1.2c.113.25.295.749.113.817s-.159.885-.113,1.248,0,2.837,0,2.837-.363.363-.227.658a1.484,1.484,0,0,1,.25.772,4.49,4.49,0,0,1-.227,1.588c-.182.25.136.408.159.681s0,1.452,0,1.611a12.178,12.178,0,0,0,2.405-.045,3.629,3.629,0,0,0,.113-1.067c-.068-.318-.2-.726-.045-.976a1.724,1.724,0,0,0,.113-1.067c-.068-.272.227-.522.091-.885a3.12,3.12,0,0,1-.3-.908c.023-.182.182-.182.023-.681s.272-1.112.272-1.362a14.237,14.237,0,0,0-.182-1.679A3.508,3.508,0,0,1,49.869,49.791Z" transform="translate(7.43 2.606)"/><path class="a" d="M53.284,60.592c-.136-.5-.613-.5-1.044-.522-.454-.023-.726-.772-.908-1.067a3.853,3.853,0,0,0-.976-.862,1,1,0,0,1-.454-.772c-.068-.136-.431-.25-.431-.25a2.288,2.288,0,0,0-.5-.408c-.227-.091-.113-.431-.113-.567s-.522-.386-.772-.567-.363-.386-.3-.522c.045-.159-.091-.3-.227-.386-.136-.113-.817-.772-.817-.772s.227-.113.25-.25.477-.136.7-.113a1.66,1.66,0,0,0,1-.408c.2-.25.363-.182.749-.295.408-.113.408-.408.885-.545.477-.159.522-.522.749-.613.2-.091.2-.613.227-.885s.3-.34.3-.522a2.421,2.421,0,0,1,.25-.84c.091-.091-.045-.431.068-.522a.655.655,0,0,0,.113-.7c-.136-.25,0-.408,0-.59a1.22,1.22,0,0,0-.522-.658c-.182-.091-.045-.272-.091-.408a.773.773,0,0,0-.522-.363c-.159,0-.25-.3-.3-.522-.068-.227-.454-.34-.635-.454a2.481,2.481,0,0,0-.862-.227c-.318-.023-.386-.363-.7-.386-.295-.023-.545.159-.862,0a3.1,3.1,0,0,0-1.43-.068,16.412,16.412,0,0,1-2.746-.159c-.3-.068-.545.182-.84.136a7.926,7.926,0,0,0-1.588-.113c-.227.068-.408.2-.681.068a21.252,21.252,0,0,0-2.61-.068s.522.25.613.5.227.34.5.477.749.545.749.658.068,3.109.091,3.631a1.451,1.451,0,0,1-.136.749c-.045.182.3.34.3.635s-.136.59-.136.908-.091.885-.091,1.112a3.391,3.391,0,0,1-.023.953,1.52,1.52,0,0,0,.136.953c.113.2-.113.431-.136.522-.045.113.091,1.021.091,1.225a2.579,2.579,0,0,0,.159,1.067c.113.091-.113.386-.2.522a3.387,3.387,0,0,0-.023,1,2.75,2.75,0,0,1-1.089,1.384,6.41,6.41,0,0,0-.953.613h1.747c.613,0,.7-.2,1-.272s.635.408.817.431.477-.182.658-.227.567.091.93.091,2.473-.091,2.473-.091l-.386-.091a.742.742,0,0,0-.091-.431c-.113-.136-1.2-1.18-1.2-1.18s0-1.815-.068-1.952a.549.549,0,0,1,.045-.522c.091-.227-.159-.7-.159-.885a2.17,2.17,0,0,1,.113-.794c.113-.113-.068-.976.045-1.021.091-.045.635.431.772.794s-.136.318.091.408c.25.091.386.477.794,1.021a2.122,2.122,0,0,0,1.044.84c.3.113.386.681.431.908s.136.658.408.749a18.043,18.043,0,0,1,1.566,1.7.409.409,0,0,1,.091.386s1.067.113,1.293.091a3.215,3.215,0,0,1,1.407-.068,21.686,21.686,0,0,0,3.245,0S53.42,61.091,53.284,60.592Zm-6.989-8.669a2.116,2.116,0,0,1-.635.136,1.776,1.776,0,0,1-.885.34c-.477.091-1.52.113-1.5,0a1.11,1.11,0,0,1,.159-.431c.136-.227-.272-.272-.272-.454a1.369,1.369,0,0,1,.25-.59c.068-.113-.182-.386-.25-.681s.045-.953.2-1c.159-.068-.068-.386-.182-.749-.113-.386.091-.613.182-.953.091-.318-.272-.454-.25-.817a1.445,1.445,0,0,1,.159-.613,2.152,2.152,0,0,0,.772,0,.477.477,0,0,1,.59,0c.182.182.5.091.817.091a1.36,1.36,0,0,1,.749.182c.25.159.522.023.7.113a1.224,1.224,0,0,1,.59.726c.068.34.068.318.5.5.454.182-.091.635-.136.749s.34.408.272.681c-.068.25-.25.477-.363.84-.091.363-.318.862-.386,1.157C47.361,51.4,46.7,51.742,46.295,51.923Z" transform="translate(-2.521 2.652)"/><path class="a" d="M36.539,44.5a6.563,6.563,0,0,0-1.747-.159,3.192,3.192,0,0,1-1.021.159,1.886,1.886,0,0,0-.953-.091,6.041,6.041,0,0,1-2,.091,12.307,12.307,0,0,0-1.861-.159s.25.477.477.567.567.567.567.567.431.3.613.408.726.545.749.7a4.955,4.955,0,0,1-.182.885l.023.7a1.384,1.384,0,0,0-.318.635.821.821,0,0,0,.2.794,2.039,2.039,0,0,0,.068.681,5.132,5.132,0,0,1,.113,1.952c-.159.182-.068.794-.068.794a3.522,3.522,0,0,1-.068,1.157c-.136.159-.023.794-.023.794a5.793,5.793,0,0,0,.068,1.475,3.489,3.489,0,0,1,.295,1.5c0,.681.454.726.681,1.044a4.554,4.554,0,0,1,.431,1.067,5.217,5.217,0,0,1,1.157.545c.454.318.794.159.885.34a1.189,1.189,0,0,0,.635.431c.159.023.386.159.613.113a.781.781,0,0,1,.59.113c.2.113.386-.023.749,0a5.117,5.117,0,0,1,.953.045.867.867,0,0,0,.59,0c.2-.068.454.045.794.045.34.023.885-.295,1.044-.227a4.35,4.35,0,0,0,2.02-.658,8.655,8.655,0,0,1,1.634-1.2c.227,0,.34-.635.34-.862s.386-.227.34-.635a1.962,1.962,0,0,1,.272-1.271,1.589,1.589,0,0,0,0-1.248.614.614,0,0,1,.2-.794.834.834,0,0,0,.136-1.067,3.927,3.927,0,0,1-.023-2.11.579.579,0,0,0,0-.7c-.159-.136.023-.862.023-.862s-.045-.953-.182-1.044.136-.794.136-.953v-.7a7.639,7.639,0,0,1-.2-.84c0-.136.182-.454.25-.454s1.815-1.543,1.815-1.543-6.672-.091-6.967-.159-.545-.023-.363.113c.182.113.545.091.817.25s.567.613.953.794,1,.7.885.772-.068.522-.068.522.159.386.068.545-.431.817-.272.976.454.2.386.567-.363.59-.272,1,.227.613.227.794-.182,1.793-.227,2.042.3.159.272.726-.658,1.044-.431,1.362.431.431.25.7a3.293,3.293,0,0,0-.068,1.293s.25.749,0,.84-.522.227-.522.363.023.635.023.635a1.934,1.934,0,0,0-.431.386.928.928,0,0,1-.59.545,8.575,8.575,0,0,1-3.268.227c-1.112-.227-1-.613-1.362-.658-.34-.045-.658-.5-.772-.658s-.113-.34-.25-.59a3.325,3.325,0,0,1-.318-.635c-.091-.272-.25-1.225-.25-1.225A.666.666,0,0,0,35,55.283a1.464,1.464,0,0,1-.227-1.2,1.969,1.969,0,0,0,.091-1.044,4.308,4.308,0,0,1,.136-1.2c.023-.136-.5-.817-.408-1.044s.34-1.089.34-1.089l-.091-.953s.136-1.679.113-1.883-.25-.567,0-.817S36.063,44.663,36.539,44.5Z" transform="translate(-13.348 2.605)"/><path class="a" d="M37.171,58.033c-.091-.431-.318-1.407-.159-1.543.159-.159.023-.749-.182-1.089s-.658-.862-.681-1.18c-.023-.3-.817-.5-.976-.7s-.794-.34-1-.454c-.227-.136-.386-.386-.658-.386s-1.316-.2-1.316-.2,1.52-.59,1.815-.681,1-.25,1.089-.5c.068-.25.25-.772.431-.794s.454-.59.477-.908a2.257,2.257,0,0,1,.431-.908c.113-.159-.408-.522-.477-1.067s.023-.976-.045-1.157-.817-1.384-1.112-1.362-1.18-.091-1.316-.318-1.18-.227-1.634-.2-1.135-.227-1.5-.2c-.34.023-.726-.023-1.316,0s-1.588.159-1.7.159-1.067-.159-1.067-.159l-1.43.136a4.963,4.963,0,0,0-1.293-.182c-.3.045-1.021.2-1.021.2s1.657,1.2,1.77,1.725a3.89,3.89,0,0,0,.2,1.112,1.829,1.829,0,0,1,.068.885s.5.3.25.545a2.293,2.293,0,0,0-.408.794s.227.408.113.613a2.791,2.791,0,0,0,0,1.225c.068.2.227.749-.023.817s.113.454.2.477.136.545-.068.658-.431.749-.227.862.386.862.386.862a4.1,4.1,0,0,1-.227,1.43,3.48,3.48,0,0,0-.091,2.02.914.914,0,0,1,.091.749c-.068.182-.3.25-.25.386s-.635.953-1.157,1.225a3.209,3.209,0,0,1-1.089.318h2.814a4.888,4.888,0,0,1,1,0,3.707,3.707,0,0,0,.885,0,4.462,4.462,0,0,0,.93.045,3.787,3.787,0,0,1,.681-.068,5.4,5.4,0,0,0,2.02.318,9.424,9.424,0,0,1,2.36-.227c.7.159.749-.431,1.316-.431a2.811,2.811,0,0,0,1.657-.953c.2-.318.7-.3.93-.976C36.9,58.328,37.261,58.464,37.171,58.033Zm-9.009-8.351c.068-.545-.227-1,0-1.452.2-.431.182-.386.182-.545s-.159-.318-.272-.635-.023-.522-.113-.862c0,0,2.428-.318,2.678,0s1.316.567,1.679.862c.363.272.023.59.091,1s.431.953.363.953a1.579,1.579,0,0,0-.25,1.044c.068.408-.386.635-.613.772s-.295.613-.84.817a12.513,12.513,0,0,1-3.109.113c-.091-.068.227-.454.2-.908A3.293,3.293,0,0,1,28.162,49.682Zm4.97,7.784a15.694,15.694,0,0,1-.794,1.384,4.176,4.176,0,0,1-1.452.635,7.828,7.828,0,0,1-2.292.318c-.522,0-.431-.272-.454-.567s-.3-.567-.136-.862a3.262,3.262,0,0,0,.068-1.657,8.055,8.055,0,0,1,.068-1.793c0-.567-.454-.681-.182-.817.295-.136-.3-.635,0-.635.726-.045,2.36-.068,2.428.159.045.227,1.044.272,1.293.477s.93.908.93.908.227.363.522.794A2.26,2.26,0,0,1,33.131,57.466Z" transform="translate(-22.08 2.601)"/><g transform="translate(11.982)"><path class="a" d="M44.674,48.329a5.229,5.229,0,0,1,.227-2.882c.567-1.747,1.225-2.428,1.293-3.767a3.822,3.822,0,0,0-.386-2.088s-.045,1.883-.431,1.883-1-.272-.681-1.112.272-1.7.5-2.156-.068-1.475.068-2.02.386-.567-.045-1.316a3.619,3.619,0,0,1-.477-1.407,18.327,18.327,0,0,1-.726,4.334c-.613,1.725-2.088,5.06-2.95,5.265s-.545-.862-.545-.862-.136,2.973-.681,3.154-.658.749-.862,1.135-1.225.545-1.5,1.293c-.25.749-.318,1.044-.658,1.135s-.136.477-.2.613a3.063,3.063,0,0,0-.59,2c.091,1.135.25,2.519.25,2.519a4.171,4.171,0,0,1-.976-2.178,11.783,11.783,0,0,0,0,1.974,12.952,12.952,0,0,0,.113,2.065c.159.431-.25-.023-.159.59a3.046,3.046,0,0,0,.567,2c.613.658.227.408.431.93s.726,1,1.021,1.566c.295.545.136,1.18.908,1.7a6.573,6.573,0,0,1,1.316,1.18,1.967,1.967,0,0,0,.635.431,1.813,1.813,0,0,0,1.18,1c.817.159.749.34.749.34s-1.18.023-1.384-.182-.976-.25-1.067-.272-.522-.794-1.112-.862-.726.023-1.248-.545-3.018-1.43-2.882-1.475a5.071,5.071,0,0,1,2.02.136l.59.25a8.646,8.646,0,0,0-1.611-.93c-.545-.182-.318-.522-2.405-.431s-2.7.363-3.041.272a1.7,1.7,0,0,0-1.18.091c-.613.2-.386.545-.7.613s-.681.817-.681.817a6.514,6.514,0,0,0,1.52-.091,3.36,3.36,0,0,1,1.566-.227,10.457,10.457,0,0,1,1.974.635c.522.25.908-.25,1.316-.045s1.089.794,1.861,1.157c.749.363.658.227,1.2.522.567.3.885.091,1.43.386a4.3,4.3,0,0,0,1.974.658,4.786,4.786,0,0,1,1.747.272c.635.25.817-.068,1.52.159a3.84,3.84,0,0,0,1.861,0,3.287,3.287,0,0,0,.454-.182,5.494,5.494,0,0,1-2.156-.794c-.454-.5-.182-.953-.59-.953s-.113.408-1.021-.227-1.362-1.18-1-1.225a5.156,5.156,0,0,1,1.2.113c.3.045-.681-.726-.7-1.089a12.036,12.036,0,0,0-1.248-2.11s1.293,1.271,1.747,1.657c.431.363.726.567.885.363s-.227-1.021.227-.567.431,1.112,1.18,1.5a19.569,19.569,0,0,0,2.065.794,6.949,6.949,0,0,1-1.384-1.157,13.754,13.754,0,0,0-1.475-1.566s1.225.159.817-.7-.567-1.112-.681-1.157-.023-.817-.023-.817-.386-.7-.182-.772.068.408.34-.113.136-.7.136-.7a5.606,5.606,0,0,0,.068,1.43c.136.386.567,1.7.567,1.7s.25-2.723.386-3.495.068-1.588.272-1.657a.723.723,0,0,0,.431-.59c.045-.3.25-.5.7-.908a5.828,5.828,0,0,0,.862-2.088.422.422,0,0,0,.681.295c.567-.318.885-1.362,1.067-1.77a2.553,2.553,0,0,0,.2-.794s.3.159.613-.363.613-.817.635-1.021.386-.227.522-.681a17.925,17.925,0,0,0,.159-2.405,3.772,3.772,0,0,1,.545,1.747c-.091.635-.3.613-.136,1.293a1.21,1.21,0,0,1-.3,1.18c-.182.3.136.749-.113.976a2.491,2.491,0,0,0-.817,1.135c-.068.431-.182.749-.3.794a.86.86,0,0,0,0,.976c.272.34.885.159,1.293-.318s.658-.658.7-.93l.045-.272s.59.113.726-.386a7.967,7.967,0,0,1,.772-1.588,4.879,4.879,0,0,0,.113-1.067s.772.113.817-.431-.023-.885.113-.953a3.4,3.4,0,0,0,.908-1.566,12.683,12.683,0,0,0,.408-2.61,18.751,18.751,0,0,1-.3,5.877,35.466,35.466,0,0,0-1.021,3.812c-.182.862-.386.749-.386,1.157s.318.068.023.908a14.527,14.527,0,0,0-.136,2.746A1.816,1.816,0,0,0,54.3,58.4c.2.227.113.34.272.7s.749.363,1.112.2.681-1.52.635-1.77a2.458,2.458,0,0,1,0,2c-.477.93-.953,3.109.658,3.495A1.906,1.906,0,0,0,59.2,61.945s.318,1.157,0,1.52c-.318.34-.2-.113-.454.726s-2.042,1.611-2.837,1.7a6.328,6.328,0,0,0-1.248.25,3.348,3.348,0,0,0,2.405.408,19.955,19.955,0,0,1,3.336-.34c1.18,0,.59-.136,1.225-.34s1.112-.862,1.861-.976a12.018,12.018,0,0,0,1.952-.817,5.463,5.463,0,0,0,.976-.431c.25-.113,1.18-.363,1.452-.477a2.4,2.4,0,0,1,1.815-.318,3.133,3.133,0,0,0,1.657-.045s1.135.227,1.634.363-.182-.908-1.793-1.5a5.178,5.178,0,0,0-2.451-.454c-.7-.023-1.543-.091-1.974-.091s-.5.318-1.021.272-.681.431-1.112.431-.93.772-.93.772,1.566-.431,2.315-.635.84.045.84.045a5.044,5.044,0,0,1-1.248.522c-.408.045-.681.091-.84.3a3.245,3.245,0,0,1-1.384.726c-.318,0-1.407.068-1.52.295s-.318.817-.545.817a9.7,9.7,0,0,0-1.316.386,17.416,17.416,0,0,0,2.065-2.065,6.579,6.579,0,0,0,1.588-2.814,2.871,2.871,0,0,1,.613-1.793c.272-.136.227-.545.227-.862a2.383,2.383,0,0,1,.113-.93c.113-.227-.159-1.52.023-1.906a1.605,1.605,0,0,0,.045-1.543,5.446,5.446,0,0,1-.545-1.566,4.38,4.38,0,0,1-.318,1.18,4.538,4.538,0,0,0-1.225.635c-.227.272-.794.681-1.225.431s-.545-.93-.749-1.157a1.883,1.883,0,0,1-.227-1.2,4.24,4.24,0,0,1,.272-1.588c.113-.068.045-.7.045-.84s.477.567.613-.045-.023-.635,1.044-2.042,2.791-3.608,2.791-3.608-1.725,1.2-2.133,1.52-.681.545-.885.386-.25-.635-.25-.635-.34,1.588-.862,1.747-1.157.431-1.135-.159a2.412,2.412,0,0,1,.658-1.362c.272-.34.976-1.657,1.475-1.815.477-.159.386-.7.658-1.157s.749-.477.613-.953a6.807,6.807,0,0,1,0-1.7s-1,1.634-1.657,1.52S61.194,39,61.194,39s-1,2.2-1.77,1.815c-.749-.386.794-2.882.749-4.289a8.134,8.134,0,0,1,0-1.5c.023-.363.545-.658.34-1.021a2.094,2.094,0,0,1-.182-1.2c.045-.318-.068-.658.023-1.384a3.283,3.283,0,0,0-.658-2.269c-.635-1.089-1.566-2.428-1.566-2.428l.113.93-.182.113a3.1,3.1,0,0,1,.545,1.725l.091,1.18a7.926,7.926,0,0,0-.908-2.292,9.359,9.359,0,0,1-.84-2.224,4.509,4.509,0,0,0-.59-.976s-.431.84-1.067,0a1.494,1.494,0,0,1-.272-1.543,3.717,3.717,0,0,1-1.611.25,6.881,6.881,0,0,1-1.248-.25,5.6,5.6,0,0,1,2.814,3.9,19.438,19.438,0,0,1,.454,3.472,3.6,3.6,0,0,1-1.089-1.725s.772,4.153-.068,4.4-1.588-1.225-1.588-1.225,1.135,3.767.227,4.97c-.908,1.18-.862,1.316-1.089,1.407s-.635.477-1.112.749a.746.746,0,0,1-1.135-.318,6.547,6.547,0,0,1-.091-1.112,6.276,6.276,0,0,0-1.657,3.585c-.113,2.02.363,4.175-.477,4.493-.817.318-1.021-1.747-1.021-1.747s-.182,1.407-.681,1.362l-.5-.045A9.722,9.722,0,0,0,44.674,48.329Z" transform="translate(-27.36 -23.64)"/><path class="a" d="M41.614,37.23a5.549,5.549,0,0,0-2.723,3.9c-.477,2.814-1.021,3.653-1.861,3.132-.862-.522-.658-2.292-.658-2.292a11,11,0,0,0-.113,3.086c.25.817.749,1.021.749,1.339a1.342,1.342,0,0,0,.522.953c.25.136.772.681.749.953s-.431,0-.431,0,.794.318,1.157.5a1.8,1.8,0,0,0,1.452.136,2.629,2.629,0,0,1,.976-.113A2.152,2.152,0,0,0,42.5,47.578c.113-.613.068-.7.068-.7s-.522,1.407-1.2,1,.25-1,.182-1.248-.386-.113-.113-.5.885-1.157.885-1.157-.613,1.112-1.339.34a5.628,5.628,0,0,1-1.135-4.924A7.276,7.276,0,0,1,41.614,37.23Z" transform="translate(-16.176 -6.391)"/></g></g></g></g></svg>