<svg xmlns="http://www.w3.org/2000/svg" width="76.658" height="60.241" viewBox="0 0 76.658 60.241"><defs><style>.a,.b{fill:#1b1c20;}.b{fill-rule:evenodd;}</style></defs><g transform="translate(0 0)"><g transform="translate(0 0)"><path class="a" d="M39.442,47.574,46.574,33.8A30.439,30.439,0,0,0,35.961,25.58L31.52,34.164Z" transform="translate(-6.686 -21.477)"/><path class="a" d="M41.166,53.446l6.513-12.534c-.149-.512-.3-1.046-.47-1.58A42.709,42.709,0,0,0,43.3,30.79c-.171-.278-.342-.534-.512-.79L35.55,43.944Z" transform="translate(-2.111 -16.459)"/><path class="a" d="M40.346,33.532,26.53,33.19a23.8,23.8,0,0,0,2.9,8.093c.47.811.961,1.58,1.473,2.328l15.631.384Z" transform="translate(-12.351 -12.837)"/><path class="a" d="M34.646,34.656,38.575,27.1A49.144,49.144,0,0,0,28.24,23.83Z" transform="translate(-10.41 -23.464)"/><path class="a" d="M38.5,47.736l2.562,4.335c3.822-2.84,5-8.99,3.523-16.1Z" transform="translate(1.238 -9.681)"/><path class="a" d="M44.428,39.114,28.99,38.73c6.79,9.1,15.759,13.794,21.738,11.061Z" transform="translate(-9.559 -6.547)"/><path class="a" d="M39.87,42.725,28.83,23.87c-.875,2.733-3.2,10.677-2.263,18.577Z" transform="translate(-12.559 -23.418)"/><path class="a" d="M45.468,43.371a8.912,8.912,0,0,0,3.822-4.847c.278-.79.94-3.246,1.089-3.886a14.578,14.578,0,0,1,6.79-9.609s-10.292-5.787-19.56,6.427c.427.427,1.025.918,1.409,1.324.534.577,1.046,1.2,1.495,1.772a30.942,30.942,0,0,1,1.815,2.669c.448.7.833,1.388,1.26,2.178.214.384,1.238,2.413,1.879,3.972" transform="translate(0.228 -23.658)"/><path class="a" d="M46.3,38.272a11.226,11.226,0,0,1-4.335,5.381,38.473,38.473,0,0,1,1.537,6.918,28.765,28.765,0,0,1,.214,4.356,25.976,25.976,0,0,1-.6,4.441A13.555,13.555,0,0,1,41.2,63.6c5.317-1.836,8.029-5.36,12.086-11.787,6.662-10.57,7-22.293.9-27.14-.875.961-5.061,2.819-6.726,9.737-.107.32-.726,2.669-1.153,3.865" transform="translate(4.304 -22.51)"/><path class="b" d="M26.68,53.238v-2.52a1.684,1.684,0,0,0-.107-.641.593.593,0,0,0-.32-.278,2.02,2.02,0,0,0-.7-.107.111.111,0,0,1-.085-.043.162.162,0,0,1-.043-.085v-.406a.092.092,0,0,1,.085-.085h4.612a.111.111,0,0,1,.085.043.162.162,0,0,1,.043.085v.406a.092.092,0,0,1-.085.085,1.628,1.628,0,0,0-.918.214,1.134,1.134,0,0,0-.235.833V56.7a1.684,1.684,0,0,0,.107.641.593.593,0,0,0,.32.278,2.02,2.02,0,0,0,.7.107.111.111,0,0,1,.085.043.162.162,0,0,1,.043.085v.406a.092.092,0,0,1-.085.085H25.57a.111.111,0,0,1-.085-.043.162.162,0,0,1-.043-.085v-.406a.092.092,0,0,1,.085-.085,1.628,1.628,0,0,0,.918-.214,1.147,1.147,0,0,0,.256-.833V54.07a8.13,8.13,0,0,1-3.011.619,3.449,3.449,0,0,1-1.815-.427,1.57,1.57,0,0,1-.747-1.452V50.739a1.793,1.793,0,0,0-.107-.662.452.452,0,0,0-.3-.256,2.653,2.653,0,0,0-.7-.085.111.111,0,0,1-.085-.043.162.162,0,0,1-.043-.085V49.2a.092.092,0,0,1,.085-.085h4.612a.111.111,0,0,1,.085.043.162.162,0,0,1,.043.085v.406a.092.092,0,0,1-.085.085,1.628,1.628,0,0,0-.918.214,1.134,1.134,0,0,0-.235.833v2.071a.645.645,0,0,0,.342.6,2,2,0,0,0,.982.214,5.567,5.567,0,0,0,1.025-.107,6.938,6.938,0,0,0,.854-.32m10.314,1.986H33.876l-.256.726a3.31,3.31,0,0,0-.256,1,.6.6,0,0,0,.278.555,1.7,1.7,0,0,0,.769.235.111.111,0,0,1,.085.043.162.162,0,0,1,.043.085v.406a.092.092,0,0,1-.085.085H31.015a.111.111,0,0,1-.085-.043.162.162,0,0,1-.043-.085v-.406c0-.043.021-.064.064-.085a2.361,2.361,0,0,0,.875-.406,1.61,1.61,0,0,0,.491-.577,7.45,7.45,0,0,0,.427-.94l2.52-6.427c0-.021.021-.043.064-.043l1.879-.577a.128.128,0,0,1,.085.021c.021.021.064.043.064.085l2.392,7.41a7.522,7.522,0,0,0,.32.9.83.83,0,0,0,.363.406,1.4,1.4,0,0,0,.769.171.111.111,0,0,1,.085.043.162.162,0,0,1,.043.085V58.3a.092.092,0,0,1-.085.085H36.716a.111.111,0,0,1-.085-.043.162.162,0,0,1-.043-.085V57.85a.092.092,0,0,1,.085-.085,1.724,1.724,0,0,0,.747-.128.347.347,0,0,0,.171-.342,1.969,1.969,0,0,0-.149-.683Zm-1.431-4.335L34.2,54.412h2.52Zm13.431-.128h0a1.684,1.684,0,0,0-.107-.641.593.593,0,0,0-.32-.278,2.02,2.02,0,0,0-.7-.107.111.111,0,0,1-.085-.043.162.162,0,0,1-.043-.085V49.2a.092.092,0,0,1,.085-.085h4.612a.111.111,0,0,1,.085.043.162.162,0,0,1,.043.085v.406a.092.092,0,0,1-.085.085,1.628,1.628,0,0,0-.918.214,1.134,1.134,0,0,0-.235.833V56.74a1.684,1.684,0,0,0,.107.641.593.593,0,0,0,.32.278,2.02,2.02,0,0,0,.7.107.111.111,0,0,1,.085.043.162.162,0,0,1,.043.085V58.3a.092.092,0,0,1-.085.085H47.884a.111.111,0,0,1-.085-.043.162.162,0,0,1-.043-.085V57.85a.092.092,0,0,1,.085-.085,1.628,1.628,0,0,0,.918-.214,1.147,1.147,0,0,0,.256-.833V52.213L45.791,56.74h0a1.684,1.684,0,0,0,.107.641.593.593,0,0,0,.32.278,2.02,2.02,0,0,0,.7.107.111.111,0,0,1,.085.043.162.162,0,0,1,.043.085V58.3a.092.092,0,0,1-.085.085H42.354a.111.111,0,0,1-.085-.043.162.162,0,0,1-.043-.085V57.85a.092.092,0,0,1,.085-.085,1.948,1.948,0,0,0,.7-.107.677.677,0,0,0,.342-.3,1.618,1.618,0,0,0,.107-.641V50.761a1.165,1.165,0,0,0-.235-.811,1.476,1.476,0,0,0-.9-.214.111.111,0,0,1-.085-.043.162.162,0,0,1-.043-.085V49.2a.092.092,0,0,1,.085-.085H46.9a.111.111,0,0,1,.085.043.162.162,0,0,1,.043.085v.406a.092.092,0,0,1-.085.085,1.628,1.628,0,0,0-.918.214,1.134,1.134,0,0,0-.235.833v4.506Zm10.783,1.516L62.4,56.526a4.856,4.856,0,0,0,.47.683,1.091,1.091,0,0,0,.448.32,3.324,3.324,0,0,0,.79.214.162.162,0,0,1,.085.043.111.111,0,0,1,.043.085v.406a.092.092,0,0,1-.085.085h-4.7a.111.111,0,0,1-.085-.043.162.162,0,0,1-.043-.085v-.406a.092.092,0,0,1,.085-.085,1.448,1.448,0,0,0,.683-.128.29.29,0,0,0,.149-.235,1.7,1.7,0,0,0-.235-.534l-1.794-3.011-.918.9v1.986a1.283,1.283,0,0,0,.235.811,1.512,1.512,0,0,0,.9.214.111.111,0,0,1,.085.043.162.162,0,0,1,.043.085v.406a.092.092,0,0,1-.085.085H53.842a.111.111,0,0,1-.085-.043.162.162,0,0,1-.043-.085v-.406a.092.092,0,0,1,.085-.085,1.628,1.628,0,0,0,.918-.214,1.147,1.147,0,0,0,.256-.833V50.739a1.684,1.684,0,0,0-.107-.641.593.593,0,0,0-.32-.278,2.02,2.02,0,0,0-.7-.107.111.111,0,0,1-.085-.043.162.162,0,0,1-.043-.085v-.406A.092.092,0,0,1,53.8,49.1h4.612a.111.111,0,0,1,.085.043.162.162,0,0,1,.043.085v.406a.092.092,0,0,1-.085.085,1.628,1.628,0,0,0-.918.214,1.134,1.134,0,0,0-.235.833v2.8l2.306-2.285c.214-.214.448-.448.641-.683a1.008,1.008,0,0,0,.235-.534.177.177,0,0,0-.064-.171.465.465,0,0,0-.171-.107,1.442,1.442,0,0,0-.3-.043c-.107,0-.214-.021-.32-.021a.111.111,0,0,1-.085-.043.162.162,0,0,1-.043-.085v-.406a.092.092,0,0,1,.085-.085h3.972a.111.111,0,0,1,.085.043.162.162,0,0,1,.043.085v.406c0,.043-.021.085-.064.085a7.633,7.633,0,0,0-1,.235,2.484,2.484,0,0,0-.747.384,6.764,6.764,0,0,0-.833.726Zm3.865,1.3a4.974,4.974,0,0,0,.342,1.9A4.566,4.566,0,0,0,64.945,57a4.278,4.278,0,0,0,1.516,1,5.187,5.187,0,0,0,1.943.342,4.82,4.82,0,0,0,2.007-.406,4.677,4.677,0,0,0,1.537-1.089,4.625,4.625,0,0,0,.961-1.58,5.273,5.273,0,0,0,.32-1.836,5.08,5.08,0,0,0-.342-1.922,4.654,4.654,0,0,0-.961-1.537,4.562,4.562,0,0,0-1.537-1,5.481,5.481,0,0,0-1.986-.342,4.856,4.856,0,0,0-1.943.384,4.447,4.447,0,0,0-1.495,1.068,4.927,4.927,0,0,0-.94,1.58,4.616,4.616,0,0,0-.384,1.922m2.477-.064a6.277,6.277,0,0,1,.641-3.16,1.958,1.958,0,0,1,1.73-1,1.9,1.9,0,0,1,1,.256,2.29,2.29,0,0,1,.918,1.324,8.065,8.065,0,0,1,.32,2.541,11.362,11.362,0,0,1-.085,1.473,5.454,5.454,0,0,1-.32,1.324,2.349,2.349,0,0,1-.747,1,2.026,2.026,0,0,1-1.281.384,1.861,1.861,0,0,1-.94-.235A2.29,2.29,0,0,1,66.44,56.1a8.252,8.252,0,0,1-.32-2.584m12.278-3.1a.618.618,0,0,0-.214-.491,1.87,1.87,0,0,0-.9-.171.111.111,0,0,1-.085-.043.162.162,0,0,1-.043-.085v-.406a.092.092,0,0,1,.085-.085h4.612a.111.111,0,0,1,.085.043.162.162,0,0,1,.043.085v.406a.092.092,0,0,1-.085.085,2.55,2.55,0,0,0-.7.085.583.583,0,0,0-.342.235.915.915,0,0,0-.107.342,5.836,5.836,0,0,1,2.05.406A3.9,3.9,0,0,1,84.441,52a2.724,2.724,0,0,1,.619,1.772,2.758,2.758,0,0,1-.6,1.751,3.729,3.729,0,0,1-1.6,1.132,5.61,5.61,0,0,1-2.093.384.6.6,0,0,0,.235.534,1.594,1.594,0,0,0,.875.192.111.111,0,0,1,.085.043.162.162,0,0,1,.043.085V58.3a.092.092,0,0,1-.085.085H77.309a.111.111,0,0,1-.085-.043.162.162,0,0,1-.043-.085V57.85a.092.092,0,0,1,.085-.085,1.549,1.549,0,0,0,.9-.192.713.713,0,0,0,.256-.534,6.219,6.219,0,0,1-2.05-.384A4.045,4.045,0,0,1,74.725,55.5a2.685,2.685,0,0,1-.619-1.772,2.863,2.863,0,0,1,.6-1.772,3.824,3.824,0,0,1,1.6-1.153,5.774,5.774,0,0,1,2.093-.384m.021.7a1.807,1.807,0,0,0-.769.342,3.193,3.193,0,0,0-.811.961,2.844,2.844,0,0,0-.32,1.345,2.67,2.67,0,0,0,.32,1.3,2.778,2.778,0,0,0,.79.94,1.981,1.981,0,0,0,.79.342Zm2.327,5.21a1.449,1.449,0,0,0,.534-.192,2.884,2.884,0,0,0,.683-.555,2.622,2.622,0,0,0,.491-.854,2.734,2.734,0,0,0,.192-1.025,2.9,2.9,0,0,0-.192-1.025A2.7,2.7,0,0,0,81.3,51.295a1.419,1.419,0,0,0-.577-.192Zm9.139-5.915a.618.618,0,0,0-.214-.491,1.87,1.87,0,0,0-.9-.171.111.111,0,0,1-.085-.043.162.162,0,0,1-.043-.085v-.406a.092.092,0,0,1,.085-.085h4.612a.111.111,0,0,1,.085.043.162.162,0,0,1,.043.085v.406a.092.092,0,0,1-.085.085,2.55,2.55,0,0,0-.7.085.659.659,0,0,0-.342.235.914.914,0,0,0-.107.342,5.836,5.836,0,0,1,2.05.406A3.9,3.9,0,0,1,95.929,52a2.724,2.724,0,0,1,.619,1.772,2.758,2.758,0,0,1-.6,1.751,3.729,3.729,0,0,1-1.6,1.132,5.61,5.61,0,0,1-2.093.384.6.6,0,0,0,.235.534,1.594,1.594,0,0,0,.875.192.111.111,0,0,1,.085.043.162.162,0,0,1,.043.085V58.3a.092.092,0,0,1-.085.085H88.8a.111.111,0,0,1-.085-.043.162.162,0,0,1-.043-.085V57.85a.092.092,0,0,1,.085-.085,1.66,1.66,0,0,0,.918-.192.713.713,0,0,0,.256-.534,6.322,6.322,0,0,1-2.05-.384A4.045,4.045,0,0,1,86.234,55.5a2.685,2.685,0,0,1-.619-1.772,2.862,2.862,0,0,1,.6-1.772,3.824,3.824,0,0,1,1.6-1.153,5.421,5.421,0,0,1,2.071-.384m0,.7a1.807,1.807,0,0,0-.769.342,3.193,3.193,0,0,0-.811.961,2.844,2.844,0,0,0-.32,1.345,2.67,2.67,0,0,0,.32,1.3,2.777,2.777,0,0,0,.79.94,1.981,1.981,0,0,0,.79.342Zm2.349,5.21a1.449,1.449,0,0,0,.534-.192,2.884,2.884,0,0,0,.683-.555,2.623,2.623,0,0,0,.491-.854,2.734,2.734,0,0,0,.192-1.025,2.9,2.9,0,0,0-.192-1.025,2.705,2.705,0,0,0-1.153-1.388,1.439,1.439,0,0,0-.555-.192ZM45.6,46.17a2.585,2.585,0,0,0,1.815.7,2.818,2.818,0,0,0,1.9-.726.134.134,0,0,1,.128,0l.47.235a.117.117,0,0,1,.064.107,2.205,2.205,0,0,1-.6.747,3.693,3.693,0,0,1-.9.534,2.878,2.878,0,0,1-1.068.192,2.929,2.929,0,0,1-1.046-.192,2.609,2.609,0,0,1-.875-.534,2.009,2.009,0,0,1-.534-.769c-.021-.043,0-.064.043-.085l.47-.235c.021-.021.085,0,.128.021" transform="translate(-19.89 1.857)"/></g></g></svg>