<svg xmlns="http://www.w3.org/2000/svg" width="87.012" height="46.435" viewBox="0 0 87.012 46.435"><defs><style>.a,.b{fill:#1b1c20;}.a{fill-rule:evenodd;}</style></defs><g transform="translate(0 0)"><g transform="translate(0 0)"><g transform="translate(0 0)"><path class="a" d="M98.7,45.486v-.858H90.767v.858Zm-50.017-.075,8.209,5.69H59.2V42.24H56.607v5.69L48.4,42.24H46.085V51.1h2.593v-5.69Zm-31.6-.784v4.1H27.6V51.12H14.5V42.259H27.6v2.388H17.075ZM71.383,46.68l2.034,4.44H70.6l-1.492-3.246H62.689V51.12H60.1V42.259h2.593V45.5h6.418L70.6,42.259h2.817L71.383,46.68ZM42.559,42.24h2.593V51.1H42.559V42.24Zm34.178,6.492H87.259V51.12h-13.1V42.259h13.1v2.388H76.737V45.5H87.259v2.388H76.737v.84Zm-45.614,0H41.645V51.12h-13.1V42.259h2.593v6.474ZM100,47.874l1.492,3.246H98.677l-1.492-3.246H90.767V51.12H88.192V42.259h13.1v5.616Z" transform="translate(-14.481 -10.618)"/><path class="a" d="M66.354,39.338l1.138,3.526,6.865-5.951-8,2.425ZM27.848,33.611l1.828,1.138-4.776,1.6,2.948-2.742ZM57.4,38.443l5.522-6.94-11.25-5.839L57.4,38.443Zm-24.44,7.239,3.265-6.865-6.082-3.769,1.026,5.317-.951,2.276.84,3.041Zm5.373-5.56-1.548-.951-1.866,3.918,1.492,2.631H39.4l-1.063-5.6Zm1.81.373L33.071,28.741l-4.757,4.422,11.828,7.332Zm16.082-1.586L33.967,28.947l7.351,12.2,14.906-2.239Zm.448-.485L50.813,25.29,34.191,28.35,56.672,38.424Zm.429.989-5.336.8,5.392,5.466h2.537L57.1,39.413Zm-4.739,2.295L51,40.308l-2.929.429-.8,4.925h2.724l2.369-3.955ZM57.772,39l5.5,4.086L63.108,32.3,57.772,39ZM63.8,33.611l.168,9.795,2.966-.187L63.8,33.611ZM65.44,36.5l.634,1.959,2.481-1.9L65.44,36.5Z" transform="translate(-5.479 -25.29)"/><path class="b" d="M16.691,49.674l.41-.466a1.719,1.719,0,0,0-1.119-.448,1.383,1.383,0,0,0-1.492,1.306,1.352,1.352,0,0,0,1.455,1.325,1.706,1.706,0,0,0,1.157-.485l-.429-.41a1.047,1.047,0,0,1-.69.3.746.746,0,0,1,0-1.493,1.2,1.2,0,0,1,.709.373Zm4.086-.914a1.328,1.328,0,1,0,0,2.631,1.328,1.328,0,1,0,0-2.631Zm.019.578a.737.737,0,0,1,.746.746.753.753,0,0,1-.746.765.768.768,0,0,1-.765-.765.741.741,0,0,1,.765-.746Zm5.821-.541v1.548L25.348,48.8h-.634v2.556h.672v-1.53l1.269,1.53h.634V48.8Zm3.06,0v.56H30.5v2.015h.728V49.357h.84V48.8Zm4.757,0v2.556h2.239v-.541H35.161v-.485h1.325V49.8H35.161V49.32h1.474v-.541h-2.2Zm4.757,0v2.556h.653V49.73l.709,1.362h.466l.709-1.362v1.623h.634V48.8h-.784l-.8,1.492-.8-1.492Zm7.033,0H45.012v2.556h.728v-.709h.5c.709,0,1.119-.354,1.119-.951-.019-.56-.429-.9-1.138-.9Zm-.037,1.325H45.72v-.784h.466c.3,0,.466.131.466.392s-.168.392-.466.392Zm4.907-1.362A1.328,1.328,0,1,0,52.6,50.066a1.389,1.389,0,0,0-1.511-1.306Zm.019.578a.737.737,0,0,1,.746.746.753.753,0,0,1-.746.765.768.768,0,0,1-.765-.765.741.741,0,0,1,.765-.746Zm6.418,2.034-.578-.84a.852.852,0,0,0,.5-.821c0-.578-.429-.9-1.157-.9h-1.25v2.556h.728v-.709h.541l.41.709Zm-1.754-2.034H56.3c.3,0,.466.131.466.392s-.168.392-.466.392h-.522v-.784Zm6.268,2.034h.765l-1.157-2.556h-.746l-1.194,2.556h.746l.187-.448h1.194l.205.448Zm-1.175-.97.392-.914.373.914Zm6.754.97-.578-.84a.852.852,0,0,0,.5-.821c0-.578-.429-.9-1.157-.9h-1.25v2.556h.728v-.709h.541l.41.709Zm-1.754-2.034h.522c.3,0,.466.131.466.392s-.168.392-.466.392h-.522v-.784Zm6.66-.541H71.8l-.634,1.1-.653-1.1h-.728l1.026,1.754v.8h.728v-.821l.989-1.735Zm4.72,0H76.055v2.556h1.175a1.295,1.295,0,1,0,.019-2.556Zm.019,2.034h-.485V49.357h.448a.705.705,0,0,1,.746.746.691.691,0,0,1-.709.728Zm3.9-2.034v2.556h2.239v-.541H81.895v-.485h1.325V49.8H81.895V49.32h1.474v-.541h-2.2Zm6.679.784.28-.541a2.348,2.348,0,0,0-1.1-.28c-.672,0-1.1.3-1.1.784,0,.914,1.455.653,1.455,1.1,0,.149-.131.224-.354.224a1.713,1.713,0,0,1-1.007-.392l-.28.522a2.162,2.162,0,0,0,1.287.41c.616,0,1.119-.28,1.119-.8,0-.933-1.455-.69-1.455-1.119,0-.112.112-.187.3-.187a2.161,2.161,0,0,1,.858.28ZM90.57,48.8v2.556H91.3V48.8Zm5.186,1.922a1.26,1.26,0,0,1-.485.131.766.766,0,0,1-.8-.765.746.746,0,0,1,.784-.746,1.138,1.138,0,0,1,.728.28l.41-.466a1.826,1.826,0,0,0-1.138-.392,1.4,1.4,0,0,0-1.53,1.325,1.375,1.375,0,0,0,1.492,1.325,2.209,2.209,0,0,0,1.157-.336V50.047h-.634v.672Zm5.074-1.922v1.548L99.562,48.8h-.634v2.556H99.6v-1.53l1.25,1.53h.634V48.8Z" transform="translate(-14.49 -4.974)"/></g></g></g></svg>