<svg xmlns="http://www.w3.org/2000/svg" width="94.471" height="29.64" viewBox="0 0 94.471 29.64"><defs><style>.a{fill:#1b1c20;}</style></defs><g transform="translate(0 0)"><path class="a" d="M51.34,58.86a12.391,12.391,0,0,0-7.509-2.187,4.624,4.624,0,0,0-3.668,1.981c-1.137-1.981-3.393-3.2-6.889-3.186-5.632.069-11.212,2.67-15.638,2.67-4.237,0-7.337-2.67-7.234-7.406.172-8.3,7.2-15.776,12.435-19.152,3.014-1.929,5.529-2.515,7.182-2.325a2.4,2.4,0,0,1,1.74,3.565c-1.343,3-3.186,2.756-3.135,1.326A2.383,2.383,0,0,1,29.742,32.3a2.411,2.411,0,0,1,1.085-.276c.258-.224.465-1.86-1.688-1.326s-4.754,2.67-7.234,5.391c-2.48,2.738-6.338,7.923-7.285,13.348-.448,2.515-.138,7.113,5.821,7.061,5.064-.052,12.538-3.376,19.393-3.324a12.987,12.987,0,0,1,6.786,1.86A18.707,18.707,0,0,1,51.34,58.86m1.636-15.053H54.01s-5.2,7.526-8.146,7.182c-1.636-.189-1.154-2.222-1.154-2.222s-2.308,2.7-4.409,2.153c-1.912-.5-.689-3.686-.689-3.686-.224.086-4.375,4.771-7.285,3.651-3.048-1.171-1.464-5.1-.9-6.269.5-1,1.033-1.963,1.033-1.963s-.465.138-.758.207-.741.155-.741.155-1.447,2.342-2.325,3.513-4.633,5.2-6.838,4.392-1.671-3.892-.431-6.355c2.015-3.979,6.786-8.887,9.662-8.146,2.911.741.5,5.46.5,5.46s.586.069,1.963-.878c2-1.361,4.633-5.029,7.475-4.6,1.343.207,2.583,1.585.878,4.185-.551.844-1.464,1.585-2.17.844-.431-.465-.052-1.292.4-1.877a1.824,1.824,0,0,1,1.533-.706s.465-1.085-.723-1.068c-.964.017-3.427,2.273-4.805,4.564-1.274,2.1-3.2,5.684-1.257,6.459,1.774.706,5.15-3.29,6.717-5.391s5.115-6.855,8.112-7.061a1.96,1.96,0,0,1,1.636.878l.344-.551h2.98S49,46.064,48.55,46.787c-.344.551-.809,1.808.465,1.1,1.309-.672,3.961-4.082,3.961-4.082M29.811,42.86a6.636,6.636,0,0,1-1.533-.706,3.4,3.4,0,0,1-1.1-1.206c-.017-.052-.052-.017-.086.034-.034.034-.189.241-1.257,1.808s-2.635,4.771-1.171,5.3c.947.344,2.532-1.309,3.393-2.411A29.322,29.322,0,0,0,29.846,43c.052-.1.017-.121-.034-.138M31,37.866c-.775-.586-2.773.792-2.79,2.2-.017,1.447,1.808,1.86,2.032,1.877a.262.262,0,0,0,.293-.121,13.95,13.95,0,0,0,.568-1.275c.276-.723.62-2.136-.1-2.687m15.208,7.819c1.206-1.653,4.53-7.44,4.53-7.44a.489.489,0,0,0-.448-.431c-.465-.017-1.223.138-2.756,2.05a35.1,35.1,0,0,0-3.565,5.012c-.947,1.722-1.361,2.945-.809,3.272a.8.8,0,0,0,.568.052,3.435,3.435,0,0,0,1.447-1.171c.293-.344.637-.809,1.033-1.343m13.4-8.973H56.765l-1.6,2.6h2.842ZM96.86,56.26a.823.823,0,0,0-.827.827.892.892,0,0,0,.241.6.832.832,0,0,0,1.171,0,.861.861,0,0,0,.241-.6.82.82,0,0,0-.241-.586.792.792,0,0,0-.586-.241m.964.827a.965.965,0,1,1-1.929,0,.9.9,0,0,1,.293-.689.91.91,0,0,1,.672-.276,1.024,1.024,0,0,1,.689.276.977.977,0,0,1,.276.689m-.706-.207c0-.086-.017-.138-.069-.155a.6.6,0,0,0-.224-.034h-.155v.379h.172c.086,0,.138-.017.172-.017a.2.2,0,0,0,.1-.172m-.637-.327h.362a1.124,1.124,0,0,1,.293.034.266.266,0,0,1,.172.276.208.208,0,0,1-.1.207.327.327,0,0,1-.155.052.26.26,0,0,1,.241.276v.138c0,.034,0,.052.017.052V57.6h-.172v-.155c0-.121-.034-.207-.1-.241a.5.5,0,0,0-.207-.034h-.155v.413h-.189V56.553Zm4.977-24.491a13.012,13.012,0,0,1-7.785,2.308c-.706.741-1.464,1.585-2.222,2.5,4.84.947,9.077-2.05,11.315-4.6a14.6,14.6,0,0,0,2.1-3.014,18.677,18.677,0,0,1-3.41,2.807m-8.3,21.977c-.4.637-.861,1.877.465,1.1,1.619-.93,3.91-4.426,3.91-4.426h1.033a36.037,36.037,0,0,1-3.152,4.151c-1.636,1.808-3.634,3.462-5.029,3.29-1.636-.189-1.137-2.342-1.137-2.342s-2.36,2.5-3.979,2.325c-2.187-.241-1.533-2.962-1.533-2.962s-2.48,3.048-4.168,2.962c-2.652-.155-1.981-3.393-1.257-5.649.4-1.206.758-2.17.758-2.17s-.258.069-.827.155c-.293.034-.827.069-.827.069a36.623,36.623,0,0,1-1.981,3.117c-.878,1.171-4.633,5.2-6.838,4.392-2.032-.741-1.361-3.875-.172-6.355,1.74-3.617,6.614-8.835,9.421-8.146,2.911.706.069,6.028.069,6.028s0,.017.034.034a1.35,1.35,0,0,0,.568-.034,5.245,5.245,0,0,0,1.068-.327,61.627,61.627,0,0,1,6.166-10.162c3.238-4.013,9.7-10.937,12.246-9.266.62.413.344,1.826-.5,3.548a11.282,11.282,0,0,1-1.154.31,9.453,9.453,0,0,0,1.033-2.463c.379-2.084-4.461,2.308-7.923,7.01A66.336,66.336,0,0,0,83.909,47.2,14.419,14.419,0,0,0,85.7,45.926a49.856,49.856,0,0,0,4.392-4.116,51,51,0,0,0,3.737-4.323,7.707,7.707,0,0,0,1.1-.121A44.189,44.189,0,0,1,90.8,42.24c-1.378,1.4-2.876,2.911-4.168,4a33.77,33.77,0,0,1-3.669,2.721s-3.031,6.1-1.378,6.493c.965.224,2.876-2.721,2.876-2.721s2.5-3.806,4-5.529c2.05-2.342,3.824-3.686,5.58-3.72a2.1,2.1,0,0,1,1.636,1.085l.482-.741h2.98c.034.069-5.529,9.507-5.976,10.213M76.4,50.318a5.847,5.847,0,0,1-1.378-.878,4.744,4.744,0,0,1-1.033-1.24c-.034-.052-.052-.017-.086.034a19.244,19.244,0,0,0-1.223,1.705c-1.068,1.567-2.687,4.788-1.206,5.339.947.344,2.515-1.309,3.376-2.411a20.49,20.49,0,0,0,1.585-2.411c.052-.086.017-.121-.034-.138m1.5-2.635c.276-.723.62-2.136-.1-2.687-.775-.586-2.773.792-2.79,2.2a2.491,2.491,0,0,0,1.74,2.2c.189.052.258.052.362-.1a11.574,11.574,0,0,0,.792-1.619m17.12-2a.59.59,0,0,0,.086-.207.489.489,0,0,0-.448-.431c-.465-.017-1.085.069-2.738,1.895a24.822,24.822,0,0,0-3.5,4.977c-.947,1.722-1.326,3.014-.775,3.341a.8.8,0,0,0,.568.052c.362-.086.775-.431,1.412-1.171.293-.344.62-.827,1.016-1.378,1.1-1.447,3.841-6.131,4.375-7.079m6.441-13.623a13.012,13.012,0,0,1-7.785,2.308c-.706.741-1.464,1.585-2.222,2.5,4.84.947,9.077-2.05,11.315-4.6a14.6,14.6,0,0,0,2.1-3.014,18.677,18.677,0,0,1-3.41,2.807M87.853,35.575c-2.291-1.171-3.961-2.6-5.7-3.5a6.523,6.523,0,0,0-4.082-1.033,4.7,4.7,0,0,0-.551.138s.689,2.36-2.05,6.321c-2.79,4.013-5.3,4-6.028,2.893-.758-1.171.224-3.548,1.843-5.666a20.685,20.685,0,0,1,4.685-4.047s-.947-.586-3.29.741a32.9,32.9,0,0,0-9.834,9.542c-3.634,5.184-4.357,8.026-4.891,10.282-.517,2.239-.052,4.65,2.446,4.65s5.391-3.789,6.2-5.115c1.516-2.463,2.515-6.235.448-5.7a4.321,4.321,0,0,0-2.36,2.463,10.217,10.217,0,0,0-.741,2.187A8.713,8.713,0,0,0,61.932,50.9a15.109,15.109,0,0,0-1.912,1.688,11.923,11.923,0,0,1,1.43-4.7A7.625,7.625,0,0,1,67,43.532c1.343-.1,3.083,1.033,1.6,5.219-1.481,4.2-5.821,9.283-10.4,9.352-4.22.069-6.993-5.322-1.12-14.743,6.493-10.4,14.14-13.606,16.62-13.951,2.48-.362,3.29.741,3.29.741a10.559,10.559,0,0,1,4.719-.775c3.031.207,5.374,2.342,8.456,3.841-.844.792-1.619,1.6-2.308,2.36M76.589,31.493a11.645,11.645,0,0,0-3.824,2.98C70.7,36.746,69.51,39.3,70.389,39.967c.344.258,1.119.293,2.549-.982A11.272,11.272,0,0,0,75.952,34.8c.93-2.256.637-3.272.637-3.307" transform="translate(-10.399 -29.22)"/></g></svg>