<svg xmlns="http://www.w3.org/2000/svg" width="52.04" height="67.063" viewBox="0 0 52.04 67.063"><defs><style>.a,.b{fill:#1b1c20;}.a{fill-rule:evenodd;}</style></defs><g transform="translate(0)"><g transform="translate(0 0)"><path class="a" d="M50.8,46.859,50.751,44.6l-.024-.238-.024-.238c-.974-5.275-7.224-4.729-7.628.475v.808c1.069,13.236,17.774,13.877,19.556.57l.048-.57v-.57l-.024-.9-.071-.879c-2.661-20.6-28.729-20.6-31.39,0l-.071.879-.024.9c.808,28.8,37.83,32.792,43.247,3.659l.143-1.188.1-1.212.071-3.232h4.253l-.071,3.422-.1,1.4-.166,1.378c-5.988,33.148-49.14,30.273-51.683-2.78l-.024-1.4.024-1.093c2.139-26.115,36.451-27.255,39.944-1.069l.071,1.069.024,1.093-.024.737-.048.737c-2.281,17.774-25.711,17.774-27.992,0l-.048-.737-.024-.76c.309-10.337,14.21-11.62,16.111-1.236l.048.4.024.4.048,2.424H50.8" transform="translate(-26.87 -23.638)"/><path class="b" d="M65.793,58.5l4.349-.547.19-2.78-4.657.19.119,3.137m2.614-7.675a2.139,2.139,0,0,0-.594-.071,3.623,3.623,0,0,0-2.02.642,18.29,18.29,0,0,0-1.735,1.283l-.927-2.162c.642-.261,1.378-.523,2.234-.784a8.947,8.947,0,0,1,2.685-.4,7.037,7.037,0,0,1,2.162.428,4.116,4.116,0,0,1,2.162,1.853,11.23,11.23,0,0,1,1.378,3.3,12.075,12.075,0,0,1,.475,2.947,9.889,9.889,0,0,1-.071,1.283c-.048.356-.1.642-.119.832H70.926l.689-1.4a20.231,20.231,0,0,1-2.281,1.188,6.256,6.256,0,0,1-2.709.594,3.857,3.857,0,0,1-1.521-.285,3.016,3.016,0,0,1-1.711-2.756,3.416,3.416,0,0,1,.451-1.711A4.1,4.1,0,0,1,65.2,54.244a3.965,3.965,0,0,1,1.426-.594,7.416,7.416,0,0,1,1.758-.214,4.3,4.3,0,0,1,2.281.475,14.445,14.445,0,0,0-.855-1.877A2.515,2.515,0,0,0,68.407,50.823Zm-16.23,9.172V49.563h3.137l-.1,1.069c.475-.309,1-.594,1.568-.9a4.125,4.125,0,0,1,1.782-.451,3.439,3.439,0,0,1,3.327,1.9L59.805,52.89a7.086,7.086,0,0,0-.475-.95,1.534,1.534,0,0,0-.689-.665,2.006,2.006,0,0,0-.808-.19,2.231,2.231,0,0,0-1.307.451,4.59,4.59,0,0,0-1.093,1.046L56,59.852ZM42.7,58.5l4.349-.547.19-2.78-4.657.19Zm2.638-7.675a2.139,2.139,0,0,0-.594-.071,3.623,3.623,0,0,0-2.02.642,18.288,18.288,0,0,0-1.735,1.283l-.927-2.162c.642-.261,1.378-.523,2.234-.784a8.947,8.947,0,0,1,2.685-.4,7.037,7.037,0,0,1,2.162.428A4.116,4.116,0,0,1,49.3,51.607a11.231,11.231,0,0,1,1.378,3.3,12.075,12.075,0,0,1,.475,2.947,6.733,6.733,0,0,1-.1,1.283c-.048.356-.1.642-.119.832H47.829l.689-1.4a20.231,20.231,0,0,1-2.281,1.188,6.256,6.256,0,0,1-2.709.594,3.856,3.856,0,0,1-1.521-.285A3.016,3.016,0,0,1,40.3,57.31a3.416,3.416,0,0,1,.451-1.711A4.1,4.1,0,0,1,42.1,54.244a3.965,3.965,0,0,1,1.426-.594,7.416,7.416,0,0,1,1.758-.214,4.3,4.3,0,0,1,2.281.475,11.846,11.846,0,0,0-.855-1.877A2.4,2.4,0,0,0,45.334,50.823ZM30.981,53.864l.927,6.154H28.13V45.69h3.778L31.1,51.274l3.778-5.584h3.327l-4.586,6.463,5.489,7.96-3.683-.1Z" transform="translate(-25.136 6.712)"/></g></g></svg>