<svg xmlns="http://www.w3.org/2000/svg" width="94.471" height="28.074" viewBox="0 0 94.471 28.074"><defs><style>.a{fill:#1b1c20;}</style></defs><g transform="translate(0 0)"><g transform="translate(0 0)"><g transform="translate(13.726)"><path class="a" d="M29.544,38.582a1.7,1.7,0,0,0,.868.087.412.412,0,0,0,.26-.278c.035-.174-.1-.416-.174-.382a.313.313,0,0,1-.208.035c-.1,0-.174-.052-.174-.156,0-.017.052-.1.191-.121.035,0,.069-.017.1,0h.312a.242.242,0,0,0,.156-.1,2.026,2.026,0,0,0,.243.469,1.361,1.361,0,0,1,.451.451,2.2,2.2,0,0,0,.26.364,2.137,2.137,0,0,0,.416.26c.017-.017-.5-1.006-.677-1.319-.052-.087-.174-.139-.191-.174-.121-.26-.069-.347-.069-.347a.817.817,0,0,0,.3,0c.139-.069-.017-.434-.017-.434a10.456,10.456,0,0,0-1.111-.451,1.527,1.527,0,0,0-1.527.26c-.174.1-1.544,1.041-1.544,1.041.017.035,1.024.33,1.024.33S29.406,38.53,29.544,38.582Zm.052-1.371a.861.861,0,0,1,.92-.052c.069.035.278.226.278.3a1.52,1.52,0,0,0-.885.052,1.552,1.552,0,0,0-.4.226c-.156.121-.347.26-.347.26l-.486-.017Z" transform="translate(-11.966 -24.717)"/><path class="a" d="M32.132,29.66A13.622,13.622,0,1,0,45.755,43.282,13.612,13.612,0,0,0,32.132,29.66Zm5.952,10.308c.1.278.121.382-.486.469-.26.035-4.633.729-6.091,1.128.451-.521,4.217-1.683,5.935-1.857C37.859,39.673,37.98,39.708,38.084,39.968Zm-.434-.486a48.94,48.94,0,0,0-6.091,1.145h0c-1.041.26-2.048.555-2.759.746a.122.122,0,0,1-.139-.191c.069-.121.26-.174.382-.208,1.076-.364,2.447-.781,3.922-1.145a28.2,28.2,0,0,1,4.252-.711c.191-.017.451-.052.555.035a.183.183,0,0,1,.087.174C37.841,39.447,37.755,39.482,37.651,39.482Zm-.382-.764a35.908,35.908,0,0,0-6.212.937c-.416.1-1.631.451-2.239.677-.035.017-.087.035-.121,0s-.035-.243-.035-.243l.052-2.239a.417.417,0,0,1,.208-.347A18.206,18.206,0,0,1,35.6,35.647a4.539,4.539,0,0,0-.989-.087c-.191,0-.625.052-1.093.087H33.5a.48.48,0,0,0-.156.017h0c-.035,0-.121.017-.208-.243-.139-.4-.278-.92-.347-1.18-.017-.052-.087-.052-.087,0l-.312,1.336a.261.261,0,0,1-.469.087l-1.059-1.041a.091.091,0,0,0-.156.035c-.1.469-.226,1.267-.278,1.406-.017.174-.191.226-.33.1-.1-.087-.781-.59-1.076-.885a.082.082,0,0,0-.139.069l-.208,1.336a.151.151,0,0,1-.26.069s-.659-.573-.711-.625c-.052-.069-.139-.035-.1.069s.416,1.735.416,1.735L27.95,41.53c-.243.174-.3,1.249.1,1.267l-.139,1.249s-2.169,5.05-2.395,5.813c-.087.5.416.538.625.26.035-.069,2.117-2.933,2.325-3.21.208-.295.347,0,.364.121,0,.121.416,3.7.416,3.7.139,1.267.659,1.649,1.111,1.666.677.052,1.041-.538,1.2-1.388.121-.625.521-4.2.521-4.2l.59-4.408a.184.184,0,0,0-.208-.208c-.972.156-2.967.711-3.627.833-.121.017-.1-.1-.1-.1s.017-.139.035-.208a.1.1,0,0,1,.1-.087c1.128-.416,4.46-1.111,4.46-1.111a33.227,33.227,0,0,1,4.807-.764s.139.33.226.625c.156.625,0,.573.191.989.139.312.885,1.6,1.006,1.822a.993.993,0,0,1,.121.555c0,.035-.017.069-.017.1v-.017s-.035-.087-.226-.174a.808.808,0,0,0-.364-.052c-.243.035-.59.208-.92.26a4.523,4.523,0,0,1-.711.069v-.017c.087-.3-.035-.382-.035-.382a4.143,4.143,0,0,1-.243.521c-.139.243-.521.659-.486.659a2.322,2.322,0,0,0,.711-.729.5.5,0,0,0,.416.382,3.134,3.134,0,0,1,.746-.035.331.331,0,0,1,.26.139l-.1.729a1.706,1.706,0,0,0-.816-.1,1.863,1.863,0,0,0-.781.26.3.3,0,0,1-.174-.139,1.081,1.081,0,0,1-.208.434h0a1.4,1.4,0,0,1-.26.226c-.26.174-.278.035-.26.087.035.087.156.1.26.087.069,0,.139-.035.26-.174a1,1,0,0,1,.781-.278,1.865,1.865,0,0,1,.729.139.8.8,0,0,1-.052.347c-.33.26-.937-.069-.937-.069l-.434.3a2.324,2.324,0,0,1,.9.416l.035.052a1.655,1.655,0,0,1,.1.711.606.606,0,0,1-.087.226.415.415,0,0,1-.3.191c-.5.1-1.492-.1-3.314-1.787a1.47,1.47,0,0,1-.59-.989l-.278-3.072-1.076,8.208a1.817,1.817,0,0,1-1.7,1.8,1.78,1.78,0,0,1-1.909-1.44c-.069-.729-.226-1.544-.26-2.03-.069-.937-.156-.989-.33-.885a17.933,17.933,0,0,0-1.128,1.631l-.4.59a.469.469,0,0,1-.642.121,11.994,11.994,0,0,1-1.354-1.3l2.551-5.622.208-1.006s-.434-.174-.33-1.041a1.188,1.188,0,0,1,.347-.816l-.052-3.193s-.278-2.412-.347-2.707c-.052-.208.226-.174.3-.087.052.052,1.041.816,1.041.816s.26-1.388.295-1.649c.035-.208.156-.087.156-.087l1.406,1.371s.3-1.7.33-1.874.174-.035.174-.035L32.028,35.3s.4-1.649.451-1.822c.052-.191.191-.035.191-.035l1.319,1.614s.486-.937.642-1.284c.087-.208.191-.052.191-.052l.989,1.8,1.527,2.794s.069.139.139.26C37.546,38.736,37.373,38.718,37.269,38.718ZM35.308,52.792a5.624,5.624,0,0,0-1.666-1.562c-.226-.139-.451-.26-.625-.364l.191-2.551a8.549,8.549,0,0,0,.711.746c.364.347.642.642.642.642a5.02,5.02,0,0,0,1.249,2.9C35.655,52.67,35.481,52.722,35.308,52.792ZM27.152,34.606a9.163,9.163,0,0,1,.92-.469l-.226.954Zm1.753-.8a9.115,9.115,0,0,1,1.041-.3l-.226,1.024Zm1.961-.451c.364-.052.729-.069,1.093-.087l-.226.868Zm3.019.677-.573-.677a6.951,6.951,0,0,1,.833.139ZM22.119,43.282a10.007,10.007,0,0,1,4.009-8.017l.486,3.054.017,3a1.853,1.853,0,0,0-.416,1.128,1.411,1.411,0,0,0,.26.937l-.208.8-2.239,4.963A9.96,9.96,0,0,1,22.119,43.282Zm14.351,9.041a3.248,3.248,0,0,1-1.041-2.5,1.644,1.644,0,0,1,.59-.017,4.547,4.547,0,0,0,.954.035,1.6,1.6,0,0,0,.9-.295c.694-.538.3-1.683.3-1.683l.469-.694.052-.347.451-.521.1-.729a.972.972,0,0,0,.764-1.249c-.208-.625-.885-1.683-.989-1.978-.156-.451-.1-.764-.4-1.7l-.052-.208h.017c.121-.035.156-.26.087-.521a.716.716,0,0,0-.243-.4.6.6,0,0,0,.017-.364c-.052-.191-.156-.33-.243-.33l-2.291-4.807a10.011,10.011,0,0,1,.555,18.308Z" transform="translate(-18.51 -29.66)"/></g><g transform="translate(0 3.835)"><path class="a" d="M42.265,35.021h3.852L46.1,31.88H34.3v3.141h3.87v.729h-.607c-.469,0-.92.017-1.388.035s-.92.035-1.388.069c.469.035.92.069,1.388.069.469.017.92.035,1.388.035h.607V50.031h4.1Z" transform="translate(6.827 -31.863)"/><path class="a" d="M56.4,50.073V43.1L60.734,31.87H56.795L54.9,36.833c-.121-.312-.226-.625-.347-.92-.156-.416-.33-.816-.486-1.232s-.33-.816-.5-1.215-.364-.8-.555-1.2c.121.416.26.85.4,1.249.139.416.295.833.451,1.249s.3.833.469,1.232c.156.382.3.746.451,1.128l-.469,1.232-2.464-6.49H47.91L52.248,43.1v6.976H56.4Z" transform="translate(16.835 -31.87)"/><path class="a" d="M49.925,31.88H46.037l-5.917,18.2h4.13l1.163-3.523h5.1l1.163,3.523h4.165ZM46.419,43.4l1.527-4.72.416,1.284c-.087.243-.174.5-.26.746-.226.625-.416,1.232-.625,1.857l-.26.833Zm1.059,0c.087-.26.156-.5.243-.764.191-.625.382-1.249.555-1.874l.156-.573,1.041,3.21h-2Z" transform="translate(11.107 -31.863)"/><path class="a" d="M10.6,31.88V50.066h4.043V31.88Z" transform="translate(-10.6 -31.863)"/><path class="a" d="M18.716,40.914l5-9.024H19.22l-3.714,6.976c0-.625-.017-1.249-.017-1.874-.017-1.544-.035-3.089-.087-4.633-.035,1.544-.069,3.089-.087,4.633-.017.746-.017,1.51-.017,2.256l-.885,1.666.868,1.544v3.783c0,1.51.017,3.037.035,4.547l-2.169.035-2.256.052,2.256.052,2.256.035h.087v-.087c.017-1.544.035-3.089.035-4.633V42.875l4.061,7.2H23.9Z" transform="translate(-10.387 -31.855)"/><path class="a" d="M56.27,31.88V50.066h4.043V31.88Z" transform="translate(22.982 -31.863)"/><path class="a" d="M64.452,40.914l5-9.024H64.956l-3.714,6.993c0-.677-.017-1.336-.017-2.013-.017-1.562-.035-3.106-.087-4.668-.035,1.562-.069,3.106-.087,4.668-.017.8-.017,1.6-.017,2.395l-.868,1.649.868,1.527v3.766c0,1.527.017,3.054.035,4.581l-2.256.035-2.343.052,2.343.052,2.343.035h.087v-.087c.017-1.562.035-3.106.035-4.668V42.857l4.078,7.219h4.321Z" transform="translate(23.129 -31.855)"/><path class="a" d="M40.525,32.71a13.65,13.65,0,0,1-8.9,22.524,13.836,13.836,0,0,1-9.423-2.5,13.825,13.825,0,0,0,4.46,2.239,14.194,14.194,0,0,0,4.98.469,13.7,13.7,0,0,0,12.408-13.57,13.535,13.535,0,0,0-.9-4.911A13.732,13.732,0,0,0,40.525,32.71Z" transform="translate(-2.07 -31.252)"/><path class="a" d="M29.326,49.763a3.309,3.309,0,0,1-.816-1.3.1.1,0,0,1,.069-.121.582.582,0,0,1,.174,0,3.071,3.071,0,0,0,.4.017,5.88,5.88,0,0,0,.781-.035,2.382,2.382,0,0,0,.764-.208,1.27,1.27,0,0,0,.59-.538,2.92,2.92,0,0,0,.312-1.527l.278-.573v-.312l.382-.451.017-.017v-.017l.069-.555a2.17,2.17,0,0,0,.868-.764,1.68,1.68,0,0,0,.243-.573v-.174a.807.807,0,0,0-.052-.156c-.035-.1-.069-.191-.1-.278-.312-.729-.677-1.406-1.041-2.1l-.139-.573h0L31.7,38.153a1.332,1.332,0,0,0-.017-.451c-.035-.191-.226-.278-.26-.364a.285.285,0,0,1-.017-.174.473.473,0,0,0-.035-.26c-.069-.156-.226-.243-.26-.347a.294.294,0,0,1,0-.174.4.4,0,0,0-.035-.243l-.208-.382L28.962,32.34l1.8,3.471.208.382a.2.2,0,0,1,.017.174c0,.069-.035.156.017.243.087.156.208.226.26.347a.2.2,0,0,1,.017.174.473.473,0,0,0,.035.26.578.578,0,0,0,.156.191.355.355,0,0,1,.087.156,1.03,1.03,0,0,1,0,.4v.035l.416,1.371.139.59v.035c.364.694.729,1.388,1.041,2.1.035.087.069.174.1.278a.416.416,0,0,1,.035.243,1.155,1.155,0,0,1-.208.5,2.04,2.04,0,0,1-.85.729l-.035.017v.052l-.069.573-.382.451-.017.017v.33l-.278.573-.017.017v.017a2.673,2.673,0,0,1-.26,1.475,1.162,1.162,0,0,1-.538.5,2.691,2.691,0,0,1-.729.208,5.9,5.9,0,0,1-.781.052h-.382a.833.833,0,0,0-.208,0,.175.175,0,0,0-.1.191A4.276,4.276,0,0,0,29.326,49.763Z" transform="translate(2.517 -31.524)"/><path class="a" d="M19.051,45.633c-.92-1.649-1.857-3.28-2.794-4.928C17,39.3,17.75,37.877,18.479,36.471c.746-1.423,1.475-2.881,2.221-4.321-.781,1.406-1.579,2.829-2.36,4.234-.781,1.423-1.562,2.829-2.325,4.269l-.035.052.035.052c.937,1.666,1.857,3.332,2.811,4.98.92,1.614,1.839,3.228,2.777,4.842l-2.534.035-2.672.052,2.672.052,2.672.035h.139l-.069-.121C20.926,48.965,19.989,47.3,19.051,45.633Z" transform="translate(-6.644 -31.664)"/><path class="a" d="M67.505,50.631c-.92-1.666-1.857-3.332-2.794-5-.92-1.649-1.857-3.28-2.794-4.928.746-1.406,1.492-2.829,2.221-4.234.746-1.423,1.475-2.881,2.221-4.321-.781,1.406-1.579,2.829-2.36,4.234-.781,1.423-1.562,2.829-2.325,4.269l-.035.052.035.052c.937,1.666,1.857,3.332,2.811,4.98.92,1.614,1.839,3.228,2.777,4.842l-2.534.035-2.672.052,2.672.052,2.672.035h.139Z" transform="translate(26.931 -31.664)"/><path class="a" d="M55.194,43.152v3.766c0,1.215.017,2.429.035,3.662-.746.017-1.51.017-2.256.035l-2.343.052,2.343.052c.781.017,1.562.017,2.343.035H55.4v-.087c.017-1.249.035-2.5.035-3.731s.017-2.481,0-3.714c.677-1.839,1.388-3.662,2.048-5.518.677-1.839,1.354-3.7,2-5.553-.729,1.822-1.458,3.662-2.169,5.484C56.6,39.473,55.905,41.33,55.194,43.152Z" transform="translate(18.835 -31.664)"/><path class="a" d="M45.095,35.779h.069v-.069L45.095,32.1l-.069,3.54-3.557-.035h-.1v.1c0,2.5-.035,5-.017,7.5,0,2.482.017,4.946.052,7.427-1.527.017-3.072.052-4.6.069,1.562.017,3.124.069,4.685.069h.069V50.7c.035-2.5.035-5,.052-7.5.017-2.464-.017-4.928-.017-7.392Z" transform="translate(8.665 -31.701)"/><path class="a" d="M51.031,46.01c-.5-1.544-.989-3.106-1.51-4.651-.5-1.544-1.024-3.089-1.544-4.633s-1.059-3.089-1.6-4.616c.469,1.562.937,3.124,1.44,4.668.486,1.562.989,3.106,1.475,4.668s1.006,3.106,1.51,4.651c.5,1.51,1.006,3.037,1.51,4.547-1.544.017-3.089.052-4.633.069,1.579.017,3.158.069,4.737.069h.1l-.035-.1C52.02,49.116,51.534,47.572,51.031,46.01Z" transform="translate(15.71 -31.693)"/><path class="a" d="M45.96,40.75h-.087l-.035.087c-.208.573-.382,1.163-.573,1.735-.191.555-.347,1.128-.521,1.7-1.475.017-2.95.035-4.425.069,1.492.035,2.985.052,4.494.069h.052l.017-.052c.208-.573.416-1.145.607-1.718.191-.555.382-1.093.555-1.649.642,0,1.284,0,1.926-.035.677-.017,1.336-.035,2.013-.087-.677-.035-1.336-.069-2.013-.087S46.619,40.767,45.96,40.75Z" transform="translate(11.254 -25.34)"/></g></g></g></svg>