<svg xmlns="http://www.w3.org/2000/svg" width="184.329" height="93.754" viewBox="0 0 184.329 93.754"><g transform="translate(0)"><path d="M2.2,13.6h8.924l5.437,20.72L22.51,13.6h6.975l5.437,20.72L40.769,13.6h8.206L39.23,44.373H30.819L25.587,25.088,19.946,44.373H11.432Z" transform="translate(0.057 0.35)"/><path d="M51.4,0h8.514V18.874c1.539-3.077,4.924-5.642,10.052-5.642,6.052,0,10.36,3.693,10.36,11.9V44.723H71.813V26.362c0-4.206-1.641-6.155-5.437-6.155-3.693,0-6.462,2.257-6.462,6.77V44.723H51.4S51.4,0,51.4,0Z" transform="translate(1.324)"/><path d="M84.6,5.116A4.645,4.645,0,0,1,89.421.5a4.585,4.585,0,0,1,4.821,4.616,4.826,4.826,0,0,1-9.642,0Zm.615,8.822h8.514V44.71H85.215Z" transform="translate(2.179 0.013)"/><path d="M100.8,35.411V19.819H96.9V13.767h3.9V7.1h8.514v6.667h6.462v6.052h-6.462V34.693c0,2.462,1.231,3.693,3.385,3.693a8.148,8.148,0,0,0,3.282-.615v6.565a15.38,15.38,0,0,1-5.231.821C104.285,45.156,100.8,41.873,100.8,35.411Z" transform="translate(2.496 0.183)"/><path d="M118,29.415V28.9c0-9.745,6.873-16,15.8-16,8,0,14.976,4.616,14.976,15.694v2.359H126.616c.205,5.129,2.975,8.1,7.693,8.1,3.9,0,5.847-1.744,6.462-4.308h8.1c-1.026,6.667-6.257,10.36-14.771,10.36C124.77,45.109,118,39.262,118,29.415Zm22.567-3.693c-.308-4.616-2.667-6.873-6.667-6.873-3.8,0-6.462,2.564-7.078,6.873Z" transform="translate(3.039 0.332)"/><path d="M0,72.251H8c.308,2.77,1.641,4.411,5.334,4.411,3.282,0,4.821-1.231,4.821-3.385S16.31,70.3,11.9,69.584C3.693,68.353.513,65.994.513,59.942.513,53.48,6.36,50.3,12.719,50.3c6.873,0,12,2.462,12.719,9.54h-7.8c-.513-2.564-1.846-3.693-4.821-3.693-2.77,0-4.308,1.333-4.308,3.18,0,1.949,1.436,2.667,5.949,3.385,7.693,1.128,12,3.077,12,9.642,0,6.667-4.821,10.155-12.925,10.155C5.129,82.611.308,78.919,0,72.251Z" transform="translate(0 1.296)"/><path d="M52.082,76.967a11.419,11.419,0,0,1-9.847,5.642c-7.488,0-13.335-5.334-13.335-15.592V66.5c0-10.155,5.847-16.1,13.54-16.1,4.924,0,8,2.154,9.745,5.334V51.118H60.7V92.456H52.185V76.967Zm.205-10.258V66.2c0-6.155-2.667-9.232-7.385-9.232-4.821,0-7.385,3.282-7.385,9.334v.513c0,6.155,2.975,9.129,7.18,9.129C49.21,75.941,52.287,72.967,52.287,66.71Z" transform="translate(0.744 1.298)"/><path d="M65.4,71V51.1h8.514V69.769c0,4.206,1.744,6.155,5.334,6.155s6.462-2.257,6.462-6.77V51.1h8.514V81.873H85.71V77.052c-1.641,3.077-4.718,5.437-9.745,5.437C69.913,82.591,65.4,79,65.4,71Z" transform="translate(1.685 1.316)"/><path d="M97.6,73.377c0-7.18,6.565-9.847,16-9.847h3.488V62.3c0-3.693-1.128-5.642-5.026-5.642-3.385,0-4.924,1.744-5.231,4.308h-8.1c.513-7.283,6.257-10.565,13.848-10.565S125.5,53.477,125.5,61.786v20.1h-8.309V78.2c-1.744,2.462-4.513,4.308-9.334,4.308C102.318,82.609,97.6,79.942,97.6,73.377Zm19.489-2.154V68.658h-3.282c-4.924,0-7.8,1.026-7.8,4.308,0,2.257,1.333,3.693,4.513,3.693C114.217,76.659,117.089,74.608,117.089,71.223Z" transform="translate(2.514 1.298)"/><path d="M130.5,51.113h8.514V56.96c1.949-4.1,4.924-6.257,9.95-6.36v8c-6.257-.1-9.95,2.052-9.95,7.9V81.886H130.5Z" transform="translate(3.361 1.303)"/><path d="M149.6,66.915V66.4c0-9.745,6.873-16,15.8-16,8,0,14.976,4.616,14.976,15.694v2.359H158.216c.205,5.129,2.975,8.1,7.693,8.1,3.9,0,5.847-1.744,6.462-4.308h8.1c-1.026,6.667-6.257,10.36-14.771,10.36C156.37,82.609,149.6,76.762,149.6,66.915Zm22.567-3.693c-.308-4.616-2.667-6.873-6.667-6.873-3.8,0-6.462,2.564-7.078,6.873Z" transform="translate(3.853 1.298)"/></g></svg>