<svg xmlns="http://www.w3.org/2000/svg" width="135.517" height="21.516" viewBox="0 0 135.517 21.516"><defs><style>.a{fill:#fff;}.b{fill:#1b1c20;}</style></defs><g transform="translate(0 0)"><g transform="translate(0 0)"><path class="a" d="M44.4,34.22a12.353,12.353,0,0,1-5.454,3.412,34.06,34.06,0,0,1,.324,6.051s4.408-4.433,4.931-4.931c.05-1.644.2-4.134.2-4.134,0-.149,0-.4,0-.4" transform="translate(31.573 -32.452)"/><path class="b" d="M44.259,36.05l-4.906,4.906a46.354,46.354,0,0,1-.473,5.379h5.628c0-.2-.025-2.216-.025-2.216,0-.174-.05-1.345-.05-1.345-.1-1.2-.149-4.433-.174-5.777V36.05" transform="translate(31.468 -29.725)"/><path class="a" d="M39.484,36.4l-5.13,5.1c-.025.3-.025.548-.05.747,0,0-.05,1.17-.05,1.345,0,0-.025,2.017-.025,2.216h5.628a42.66,42.66,0,0,1-.374-9.413" transform="translate(24.539 -29.203)"/><path class="b" d="M39.469,39.634c.05-.647.125-1.32.224-1.992A12.489,12.489,0,0,1,34.24,34.23a3.988,3.988,0,0,0,.025.423s.249,3.76.224,5.08c-.025,1.121-.05,3.561-.125,5.03Z" transform="translate(24.554 -32.437)"/><path class="b" d="M16.034,39.981c1.021,1.942,2.092,3.91,3.212,5.952.149-.274.349-.672.623-1.17s.6-1.1.946-1.768c.374-.672.747-1.37,1.17-2.142.4-.772.822-1.544,1.245-2.341s.847-1.569,1.27-2.341.822-1.494,1.17-2.142h.274c.149,1.37.3,2.714.448,4.009.125,1.295.274,2.565.423,3.81s.3,2.49.448,3.71.3,2.44.473,3.611a3.744,3.744,0,0,0-.5-.05h-1a3.743,3.743,0,0,0-.5.05c-.149-1.917-.324-3.785-.473-5.578s-.349-3.661-.573-5.528h-.05c-1,1.818-1.967,3.611-2.938,5.429-.971,1.793-1.868,3.686-2.739,5.653h-.2C17.9,47.328,17,45.51,16.059,43.667s-1.893-3.686-2.864-5.6h-.05c-.1.9-.224,1.868-.324,2.914-.125,1.046-.224,2.092-.324,3.088-.1,1.021-.2,1.967-.274,2.889-.075.9-.1,1.644-.1,2.216a6.627,6.627,0,0,0-.747-.05,7.006,7.006,0,0,0-.747.025c.2-1.17.374-2.391.573-3.71.2-1.295.4-2.615.573-3.91q.3-1.98.523-3.885c.149-1.27.3-2.49.4-3.661h.374c.946,2.067,1.942,4.059,2.963,6" transform="translate(-10.63 -32.81)"/><path class="b" d="M18.979,42.945c0-.647-.025-1.345-.025-2.042-.025-.722-.075-1.37-.149-2.017a4.784,4.784,0,0,0,1.942,0q-.112.934-.149,2.017c-.025.722-.025,1.395-.025,2.042v2.266c0,.647.025,1.345.025,2.042q.037,1.083.149,1.942c-.324-.025-.647-.05-.971-.05s-.647.025-.971.05q.112-.859.149-1.942c.025-.722.025-1.395.025-2.042Zm-.3-7.844A1.09,1.09,0,0,1,19,34.3a1.121,1.121,0,0,1,1.917.8,1.09,1.09,0,0,1-.324.8,1.121,1.121,0,0,1-1.917-.8" transform="translate(1.366 -32.81)"/><path class="b" d="M21.149,38.167c-.025-.573-.025-1.145-.025-1.718-.025-.573-.025-1.1-.05-1.619-.025-.5-.05-.946-.075-1.32a4.784,4.784,0,0,0,1.942,0c-.025.374-.05.8-.075,1.32-.025.5-.05,1.046-.05,1.619s-.025,1.146-.025,1.718c-.025.573-.025,1.1-.025,1.594V43.72c0,.274.075.4.274.4a.6.6,0,0,0,.374-.149c.125-.1.3-.224.473-.349.125-.1.349-.3.647-.573.3-.3.647-.623,1.021-1s.772-.8,1.17-1.22c.4-.448.772-.847,1.1-1.245a3.354,3.354,0,0,0,.822.1c.149,0,.324-.025.473-.025.149-.025.374-.05.623-.075-.921.747-1.768,1.444-2.615,2.191-.822.722-1.619,1.444-2.366,2.191q1.233,1.494,2.54,2.988c.872,1,1.768,1.967,2.689,2.938-.249-.025-.473-.05-.647-.05h-1.1a4.445,4.445,0,0,0-.573.05c-.324-.374-.672-.8-1.071-1.27s-.8-.971-1.22-1.444c-.4-.473-.772-.921-1.145-1.345s-.672-.772-.921-1.021a.845.845,0,0,0-.149-.149.237.237,0,0,0-.174-.05c-.149,0-.224.075-.224.274v1.295c0,.647.025,1.27.025,1.893.025.623.075,1.245.149,1.843-.324-.025-.647-.05-.971-.05s-.647.025-.971.05c.025-.324.05-.747.075-1.245s.05-1.021.05-1.594c.025-.573.025-1.145.025-1.718.025-.573.025-1.1.025-1.594V39.835c-.025-.548-.025-1.1-.025-1.668" transform="translate(4.823 -33.51)"/><path class="b" d="M29.882,37.628a2.063,2.063,0,0,0-1.569.125,2.15,2.15,0,0,0-.7.647,3.333,3.333,0,0,0-.448.946,4.432,4.432,0,0,0-.149,1.17v2.391c0,.971,0,1.693.025,2.216.025.5.025.921.075,1.245-.3-.025-.573-.05-.872-.05-.324,0-.623.025-.9.05q.075-.747.075-2.017c0-.847.025-1.868.025-3.113v-.7c0-.573,0-1.2-.025-1.942s-.025-1.594-.075-2.54l.448.075a2.707,2.707,0,0,0,.448.025c.125,0,.274-.025.4-.025l.448-.075c-.05.523-.1.921-.1,1.245-.025.324-.025.6-.025.872l.05.025c.847-1.544,1.793-2.341,2.864-2.341.125,0,.249.025.324.025.1.025.224.05.374.1a2.124,2.124,0,0,0-.125.8c-.025.349-.025.672-.025.971l-.149.1c-.05-.1-.2-.149-.4-.224" transform="translate(11.306 -30.008)"/><path class="b" d="M29.467,41.249a10.161,10.161,0,0,0,.149,1.768,4.432,4.432,0,0,0,.548,1.494,3,3,0,0,0,1.046,1.046,2.972,2.972,0,0,0,1.594.4,2.857,2.857,0,0,0,1.594-.4,2.738,2.738,0,0,0,1.021-1.046,4.3,4.3,0,0,0,.548-1.494,10.536,10.536,0,0,0,0-3.536,4.432,4.432,0,0,0-.548-1.494A3.16,3.16,0,0,0,34.4,36.941a2.972,2.972,0,0,0-1.594-.4,2.858,2.858,0,0,0-1.594.4,3,3,0,0,0-1.046,1.046,4.3,4.3,0,0,0-.548,1.494,8.2,8.2,0,0,0-.149,1.768m-1.917,0a5.773,5.773,0,0,1,.473-2.49,4.68,4.68,0,0,1,1.22-1.668,4.5,4.5,0,0,1,1.693-.921,6.064,6.064,0,0,1,3.76,0,5.113,5.113,0,0,1,1.693.921,4.47,4.47,0,0,1,1.22,1.668,6.166,6.166,0,0,1,.473,2.49,5.773,5.773,0,0,1-.473,2.49,4.68,4.68,0,0,1-1.22,1.668,4.449,4.449,0,0,1-1.693.9,6.956,6.956,0,0,1-1.893.274,6.062,6.062,0,0,1-1.868-.274,4.44,4.44,0,0,1-2.914-2.565,5.773,5.773,0,0,1-.473-2.49" transform="translate(14.584 -29.993)"/><path class="b" d="M43.5,47.944c.05-.8.075-1.594.1-2.391.025-.822.05-1.644.05-2.465V39.8c0-.847-.025-1.668-.05-2.465s-.075-1.619-.1-2.465c.149.025.324.05.473.075a2.708,2.708,0,0,0,.448.025c.149,0,.3-.025.448-.025a3.69,3.69,0,0,0,.473-.075c-.05.847-.075,1.668-.1,2.465s-.05,1.619-.05,2.465v1.046c0,.1.05.149.125.149a.507.507,0,0,0,.274-.174c.448-.374.921-.822,1.395-1.295.5-.473.971-1,1.494-1.494.5-.5,1-1.046,1.469-1.594s.946-1.071,1.395-1.569c.149.025.274.05.4.075a1.885,1.885,0,0,0,.374.025c.149,0,.3-.025.448-.025l.448-.075q-.672.56-1.494,1.345c-.548.523-1.121,1.046-1.693,1.594s-1.1,1.071-1.619,1.619c-.5.523-.946,1-1.27,1.37,1.021,1.145,2.067,2.316,3.113,3.536,1.046,1.2,2.117,2.391,3.187,3.611a4.446,4.446,0,0,0-.573-.05h-1.1a3.714,3.714,0,0,0-.523.05c-.448-.523-.971-1.121-1.519-1.793s-1.1-1.32-1.619-1.942-1-1.2-1.419-1.693-.747-.847-.946-1.071q-.149-.149-.224-.149a.114.114,0,0,0-.1.125v1.668c0,.847.025,1.668.05,2.465.025.822.075,1.619.1,2.391-.3-.025-.6-.05-.921-.05-.349.025-.647.025-.946.05" transform="translate(38.353 -31.483)"/><path class="b" d="M53.348,40.917a5.4,5.4,0,0,1-.747.2c-.3.05-.573.1-.872.149a5.605,5.605,0,0,0-.872.224,2.1,2.1,0,0,0-.747.374,2,2,0,0,0-.548.573,1.8,1.8,0,0,0-.2.872,1.747,1.747,0,0,0,.5,1.345,1.662,1.662,0,0,0,1.145.448,2.285,2.285,0,0,0,1.32-.4,2.951,2.951,0,0,0,.921-.921Zm-4.706-3.412a4.866,4.866,0,0,1,1.594-.872,4.932,4.932,0,0,1,1.494-.224,3.954,3.954,0,0,1,1.245.2,2.713,2.713,0,0,1,.971.573,2.526,2.526,0,0,1,.623.9,2.849,2.849,0,0,1,.224,1.145c0,.722-.025,1.444-.05,2.166s-.05,1.469-.05,2.291a3.015,3.015,0,0,0,.025.473,1.31,1.31,0,0,0,.1.448.758.758,0,0,0,.224.324.659.659,0,0,0,.423.125.619.619,0,0,0,.2-.025.331.331,0,0,0,.2-.075v.423a2.62,2.62,0,0,1-.523.149,3.063,3.063,0,0,1-.7.05,1.19,1.19,0,0,1-.921-.324,1.16,1.16,0,0,1-.374-.822,4.682,4.682,0,0,1-1.345,1,3.652,3.652,0,0,1-1.644.324,3.739,3.739,0,0,1-.921-.125,1.912,1.912,0,0,1-.822-.448,2.718,2.718,0,0,1-.573-.722,2.141,2.141,0,0,1-.224-.971,2.19,2.19,0,0,1,.722-1.768,3.978,3.978,0,0,1,1.967-.847c.672-.125,1.22-.224,1.619-.3a2.781,2.781,0,0,0,.847-.274.463.463,0,0,0,.324-.324,1.311,1.311,0,0,0,.05-.473,3.738,3.738,0,0,0-.125-.921,1.762,1.762,0,0,0-.374-.747,1.511,1.511,0,0,0-.647-.523,2.327,2.327,0,0,0-.971-.2,3.145,3.145,0,0,0-1.419.349,2.106,2.106,0,0,0-.971.946h-.2v-.9Z" transform="translate(44.791 -29.188)"/><path class="b" d="M58.812,41.052a6.793,6.793,0,0,0-.224-1.893,3.373,3.373,0,0,0-.623-1.2,2.026,2.026,0,0,0-.847-.623,2.709,2.709,0,0,0-2.241.149,2.723,2.723,0,0,0-.9.872,4.1,4.1,0,0,0-.5,1.27,7.8,7.8,0,0,0-.149,1.569c0,2.64.921,3.959,2.789,3.959a2.153,2.153,0,0,0,1.2-.324,2.585,2.585,0,0,0,.847-.872,4.158,4.158,0,0,0,.5-1.32,7.707,7.707,0,0,0,.149-1.594m-6.873,1.1c0-.448,0-.9-.025-1.419,0-.5-.025-1.021-.025-1.519-.025-.5-.025-.971-.05-1.444-.025-.448-.05-.847-.075-1.17a7.436,7.436,0,0,0,.847.1,4.2,4.2,0,0,0,.847-.1c-.05.324-.1.647-.125.946s-.05.623-.05.921h.05a6.058,6.058,0,0,1,.374-.647,3.24,3.24,0,0,1,.647-.672,4.255,4.255,0,0,1,.946-.523,3.353,3.353,0,0,1,1.245-.2,3.994,3.994,0,0,1,1.419.274,3.569,3.569,0,0,1,1.245.847,4.145,4.145,0,0,1,.872,1.444,5.913,5.913,0,0,1,.324,2.117,5.452,5.452,0,0,1-.374,2.117,4.515,4.515,0,0,1-.946,1.494,3.812,3.812,0,0,1-1.32.872,3.961,3.961,0,0,1-1.494.274,3.09,3.09,0,0,1-2.988-1.793h-.025v1.2c0,.4,0,.847.025,1.37,0,.5.025,1,.025,1.494.025.5.025.971.05,1.419s.05.822.075,1.145a7.435,7.435,0,0,0-.847-.1,4.017,4.017,0,0,0-.847.1c.025-.324.05-.7.075-1.145s.025-.921.05-1.419.025-1,.025-1.494.025-.971.025-1.37l.025-3.113Z" transform="translate(50.633 -29.174)"/><path class="b" d="M56.514,42.614c0-.573-.025-1.17-.025-1.793-.025-.623-.05-1.22-.124-1.768a7.437,7.437,0,0,0,.847.1,4.018,4.018,0,0,0,.847-.1c-.05.548-.1,1.145-.125,1.768s-.025,1.22-.025,1.793v1.967c0,.573.025,1.17.025,1.793a11.476,11.476,0,0,0,.125,1.693c-.3-.025-.573-.05-.847-.05s-.573.025-.847.05c.05-.5.1-1.071.124-1.693s.025-1.22.025-1.793Zm-.274-6.873a.853.853,0,0,1,.3-.672.929.929,0,0,1,.672-.3.853.853,0,0,1,.672.3.929.929,0,0,1,.3.672.853.853,0,0,1-.3.672.929.929,0,0,1-.672.3.853.853,0,0,1-.672-.3.987.987,0,0,1-.3-.672" transform="translate(57.338 -31.632)"/><path class="b" d="M60.709,35.549c-.05.473-.075.971-.1,1.419-.025.473-.05.921-.075,1.395.149,0,.4,0,.8-.025.374,0,.8-.025,1.245-.05a.428.428,0,0,0-.025.2v.4a.486.486,0,0,0,.025.2,3.175,3.175,0,0,0-.5-.025c-.174,0-.374-.025-.573-.025h-.921a4.285,4.285,0,0,0-.05.623c-.025.349-.025.772-.05,1.27s-.025,1-.025,1.519c0,.548-.025,1-.025,1.419,0,.349.025.7.025,1.046a3.366,3.366,0,0,0,.174.921,1.379,1.379,0,0,0,.448.647,1.451,1.451,0,0,0,.872.249,3.41,3.41,0,0,0,.4-.05,2,2,0,0,0,.448-.1v.448c-.224.05-.448.075-.722.149a4,4,0,0,1-.747.075,2.334,2.334,0,0,1-1.768-.6,2.448,2.448,0,0,1-.573-1.743c0-.349,0-.722.025-1.121s.025-.847.05-1.32.025-1,.05-1.594c.025-.573.025-1.22.025-1.942h-.623a1.532,1.532,0,0,0-.324.025c-.124,0-.224.025-.374.025a.69.69,0,0,0,.025-.224c0-.075.025-.149.025-.224a.619.619,0,0,0-.025-.2c0-.05-.025-.125-.025-.2.573.05,1,.05,1.245.05-.025-.249-.025-.573-.025-.946s-.025-.772-.05-1.17l1.594-.672h.125Z" transform="translate(59.693 -30.694)"/><path class="b" d="M65.688,40.917a5.4,5.4,0,0,1-.747.2c-.3.05-.573.1-.872.149a5.6,5.6,0,0,0-.872.224,2.1,2.1,0,0,0-.747.374,2,2,0,0,0-.548.573,1.8,1.8,0,0,0-.2.872,1.747,1.747,0,0,0,.5,1.345,1.662,1.662,0,0,0,1.145.448,2.285,2.285,0,0,0,1.32-.4,2.951,2.951,0,0,0,.921-.921Zm-4.706-3.412a4.866,4.866,0,0,1,1.594-.872,4.932,4.932,0,0,1,1.494-.224,3.954,3.954,0,0,1,1.245.2,2.713,2.713,0,0,1,.971.573,2.526,2.526,0,0,1,.623.9,2.849,2.849,0,0,1,.224,1.145c0,.722-.025,1.444-.05,2.166s-.05,1.469-.05,2.291a3.012,3.012,0,0,0,.025.473.853.853,0,0,0,.1.448.758.758,0,0,0,.224.324.659.659,0,0,0,.423.125.619.619,0,0,0,.2-.025.331.331,0,0,0,.2-.075v.423a2.62,2.62,0,0,1-.523.149,3.063,3.063,0,0,1-.7.05,1.19,1.19,0,0,1-.921-.324,1.16,1.16,0,0,1-.374-.822,4.682,4.682,0,0,1-1.345,1,3.652,3.652,0,0,1-1.644.324,3.739,3.739,0,0,1-.921-.125,1.912,1.912,0,0,1-.822-.448,2.717,2.717,0,0,1-.573-.722,2.141,2.141,0,0,1-.224-.971,2.19,2.19,0,0,1,.722-1.768,3.978,3.978,0,0,1,1.967-.847c.672-.125,1.22-.224,1.619-.3a2.78,2.78,0,0,0,.847-.274.463.463,0,0,0,.324-.324,1.311,1.311,0,0,0,.05-.473,3.738,3.738,0,0,0-.125-.921,1.762,1.762,0,0,0-.374-.747,1.511,1.511,0,0,0-.647-.523,2.327,2.327,0,0,0-.971-.2,3.145,3.145,0,0,0-1.419.349,2.106,2.106,0,0,0-.971.946h-.2v-.9Z" transform="translate(63.18 -29.188)"/><path class="b" d="M64.52,38.419c0-.5-.025-1-.025-1.494-.025-.5-.025-.971-.05-1.419s-.05-.822-.075-1.145a7.435,7.435,0,0,0,.847.1,4.2,4.2,0,0,0,.847-.1c-.025.324-.05.7-.075,1.145s-.025.921-.05,1.419-.025,1-.025,1.494-.025.971-.025,1.419v3.436c0,.448,0,.9.025,1.419,0,.5.025,1,.025,1.494.025.5.025.971.05,1.419s.05.822.075,1.1c-.3-.025-.573-.05-.847-.05s-.573.025-.847.05c.025-.3.05-.647.075-1.1s.025-.921.05-1.419.025-1,.025-1.494.025-.971.025-1.419V39.838c0-.423-.025-.921-.025-1.419" transform="translate(69.454 -32.243)"/></g></g></svg>