<svg xmlns="http://www.w3.org/2000/svg" width="87.354" height="55.442" viewBox="0 0 87.354 55.442"><defs><style>.a{fill:#1b1c20;}</style></defs><g transform="translate(0)"><g transform="translate(0 0)"><g transform="translate(0 0)"><path class="a" d="M17.772,65.07a3.131,3.131,0,0,0,.3-1.175,51.519,51.519,0,0,1,8.355-18.8,45.464,45.464,0,0,1,5.2-6.179c.74-.74,1.523-1.414,2.263-2.132.152-.152.261-.174.413,0q1.142,1.077,2.284,2.089c.2.174.218.261,0,.457A43.883,43.883,0,0,0,26.366,52.864a52.753,52.753,0,0,0-3.5,10.509c-.2.8-.37,1.632-.522,2.459-.065.326-.174.457-.544.457-1.349-.022-2.7,0-4.047,0C17.772,65.875,17.772,65.483,17.772,65.07Z" transform="translate(-17.75 -11.063)"/><path class="a" d="M43.68,34.614c.348-.609.674-1.175.979-1.762.131-.239.261-.174.457-.109A35.262,35.262,0,0,1,51.469,35.9a38.7,38.7,0,0,1,13.62,14.664c.044.087.218.218.065.326-.2.109-.326,0-.435-.2a38.813,38.813,0,0,0-6.266-7.571,38.119,38.119,0,0,0-8.529-5.983,37.5,37.5,0,0,0-5.809-2.393A1.444,1.444,0,0,1,43.68,34.614Z" transform="translate(12.736 -15.744)"/><g transform="translate(7.015)"><path class="a" d="M71.746,49.706c-.392-.152-.761-.283-1.153-.457a14.506,14.506,0,0,1-3.633-2,.92.92,0,0,1,.435.109,9.186,9.186,0,0,0,3.742.653.925.925,0,0,0,.74-.3c-.044-.109-.131-.109-.218-.131A17.32,17.32,0,0,1,66.5,45.768a37.189,37.189,0,0,1-5.243-3.394,1.349,1.349,0,0,0-.936-.3,31.936,31.936,0,0,1-5.4-.109,16.074,16.074,0,0,1-4.373-1.066,17.741,17.741,0,0,1,2.089-2.48,6.2,6.2,0,0,1,2.328-1.458,2.6,2.6,0,0,0,.348-.174c2.11-1.349,4.221-2.72,6.331-4.069.065-.044.2-.065.174-.2-.2-.065-.37.065-.522.109-1.458.5-2.915.979-4.373,1.5a1.022,1.022,0,0,1-1.023-.109,1.533,1.533,0,0,0-2.437.5A18.411,18.411,0,0,1,50.9,37.457a5.57,5.57,0,0,1-.957.783,3.359,3.359,0,0,1-2.872.5,13.706,13.706,0,0,1-3.786-1.784,41.964,41.964,0,0,1-4.069-3.285,7.578,7.578,0,0,0-2.459-1.588,29.889,29.889,0,0,1-12.075-6.875,1.643,1.643,0,0,0-.3-.239c-.218-.131-.3-.087-.283.174a1.818,1.818,0,0,0,.37.892,9.176,9.176,0,0,0,1.98,2.219c.218.174.435.37.653.566a3.753,3.753,0,0,1-1.218-.479A30.937,30.937,0,0,1,22.4,26.056c-.109-.087-.239-.218-.37-.131-.152.087-.109.283-.065.435a1.731,1.731,0,0,0,.239.544,5.946,5.946,0,0,0,1,1.088,14.857,14.857,0,0,0,3.851,2.241c-.109.087-.174.087-.413.022a22.489,22.489,0,0,1-4.765-1.349c-.218-.065-.522-.239-.631-.065-.109.218.131.457.348.609a1.545,1.545,0,0,1,.3.218,13.106,13.106,0,0,0,4,1.61,1.036,1.036,0,0,1,.566.261,24.629,24.629,0,0,1-2.546-.044c-.849-.087-1.675-.326-2.5-.457-.152-.022-.37-.087-.435.044-.065.2.131.326.261.435a5.365,5.365,0,0,0,1.61.718,22.348,22.348,0,0,0,3.2.566,8.574,8.574,0,0,1-2.11.2l-2.263-.065c-.109,0-.261-.065-.283.087-.022.131.131.174.218.218a6.28,6.28,0,0,0,2.176.544c.718.065,1.458.065,2.176.109a5.49,5.49,0,0,1-1.175.3,15.018,15.018,0,0,1-2.2.109c-.109,0-.283-.022-.3.174,0,.131.131.174.218.218a4.159,4.159,0,0,0,1.7.348c.544.022,1.088,0,1.632,0a.171.171,0,0,1-.131.174,3.79,3.79,0,0,1-1.175.326c-.152.044-.37.022-.37.2-.022.218.218.218.37.261a3.318,3.318,0,0,0,1.305-.087,1.862,1.862,0,0,1,1.24.109,14.085,14.085,0,0,1,3.176,2.263,47.669,47.669,0,0,0,6.4,5.461c.827.566,1.7,1.066,2.589,1.588-.2.131-.326.261-.479.348-.653.457-1.327.892-1.98,1.327-.479.326-.544.653-.2,1.088.435.566.914,1.088,1.349,1.654.174.239.283.152.392-.044a.4.4,0,0,0-.065-.5c-.239-.3-.457-.609-.7-.914-.479-.587-.457-.653.174-1.088a29.932,29.932,0,0,0,4.438-3.5,5.829,5.829,0,0,0,1.349-1.98,1.945,1.945,0,0,0,.152-1.218,6.019,6.019,0,0,1-1.349,2c-.218.218-.392.283-.653.044-.522-.479-1.11-.87-1.654-1.349a25.017,25.017,0,0,1-4.243-5.091,4.119,4.119,0,0,0-2.72-1.806,8.117,8.117,0,0,1-2.459-.783,1.579,1.579,0,0,1-.849-1.632c.044-.392.239-.544.609-.435a.566.566,0,0,0,.761-.261.51.51,0,0,1,.653-.239,2.483,2.483,0,0,1,.761.283A10.783,10.783,0,0,0,35.434,32.3a6.222,6.222,0,0,1,2.915,1.545c.587.566,1.24,1.088,1.871,1.61a19.914,19.914,0,0,0,5.744,3.677,4.459,4.459,0,0,0,5.048-.914,12.036,12.036,0,0,0,2.85-3.351.392.392,0,0,1,.631-.2,1.2,1.2,0,0,0,.87.065c.261-.065.348-.022.3.283a1.427,1.427,0,0,1-.957,1.327,6.718,6.718,0,0,0-2.11,1.088c-.566.544-1.131,1.088-1.675,1.654a4.865,4.865,0,0,0-1.392,2.154,6.819,6.819,0,0,1-1.175,2.35,20.08,20.08,0,0,1-3.72,3.72,1.073,1.073,0,0,0-.413,1.218c.174-.131.348-.261.566-.413a12.182,12.182,0,0,1-.218,2.219c-.218,1.262-.392,1.349-1.654,1.153-.522-.087-1.066-.152-1.61-.218-.261-.044-.348.109-.392.326-.044.261.131.261.3.283.761.131,1.523.283,2.306.348a1.272,1.272,0,0,0,1.371-.74,4.658,4.658,0,0,0,.37-1.436A5.482,5.482,0,0,1,45.55,48.1a.512.512,0,0,0,.174.044,28.389,28.389,0,0,0,8.92,1.762,19.423,19.423,0,0,1,3.894.239,4.056,4.056,0,0,1,3.242,2.371,4.119,4.119,0,0,0,.413.653c.109.152.218.348.435.239.218-.131.022-.3-.044-.457a2.374,2.374,0,0,1-.239-1.436c.2.348.326.587.457.827a7.7,7.7,0,0,0,.957,1.414,1.655,1.655,0,0,0,.783.544c.087.022.174.044.239-.044s0-.152-.044-.218c-.152-.239-.326-.457-.479-.718A6.466,6.466,0,0,1,63.2,50.685c.152.239.261.392.348.544a12.449,12.449,0,0,0,1.7,2.284,2.923,2.923,0,0,0,.74.631c.131.065.326.174.435.044s-.065-.261-.152-.348a25.462,25.462,0,0,1-1.479-2.176c-.218-.37-.413-.761-.674-1.218a1.22,1.22,0,0,1,.522.435,14.551,14.551,0,0,0,2.132,2.2,2.328,2.328,0,0,0,1.305.587c.087,0,.174.022.218-.065a.169.169,0,0,0-.065-.218,3.345,3.345,0,0,1-.261-.283A17.3,17.3,0,0,1,65.2,49.706a.508.508,0,0,1-.131-.457,2.236,2.236,0,0,1,.326.3,16.926,16.926,0,0,0,2.48,2,4.093,4.093,0,0,0,1.7.74c.152.022.37.087.457-.109.065-.174-.152-.261-.261-.348a33.448,33.448,0,0,1-4.156-3.7c.2-.065.326.109.457.2a18,18,0,0,0,2.459,1.349,6.153,6.153,0,0,0,2.915.653c.239,0,.566.044.609-.239C72.29,49.858,71.963,49.793,71.746,49.706ZM62.76,46.769a1.533,1.533,0,0,1-2.067-.109,3.34,3.34,0,0,0-3-.892c-.653.087-1.305.109-1.936.2a16.572,16.572,0,0,1-6.679-.892c-.218-.065-.457-.152-.74-.239a9.332,9.332,0,0,0,1.849-3.155c.087-.239.218-.152.37-.109a21.509,21.509,0,0,0,3.481.892,24.619,24.619,0,0,0,6.2.239.8.8,0,0,1,.587.152c.587.413,1.2.827,1.784,1.24.413.3.457.5.261.979a.532.532,0,0,0,.109.653A.638.638,0,0,1,62.76,46.769Z" transform="translate(-20.974 -24.897)"/><path class="a" d="M30.926,40.345C32.6,39.127,33.993,37.6,35.582,36.3c.261.74.261.783-.283,1.284-2.48,2.284-5.048,4.482-7.571,6.723a.209.209,0,0,1-.218.087V43.108a.372.372,0,0,1,.152-.283,30.668,30.668,0,0,0,6.027-8.115,1.906,1.906,0,0,1-.087,1.654,28.06,28.06,0,0,1-2.393,3.612C31.122,40.084,31.013,40.214,30.926,40.345Z" transform="translate(-13.29 -13.36)"/></g><g transform="translate(14.534 39.778)"><path class="a" d="M24.43,58.519,26.976,43.18h6.549l2.894,10.465,1.7-10.465h4.351L39.856,58.519H33.329L30.348,47.945,28.825,58.519Z" transform="translate(-24.43 -43.18)"/><path class="a" d="M46.666,43.18h-6.44L32.72,58.54H37.68l1.392-3.329h4.808l.2,3.329h4.961Zm-6.331,8.855,2.654-6.309.587,6.309Z" transform="translate(-14.683 -43.18)"/><path class="a" d="M53.287,50.36c2.2-.479,4.221-1.327,4.156-4.264s-4.7-2.915-4.7-2.915H43.932l-2.5,15.36h7.876a20.1,20.1,0,0,0,3.829-.457c2.023-.674,3.829-1.588,3.96-4.547C57.225,50.534,53.287,50.36,53.287,50.36Zm-1.5,4.395a2.93,2.93,0,0,1-2.067.609H46.673l.435-3.111h3.742a1.312,1.312,0,0,1,1.24.653A1.5,1.5,0,0,1,51.786,54.755Zm.392-6.092a2.724,2.724,0,0,1-1.915.544H47.435l.413-2.894h3.459a1.227,1.227,0,0,1,1.153.609A1.419,1.419,0,0,1,52.178,48.663Z" transform="translate(-4.443 -43.18)"/><path class="a" d="M56.357,43.18H51.722l-1.588,9.834s-1.023,4.612,3.459,5.526a15.536,15.536,0,0,0,8.094-.522,5.644,5.644,0,0,0,3.72-4.591c.7-3.786,1.741-10.226,1.741-10.226H62.383L60.947,52.8s-.413,2.72-2.546,2.785-4.156.174-3.72-2.415C55.138,50.534,56.357,43.18,56.357,43.18Z" transform="translate(5.672 -43.18)"/></g></g></g></g></svg>