<svg xmlns="http://www.w3.org/2000/svg" viewBox="0 0 70 70"><defs><style>.cls-1{fill:#1b1c20;}</style></defs><title>logo</title><g id="Burn"><path class="cls-1" d="M47.79,55.12,46.4,56.35h1.39a.52.52,0,0,1,.39-.07,5.09,5.09,0,0,0,1.29.07,2.1,2.1,0,0,1,.61-.09l1,.11a2.89,2.89,0,0,1-.73-.35,5.85,5.85,0,0,1-1.13-1.2C49.05,54.39,47.79,55.12,47.79,55.12Z"/><path class="cls-1" d="M49.46,48.56a7.63,7.63,0,0,0,1,1.11.94.94,0,0,1,.44.68c.06.29,1.09.72,1.24,1.16s.17.7.49.88a2.83,2.83,0,0,1,1,1.25c0,.25.06.33.32.41s.62.6.85,1,.45,1.05.79,1.28.41.24.61.16a1,1,0,0,1,.68,0,1.2,1.2,0,0,0,.65-.09,1.39,1.39,0,0,1-.18-.63.65.65,0,0,1,.18-.51s0-.12-.13-.41.08-.87,0-1.08-.3-.44-.26-.85.44-.81.38-1.16-.35-.91-.27-1.15,0-.11,0-.51a.73.73,0,0,1,.25-.69c.1-.08-.19-.7-.07-.89s-.21-.48-.12-.68a3.05,3.05,0,0,0,.26-1.11c0-.37-.09-.23,0-.43a6.88,6.88,0,0,1,.8-.82,1.4,1.4,0,0,0,.38-.16.86.86,0,0,0,.21-.29s-1.58-.05-1.79,0a3.66,3.66,0,0,1-1.4,0c-.12-.15-.3,0-.56,0s-.66.05-1,.05v.18a2.46,2.46,0,0,1,1.13.59,5.32,5.32,0,0,1,.25,1.83c0,.13.31.33.29.45s-.2.44-.18.63.29.51.17.56-.31.3-.26.44a1.2,1.2,0,0,1,.18.74v1a.58.58,0,0,0-.17.51c.08.31.16.16.16.57v.41a2.24,2.24,0,0,1-.66-.56c-.13-.26-.07-.34-.29-.51a2.32,2.32,0,0,1-.62-.7c-.07-.19-.13-.19-.35-.46a5.59,5.59,0,0,1-.47-.82c0-.11-.18-.17-.5-.46s-.48-.49-.47-.7-.3-.46-.68-.87-.44-.25-.52-.74-.7-.73-.77-.83-.14-.38-.26-.5a3.34,3.34,0,0,1-.35-.74H48.59c-.23,0-.46,0-.7,0s-1.47,0-1.47,0v.07a5.15,5.15,0,0,1,.88.58.67.67,0,0,0,.3.38.36.36,0,0,1,.19.26,3.76,3.76,0,0,0,0,.67,2.26,2.26,0,0,1,0,.52,2.68,2.68,0,0,0,0,.8c.07.17.19.5.07.55s-.1.59-.07.83,0,1.9,0,1.9-.25.25-.16.44a.92.92,0,0,1,.17.52,2.93,2.93,0,0,1-.15,1.06c-.12.17.09.28.11.46s0,1,0,1.08a8.68,8.68,0,0,0,1.61,0,2.48,2.48,0,0,0,.07-.72c0-.21-.13-.48,0-.65a1.15,1.15,0,0,0,.08-.71c-.05-.19.15-.35.06-.6a1.85,1.85,0,0,1-.2-.6c0-.13.12-.13,0-.46s.19-.75.19-.91a8.5,8.5,0,0,0-.13-1.13A2.57,2.57,0,0,1,49.46,48.56Z"/><path class="cls-1" d="M45.08,55.82c-.09-.33-.41-.33-.7-.35s-.48-.51-.61-.71a2.58,2.58,0,0,0-.65-.58.63.63,0,0,1-.3-.52c0-.09-.29-.16-.29-.16a1.54,1.54,0,0,0-.34-.28c-.15-.06-.07-.28-.07-.38s-.35-.25-.52-.38-.24-.25-.2-.35-.06-.2-.15-.25l-.55-.52s.15-.08.17-.17.32-.09.47-.07a1.14,1.14,0,0,0,.67-.28c.13-.16.24-.12.5-.19s.27-.28.59-.37.35-.35.5-.41.14-.41.15-.59.2-.23.2-.35a1.88,1.88,0,0,1,.17-.57c.06-.06,0-.28.05-.34a.45.45,0,0,0,.07-.47c-.09-.17,0-.28,0-.4a.8.8,0,0,0-.35-.44c-.12-.06,0-.18-.06-.27a.51.51,0,0,0-.35-.25c-.1,0-.16-.2-.2-.35s-.3-.22-.42-.3a1.72,1.72,0,0,0-.58-.15c-.21,0-.26-.24-.47-.26s-.36.11-.58,0a2,2,0,0,0-.95,0,10.27,10.27,0,0,1-1.84-.1c-.2-.05-.37.12-.57.09A5.35,5.35,0,0,0,36.81,45c-.15.05-.27.14-.46.05A14.45,14.45,0,0,0,34.61,45s.35.17.41.34.15.23.33.32.5.36.5.44,0,2.08.06,2.43a.86.86,0,0,1-.09.5c0,.12.2.23.2.43s-.09.39-.09.61-.06.59-.06.74a2.29,2.29,0,0,1,0,.64,1,1,0,0,0,.09.64c.07.13-.08.29-.09.35s.06.68.06.82a1.73,1.73,0,0,0,.1.71c.08.06-.07.26-.13.35a2.51,2.51,0,0,0,0,.67,1.85,1.85,0,0,1-.72.93,3.87,3.87,0,0,0-.64.41h1.17c.41,0,.47-.14.67-.18s.42.27.54.28.32-.12.44-.15.38.06.63.06l1.65-.06-.25-.06a.59.59,0,0,0-.07-.29c-.07-.09-.8-.79-.8-.79s0-1.21,0-1.3a.36.36,0,0,1,0-.35c.06-.16-.11-.47-.11-.6a1.58,1.58,0,0,1,.07-.53c.08-.07,0-.65,0-.68s.43.29.52.53-.09.21.06.27.26.32.53.69a1.54,1.54,0,0,0,.7.56c.2.07.26.45.29.61s.09.44.28.5a12.43,12.43,0,0,1,1,1.14.27.27,0,0,1,.07.26s.71.07.86.06a2.14,2.14,0,0,1,.94-.05,13.22,13.22,0,0,0,2.18,0S45.17,56.16,45.08,55.82ZM40.4,50a1.57,1.57,0,0,1-.43.09,1.13,1.13,0,0,1-.59.23,2.43,2.43,0,0,1-1,0,.72.72,0,0,1,.1-.29c.1-.15-.18-.18-.18-.31a.91.91,0,0,1,.17-.39c0-.08-.12-.26-.17-.46s0-.64.14-.67,0-.26-.13-.5.06-.41.13-.64-.19-.3-.17-.54a1,1,0,0,1,.1-.42,1.14,1.14,0,0,0,.52,0,.33.33,0,0,1,.4,0c.12.13.33.07.54.07a.92.92,0,0,1,.51.12c.16.1.35,0,.46.07a.81.81,0,0,1,.4.49c0,.23,0,.21.33.33s-.06.43-.09.51.23.27.19.45-.17.32-.25.56-.21.58-.26.78S40.67,49.9,40.4,50Z"/><path class="cls-1" d="M26.62,45a4.63,4.63,0,0,0-1.17-.1,2.06,2.06,0,0,1-.69.1,1.38,1.38,0,0,0-.64-.06,3.77,3.77,0,0,1-1.34.06,8.64,8.64,0,0,0-1.24-.1s.16.32.32.38.38.38.38.38l.41.27a1.75,1.75,0,0,1,.5.47A2.94,2.94,0,0,1,23,47v.47a1,1,0,0,0-.21.43.57.57,0,0,0,.13.53,1.35,1.35,0,0,0,.05.45,3.4,3.4,0,0,1,.07,1.31c-.1.12,0,.53,0,.53a2.28,2.28,0,0,1-.05.78c-.09.1,0,.53,0,.53a4.11,4.11,0,0,0,0,1,2.29,2.29,0,0,1,.2,1c0,.46.3.49.46.7a3.74,3.74,0,0,1,.29.72,3.6,3.6,0,0,1,.77.36c.3.21.53.11.59.23a.85.85,0,0,0,.43.29c.1,0,.26.1.41.07a.49.49,0,0,1,.39.08c.14.07.26,0,.51,0a3.33,3.33,0,0,1,.63,0,.55.55,0,0,0,.4,0c.13,0,.3,0,.53,0s.59-.2.7-.15a3,3,0,0,0,1.35-.44,5.89,5.89,0,0,1,1.1-.81c.15,0,.22-.42.22-.57s.26-.16.23-.43a1.32,1.32,0,0,1,.18-.85,1,1,0,0,0,0-.84.43.43,0,0,1,.14-.53.55.55,0,0,0,.09-.71,2.73,2.73,0,0,1,0-1.42.38.38,0,0,0,0-.47c-.1-.09,0-.57,0-.57s0-.64-.12-.7.09-.53.09-.64v-.47a3.5,3.5,0,0,1-.13-.56c0-.09.12-.31.16-.31s1.22-1,1.22-1-4.47-.06-4.67-.11-.36,0-.24.08.36.06.55.17.38.41.63.53.67.47.6.52-.05.35-.05.35.11.25.05.36-.29.55-.19.65.31.14.26.38-.24.4-.18.67.15.41.15.54-.12,1.2-.15,1.36.2.11.18.49-.44.7-.29.91.29.29.17.47a2.12,2.12,0,0,0,0,.87s.16.5,0,.56-.35.15-.35.24,0,.43,0,.43a1.42,1.42,0,0,0-.29.26.61.61,0,0,1-.39.36,5.77,5.77,0,0,1-2.19.15c-.74-.15-.67-.41-.91-.44s-.44-.33-.52-.44-.07-.23-.17-.39a3.42,3.42,0,0,1-.21-.43c-.06-.18-.17-.82-.17-.82a.42.42,0,0,0,.13-.51,1,1,0,0,1-.15-.81,1.19,1.19,0,0,0,.06-.7,3.57,3.57,0,0,1,.09-.8c0-.09-.33-.55-.27-.7s.23-.73.23-.73l-.06-.64s.09-1.12.07-1.26-.16-.38,0-.55S26.3,45.12,26.62,45Z"/><path class="cls-1" d="M21.19,54.08c-.06-.29-.21-.95-.11-1s0-.5-.12-.73-.44-.57-.45-.79-.55-.33-.66-.47-.53-.22-.67-.3-.26-.26-.44-.26-.88-.13-.88-.13,1-.4,1.22-.46.67-.17.73-.33.16-.52.28-.54.31-.39.32-.6a1.5,1.5,0,0,1,.29-.61c.08-.11-.27-.35-.32-.72s0-.65,0-.77-.54-.93-.74-.91-.79-.06-.88-.22-.79-.15-1.1-.13-.76-.15-1-.13-.49,0-.88,0-1.07.1-1.14.1-.72-.1-.72-.1l-1,.09a3.74,3.74,0,0,0-.87-.13c-.2,0-.68.14-.68.14s1.11.8,1.18,1.15a2.68,2.68,0,0,0,.13.75,1.18,1.18,0,0,1,.05.59s.34.2.17.37a1.42,1.42,0,0,0-.28.53s.16.27.08.41a1.89,1.89,0,0,0,0,.82c0,.13.15.5,0,.55s.08.3.14.32.09.36-.05.44-.29.5-.15.57.26.58.26.58a2.84,2.84,0,0,1-.15,1,2.22,2.22,0,0,0-.06,1.35.62.62,0,0,1,.06.5c-.05.12-.2.17-.17.26s-.43.64-.77.82a1.91,1.91,0,0,1-.73.21H13a3.75,3.75,0,0,1,.67,0,1.94,1.94,0,0,0,.59,0,2.67,2.67,0,0,0,.63,0,2.3,2.3,0,0,1,.45,0,3.47,3.47,0,0,0,1.35.21,6.5,6.5,0,0,1,1.59-.15c.46.11.5-.29.88-.29a1.86,1.86,0,0,0,1.11-.64c.13-.21.47-.2.62-.65S21.25,54.36,21.19,54.08Zm-6-5.6c0-.36-.16-.67,0-1s.12-.26.12-.37-.11-.21-.18-.42,0-.35-.08-.58c0,0,1.63-.21,1.79,0s.89.38,1.13.58,0,.39.06.67.29.64.24.64a1.06,1.06,0,0,0-.16.7c0,.27-.26.42-.42.51s-.19.41-.56.55a8.53,8.53,0,0,1-2.08.08c-.06,0,.15-.31.13-.61A2.27,2.27,0,0,1,15.16,48.48Zm3.33,5.22c-.17.31-.34.62-.54.92a2.83,2.83,0,0,1-1,.43,5.28,5.28,0,0,1-1.53.21c-.35,0-.29-.18-.31-.38s-.2-.38-.09-.58a2.2,2.2,0,0,0,0-1.11,5.36,5.36,0,0,1,0-1.2c0-.38-.3-.45-.12-.54s-.2-.43,0-.43c.49,0,1.58-.05,1.63.11s.7.18.86.32.62.6.62.6l.35.54a1.38,1.38,0,0,1,0,1.11Z"/><path class="cls-1" d="M30.7,30a3.44,3.44,0,0,1,.16-1.93,10,10,0,0,0,.86-2.52,2.51,2.51,0,0,0-.26-1.4s0,1.26-.29,1.26-.67-.18-.45-.74.18-1.14.33-1.45,0-1,.05-1.35.26-.38,0-.88a2.44,2.44,0,0,1-.32-.94,12.48,12.48,0,0,1-.49,2.9c-.41,1.15-1.4,3.39-2,3.53s-.37-.58-.37-.58-.09,2-.45,2.11-.44.5-.58.76-.82.37-1,.87-.21.7-.44.76-.09.32-.13.41a2.12,2.12,0,0,0-.4,1.34c.07.76.17,1.68.17,1.68a2.82,2.82,0,0,1-.65-1.46,7.39,7.39,0,0,0,0,1.33,9.12,9.12,0,0,0,.07,1.38c.11.29-.16,0-.1.39a2,2,0,0,0,.38,1.34c.41.44.15.28.29.63a12.28,12.28,0,0,0,.68,1.05c.2.36.09.79.61,1.13a4.73,4.73,0,0,1,.88.79,1.18,1.18,0,0,0,.42.29,1.2,1.2,0,0,0,.79.67c.55.11.51.23.51.23s-.79,0-.93-.12-.65-.17-.72-.18-.34-.53-.74-.58-.49,0-.84-.37a13.36,13.36,0,0,0-1.93-1,3.46,3.46,0,0,1,1.36.09l.39.17A5.54,5.54,0,0,0,24.47,39c-.36-.12-.21-.35-1.61-.29s-1.81.25-2,.19A1.07,1.07,0,0,0,20,39c-.41.13-.26.36-.47.41s-.46.54-.46.54a4.37,4.37,0,0,0,1-.06,2.34,2.34,0,0,1,1.05-.15,7,7,0,0,1,1.32.43c.35.16.61-.17.88,0s.73.53,1.25.77.44.15.8.35.59.06,1,.26a3,3,0,0,0,1.32.44,3.29,3.29,0,0,1,1.17.18c.43.17.55,0,1,.11a2.64,2.64,0,0,0,1.25,0l.3-.12A3.85,3.85,0,0,1,30,41.56c-.31-.34-.13-.64-.4-.64s-.08.27-.68-.15-.92-.8-.67-.83a3.56,3.56,0,0,1,.8.08c.2,0-.46-.49-.47-.73a8.28,8.28,0,0,0-.83-1.41s.86.85,1.17,1.11.48.38.59.24-.15-.68.15-.38.29.75.79,1a13.54,13.54,0,0,0,1.38.53,4.58,4.58,0,0,1-.92-.78,10.89,10.89,0,0,0-1-1s.82.11.55-.47-.38-.74-.46-.77,0-.55,0-.55-.25-.47-.12-.51.05.27.23-.08.09-.47.09-.47a3.87,3.87,0,0,0,.05,1c.09.26.38,1.14.38,1.14s.16-1.83.26-2.34,0-1.07.18-1.11a.49.49,0,0,0,.29-.4c0-.2.16-.33.46-.61A3.78,3.78,0,0,0,32.4,32a.28.28,0,0,0,.31.25.22.22,0,0,0,.15-.06c.38-.21.59-.91.71-1.18a1.67,1.67,0,0,0,.14-.53s.2.1.41-.25.41-.54.42-.68.26-.15.35-.46A12.32,12.32,0,0,0,35,27.44a2.58,2.58,0,0,1,.36,1.17c-.06.43-.2.41-.09.87a.8.8,0,0,1-.2.79c-.12.2.09.5-.07.65a1.59,1.59,0,0,0-.55.76c-.05.29-.12.5-.2.53a.57.57,0,0,0,0,.66c.18.23.59.1.86-.22s.44-.44.47-.62l0-.18s.4.08.49-.26a4.74,4.74,0,0,1,.52-1.06,3.51,3.51,0,0,0,.07-.72s.52.08.55-.29,0-.59.07-.63a2.2,2.2,0,0,0,.61-1.05,8.63,8.63,0,0,0,.28-1.75A12.73,12.73,0,0,1,38,30a22.31,22.31,0,0,0-.69,2.55c-.12.58-.26.5-.26.77s.22,0,0,.61A9.46,9.46,0,0,0,37,35.8a1.22,1.22,0,0,0,.17,1c.13.15.08.22.18.47s.5.24.75.13.45-1,.42-1.19a1.65,1.65,0,0,1,0,1.34c-.32.63-.64,2.09.44,2.34a1.27,1.27,0,0,0,1.49-.72s.22.78,0,1-.13-.08-.3.49-1.37,1.07-1.9,1.13a4.63,4.63,0,0,0-.84.17A2.22,2.22,0,0,0,39,42.2,14,14,0,0,1,41.24,42c.79,0,.39-.09.82-.23s.74-.58,1.24-.65a8.85,8.85,0,0,0,1.31-.55,3.47,3.47,0,0,0,.65-.29c.17-.08.8-.24,1-.32a1.57,1.57,0,0,1,1.21-.21,2.09,2.09,0,0,0,1.11,0s.76.15,1.1.24-.12-.61-1.2-1a3.47,3.47,0,0,0-1.65-.31c-.46,0-1-.06-1.32-.06s-.33.21-.68.18-.46.29-.75.29-.62.52-.62.52L45,39.13c.5-.13.56,0,.56,0a3.18,3.18,0,0,1-.83.35c-.27,0-.46.06-.56.2a2.15,2.15,0,0,1-.93.49c-.21,0-.94,0-1,.2s-.21.54-.36.54a9.07,9.07,0,0,0-.89.26,11.32,11.32,0,0,0,1.39-1.38,4.46,4.46,0,0,0,1.06-1.88,2,2,0,0,1,.41-1.21c.18-.09.15-.36.15-.57a1.71,1.71,0,0,1,.08-.63c.08-.15-.11-1,0-1.27a1.07,1.07,0,0,0,0-1,3.77,3.77,0,0,1-.36-1,3.18,3.18,0,0,1-.21.79,3,3,0,0,0-.82.42c-.16.18-.54.46-.82.29s-.37-.62-.51-.77a1.34,1.34,0,0,1-.15-.81A3,3,0,0,1,41.4,31c.08-.05,0-.47,0-.56s.32.38.42,0,0-.43.69-1.37l1.87-2.42s-1.15.8-1.42,1-.46.36-.6.26a.81.81,0,0,1-.16-.43s-.23,1.07-.58,1.17-.78.29-.76-.1a1.59,1.59,0,0,1,.44-.92c.18-.22.65-1.11,1-1.21s.25-.47.44-.78.5-.32.41-.63a4.35,4.35,0,0,1,0-1.14s-.67,1.09-1.11,1-.29-1.16-.29-1.16S41.1,25.23,40.58,25s.53-1.93.5-2.87a5.68,5.68,0,0,1,0-1c0-.24.37-.44.23-.68a1.38,1.38,0,0,1-.12-.8,8,8,0,0,1,0-.93,2.23,2.23,0,0,0-.45-1.52c-.42-.73-1-1.63-1-1.63l.07.63-.12.07A2.07,2.07,0,0,1,40,17.39l.07.79a5.69,5.69,0,0,0-.61-1.54,6.55,6.55,0,0,1-.57-1.49,2.88,2.88,0,0,0-.39-.65s-.29.56-.72,0a1,1,0,0,1-.18-1,2.34,2.34,0,0,1-1.08.17,4,4,0,0,1-.83-.17,3.76,3.76,0,0,1,1.88,2.62,12.94,12.94,0,0,1,.31,2.32,2.35,2.35,0,0,1-.73-1.15s.51,2.78,0,2.94-1.06-.82-1.06-.82.76,2.53.15,3.33-.58.88-.73.94-.42.32-.74.51a.51.51,0,0,1-.7-.11.24.24,0,0,1-.06-.11,3,3,0,0,1-.06-.74,4.18,4.18,0,0,0-1.11,2.4c-.08,1.35.24,2.8-.32,3s-.69-1.17-.69-1.17-.12.94-.45.91l-.34,0A6.55,6.55,0,0,0,30.7,30Z"/><path class="cls-1" d="M36.14,34.12a3.74,3.74,0,0,0-1.82,2.61c-.32,1.89-.68,2.45-1.25,2.1s-.44-1.53-.44-1.53a7.48,7.48,0,0,0-.07,2.06c.17.55.5.69.5.9a.92.92,0,0,0,.35.64c.17.09.52.45.5.64s-.29,0-.29,0,.53.21.78.33a1.18,1.18,0,0,0,1,.09,1.78,1.78,0,0,1,.65-.07,1.49,1.49,0,0,0,.72-.84,1.22,1.22,0,0,0,0-.47s-.35.94-.8.67.17-.67.12-.83-.26-.08-.07-.34.59-.77.59-.77-.41.74-.9.22A3.76,3.76,0,0,1,35,36.24,4.94,4.94,0,0,1,36.14,34.12Z"/></g></svg>