<svg xmlns="http://www.w3.org/2000/svg" viewBox="0 0 70 70"><title>logo</title><g id="hermitage"><path d="M31.32,30.58h.23V23.92h-.23Zm6.14,0h.22V23.92h-.22Zm-7.56-7v.31l1.12.23v6.2l-1.12.23v.34H34v-.34l-1.11-.23V27.73h4.3v2.62L36,30.58v.34H40.1v-.34L39,30.35v-6.2l1.12-.23v-.31H36v.31l1.11.23v3.28h-4.3V24.15L34,23.92v-.31H29.9Zm8,7h.23V23.92H37.9Zm-6.13,0H32V23.92h-.23Zm-1.87,1H34V31.1H29.9Zm6.14,0H40.1V31.1H36Zm-7.11-10H41.07V33.66H28.93Z"/><path d="M28.93,30.81H7.56V31H28.93Zm33.51,0H41.07V31H62.44Zm-21.37.74H62.44V31.1H41.07Zm-33.51,0H28.93V31.1H7.56Z"/><path d="M62.24,47.15l.09-.21a1,1,0,0,0-.55-.16c-.35,0-.58.18-.58.45,0,.59.91.37.91.79,0,.14-.13.24-.35.24A.85.85,0,0,1,61.2,48l-.1.19a.93.93,0,0,0,.65.26c.36,0,.61-.18.61-.47,0-.6-.91-.38-.91-.79,0-.13.13-.21.32-.21a.88.88,0,0,1,.47.15m-2.9.05.14-.16a.89.89,0,0,0-.62-.25.84.84,0,0,0-.86.84.83.83,0,0,0,.85.84.9.9,0,0,0,.63-.26l-.14-.15a.65.65,0,0,1-.47.2.64.64,0,1,1,0-1.27.66.66,0,0,1,.47.21M56,48.46h.23V46.8H56ZM53,46.8V47h.53v1.45h.23V47h.53V46.8Zm-2.8,0v1.66h1.18v-.21h-1v-.53h.83v-.2h-.83V47h.93V46.8Zm-3.7,0v1.66h.22V47.13l.59,1.15h.14L48,47.13v1.33h.21V46.8h-.27L47.33,48l-.61-1.17Zm-2,.35.09-.21a1.08,1.08,0,0,0-.55-.16c-.35,0-.58.18-.58.45,0,.59.91.37.91.79,0,.14-.13.24-.35.24a.85.85,0,0,1-.56-.24l-.1.19a.93.93,0,0,0,.65.26c.36,0,.61-.18.61-.47,0-.6-.91-.38-.91-.79,0-.13.13-.21.32-.21a.88.88,0,0,1,.47.15M40.86,47a.64.64,0,0,1,.64.64.64.64,0,1,1-1.28,0,.64.64,0,0,1,.64-.64m0-.2a.84.84,0,1,0,.87.84.84.84,0,0,0-.87-.84m-2.61.41.13-.16a.85.85,0,1,0-.62,1.43.94.94,0,0,0,.63-.26l-.14-.15a.67.67,0,0,1-.48.2.64.64,0,1,1,0-1.27.68.68,0,0,1,.48.21m-4.52,1.1A.32.32,0,0,1,33.4,48c0-.15.13-.24.28-.33.11.13.25.27.43.45a.54.54,0,0,1-.38.19m-.13-1.15a.22.22,0,0,1,.24-.22.2.2,0,0,1,.22.2c0,.16-.15.25-.32.34a.55.55,0,0,1-.14-.32m1,1.23-.28-.28a1.92,1.92,0,0,0,.18-.32l-.15-.11a1.29,1.29,0,0,1-.16.31l-.38-.4c.2-.1.41-.22.41-.45a.36.36,0,0,0-.4-.34.38.38,0,0,0-.42.37.64.64,0,0,0,.17.38c-.19.11-.37.23-.37.47a.48.48,0,0,0,.5.46.72.72,0,0,0,.51-.24l.27.26Zm-4-1.23.09-.21a1,1,0,0,0-.54-.16c-.35,0-.59.18-.59.45,0,.59.92.37.92.79,0,.14-.14.24-.36.24a.85.85,0,0,1-.55-.24l-.11.19a1,1,0,0,0,.66.26c.36,0,.61-.18.61-.47,0-.6-.92-.38-.92-.79,0-.13.13-.21.32-.21a.86.86,0,0,1,.47.15m-4-.35v1.66h1.18v-.21h-1v-.53h.83v-.2h-.83V47h.93V46.8Zm-3.7,0v1.66h.22V47.13l.59,1.15h.14l.59-1.15v1.33h.21V46.8h-.27L23.85,48l-.61-1.17Zm-3.08,1v-1h-.22v1a.7.7,0,0,0,1.4,0v-1h-.23v1a.44.44,0,0,1-.47.49.45.45,0,0,1-.48-.49m-3-1v1.66h.22v-.7h.77v-.21h-.77V47H18V46.8Zm-3,.94V47h.43c.28,0,.44.12.44.36s-.16.37-.44.37Zm1.11.72-.39-.56a.52.52,0,0,0,.36-.54c0-.36-.24-.56-.65-.56h-.65v1.66h.22v-.52h.52l.33.52ZM10.69,46.8v1.66h1.18v-.21h-.95v-.53h.82v-.2h-.82V47h.92V46.8Zm-2.43.94h-.4V47h.4c.28,0,.44.12.44.36s-.16.37-.44.37m0-.94H7.63v1.66h.23v-.52h.41c.41,0,.65-.21.65-.58s-.24-.56-.65-.56"/><path d="M37.87,38.35h.24V44h-.24Zm.94,5.88h.86V44l-.86-.18V38.53l.86-.18v-.24H36.78v.24l.86.18v5.28l-.86.18v.24h2Z"/><path d="M43,38.35h.24V44H43Zm-2.76.85.23,0,.32-.88h2v5.46l-.86.18v.24h2.89V44l-.86-.18V38.35h2l.32.88.23,0-.15-1.09H40.34Z"/><path d="M17,44h.24V38.35H17Zm3.76-4.79-.23,0-.32-.88H17.89v2.7h1.86l.18-.86h.23v2h-.23l-.18-.86H17.89V44h2.27l.32-.88.23,0-.15,1.09h-4.7V44l.86-.18V38.53l-.86-.18v-.24h4.7Z"/><path d="M27.11,44A1.44,1.44,0,0,1,26,43.34l-.83-1.61c-.13-.25-.19-.41-.49-.44l1.12,2.16a1,1,0,0,0,.89.54Zm-2-2.94a1.6,1.6,0,0,0,0-2.7h0c.66,0,1,.8,1,1.35s-.32,1.36-1,1.35h0M22.48,44h.23V38.35h-.23Zm3.93-3.3v0h0l0,0h0l-.11.11h0l0,0h0l0,0h0l0,0h0l0,0h0l0,0h0l-.24.14h0a1.63,1.63,0,0,1-.44.15h0a1.77,1.77,0,0,1,.67.69l.7,1.34a1.14,1.14,0,0,0,.83.63l.29.06v.24H26.69a1.2,1.2,0,0,1-1.1-.68l-1.18-2.26h-1v2.52l.86.18v.24h-2.9V44l.86-.18V38.53l-.86-.18v-.24h3.8a1.6,1.6,0,0,1,1.59,1.59v0h0v.11h0v0h0V40h0v.07h0v0h0v0h0v.08h0v.06h0v0h0v.06h0v.07h0v0h0v0h0v0h0v0h0l0,0h0l0,0Zm-3,.36h.82a1.35,1.35,0,1,0,0-2.7h-.82Z"/><path d="M31.66,44,29,38.35h.26l2.51,5.33Zm2.65,0V38.87l.24-.5V44Zm-5.24.24h.86V44l-.86-.18V39l2.46,5.21h.26l2.29-4.86v4.44l-.86.18v.24h2.89V44l-.86-.18V38.53l.86-.18v-.24h-1.7l-.33.71h0l-1.91,4L30,38.13v0H28v.24l.86.18v5.28L28,44v.24h1.09Z"/><path d="M56.22,41.29H56v1.86a.93.93,0,0,1-.38.76l-.05,0a.82.82,0,0,0,.67-.79Zm-3-2.72a2.83,2.83,0,0,0,0,5.2,3,3,0,0,1,0-5.2m4.56,2.49v.23l-.86.18V43.2a.68.68,0,0,1-.36.61,3,3,0,0,1-1.53.42h-.72a3.06,3.06,0,0,1,0-6.12h2v1.1h-.24c-.15-.75-.27-.86-.63-.86H54.29c-1,0-1.8,1.27-1.8,2.82S53.3,44,54.29,44h.4a1.27,1.27,0,0,0,.77-.27.71.71,0,0,0,.28-.57V41.47l-.86-.18v-.23Z"/><path d="M58.68,44h.24V38.35h-.24Zm3.76-4.79-.23,0-.31-.88H59.62v2.7h1.86l.18-.86h.24v2h-.24l-.18-.86H59.62V44H61.9l.31-.88.23,0-.15,1.09h-4.7V44l.86-.18V38.53l-.86-.18v-.24h4.7Z"/><path d="M7.56,38.11v.24l.86.18v5.28L7.56,44v.24h2.89V44l-.86-.18V41.29h3.56v2.52l-.86.18v.24h2.89V44l-.85-.18V38.53l.85-.18v-.24H12.29v.24l.86.18v2.52H9.59V38.53l.86-.18v-.24H7.56Zm1.09.24h.24V44H8.65Zm4.74,0h.23V44h-.23Z"/><path d="M48.55,38.41l-.13.3L50.69,44H51ZM49.07,42l-1-2.4L47,42Zm-3.94,2.23V44l.84-.17,2.45-5.71h.26l2.44,5.7L52,44v.24H49.17V44l.69-.14-.69-1.61H46.91l-.69,1.61.69.14v.24Z"/></g></svg>