<svg xmlns="http://www.w3.org/2000/svg" viewBox="0 0 70 70"><defs><style>.cls-1{fill-rule:evenodd;}</style></defs><title>logo</title><g id="armenia_wine" data-name="armenia wine"><path class="cls-1" d="M37.57,20.5l-1.51.86,1.18-1.16c.27-.2.53.12.33.3ZM42,27.76l2.76-1.22c0,.3,0,.6,0,.91a1.9,1.9,0,0,1,0,.4l-2.7.87,2.46-.1a6.88,6.88,0,0,1-.63,1.19l-2.34-.16,2,.64a8.6,8.6,0,0,1-.67.8l-2.09-.79,1.61,1.25a7.57,7.57,0,0,1-.7.57l-2.13-1.24,1.55,1.61a6.92,6.92,0,0,1-1,.44,2.6,2.6,0,0,0-1.32-.16,26,26,0,0,0,4.54,5.07c-2.84-.5-6.32-4.33-6.32-4.33l-2.49,2.35-2-1.47a8.4,8.4,0,0,1-5.71,3c2.05-1.06,3-2.33,4.39-4.54a2.41,2.41,0,0,0-1.43.13,6.92,6.92,0,0,1-1-.44l1.55-1.61-2.13,1.24a7.57,7.57,0,0,1-.7-.57l1.61-1.25-2.09.79a7.28,7.28,0,0,1-.67-.8l2-.64-2.34.16a6.26,6.26,0,0,1-.63-1.19l2.46.1-2.7-.87a1.9,1.9,0,0,1-.05-.4c0-.31,0-.61,0-.91L28,27.76l-2.71-2a8.62,8.62,0,0,1,.19-1.15L28,26.37,25.61,24a8.13,8.13,0,0,1,.46-1.2l3.15,3.36a2.46,2.46,0,0,0,1.29,3.74,3.82,3.82,0,0,0,1.37-.65l-.05.22a3.42,3.42,0,0,0,.09,2.07c1.36-2.35,2-4.9,1.33-6.32-.19-.37-.75-.49-1-.55a6.89,6.89,0,0,0-1.6-.18c-.07.08-.05.23-.08.33-.44-.7.26-1.16,1-1.18.11-.25.47-.35.89-.38a2.52,2.52,0,0,1,1.84.34A6.82,6.82,0,0,1,35,24.65a6.09,6.09,0,0,1,.63-1.07,2.52,2.52,0,0,1,1.84-.34c.42,0,.78.13.89.38.78,0,1.48.48,1,1.18,0-.1,0-.25-.08-.33a6.89,6.89,0,0,0-1.6.18c-.22.06-.78.18-1,.55a4.2,4.2,0,0,0-.14,2.65l.07.34a13.27,13.27,0,0,0,1.37,3.28,3.06,3.06,0,0,0,.12-2l-.05-.22a3.82,3.82,0,0,0,1.37.65,2.46,2.46,0,0,0,1.29-3.74l3.15-3.36a8.13,8.13,0,0,1,.46,1.2L42,26.37l2.52-1.71a8.62,8.62,0,0,1,.19,1.15l-2.71,2Zm-4.33-4.18c-.1,0-.2,0-.21.05s.07.11.18.12.2,0,.21-.05-.07-.11-.18-.12Zm-5.39.17c.11,0,.18-.07.18-.12s-.11-.07-.21-.05-.19.07-.18.12.1.07.21.05Zm4.06-4.29c.09-.25-.3-.4-.43-.12l-.44,1.6.87-1.48Zm-.75-.26-.46,1.65V19.19a.23.23,0,0,1,.46,0Zm-.81-.05v1.7l-.44-1.6c0-.31.4-.36.44-.1Zm-.79.14a.22.22,0,0,0-.39.21l.84,1.44L34,19.29Zm.15,1.82L33,20c-.19-.26.13-.51.31-.32l.87,1.48Zm-.25.25-1.46-.83a.22.22,0,0,1,.23-.38l1.23,1.21Zm-.17.29-1.64-.43a.22.22,0,0,1,.13-.42l1.51.85ZM32,22h1.7L32,21.54A.23.23,0,0,0,32,22Zm4.36,0L38,21.55c.32,0,.37.4.11.44Zm1.59-.77c.24-.12.08-.49-.22-.39l-1.46.83,1.68-.44Zm-.87-1.3a.23.23,0,0,0-.39-.24l-.85,1.44Z"/><path class="cls-1" d="M8.51,42l.72-1.56L10,42Zm-.63,1.82v-.09l-.07,0a.14.14,0,0,1,0-.07.12.12,0,0,1,0-.07.85.85,0,0,1,.07-.15L8,43.13l.22-.46h2.08l.2.42c.06.11.1.2.13.27s.06.13.08.17l0,.09a.08.08,0,0,1,0,0s0,0,0,0,0,0-.08,0v.09h1.2v-.09a.16.16,0,0,1-.1,0l-.06-.06a.91.91,0,0,1-.07-.14L9.87,39.81l0-.08a.22.22,0,0,1,0-.08.05.05,0,0,1,0,0,.12.12,0,0,1,.09,0v-.09H8.62v.09a.17.17,0,0,1,.1,0,.08.08,0,0,1,0,.07.29.29,0,0,1,0,.09l-.05.09L7,43.5,7,43.64a.19.19,0,0,1-.07.06.13.13,0,0,1-.09,0v.09ZM13.52,42h1.25l1.1,1.55.07.1a.13.13,0,0,1,0,.06s0,0,0,0h-.07v.09h1.34v-.09a.16.16,0,0,1-.1,0,.16.16,0,0,1-.08-.06l-.08-.1L15.83,42a1.73,1.73,0,0,0,.64-.22,1.13,1.13,0,0,0,.41-.43,1.35,1.35,0,0,0,.14-.62,1.29,1.29,0,0,0-.1-.48,1.31,1.31,0,0,0-.31-.4,1.53,1.53,0,0,0-.51-.26,2.09,2.09,0,0,0-.69-.1H12.49v.09h.11a.1.1,0,0,1,.05.06s0,.06,0,.1v3.8c0,.05,0,.08,0,.11l-.05.06h-.11v.09h1.2v-.09h-.11a.13.13,0,0,1-.05-.06.34.34,0,0,1,0-.11V42Zm0-1.78h1.83a1.25,1.25,0,0,1,.4.06.62.62,0,0,1,.28.18.44.44,0,0,1,.11.3.45.45,0,0,1-.11.31.62.62,0,0,1-.28.18,1.62,1.62,0,0,1-.4,0H13.54V40.18Zm8.13-.7v.09l.12,0a.05.05,0,0,1,0,.06.19.19,0,0,1,0,.07.56.56,0,0,1,0,.08l-1.34,2.45L19.19,40l-.07-.14-.05-.08a.15.15,0,0,1,0-.06.08.08,0,0,1,.05-.08.2.2,0,0,1,.11,0v-.09H17.87v.09H18s0,0,.05.06a.31.31,0,0,1,0,.1v3.8a.34.34,0,0,1,0,.11.13.13,0,0,1-.05.06h-.1v.09H19v-.09h-.12l0-.06a.34.34,0,0,1,0-.11V40.85h0l1.55,3h.08L22,40.88h0v2.66a.22.22,0,0,1,0,.14s-.06,0-.12,0v.09H23v-.09h-.1a.13.13,0,0,1-.05-.06.34.34,0,0,1,0-.11v-3.8a.31.31,0,0,1,0-.1s0,0,.05-.06H23v-.09Zm2.26,4.33h4a.28.28,0,0,1,.15,0s.05,0,.05.1h.09V43h-.09s0,.09-.05.11a.28.28,0,0,1-.15,0H25V41.94h2s0,0,.07,0l0,0s0,0,0,.06h.08v-1h-.08a.13.13,0,0,1,0,.11.25.25,0,0,1-.16,0H25V40.18h2.91a.24.24,0,0,1,.16,0,.15.15,0,0,1,.05.12h.08v-1h-.08a.12.12,0,0,1-.05.1.32.32,0,0,1-.16,0H23.93v.09H24a.1.1,0,0,1,0,.06s0,.06,0,.1v3.8c0,.05,0,.08,0,.11l0,.06h-.1v.09Zm9.66-4.07a.16.16,0,0,1,0-.13.14.14,0,0,1,.13,0v-.09H32.66v.09h.11a.07.07,0,0,1,0,.06.31.31,0,0,1,0,.1v2.73l-2.63-2.74-.05,0a.08.08,0,0,1,0,0,.07.07,0,0,1,0-.06h.12v-.09H29v.09h.1a.09.09,0,0,1,0,.06s0,.06,0,.1v3.8c0,.05,0,.08,0,.11l0,.06H29v.09h1.07v-.09c-.06,0-.11,0-.13,0a.22.22,0,0,1,0-.14V40.65l2.72,2.86.07.07,0,.05a.06.06,0,0,1,0,0s0,0,0,0h-.08v.09h1.12v-.09a.14.14,0,0,1-.16-.18v-3.8Zm2.25,0a.31.31,0,0,1,0-.1.13.13,0,0,1,.07-.06h.14v-.09h-1.3v.09h.14a.09.09,0,0,1,.07.06.31.31,0,0,1,0,.1v3.8a.34.34,0,0,1,0,.11.14.14,0,0,1-.07.06h-.14v.09h1.3v-.09h-.14l-.07-.06a.34.34,0,0,1,0-.11v-3.8ZM38.46,42l.72-1.56L39.9,42Zm-.63,1.82v-.09l-.07,0a.08.08,0,0,1,0-.07.12.12,0,0,1,0-.07l.06-.15c0-.07.08-.16.14-.28l.22-.46h2.07c.09.16.15.31.21.42l.13.27c0,.07.06.13.08.17l0,.09s0,0,0,0,0,0,0,0,0,0-.08,0v.09h1.2v-.09a.16.16,0,0,1-.1,0l-.06-.06a.91.91,0,0,1-.07-.14l-1.76-3.69a.59.59,0,0,1,0-.08.24.24,0,0,1,0-.08.05.05,0,0,1,0,0,.15.15,0,0,1,.1,0v-.09H38.57v.09a.12.12,0,0,1,.09,0,.07.07,0,0,1,0,.07.29.29,0,0,1,0,.09l0,.09L37,43.5c0,.06,0,.11-.07.14l-.07.06a.15.15,0,0,1-.09,0v.09Zm6.57-4.33v.09l.07,0a.29.29,0,0,1,0,.08,1.07,1.07,0,0,1,.06.17l.94,3.5a1.55,1.55,0,0,1,0,.15.5.5,0,0,1,0,.16.05.05,0,0,1,0,.05.14.14,0,0,1-.09,0v.09h1.19v-.09a.12.12,0,0,1-.09,0,.09.09,0,0,1,0-.06.17.17,0,0,1,0-.07s0-.06,0-.08l0-.06.75-2.61h0l.74,2.51c0,.08,0,.14.06.2a.69.69,0,0,1,0,.13.09.09,0,0,1,0,.05l-.09,0v.09h1.19v-.09s-.06,0-.08,0a.05.05,0,0,1,0-.06.4.4,0,0,1,0-.15.54.54,0,0,1,0-.15l1-3.5a1.31,1.31,0,0,1,0-.15.29.29,0,0,1,0-.08.13.13,0,0,1,.09,0v-.09h-1v.09s.07,0,.09,0a.1.1,0,0,1,0,.08.25.25,0,0,1,0,.08l0,.1-.7,2.63h0l-.77-2.68a.25.25,0,0,0,0-.07l0-.06a.14.14,0,0,1,0-.07.12.12,0,0,1,.09,0v-.09H46.81v.09a.11.11,0,0,1,.08,0,.09.09,0,0,1,0,.06s0,0,0,.05a.81.81,0,0,0,0,.11l-.77,2.63h0l-.69-2.63,0-.09a.2.2,0,0,1,0-.07.06.06,0,0,1,0-.06.08.08,0,0,1,.08,0v-.09Zm7.59.26a.3.3,0,0,1,0-.1.09.09,0,0,1,.06-.06h.15v-.09h-1.3v.09h.14a.09.09,0,0,1,.06.06.16.16,0,0,1,0,.1v3.8a.19.19,0,0,1,0,.11.17.17,0,0,1-.06.06h-.14v.09h1.3v-.09h-.15L52,43.65a.31.31,0,0,1,0-.11v-3.8Zm5.83,0a.16.16,0,0,1,0-.13.14.14,0,0,1,.13,0v-.09H56.89v.09H57a.07.07,0,0,1,0,.06.31.31,0,0,1,0,.1v2.73l-2.63-2.74s0,0-.05,0a.08.08,0,0,1,0,0,.09.09,0,0,1,0-.06h.13v-.09H53.23v.09h.1a.09.09,0,0,1,0,.06s0,.06,0,.1v3.8c0,.05,0,.08,0,.11a.21.21,0,0,1,0,.06h-.1v.09H54.3v-.09c-.06,0-.11,0-.13,0a.22.22,0,0,1,0-.14V40.65l2.72,2.86.07.07,0,.05a.06.06,0,0,1,0,0s0,0,0,0h-.08v.09H58v-.09a.14.14,0,0,1-.16-.18v-3.8Zm1.1,4.07h4a.35.35,0,0,1,.16,0,.11.11,0,0,1,0,.1h.08V43h-.08a.13.13,0,0,1,0,.11.35.35,0,0,1-.16,0h-3V41.94h2S62,42,62,42a.08.08,0,0,1,0,0,.13.13,0,0,1,0,.06h.08v-1h-.08a.13.13,0,0,1,0,.11.22.22,0,0,1-.16,0h-1.9V40.18h2.92a.21.21,0,0,1,.15,0,.12.12,0,0,1,.05.12h.09v-1h-.09a.1.1,0,0,1-.05.1.28.28,0,0,1-.15,0H58.92v.09H59s0,0,0,.06a.31.31,0,0,1,0,.1v3.8a.34.34,0,0,1,0,.11.13.13,0,0,1,0,.06h-.1Z"/></g></svg>