<svg xmlns="http://www.w3.org/2000/svg" xmlns:xlink="http://www.w3.org/1999/xlink" viewBox="0 0 70 70"><defs><style>.cls-1{clip-rule:evenodd;}.cls-2,.cls-5{fill:#fff;}.cls-2,.cls-3{fill-rule:evenodd;}.cls-4{clip-path:url(#clip-path);}.cls-6{fill:#010101;}</style><clipPath id="clip-path"><path class="cls-1" d="M34.55,13.69A21.31,21.31,0,0,1,55.44,30.78H49.5a15.53,15.53,0,0,0-29.89,0H13.66A21.33,21.33,0,0,1,34.55,13.69ZM54.94,41.21a21.31,21.31,0,0,1-40.77,0h6.14a15.54,15.54,0,0,0,28.48,0Z"/></clipPath></defs><title>logo</title><g id="Layer_8" data-name="Layer 8"><path class="cls-2" d="M34.55,18.43A16.45,16.45,0,1,1,18.11,34.88,16.45,16.45,0,0,1,34.55,18.43Z"/><path class="cls-2" d="M34.55,20.46A14.42,14.42,0,1,1,20.14,34.88,14.43,14.43,0,0,1,34.55,20.46Z"/><path d="M34.56,20h0A14.85,14.85,0,0,1,49.42,34.87h0A14.87,14.87,0,0,1,34.56,49.75h0A14.83,14.83,0,0,1,24,45.39h0a14.81,14.81,0,0,1-4.36-10.51h0A14.84,14.84,0,0,1,24,24.36h0A14.82,14.82,0,0,1,34.55,20h0Zm0,.92h0A13.91,13.91,0,0,0,24.68,25h0a14,14,0,0,0-4.09,9.87h0a14,14,0,0,0,4.09,9.87h0a13.92,13.92,0,0,0,9.87,4.1h0a14,14,0,0,0,13.95-14h0A14,14,0,0,0,34.56,20.92Z"/><path class="cls-3" d="M34.55,13.69A21.31,21.31,0,0,1,55.44,30.78H49.5a15.53,15.53,0,0,0-29.89,0H13.66A21.33,21.33,0,0,1,34.55,13.69ZM54.94,41.21a21.31,21.31,0,0,1-40.77,0h6.14a15.54,15.54,0,0,0,28.48,0Z"/><g class="cls-4"><rect x="13.66" y="13.69" width="0.25" height="42.62"/><rect x="13.83" y="13.69" width="0.24" height="42.62"/><rect x="13.99" y="13.69" width="0.25" height="42.62"/><rect x="14.15" y="13.69" width="0.24" height="42.62"/><rect x="14.32" y="13.69" width="0.25" height="42.62"/><rect x="14.48" y="13.69" width="0.24" height="42.62"/><rect x="14.64" y="13.69" width="0.25" height="42.62"/><rect x="14.81" y="13.69" width="0.24" height="42.62"/><rect x="14.97" y="13.69" width="0.25" height="42.62"/><rect x="15.13" y="13.69" width="0.24" height="42.62"/><rect x="15.29" y="13.69" width="0.25" height="42.62"/><rect x="15.46" y="13.69" width="0.25" height="42.62"/><rect x="15.62" y="13.69" width="0.25" height="42.62"/><rect x="15.79" y="13.69" width="0.25" height="42.62"/><rect x="15.95" y="13.69" width="0.25" height="42.62"/><rect x="16.11" y="13.69" width="0.25" height="42.62"/><rect x="16.27" y="13.69" width="0.25" height="42.62"/><rect x="16.44" y="13.69" width="0.25" height="42.62"/><rect x="16.6" y="13.69" width="0.25" height="42.62"/><rect x="16.76" y="13.69" width="0.25" height="42.62"/><rect x="16.93" y="13.69" width="0.25" height="42.62"/><rect x="17.09" y="13.69" width="0.25" height="42.62"/><rect x="17.25" y="13.69" width="0.25" height="42.62"/><rect x="17.42" y="13.69" width="0.25" height="42.62"/><rect x="17.58" y="13.69" width="0.25" height="42.62"/><rect x="17.74" y="13.69" width="0.25" height="42.62"/><rect x="17.9" y="13.69" width="0.25" height="42.62"/><rect x="18.07" y="13.69" width="0.25" height="42.62"/><rect x="18.24" y="13.69" width="0.24" height="42.62"/><rect x="18.4" y="13.69" width="0.25" height="42.62"/><rect x="18.56" y="13.69" width="0.24" height="42.62"/><rect x="18.72" y="13.69" width="0.25" height="42.62"/><rect x="18.89" y="13.69" width="0.24" height="42.62"/><rect x="19.05" y="13.69" width="0.25" height="42.62"/><rect x="19.21" y="13.69" width="0.24" height="42.62"/><rect x="19.37" y="13.69" width="0.25" height="42.62"/><rect x="19.54" y="13.69" width="0.24" height="42.62"/><rect x="19.7" y="13.69" width="0.25" height="42.62"/><rect x="19.87" y="13.69" width="0.24" height="42.62"/><rect x="20.03" y="13.69" width="0.25" height="42.62"/><rect x="20.19" y="13.69" width="0.24" height="42.62"/><rect x="20.35" y="13.69" width="0.25" height="42.62"/><rect x="20.52" y="13.69" width="0.25" height="42.62"/><rect x="20.68" y="13.69" width="0.25" height="42.62"/><rect x="20.85" y="13.69" width="0.25" height="42.62"/><rect x="21.01" y="13.69" width="0.25" height="42.62"/><rect x="21.17" y="13.69" width="0.25" height="42.62"/><rect x="21.33" y="13.69" width="0.25" height="42.62"/><rect x="21.5" y="13.69" width="0.25" height="42.62"/><rect x="21.66" y="13.69" width="0.25" height="42.62"/><rect x="21.82" y="13.69" width="0.25" height="42.62"/><rect x="21.98" y="13.69" width="0.25" height="42.62"/><rect x="22.15" y="13.69" width="0.25" height="42.62"/><rect x="22.31" y="13.69" width="0.25" height="42.62"/><rect x="22.48" y="13.69" width="0.25" height="42.62"/><rect x="22.64" y="13.69" width="0.25" height="42.62"/><rect x="22.8" y="13.69" width="0.25" height="42.62"/><rect x="22.96" y="13.69" width="0.25" height="42.62"/><rect x="23.13" y="13.69" width="0.25" height="42.62"/><rect x="23.29" y="13.69" width="0.24" height="42.62"/><rect x="23.46" y="13.69" width="0.25" height="42.62"/><rect x="23.62" y="13.69" width="0.24" height="42.62"/><rect x="23.78" y="13.69" width="0.25" height="42.62"/><rect x="23.95" y="13.69" width="0.24" height="42.62"/><rect x="24.11" y="13.69" width="0.25" height="42.62"/><rect x="24.27" y="13.69" width="0.24" height="42.62"/><rect x="24.43" y="13.69" width="0.25" height="42.62"/><rect x="24.6" y="13.69" width="0.24" height="42.62"/><rect x="24.76" y="13.69" width="0.25" height="42.62"/><rect x="24.93" y="13.69" width="0.24" height="42.62"/><rect x="25.09" y="13.69" width="0.25" height="42.62"/><rect x="25.25" y="13.69" width="0.24" height="42.62"/><rect x="25.41" y="13.69" width="0.25" height="42.62"/><rect x="25.58" y="13.69" width="0.25" height="42.62"/><rect x="25.74" y="13.69" width="0.25" height="42.62"/><rect x="25.9" y="13.69" width="0.25" height="42.62"/><rect x="26.07" y="13.69" width="0.25" height="42.62"/><rect x="26.23" y="13.69" width="0.25" height="42.62"/><rect x="26.39" y="13.69" width="0.25" height="42.62"/><rect x="26.56" y="13.69" width="0.25" height="42.62"/><rect x="26.72" y="13.69" width="0.25" height="42.62"/><rect x="26.88" y="13.69" width="0.25" height="42.62"/><rect x="27.04" y="13.69" width="0.25" height="42.62"/><rect x="27.21" y="13.69" width="0.25" height="42.62"/><rect x="27.37" y="13.69" width="0.25" height="42.62"/><rect x="27.54" y="13.69" width="0.25" height="42.62"/><rect x="27.7" y="13.69" width="0.25" height="42.62"/><rect x="27.86" y="13.69" width="0.25" height="42.62"/><rect x="28.02" y="13.69" width="0.25" height="42.62"/><rect x="28.19" y="13.69" width="0.25" height="42.62"/><rect x="28.35" y="13.69" width="0.24" height="42.62"/><rect x="28.51" y="13.69" width="0.25" height="42.62"/><rect x="28.68" y="13.69" width="0.24" height="42.62"/><rect x="28.84" y="13.69" width="0.25" height="42.62"/><rect x="29.01" y="13.69" width="0.24" height="42.62"/><rect x="29.17" y="13.69" width="0.25" height="42.62"/><rect x="29.33" y="13.69" width="0.24" height="42.62"/><rect x="29.49" y="13.69" width="0.25" height="42.62"/><rect x="29.66" y="13.69" width="0.24" height="42.62"/><rect x="29.82" y="13.69" width="0.25" height="42.62"/><rect x="29.98" y="13.69" width="0.24" height="42.62"/><rect x="30.15" y="13.69" width="0.25" height="42.62"/><rect x="30.31" y="13.69" width="0.24" height="42.62"/><rect x="30.47" y="13.69" width="0.25" height="42.62"/><rect x="30.64" y="13.69" width="0.25" height="42.62"/><rect x="30.8" y="13.69" width="0.25" height="42.62"/><rect x="30.96" y="13.69" width="0.25" height="42.62"/><rect x="31.12" y="13.69" width="0.25" height="42.62"/><rect x="31.29" y="13.69" width="0.25" height="42.62"/><rect x="31.45" y="13.69" width="0.25" height="42.62"/><rect x="31.62" y="13.69" width="0.25" height="42.62"/><rect x="31.78" y="13.69" width="0.25" height="42.62"/><rect x="31.94" y="13.69" width="0.25" height="42.62"/><rect x="32.1" y="13.69" width="0.25" height="42.62"/><rect x="32.27" y="13.69" width="0.25" height="42.62"/><rect x="32.43" y="13.69" width="0.25" height="42.62"/><rect x="32.59" y="13.69" width="0.25" height="42.62"/><rect x="32.76" y="13.69" width="0.25" height="42.62"/><rect x="32.92" y="13.69" width="0.25" height="42.62"/><rect x="33.08" y="13.69" width="0.25" height="42.62"/><rect x="33.25" y="13.69" width="0.25" height="42.62"/><rect x="33.41" y="13.69" width="0.24" height="42.62"/><rect x="33.57" y="13.69" width="0.25" height="42.62"/><rect x="33.74" y="13.69" width="0.24" height="42.62"/><rect x="33.9" y="13.69" width="0.25" height="42.62"/><rect x="34.07" y="13.69" width="0.24" height="42.62"/><rect x="34.23" y="13.69" width="0.25" height="42.62"/><rect x="34.39" y="13.69" width="0.24" height="42.62"/><rect x="34.55" y="13.69" width="0.25" height="42.62"/><rect x="34.72" y="13.69" width="0.24" height="42.62"/><rect x="34.88" y="13.69" width="0.25" height="42.62"/><rect x="35.04" y="13.69" width="0.24" height="42.62"/><rect x="35.2" y="13.69" width="0.25" height="42.62"/><rect x="35.37" y="13.69" width="0.24" height="42.62"/><rect x="35.53" y="13.69" width="0.25" height="42.62"/><rect x="35.7" y="13.69" width="0.25" height="42.62"/><rect x="35.86" y="13.69" width="0.25" height="42.62"/><rect x="36.02" y="13.69" width="0.25" height="42.62"/><rect x="36.18" y="13.69" width="0.25" height="42.62"/><rect x="36.35" y="13.69" width="0.25" height="42.62"/><rect x="36.51" y="13.69" width="0.25" height="42.62"/><rect x="36.68" y="13.69" width="0.25" height="42.62"/><rect x="36.84" y="13.69" width="0.25" height="42.62"/><rect x="37" y="13.69" width="0.25" height="42.62"/><rect x="37.16" y="13.69" width="0.25" height="42.62"/><rect x="37.33" y="13.69" width="0.25" height="42.62"/><rect x="37.49" y="13.69" width="0.25" height="42.62"/><rect x="37.65" y="13.69" width="0.25" height="42.62"/><rect x="37.81" y="13.69" width="0.25" height="42.62"/><rect x="37.98" y="13.69" width="0.25" height="42.62"/><rect x="38.14" y="13.69" width="0.25" height="42.62"/><rect x="38.31" y="13.69" width="0.25" height="42.62"/><rect x="38.47" y="13.69" width="0.24" height="42.62"/><rect x="38.63" y="13.69" width="0.25" height="42.62"/><rect x="38.8" y="13.69" width="0.24" height="42.62"/><rect x="38.96" y="13.69" width="0.25" height="42.62"/><rect x="39.12" y="13.69" width="0.24" height="42.62"/><rect x="39.29" y="13.69" width="0.25" height="42.62"/><rect x="39.45" y="13.69" width="0.24" height="42.62"/><rect x="39.61" y="13.69" width="0.25" height="42.62"/><rect x="39.78" y="13.69" width="0.24" height="42.62"/><rect x="39.94" y="13.69" width="0.25" height="42.62"/><rect x="40.1" y="13.69" width="0.24" height="42.62"/><rect x="40.26" y="13.69" width="0.25" height="42.62"/><rect x="40.43" y="13.69" width="0.24" height="42.62"/><rect x="40.59" y="13.69" width="0.25" height="42.62"/><rect x="40.76" y="13.69" width="0.25" height="42.62"/><rect x="40.92" y="13.69" width="0.25" height="42.62"/><rect x="41.08" y="13.69" width="0.25" height="42.62"/><rect x="41.24" y="13.69" width="0.25" height="42.62"/><rect x="41.41" y="13.69" width="0.25" height="42.62"/><rect x="41.57" y="13.69" width="0.25" height="42.62"/><rect x="41.73" y="13.69" width="0.25" height="42.62"/><rect x="41.9" y="13.69" width="0.25" height="42.62"/><rect x="42.06" y="13.69" width="0.25" height="42.62"/><rect x="42.22" y="13.69" width="0.25" height="42.62"/><rect x="42.39" y="13.69" width="0.25" height="42.62"/><rect x="42.55" y="13.69" width="0.25" height="42.62"/><rect x="42.71" y="13.69" width="0.25" height="42.62"/><rect x="42.87" y="13.69" width="0.25" height="42.62"/><rect x="43.04" y="13.69" width="0.25" height="42.62"/><rect x="43.2" y="13.69" width="0.25" height="42.62"/><rect x="43.37" y="13.69" width="0.25" height="42.62"/><rect x="43.53" y="13.69" width="0.24" height="42.62"/><rect x="43.69" y="13.69" width="0.25" height="42.62"/><rect x="43.86" y="13.69" width="0.24" height="42.62"/><rect x="44.02" y="13.69" width="0.25" height="42.62"/><rect x="44.18" y="13.69" width="0.24" height="42.62"/><rect x="44.34" y="13.69" width="0.25" height="42.62"/><rect x="44.51" y="13.69" width="0.24" height="42.62"/><rect x="44.67" y="13.69" width="0.25" height="42.62"/><rect x="44.84" y="13.69" width="0.24" height="42.62"/><rect x="45" y="13.69" width="0.25" height="42.62"/><rect x="45.16" y="13.69" width="0.24" height="42.62"/><rect x="45.32" y="13.69" width="0.25" height="42.62"/><rect x="45.49" y="13.69" width="0.24" height="42.62"/><rect x="45.65" y="13.69" width="0.25" height="42.62"/><rect x="45.82" y="13.69" width="0.25" height="42.62"/><rect x="45.98" y="13.69" width="0.25" height="42.62"/><rect x="46.14" y="13.69" width="0.25" height="42.62"/><rect x="46.3" y="13.69" width="0.25" height="42.62"/><rect x="46.47" y="13.69" width="0.25" height="42.62"/><rect x="46.63" y="13.69" width="0.25" height="42.62"/><rect x="46.79" y="13.69" width="0.25" height="42.62"/><rect x="46.95" y="13.69" width="0.25" height="42.62"/><rect x="47.12" y="13.69" width="0.25" height="42.62"/><rect x="47.28" y="13.69" width="0.25" height="42.62"/><rect x="47.45" y="13.69" width="0.25" height="42.62"/><rect x="47.61" y="13.69" width="0.25" height="42.62"/><rect x="47.77" y="13.69" width="0.25" height="42.62"/><rect x="47.93" y="13.69" width="0.25" height="42.62"/><rect x="48.1" y="13.69" width="0.25" height="42.62"/><rect x="48.26" y="13.69" width="0.25" height="42.62"/><rect x="48.42" y="13.69" width="0.25" height="42.62"/><rect x="48.59" y="13.69" width="0.24" height="42.62"/><rect x="48.75" y="13.69" width="0.25" height="42.62"/><rect x="48.92" y="13.69" width="0.24" height="42.62"/><rect x="49.08" y="13.69" width="0.25" height="42.62"/><rect x="49.24" y="13.69" width="0.24" height="42.62"/><rect x="49.4" y="13.69" width="0.25" height="42.62"/><rect x="49.57" y="13.69" width="0.24" height="42.62"/><rect x="49.73" y="13.69" width="0.25" height="42.62"/><rect x="49.9" y="13.69" width="0.24" height="42.62"/><rect x="50.06" y="13.69" width="0.25" height="42.62"/><rect x="50.22" y="13.69" width="0.24" height="42.62"/><rect x="50.38" y="13.69" width="0.25" height="42.62"/><rect x="50.55" y="13.69" width="0.24" height="42.62"/><rect x="50.71" y="13.69" width="0.25" height="42.62"/><rect x="50.87" y="13.69" width="0.25" height="42.62"/><rect x="51.03" y="13.69" width="0.25" height="42.62"/><rect x="51.2" y="13.69" width="0.25" height="42.62"/><rect x="51.36" y="13.69" width="0.25" height="42.62"/><rect x="51.53" y="13.69" width="0.25" height="42.62"/><rect x="51.69" y="13.69" width="0.25" height="42.62"/><rect x="51.85" y="13.69" width="0.25" height="42.62"/><rect x="52.01" y="13.69" width="0.25" height="42.62"/><rect x="52.18" y="13.69" width="0.25" height="42.62"/><rect x="52.34" y="13.69" width="0.25" height="42.62"/><rect x="52.51" y="13.69" width="0.25" height="42.62"/><rect x="52.67" y="13.69" width="0.25" height="42.62"/><rect x="52.83" y="13.69" width="0.25" height="42.62"/><rect x="52.99" y="13.69" width="0.25" height="42.62"/><rect x="53.16" y="13.69" width="0.25" height="42.62"/><rect x="53.32" y="13.69" width="0.25" height="42.62"/><rect x="53.48" y="13.69" width="0.25" height="42.62"/><rect x="53.65" y="13.69" width="0.24" height="42.62"/><rect x="53.81" y="13.69" width="0.25" height="42.62"/><rect x="53.98" y="13.69" width="0.24" height="42.62"/><rect x="54.14" y="13.69" width="0.25" height="42.62"/><rect x="54.3" y="13.69" width="0.24" height="42.62"/><rect x="54.46" y="13.69" width="0.25" height="42.62"/><rect x="54.63" y="13.69" width="0.24" height="42.62"/><rect x="54.79" y="13.69" width="0.25" height="42.62"/><rect x="54.95" y="13.69" width="0.24" height="42.62"/><rect x="55.12" y="13.69" width="0.25" height="42.62"/><rect x="55.28" y="13.69" width="0.16" height="42.62"/></g><path class="cls-5" d="M34.55,18.23h0A16.66,16.66,0,0,1,51.2,34.87h0A16.64,16.64,0,0,1,34.56,51.52h0A16.63,16.63,0,0,1,17.91,34.88h0A16.63,16.63,0,0,1,34.55,18.23Zm0,.41h0A16.25,16.25,0,0,0,18.31,34.87h0A16.25,16.25,0,0,0,34.55,51.12h0A16.23,16.23,0,0,0,50.79,34.88h0A16.23,16.23,0,0,0,34.55,18.64Z"/><path class="cls-3" d="M56.34,31.83H12.76a.72.72,0,0,0-.47.2.7.7,0,0,0-.2.48h0v7h0a.67.67,0,0,0,.2.47.63.63,0,0,0,.47.2H56.34a.68.68,0,0,0,.68-.67h0v-7h0a.68.68,0,0,0-.2-.48.73.73,0,0,0-.48-.2Z"/><path class="cls-6" d="M33.94,44.53v-.06a.08.08,0,0,1,.08-.08h.17a.07.07,0,0,1,.07.08v.75a.08.08,0,0,1-.07.08H32.4v-4h1.79a.07.07,0,0,1,.07.07v.76a.07.07,0,0,1-.07.08H34a.08.08,0,0,1-.08-.08V42h-.65v.68h.9v.76h-.9v1.05Zm2.24,0v-.06a.08.08,0,0,1,.08-.08h.16a.07.07,0,0,1,.08.08v.75a.08.08,0,0,1-.08.08H34.64v-4h1.78a.07.07,0,0,1,.08.07v.76a.07.07,0,0,1-.08.08h-.16a.08.08,0,0,1-.08-.08V42h-.64v.68h.89v.76h-.89v1.05ZM37,41.26h1.19a1.17,1.17,0,0,1,.75,2L39.18,45h.07a.08.08,0,0,1,.08.08v.16a.09.09,0,0,1-.08.08h-.94a.08.08,0,0,1-.07-.08V45a.06.06,0,0,1,0-.06c-.06-.5-.13-1-.19-1.51h-.22V45h0A.08.08,0,0,1,38,45v.16a.09.09,0,0,1-.08.08H37a.08.08,0,0,1-.07-.08V45A.07.07,0,0,1,37,45h0Zm.86,1.52H38c.48,0,.47-.81,0-.81h-.18Zm-7,0c.13,0,.22,0,.26-.08a.38.38,0,0,0,.08-.27.68.68,0,0,0-.07-.35.27.27,0,0,0-.24-.09h-.16v.79Zm-.13,1.73h.11c.14,0,.24,0,.28-.1a.86.86,0,0,0,.08-.45.69.69,0,0,0-.08-.38.24.24,0,0,0-.23-.12h-.16Zm-.88.77v-4H31a1,1,0,0,1,.78.24,1.2,1.2,0,0,1,.22.82,1.69,1.69,0,0,1-.06.51.46.46,0,0,1-.21.24.42.42,0,0,1,.21.27A2.5,2.5,0,0,1,32,44a1.54,1.54,0,0,1-.23,1,1,1,0,0,1-.84.28Z"/><path class="cls-2" d="M34.55,24.19A2.85,2.85,0,1,1,31.7,27a2.84,2.84,0,0,1,2.85-2.84Z"/><path d="M34.55,24.06h0a3,3,0,0,1,2.11.87,3,3,0,0,1,.87,2.1h0a3,3,0,0,1-3,3h0a3,3,0,0,1-2.1-.87A3,3,0,0,1,31.58,27h0a3,3,0,0,1,3-3Zm0,.26h0a2.76,2.76,0,0,0-1.93.8,2.71,2.71,0,0,0-.8,1.91h0a2.71,2.71,0,0,0,.8,1.92,2.76,2.76,0,0,0,1.93.8h0a2.72,2.72,0,0,0,1.93-.8,2.67,2.67,0,0,0,.8-1.92h0a2.67,2.67,0,0,0-.8-1.91,2.72,2.72,0,0,0-1.93-.8Z"/><path class="cls-3" d="M34.9,26.69a1.05,1.05,0,0,0-1,1.2A1.25,1.25,0,0,0,35,29.05a.86.86,0,0,0,1-.74c0-.36-.24-.62-.68-.77-.09,0-.28,0-.27.05s.21.05.31.09a.56.56,0,0,1,.31.62.69.69,0,0,1-.68.62.93.93,0,0,1-.74-1.11.92.92,0,0,1,.89-.91,1.41,1.41,0,0,1,1,.53.28.28,0,0,0-.1-.3.56.56,0,0,0,.31-.06,1.32,1.32,0,0,1-.8-.33c-.17-.16-.31-.43-.56-.65s-.33.16-.44.13-.08-.29-.38-.4a.37.37,0,0,0-.26.06.31.31,0,0,0-.15-.1l0,0a.52.52,0,0,0,.12-.29c0-.19,0-.35-.11-.36s-.18.13-.21.32a.6.6,0,0,0,0,.28s0,.05,0,.08a.27.27,0,0,0-.15.1.26.26,0,0,1-.09-.09.56.56,0,0,0-.26-.2c-.18-.08-.36-.08-.4,0s.09.22.27.3a.93.93,0,0,0,.29.06.32.32,0,0,1,.14,0s0,.05,0,.08a.28.28,0,0,0,.09.19l0,0a.46.46,0,0,0-.14.25c0,.17,0,.33.07.34s.18-.1.22-.28a.38.38,0,0,0,0-.26v0h.11c0,.13.09.32.21.32.31,0,.56-.16.94.05Z"/><path class="cls-5" d="M20.63,36.46l-.24,0-.27.06a.36.36,0,0,0-.24.15.43.43,0,0,0-.06.22v.58a2.36,2.36,0,0,0,0,.29c0,.07,0,.16,0,.27a6.77,6.77,0,0,1-1.33.4,8,8,0,0,1-1.61.18,4.85,4.85,0,0,1-1.29-.16,3.15,3.15,0,0,1-1.06-.5,2.49,2.49,0,0,1-.73-.82A2.4,2.4,0,0,1,13.56,36,2.53,2.53,0,0,1,13.81,35a2.43,2.43,0,0,1,.71-.86,3.55,3.55,0,0,1,1.12-.55,5,5,0,0,1,1.45-.2,4.44,4.44,0,0,1,1,.11,5.32,5.32,0,0,1,.77.22l.27-.19h.4l0,1.84h-.4a3.13,3.13,0,0,0-.81-1.23,1.8,1.8,0,0,0-1.21-.4,1.59,1.59,0,0,0-1.32.59,2.56,2.56,0,0,0-.48,1.64,2.88,2.88,0,0,0,.47,1.74,1.5,1.5,0,0,0,1.3.63,2.52,2.52,0,0,0,.7-.1A1.67,1.67,0,0,0,18.3,38V37a.37.37,0,0,0-.06-.21.45.45,0,0,0-.24-.15,2,2,0,0,0-.33-.08l-.34,0v-.28h3.3Zm7.05-2.7-.3,0a2,2,0,0,0-.26.09,1.33,1.33,0,0,0-.34.22,4,4,0,0,0-.29.29c-.19.23-.4.47-.61.74s-.45.55-.7.86a1.91,1.91,0,0,0-.3.47,1.76,1.76,0,0,0-.06.55v.72a.4.4,0,0,0,.06.22.45.45,0,0,0,.23.16l.33.06a2.29,2.29,0,0,0,.36,0v.27H22.26v-.27l.36,0a1.42,1.42,0,0,0,.32-.05.46.46,0,0,0,.23-.15.41.41,0,0,0,.06-.23v-.88a1.34,1.34,0,0,0,0-.21.33.33,0,0,0,0-.15,1.19,1.19,0,0,0-.1-.17l-.2-.27c-.23-.32-.45-.62-.67-.9s-.42-.56-.61-.81a1.9,1.9,0,0,0-.62-.51,1.6,1.6,0,0,0-.3-.08l-.31,0v-.28H24v.28a4.27,4.27,0,0,0-.68.05c-.11,0-.17.07-.17.12a.37.37,0,0,0,.07.16,3.69,3.69,0,0,0,.23.36l.44.64c.2.27.43.58.71.94.57-.71,1-1.21,1.17-1.49a1.6,1.6,0,0,0,.32-.52c0-.08-.06-.14-.19-.18a2.32,2.32,0,0,0-.6-.08v-.28h2.36Zm7.32,0-.37.05a1.17,1.17,0,0,0-.41.12.54.54,0,0,0-.24.32,2.38,2.38,0,0,0-.07.69v1.87a1.56,1.56,0,0,1-.71,1.33,3.11,3.11,0,0,1-1.87.5,3.86,3.86,0,0,1-2.1-.48,1.53,1.53,0,0,1-.75-1.35V34.23a.37.37,0,0,0-.06-.21.54.54,0,0,0-.23-.16l-.28-.07-.28,0v-.27H31v.27l-.29,0a1.59,1.59,0,0,0-.3.06.32.32,0,0,0-.23.14.4.4,0,0,0-.05.22v2.54a1.31,1.31,0,0,0,.41,1.08,2.27,2.27,0,0,0,2.44,0,1.4,1.4,0,0,0,.44-1.11V35a2.24,2.24,0,0,0-.08-.68.54.54,0,0,0-.24-.32,1.28,1.28,0,0,0-.4-.14,3.81,3.81,0,0,0-.41-.08v-.28H35Zm9.07,4.74H40.63v-.27l.37,0a1.11,1.11,0,0,0,.3,0,.46.46,0,0,0,.24-.14.38.38,0,0,0,.07-.24V34l-2.18,4.41h-.57l-.2-.46c-.11-.23-.19-.42-.26-.56L36.79,34V37a2.3,2.3,0,0,0,.08.67.6.6,0,0,0,.24.33,1.18,1.18,0,0,0,.4.14,2.79,2.79,0,0,0,.41.08v.27H35.18v-.27l.37,0a1.16,1.16,0,0,0,.41-.13.47.47,0,0,0,.24-.33,2.88,2.88,0,0,0,.06-.67V34.56a.83.83,0,0,0-.07-.38.61.61,0,0,0-.21-.24,1,1,0,0,0-.37-.14l-.38,0v-.28h2.93l1.56,3.32,1.33-2.7.13-.35a1.35,1.35,0,0,0,.06-.27h2.82v.28l-.3,0-.3.05a.36.36,0,0,0-.23.15.51.51,0,0,0-.06.22v3.56a.47.47,0,0,0,.06.21.46.46,0,0,0,.23.15l.3.06.31,0Zm8,0H49.59c-.42-.5-.77-.91-1.05-1.21s-.63-.65-1-1h-.25v1.53a.37.37,0,0,0,.06.21.46.46,0,0,0,.23.15l.27.06.31,0v.27H44.73v-.27l.34,0a1.3,1.3,0,0,0,.3-.05A.45.45,0,0,0,45.6,38a.38.38,0,0,0,.06-.22V34.24a.46.46,0,0,0,0-.21.45.45,0,0,0-.24-.15L45,33.8l-.3,0v-.28h3.56a4.34,4.34,0,0,1,1.82.3.94.94,0,0,1,.62.89,1.07,1.07,0,0,1-.38.85,2.91,2.91,0,0,1-1.17.5l.71.72c.27.28.55.55.84.84a3.78,3.78,0,0,0,.39.34,1.21,1.21,0,0,0,.42.25l.26,0,.23,0ZM49,34.77a.82.82,0,0,0-.36-.74,1.93,1.93,0,0,0-1-.23h-.35v2.11h.34a1.67,1.67,0,0,0,1-.28,1,1,0,0,0,.37-.86Zm6.56,3.73H52v-.27l.35,0,.33,0a.61.61,0,0,0,.23-.14.48.48,0,0,0,0-.22V34.24a.36.36,0,0,0,0-.21.46.46,0,0,0-.23-.15,2.34,2.34,0,0,0-.32-.07,3.06,3.06,0,0,0-.36-.05v-.28h3.52v.28l-.33,0-.34.05a.36.36,0,0,0-.24.15.38.38,0,0,0-.06.22v3.56a.38.38,0,0,0,.07.21.42.42,0,0,0,.23.15l.31.06.36,0Z"/></g></svg>