<svg xmlns="http://www.w3.org/2000/svg" viewBox="0 0 70 70"><title>logo</title><g id="Kotayk"><path d="M25.51,34.91A1,1,0,0,0,26,35a.24.24,0,0,0,.15-.16c0-.1-.07-.25-.11-.23a.21.21,0,0,1-.12,0c-.07,0-.11,0-.11-.09a.13.13,0,0,1,.12-.07h.25a.11.11,0,0,0,.09-.07,1.43,1.43,0,0,0,.14.28c0,.05.2.12.27.27a.78.78,0,0,0,.16.22,1,1,0,0,0,.25.16,7.31,7.31,0,0,0-.4-.79.57.57,0,0,0-.12-.11c-.07-.15,0-.21,0-.21a.52.52,0,0,0,.18,0c.09,0,0-.26,0-.26a5.25,5.25,0,0,0-.66-.27.9.9,0,0,0-.91.15l-.92.62s.61.2.61.2Zm0-.82a.49.49,0,0,1,.55,0s.16.13.16.17a.85.85,0,0,0-.53,0,1.23,1.23,0,0,0-.24.14l-.2.15-.29,0Z"/><path d="M23.16,26.66a8.11,8.11,0,1,0,8.1,8.1A8.11,8.11,0,0,0,23.16,26.66Zm3.54,6.13c.06.16.08.23-.29.28-.15,0-2.75.43-3.62.67a11.1,11.1,0,0,1,3.54-1.11C26.57,32.61,26.63,32.63,26.7,32.79Zm-.26-.29a30.13,30.13,0,0,0-3.63.68h0c-.62.15-1.21.33-1.64.44-.08,0-.12,0-.09-.11s.16-.1.23-.13c.63-.21,1.45-.46,2.33-.68a16,16,0,0,1,2.53-.42c.11,0,.27,0,.33,0a.11.11,0,0,1,.05.1C26.55,32.48,26.5,32.49,26.44,32.5ZM26.21,32a21.44,21.44,0,0,0-3.7.56c-.25.07-1,.27-1.34.41,0,0-.05,0-.07,0s0-.15,0-.15l0-1.33a.24.24,0,0,1,.13-.21,10.8,10.8,0,0,1,4-1.1,2.28,2.28,0,0,0-.59,0l-.65,0h-.1s-.07,0-.13-.14-.16-.55-.21-.71,0,0-.05,0l-.19.8c-.06.19-.22.12-.28.05l-.63-.62s-.07,0-.08,0c-.06.28-.14.75-.17.84a.11.11,0,0,1-.19.06c-.07-.06-.47-.35-.65-.53s-.08,0-.09,0l-.12.79a.09.09,0,0,1-.15,0s-.4-.34-.43-.38-.08,0-.06.05.25,1,.25,1l0,2.14c-.15.11-.18.75.06.76l-.08.74s-1.29,3-1.43,3.47c0,.3.25.32.38.15L21,36.93c.12-.17.21,0,.22.07s.25,2.2.25,2.2c.08.75.39,1,.65,1s.63-.32.72-.82.31-2.5.31-2.5l.37-2.63a.11.11,0,0,0-.12-.13c-.58.09-1.77.42-2.16.5-.08,0-.07-.06-.07-.06s0-.09,0-.13a.09.09,0,0,1,.06-.06c.68-.25,2.66-.66,2.66-.66a20.81,20.81,0,0,1,2.86-.46,3.28,3.28,0,0,1,.13.38c.09.37,0,.34.12.59s.52.95.59,1.09a.67.67,0,0,1,.08.33.08.08,0,0,1,0,0h0s0-.05-.13-.1a.4.4,0,0,0-.22,0c-.14,0-.36.13-.54.16a2.93,2.93,0,0,1-.43,0h0c.05-.18,0-.23,0-.23a2.68,2.68,0,0,1-.14.32c-.08.14-.31.39-.29.39a1.3,1.3,0,0,0,.42-.43.33.33,0,0,0,.26.23A2.44,2.44,0,0,1,27,36a.19.19,0,0,1,.15.08l-.06.43a.94.94,0,0,0-.48-.05,1.24,1.24,0,0,0-.47.15.17.17,0,0,1-.1-.08.5.5,0,0,1-.12.26h0a.87.87,0,0,1-.16.14c-.15.1-.16,0-.15.05s.08.06.15.06a.39.39,0,0,0,.16-.11.59.59,0,0,1,.46-.16,1.19,1.19,0,0,1,.44.08.37.37,0,0,1,0,.21c-.19.15-.56,0-.56,0l-.25.18a1.28,1.28,0,0,1,.53.25l0,0a1,1,0,0,1,.06.42.39.39,0,0,1-.05.13.24.24,0,0,1-.18.12c-.3.07-.88-.06-2-1.06a.88.88,0,0,1-.35-.59l-.16-1.83-.64,4.88c-.07.51-.36,1.08-1,1.08a1,1,0,0,1-1.13-.86c0-.44-.13-.92-.16-1.21,0-.55-.09-.59-.19-.52a7.32,7.32,0,0,0-.67,1l-.24.35a.26.26,0,0,1-.37.08,7.46,7.46,0,0,1-.81-.78l1.49-3.38.12-.6s-.26-.11-.19-.62a.72.72,0,0,1,.21-.49l0-1.9S20.06,30.22,20,30s.13-.1.18-.05l.62.49s.16-.83.18-1,.09,0,.09,0l.84.82.2-1.12c0-.1.1,0,.1,0l.87.88s.24-1,.27-1.08.11,0,.11,0l.79,1s.28-.56.37-.77.12,0,.12,0l.59,1.08.9,1.67a1.32,1.32,0,0,1,.08.15C26.37,32.05,26.27,32,26.21,32ZM25,40.42a3.19,3.19,0,0,0-1-.93l-.36-.22.1-1.52a5.4,5.4,0,0,0,.43.45c.22.2.38.38.38.38a3,3,0,0,0,.75,1.72ZM20.19,29.59a5.6,5.6,0,0,1,.55-.27l-.14.57Zm1-.47a4.24,4.24,0,0,1,.61-.17l-.13.6Zm1.16-.27a4.73,4.73,0,0,1,.65,0l-.13.52Zm1.79.4-.34-.41.5.08Zm-7,5.51A6,6,0,0,1,19.58,30l.29,1.82V33.6a1.07,1.07,0,0,0-.25.67.88.88,0,0,0,.15.56l-.12.47-1.34,3A6,6,0,0,1,17.2,34.76Zm8.54,5.38a1.94,1.94,0,0,1-.62-1.49,1,1,0,0,1,.35,0,2.83,2.83,0,0,0,.57,0,.89.89,0,0,0,.53-.18c.42-.32.18-1,.18-1l.28-.42,0-.21.27-.3.06-.43a.59.59,0,0,0,.46-.75c-.13-.37-.53-1-.59-1.18s-.06-.46-.24-1l0-.12h0c.07,0,.09-.15.05-.31a.37.37,0,0,0-.15-.24.28.28,0,0,0,0-.21c0-.11-.09-.2-.15-.2L25.4,29.24a6,6,0,0,1,.34,10.9Z"/><path d="M36.1,30.81h2.29V28.94h-7v1.87h2.31v.44h-.36l-.82,0-.83,0,.83.05.82,0h.36v8.38H36.1Z"/><path d="M50.46,39.77V35.62L53,28.94H50.7l-1.13,3-.21-.55c-.09-.25-.19-.49-.29-.73s-.19-.49-.3-.73-.21-.48-.33-.71c.08.25.16.5.25.75s.17.49.26.73.18.5.28.74l.27.67-.28.73-1.47-3.86H45.41L48,35.62v4.15Z"/><path d="M43.2,28.94H40.88L37.35,39.77h2.47l.69-2.1h3l.69,2.1h2.48ZM41.12,35.8,42,33l.24.76-.15.45c-.13.36-.25.73-.37,1.11l-.15.49Zm.62,0,.15-.45c.11-.37.23-.74.33-1.12,0-.11.07-.23.1-.34l.62,1.91Z"/><polygon points="6.88 28.95 6.88 39.77 9.28 39.77 9.28 34.32 9.28 28.95 6.88 28.95"/><path d="M11.84,34.32l3-5.37H12.14L9.93,33.1c0-.37,0-.74,0-1.12,0-.91,0-1.83-.05-2.75,0,.92,0,1.84,0,2.75,0,.45,0,.9,0,1.35l-.53,1,.52.92v2.25c0,.9,0,1.81,0,2.71l-1.29,0-1.35,0,1.35,0H9.92v0c0-.92,0-1.84,0-2.76,0-.67,0-1.33,0-2l2.42,4.28h2.57Z"/><polygon points="54.04 28.95 54.04 39.77 56.45 39.77 56.45 34.32 56.45 28.95 54.04 28.95"/><path d="M59,34.32,62,29H59.3l-2.21,4.16c0-.4,0-.8,0-1.2,0-.92,0-1.85,0-2.77,0,.92,0,1.85-.05,2.77,0,.48,0,1,0,1.43l-.52,1,.51.91v2.24c0,.91,0,1.82,0,2.73l-1.34,0-1.39,0,1.39,0h1.44v0c0-.93,0-1.86,0-2.78v-2l2.43,4.29h2.56Z"/><path d="M29.76,29.8a8.19,8.19,0,0,1,2,5.44,8.07,8.07,0,0,1-.57,2.88,8.32,8.32,0,0,1-1.56,2.48,8.08,8.08,0,0,1-2.34,1.77,8.12,8.12,0,0,1-8.42-.66A8.57,8.57,0,0,0,21.51,43a8.25,8.25,0,0,0,3,.27,8.11,8.11,0,0,0,6.84-11A8,8,0,0,0,29.76,29.8Z"/><path d="M25.83,39.78a2,2,0,0,1-.48-.77.07.07,0,0,1,0-.08s.07,0,.11,0h.23a3.62,3.62,0,0,0,.47,0,2.39,2.39,0,0,0,.46-.12.84.84,0,0,0,.35-.32,1.7,1.7,0,0,0,.19-.91l.17-.35h0V37l.23-.26h0v0l0-.32a1.44,1.44,0,0,0,.52-.46.94.94,0,0,0,.14-.34v-.11l0-.09-.06-.17c-.19-.43-.4-.84-.63-1.25l-.08-.34h0l-.24-.8a1.24,1.24,0,0,0,0-.27c0-.11-.13-.16-.16-.21a.31.31,0,0,1,0-.1.3.3,0,0,0,0-.16c-.05-.09-.13-.14-.16-.2a.2.2,0,0,1,0-.11.24.24,0,0,0,0-.14l-.13-.23-1.13-2,1.07,2.06.12.23a.2.2,0,0,1,0,.11.22.22,0,0,0,0,.14c.06.1.13.14.16.21a.12.12,0,0,1,0,.1.3.3,0,0,0,0,.16,1.35,1.35,0,0,0,.09.11.15.15,0,0,1,.06.09,1,1,0,0,1,0,.24h0l.25.81.08.35h0c.22.42.44.83.62,1.26l.06.16a.23.23,0,0,1,0,.14.66.66,0,0,1-.12.3,1.25,1.25,0,0,1-.5.44h0v0l0,.34-.22.27h0v.19l-.17.34v0h0a1.56,1.56,0,0,1-.16.88.72.72,0,0,1-.32.3,1.5,1.5,0,0,1-.44.12,3.44,3.44,0,0,1-.46,0h-.35a.11.11,0,0,0-.06.11A2,2,0,0,0,25.83,39.78Z"/><path d="M14.26,37.25,12.6,34.32l1.32-2.52c.45-.85.88-1.71,1.32-2.57-.46.84-.94,1.68-1.4,2.52l-1.38,2.54v.06c.56,1,1.11,2,1.68,3s1.09,1.92,1.65,2.88l-1.51,0-1.59,0,1.59,0,1.6,0H16l0-.08C15.38,39.23,14.82,38.24,14.26,37.25Z"/><path d="M63.08,40.22l-1.66-3c-.55-1-1.11-2-1.67-2.93.45-.84.89-1.68,1.33-2.52s.88-1.71,1.32-2.57c-.46.84-.94,1.68-1.4,2.52l-1.38,2.54,0,0,0,0c.56,1,1.11,2,1.68,3S62.39,39.24,63,40.2l-1.51,0-1.59,0,1.59,0,1.6,0h.08Z"/><path d="M50.94,35.77v0h0c0,.74,0,1.48,0,2.22s0,1.45,0,2.18l-1.34,0-1.39,0,1.39,0c.47,0,.93,0,1.39,0h0v0c0-.75,0-1.49,0-2.23s0-1.47,0-2.21c.41-1.09.83-2.18,1.23-3.28s.8-2.2,1.19-3.3c-.44,1.09-.87,2.17-1.29,3.27S51.36,34.68,50.94,35.77Z"/><path d="M38.87,31.36h0v0l0-2.14,0,2.11-2.12,0h-.06v.06c0,1.49,0,3,0,4.46s0,2.95,0,4.42l-2.74,0,2.78,0h0v0c0-1.49,0-3,0-4.47s0-2.93,0-4.4Z"/><path d="M46.6,37.46c-.3-.93-.59-1.85-.9-2.77s-.6-1.84-.92-2.76-.62-1.84-.94-2.75c.28.93.56,1.86.85,2.78s.58,1.85.88,2.77.6,1.85.9,2.77l.9,2.7-2.75,0,2.82,0h.05v-.06C47.19,39.31,46.9,38.38,46.6,37.46Z"/><path d="M40.92,38.11h-.05v0c-.12.34-.23.69-.34,1s-.21.67-.31,1l-2.64,0,2.67,0h0v0c.13-.34.25-.68.37-1s.22-.65.32-1l1.15,0,1.19,0c-.4,0-.8,0-1.19,0S41.32,38.11,40.92,38.11Z"/></g></svg>