<svg xmlns="http://www.w3.org/2000/svg" viewBox="0 0 70 70"><defs><style>.cls-1{fill:#231f20;}</style></defs><title>logo</title><g id="pmi"><path class="cls-1" d="M35.05,27.08c-3.68,0-6.68,3.64-6.68,8.11s3,8.11,6.68,8.11,6.68-3.64,6.68-8.11-3-8.11-6.68-8.11m-2.81,8.78h0c-.18.08-.19.24-.21.37v0c-.29,2.49-1.26,3.28-1.55,3.47-.08.05-.14.06-.17,0s0,0,0-.07a.35.35,0,0,1,0-.13,30.59,30.59,0,0,0,.47-6.37c0-1,0-1.78-.06-2.19a1.7,1.7,0,0,1,0-.22c0-.31.09-.37.29-.44h0a.76.76,0,0,0,.47-.3,1,1,0,0,1,.95-.72c.4,0,1.89.54,1.89,3.18a3.19,3.19,0,0,1-2.06,3.34m7.28,3.91h0c-1.3-.86-2-3.62-2-3.83s0-.12,0-.12v0c-.11.35-.41,1.74-.62,2.65l-.17.8,0,.09c0,.06,0,.09,0,.09s0,0-.09-.18-.31-1.16-.52-2l-.3-1.14a.7.7,0,0,0,0-.11l0,0-.16.51a5.14,5.14,0,0,1-1.66,2.91c-.23.18-.26.17-.29.16s0-.1.08-.21a18.79,18.79,0,0,0,1.52-9.3c0-.12,0-.16,0-.16s.06,0,.12.14l0,0a22.14,22.14,0,0,1,1.53,4,.15.15,0,0,0,0,.08.19.19,0,0,0,0-.08A24.79,24.79,0,0,1,38.55,30c.14-.19.18-.22.21-.2s0,.07,0,.18l0,.05a27.65,27.65,0,0,0,.9,9.59c.05.14,0,.18,0,.19s-.08,0-.14-.08"/><path class="cls-1" d="M32.27,29.7h0c-.3,0-.33.37-.33.68s0,3.66-.08,4.42c0,.37,0,.57.14.64s.3,0,.5-.12c.41-.21.49-.57.63-2.77.11-1.79-.31-2.46-.5-2.66a.5.5,0,0,0-.36-.19"/><polygon class="cls-1" points="23.84 52.65 23.48 52.75 22.99 51.07 23.34 50.96 23.84 52.65"/><polygon class="cls-1" points="24.09 50.74 24.46 50.64 25.43 51.66 25.12 50.47 25.46 50.39 25.88 52.1 25.53 52.19 24.55 51.16 24.86 52.35 24.52 52.45 24.09 50.74"/><polygon class="cls-1" points="27.5 49.97 27.57 50.26 27.05 50.37 27.33 51.8 26.97 51.86 26.68 50.44 26.17 50.54 26.11 50.25 27.5 49.97"/><polygon class="cls-1" points="29.48 49.97 28.57 50.11 28.63 50.47 29.47 50.35 29.51 50.64 28.68 50.78 28.75 51.22 29.7 51.08 29.75 51.39 28.44 51.58 28.18 49.85 29.44 49.66 29.48 49.97"/><path class="cls-1" d="M31.33,49.5a.52.52,0,0,1,.18.1.56.56,0,0,1,.1.15.43.43,0,0,1,.05.18.47.47,0,0,1,0,.25.37.37,0,0,1-.18.19.32.32,0,0,1,.18.12.51.51,0,0,1,.07.26v.13c0,.08,0,.13,0,.15s0,.08.08.09v.05l-.4,0a.47.47,0,0,1,0-.09s0-.1,0-.15v-.16a.3.3,0,0,0-.08-.21.27.27,0,0,0-.22-.05l-.35.05.07.68-.36,0-.18-1.74.84-.09a1,1,0,0,1,.28,0m-.73.32,0,.49.39-.05a.4.4,0,0,0,.18,0A.21.21,0,0,0,31.3,50a.23.23,0,0,0-.12-.21H31Z"/><polygon class="cls-1" points="32.4 49.36 32.78 49.35 33.52 50.54 33.46 49.32 33.81 49.31 33.89 51.06 33.52 51.08 32.76 49.87 32.82 51.11 32.48 51.12 32.4 49.36"/><path class="cls-1" d="M35.1,49.29h.42l.61,1.76h-.41l-.11-.36H35l-.12.35h-.39Zm0,1.1h.45l-.22-.69Z"/><polygon class="cls-1" points="37.89 49.39 37.87 49.69 37.35 49.66 37.27 51.11 36.91 51.09 36.98 49.64 36.45 49.61 36.46 49.31 37.89 49.39"/><polygon class="cls-1" points="38.7 51.21 38.34 51.18 38.49 49.43 38.86 49.47 38.7 51.21"/><path class="cls-1" d="M40.77,51.29a.74.74,0,0,1-.6.14.83.83,0,0,1-.55-.28,1,1,0,0,1-.16-.75.91.91,0,0,1,.35-.69.82.82,0,0,1,.6-.13.77.77,0,0,1,.54.28.91.91,0,0,1,.17.75.87.87,0,0,1-.35.68M40.58,51a.77.77,0,0,0,.18-.44.78.78,0,0,0-.07-.47.47.47,0,0,0-.32-.2A.45.45,0,0,0,40,50a.81.81,0,0,0-.19.44.73.73,0,0,0,.07.47.48.48,0,0,0,.32.21.45.45,0,0,0,.37-.12"/><polygon class="cls-1" points="41.95 49.86 42.34 49.93 42.79 51.25 43.01 50.06 43.34 50.11 43.03 51.84 42.67 51.77 42.2 50.43 41.98 51.65 41.64 51.58 41.95 49.86"/><path class="cls-1" d="M44.62,50.41l.41.09.19,1.86-.39-.11,0-.36-.63-.16-.19.32L43.6,52Zm-.28,1.05.44.1-.06-.72Z"/><polygon class="cls-1" points="46.27 50.82 46.62 50.92 46.21 52.31 47.06 52.56 46.97 52.86 45.78 52.52 46.27 50.82"/><path class="cls-1" d="M23.78,49.48a.66.66,0,0,1-.38.24l-.35.1.18.61-.36.1-.49-1.68.72-.21a.57.57,0,0,1,.43,0,.5.5,0,0,1,.27.36.54.54,0,0,1,0,.47M23.33,49a.44.44,0,0,0-.2,0l-.31.1.14.49.32-.09a.33.33,0,0,0,.16-.11.25.25,0,0,0,0-.21.26.26,0,0,0-.12-.17"/><polygon class="cls-1" points="24.99 49.94 24.6 48.23 24.96 48.15 25.11 48.79 25.76 48.65 25.61 47.99 25.97 47.9 26.37 49.62 26.01 49.7 25.83 48.94 25.18 49.09 25.35 49.86 24.99 49.94"/><polygon class="cls-1" points="27.65 49.38 27.29 49.43 26.96 47.71 27.33 47.64 27.65 49.38"/><polygon class="cls-1" points="28.34 47.47 28.7 47.41 28.91 48.85 29.78 48.72 29.82 49.02 28.59 49.21 28.34 47.47"/><polygon class="cls-1" points="31.02 48.9 30.65 48.94 30.47 47.19 30.84 47.16 31.02 48.9"/><path class="cls-1" d="M33.1,48a.67.67,0,0,1-.43.15l-.36,0,0,.63-.37,0-.1-1.77.75,0a.63.63,0,0,1,.42.11.51.51,0,0,1,.18.41.54.54,0,0,1-.13.45m-.32-.62a.36.36,0,0,0-.19,0l-.33,0,0,.51.33,0a.22.22,0,0,0,.18-.08.21.21,0,0,0,.06-.2.24.24,0,0,0-.08-.19"/><path class="cls-1" d="M36.67,47h.52l0,1.76H36.8l0-1.19s0-.08,0-.15a.66.66,0,0,0,0-.13l-.38,1.47-.36,0-.29-1.49v.3l0,1.19-.34,0,0-1.76L36,47l.28,1.39Z"/><path class="cls-1" d="M39.43,48.77a.75.75,0,0,1-.59.16.76.76,0,0,1-.55-.26.9.9,0,0,1-.2-.74.94.94,0,0,1,.33-.7.72.72,0,0,1,.59-.15.75.75,0,0,1,.56.26.91.91,0,0,1,.19.74,1,1,0,0,1-.33.69m-.2-.28a.71.71,0,0,0,.16-.45.61.61,0,0,0-.08-.46.45.45,0,0,0-.32-.19.44.44,0,0,0-.36.12.68.68,0,0,0-.17.44.74.74,0,0,0,.08.47.39.39,0,0,0,.34.19.43.43,0,0,0,.35-.12"/><path class="cls-1" d="M41.92,47.55a.4.4,0,0,1,.15.14.52.52,0,0,1,.06.16.28.28,0,0,1,0,.18.37.37,0,0,1-.1.23.29.29,0,0,1-.22.15.32.32,0,0,1,.14.17.47.47,0,0,1,0,.27l0,.12a1.26,1.26,0,0,0,0,.16.13.13,0,0,0,0,.11v0l-.41-.06s0-.08,0-.1a.92.92,0,0,1,0-.16l0-.15c0-.12,0-.2,0-.24a.34.34,0,0,0-.2-.08L41,48.44l-.11.69-.35-.06.26-1.73.83.12a.65.65,0,0,1,.27.09m-.78.14-.08.46.39.06a.27.27,0,0,0,.18,0c.08,0,.12-.08.13-.18a.25.25,0,0,0-.06-.23.91.91,0,0,0-.17,0Z"/><path class="cls-1" d="M44.34,48a.5.5,0,0,1,.14.15.75.75,0,0,1,.05.16.6.6,0,0,1,0,.19.72.72,0,0,1-.12.23.3.3,0,0,1-.24.12.33.33,0,0,1,.14.18.54.54,0,0,1,0,.28l0,.11a.94.94,0,0,0,0,.16.18.18,0,0,0,0,.12v0l-.39-.09a.34.34,0,0,1,0-.09s0-.1,0-.15l0-.17a.31.31,0,0,0,0-.22.26.26,0,0,0-.19-.1l-.35-.08-.15.67-.34-.07.35-1.72.82.18a.53.53,0,0,1,.27.1m-.8.1-.09.46.38.08a.38.38,0,0,0,.18,0,.21.21,0,0,0,.14-.17c0-.11,0-.19,0-.23a.34.34,0,0,0-.16-.07Z"/><polygon class="cls-1" points="45.52 50.06 45.16 49.97 45.6 48.27 45.95 48.36 45.52 50.06"/><path class="cls-1" d="M46.85,49.87a.3.3,0,0,0,0,.19.39.39,0,0,0,.26.19l.21,0a.2.2,0,0,0,.2-.14.14.14,0,0,0,0-.16.93.93,0,0,0-.2-.15l-.17-.08a1.77,1.77,0,0,1-.32-.25.44.44,0,0,1-.06-.42.53.53,0,0,1,.27-.33.82.82,0,0,1,.54,0A.72.72,0,0,1,48,49a.49.49,0,0,1,.07.46l-.34-.1a.25.25,0,0,0-.07-.26.43.43,0,0,0-.19-.1.37.37,0,0,0-.23,0,.16.16,0,0,0-.13.12.17.17,0,0,0,0,.17l.21.13.27.16a.92.92,0,0,1,.25.21.47.47,0,0,1,0,.39.5.5,0,0,1-.29.33.74.74,0,0,1-.55,0,.86.86,0,0,1-.47-.32.47.47,0,0,1-.06-.46Z"/><path class="cls-1" d="M35.05,43.71h0c3.91,0,7.1-3.82,7.1-8.52s-3.19-8.53-7.1-8.53S28,30.49,28,35.19s3.18,8.52,7.09,8.52m0-16.63c3.69,0,6.68,3.64,6.68,8.11s-3,8.11-6.68,8.11-6.68-3.64-6.68-8.11,3-8.11,6.68-8.11"/><path class="cls-1" d="M35.75,17.87a.75.75,0,1,0-.75.75.75.75,0,0,0,.75-.75m-1.09,0a.34.34,0,1,1,.34.33.34.34,0,0,1-.34-.33"/><path class="cls-1" d="M61.47,29.07a1.14,1.14,0,0,1,.11-.44,1,1,0,0,0,.19-.5.45.45,0,0,0-.06-.21c-.14-.25-.47-.24-.71-.23h-.14a2.15,2.15,0,0,1-.4-.14,4.42,4.42,0,0,0-.85-.28,1.89,1.89,0,0,0-.69.11,2.36,2.36,0,0,1-.85.12,3,3,0,0,1-.84-.28,2.8,2.8,0,0,0-2,.06,3,3,0,0,0-1.59,1.42,4.46,4.46,0,0,0,.16,3.92c.21.4,1,1.72,1.41,2.28a.07.07,0,0,0,0,0h0a1.39,1.39,0,0,0-.67,1.34c0,.13,0,.23,0,.27,0,.22.11.36.22.4a.23.23,0,0,0,.24,0,1.37,1.37,0,0,1,.85-.21A1.19,1.19,0,0,1,57,37.85a1.62,1.62,0,0,1-1.46,1.62,1.21,1.21,0,0,1-1.27-.75,4,4,0,0,0-.44-1.61.8.8,0,0,0-.19-.23c-.23-.22-.58-.56-.67-2.05a11.83,11.83,0,0,0-1.24-4.23,1.13,1.13,0,0,0,.32,0c.55-.07.57-.68.59-1.28V29c0-.45.17-.48.41-.53l.15,0a.45.45,0,0,0,.38-.5c0-.06,0-.15,0-.24v-.19c0-.24.13-.32.37-.37h0a1.22,1.22,0,0,0,.37-.16l.07,0a.42.42,0,0,0,.22-.39,1.07,1.07,0,0,0-.08-.38v0a.45.45,0,0,1,0-.13c0-.08.05-.16.23-.35a.78.78,0,0,0,.27-.56.71.71,0,0,0-.11-.34h0a.8.8,0,0,1-.11-.36c0-.09.24-.28.35-.37l.24-.22a.65.65,0,0,0,.16-.42.49.49,0,0,0-.08-.28.27.27,0,0,0-.32-.05h0c-.45.21-1-.2-1.4-.59a3.94,3.94,0,0,1-.49-.93,3.54,3.54,0,0,0-.38-.78,5.14,5.14,0,0,0-.4-.41,2.85,2.85,0,0,1-.51-.6,2.22,2.22,0,0,1-.21-.7,1.61,1.61,0,0,0-.2-.67.42.42,0,0,0-.31-.22.64.64,0,0,0-.49.24,3.92,3.92,0,0,1-1.62.65h-.52c-.39,0-.84,0-1,0a1.93,1.93,0,0,0-.67.24,1.16,1.16,0,0,1-.41.17,1.94,1.94,0,0,1-.42,0,3.24,3.24,0,0,0-.86,0,.67.67,0,0,0-.47.29.8.8,0,0,0,0,.64.75.75,0,0,1,.06.13c.09.19.13.3.07.34a.74.74,0,0,0-.13.78c.05.14.12.35.29.42a.45.45,0,0,0,.38,0h0a1.63,1.63,0,0,1,1,.13.11.11,0,0,1,.06.11c0,.22,0,.23-.39.3l-.32.07a.79.79,0,0,0-.6.45.4.4,0,0,0,0,.37l.1.11c.09.1.24.28.42.52a.58.58,0,0,0,.5.31.48.48,0,0,0,.36-.18,2.15,2.15,0,0,1,1.15-.39A8.36,8.36,0,0,0,49,23.63v.12a1.34,1.34,0,0,1,0,.38v.05a2.74,2.74,0,0,1-2.65,1.9l-.86.06c-1.7.09-2.84.15-2.84,1.9h0a2.74,2.74,0,0,1-.77-.06l0,0-.2-.26a9.85,9.85,0,0,0-2-2,2.44,2.44,0,0,1,.24-2.65.68.68,0,0,0,.4.12.74.74,0,0,0,.75-.75.68.68,0,0,0-.06-.29.85.85,0,0,0,.23,0,.87.87,0,0,0,.88-.86.81.81,0,0,0-.12-.44.62.62,0,0,0,.18,0,1,1,0,0,0,.49-2A1,1,0,1,0,41.83,17a1,1,0,0,0,.07-.39,1.13,1.13,0,0,0-2.12-.53.87.87,0,0,0-1.71.12.75.75,0,0,0-1.26.2h-.19a.47.47,0,0,1-.51-.43c0-.28-.26-.47-.62-.47H34.6c-.37,0-.62.19-.62.47a.48.48,0,0,1-.52.43h-.17A.75.75,0,0,0,32.6,16a.73.73,0,0,0-.56.26.87.87,0,0,0-1.71-.12,1.14,1.14,0,0,0-1-.58,1.12,1.12,0,0,0-1.13,1.11,1.23,1.23,0,0,0,.06.39,1,1,0,0,0-.46-.12,1,1,0,0,0-.3,2.05,1,1,0,0,0,.47,2,.58.58,0,0,0,.19,0,.9.9,0,0,0-.12.44.87.87,0,0,0,.87.86,1,1,0,0,0,.24,0,.88.88,0,0,0-.06.29.75.75,0,0,0,.75.75.77.77,0,0,0,.44-.14c.53.4.62,1.69.18,2.66a9.54,9.54,0,0,0-2,2A12,12,0,0,0,26.67,31a3.61,3.61,0,0,0-.21-2A6.2,6.2,0,0,0,23,26l-.56-.28a4.93,4.93,0,0,1-1.56-1.43l-.19-.24s0,0,0,0l.07,0a2.55,2.55,0,0,1,1,.4l.33.28a4.63,4.63,0,0,0,.59.47,1,1,0,0,0,1,0,.38.38,0,0,0,.13-.3,1,1,0,0,0-.08-.33.89.89,0,0,0-.05-.13s0,0,.05,0l.18.08a.71.71,0,0,0,.75-.38A1,1,0,0,0,24.34,23c-.25-.22-1-.92-1.56-1.51l-.94-.91a1.85,1.85,0,0,1-.35-.39.5.5,0,0,0,0-.49.43.43,0,0,0-.4-.1h-.18a7.15,7.15,0,0,0,.38-1.18,1.51,1.51,0,0,0-.23-1.43.88.88,0,0,0-.84-.27,2.15,2.15,0,0,0-1.22.83l-.1-.34-.22.08-1,.31.11.36a2.25,2.25,0,0,0-1.53,0,.93.93,0,0,0-.52.71,1.54,1.54,0,0,0,.65,1.29c.17.15.32.25.45.36a.13.13,0,0,0-.07.06,3.5,3.5,0,0,0-.39.38l-.15.15a4.68,4.68,0,0,1-2.48,1.17.25.25,0,0,0-.22.22c0,.22.19.46.55.62s.46.64.27,1.62v.05a.3.3,0,0,0,.07.33c.12.13.31.11.63,0l.06,0,.12,0a1.16,1.16,0,0,1,0,.18v.1l0,.09A4.37,4.37,0,0,0,15,26a1.07,1.07,0,0,0,.07.41,4.12,4.12,0,0,0,.61,1,.49.49,0,0,0,.34.16.62.62,0,0,0,.38-.22v0l.09.22h0a2,2,0,0,0,1.34,1.35.68.68,0,0,0,.56,0,.62.62,0,0,0,.26-.41c0-.1,0-.22,0-.32v-.08s0,0,.06.06a4.94,4.94,0,0,1,.88,2.69,3.21,3.21,0,0,1-.12.91,7.56,7.56,0,0,1-.43,1.17c-.1.24-.18.46-.26.67a7.63,7.63,0,0,1-1.47,1l-.28.16A4.57,4.57,0,0,0,15.24,38s0,.06,0,.09c-.79.27-1.32.23-1.6-.12-.6-.74-.15-1.48.51-2.37l.21-.28.2-.29.19-.24a.58.58,0,0,1,0,.14l.08.36.08.28c0,.25.21.29.27.29s.25.18.66-.58c.09-.16.25-.44.44-.73l.31-.48a.8.8,0,0,0-.27-1.24c-.2-.14-.18-.21,0-.55l.05-.1a4.64,4.64,0,0,0-.13-3.87c-.67-1-1.61-2-2.88-1.68a5.55,5.55,0,0,0-1.67.71,4.07,4.07,0,0,1-1.52.6,14.43,14.43,0,0,0-1.41.39c-.13.05-.31.1-.32.3h0c0,.2.22.3.5.42a1.61,1.61,0,0,1,.53.35,6.64,6.64,0,0,1-.89,1,.38.38,0,0,0-.19.31.11.11,0,0,0,0,.06c0,.2.25.34.63.39H9v.08a2.61,2.61,0,0,0,.16,1.5l.07.09A5.54,5.54,0,0,1,10,34.18a1.4,1.4,0,0,1-.05.31.65.65,0,0,0,0,.53.38.38,0,0,0,.25.17c.45.1.61-.25.75-.54l.07-.14c.18-.36.42-.86.72-1.36l.2-.3a3.47,3.47,0,0,0,.7-2.13h.15a.76.76,0,0,0,.26,0l.09,0c.15,0,.35-.06.4-.26s-.11-.35-.28-.48a1.54,1.54,0,0,1-.33-1.29c.09-.32.24-.49.46-.53A2,2,0,0,1,14.9,29a2.59,2.59,0,0,1,.41,1.37,2.48,2.48,0,0,1,0,.41c-.1.47-.2.52-.2.52l-.12,0-.15,0a1.22,1.22,0,0,0-1,.21l-.08.06c-.2.13-.46.31-.42.58s.29.36.48.43a.28.28,0,0,1,.21.2c.09.31-.22.87-.46,1.16l-.11.15-.29.38c-1.16,1.49-1.53,2.92-1,3.93.3.62,1,1.35,2.93,1.36a2.6,2.6,0,0,1-.35.94,2,2,0,0,1-1.66.85h-.24a.54.54,0,0,0-.42.16c-.17.19-.21.54-.16,1.25a5.66,5.66,0,0,1-.14,1.85c0,.16-.06.32-.07.44a1.45,1.45,0,0,1-.06.33,2.44,2.44,0,0,0-.07.46.55.55,0,0,0,.09.33.49.49,0,0,0,.39.21l.42,0h.28v0a.63.63,0,0,1,0,.09H8.23l1.52,2.63c-.09.19-1.4,2.75-1.4,2.75h12.9L22,54.56a39.83,39.83,0,0,1,13.07-2.28h0a39.83,39.83,0,0,1,13.07,2.28l.73-2.47h12.7s-1.31-2.56-1.4-2.75l1.52-2.63H56.21a5.63,5.63,0,0,0,0-1c0-.14-.07-.41-.12-.69a6.91,6.91,0,0,1-.12-.73c0-.28,0-1.14,0-1.34.08-.57-.54-1-.83-1.25l-.1-.07a4.69,4.69,0,0,1-.76-.78A2.74,2.74,0,0,0,57.58,40a5.65,5.65,0,0,0,.67-1.17v-.06a3.76,3.76,0,0,1,.5-.79c.28-.25,1.44-1.77,1.06-2.39-.24-.41-.91-.17-1.13-.09s-.19,0-.26-.36-.23-1-.24-1.05h0a.63.63,0,0,0-.25-.5.48.48,0,0,0-.44.06c-.08,0-.15.08-.21,0a.26.26,0,0,1-.14-.15c-.06-.14-.15-.47-.21-.66l0-.16,0-.1c0-.14-.07-.32-.25-.38s-.34.1-.46.24l-.27.32a2.62,2.62,0,0,1-1-2.64,1.82,1.82,0,0,1,.88-1.45,2.2,2.2,0,0,1,1.65,0l.1,0a1.62,1.62,0,0,1,.18.1l-.07.05v0l0,0a1.46,1.46,0,0,0-.41,1,3.67,3.67,0,0,0,1.23,2.2,3.74,3.74,0,0,0,.7,2.39.92.92,0,0,0,.72.24,3.67,3.67,0,0,0,1.19-.48c.1,0,.42-.36-.09-.49s-.38-.59-.35-.83A4.24,4.24,0,0,1,61,31.8a1.26,1.26,0,0,0,.11-.51,2.7,2.7,0,0,0-.2-.89l.27-.06a.77.77,0,0,0,.5-.46.58.58,0,0,0-.14-.5.47.47,0,0,1-.09-.31m-16-2.52.87-.05a3.19,3.19,0,0,0,3-2.19l0,0a2.93,2.93,0,0,0,0-1l0-.25-.25.1a8.3,8.3,0,0,1-1.35.33,2.6,2.6,0,0,0-1.39.47l0,0,0,0s0,0-.06,0-.09,0-.16-.13a5.78,5.78,0,0,0-.45-.56l0,0c0-.06.07-.16.33-.23l.29-.05c.34-.07.7-.15.72-.71h0a.56.56,0,0,0-.22-.44,2,2,0,0,0-1.39-.19h0a.08.08,0,0,1-.06,0s0,0-.08-.18a.84.84,0,0,1,0-.23.13.13,0,0,1,.05-.12.45.45,0,0,0,.17-.36,1.19,1.19,0,0,0-.14-.48l0-.09a.65.65,0,0,1-.06-.24.07.07,0,0,1,0-.05s.09-.08.17-.1a2.55,2.55,0,0,1,.77,0,2.84,2.84,0,0,0,.51,0,2,2,0,0,0,.53-.2,1.68,1.68,0,0,1,.49-.2h1.56a4.09,4.09,0,0,0,1.92-.77.26.26,0,0,1,.14-.1h0a1.69,1.69,0,0,1,.15.54,2.65,2.65,0,0,0,.26.84,4,4,0,0,0,.57.67,3.27,3.27,0,0,1,.37.38,3.87,3.87,0,0,1,.32.67,3.77,3.77,0,0,0,.58,1.07c.28.25.95.88,1.63.75l0,0-.2.18c-.25.2-.5.42-.5.67v0a1.19,1.19,0,0,0,.17.56v0a.19.19,0,0,1,.05.12.43.43,0,0,1-.16.27c-.26.27-.35.45-.35.62a1,1,0,0,0,.06.26l0,0c0,.07,0,.18,0,.24v0h0l-.08,0a.68.68,0,0,1-.27.12h0c-.46.11-.7.36-.7.78a.13.13,0,0,0,0,.06v.15a2.5,2.5,0,0,1,0,.25s0,0,0,0l-.09,0-.11,0c-.28,0-.69.15-.73.92v.3c0,.59,0,.86-.23.9a.69.69,0,0,1-.62-.34,3.39,3.39,0,0,1-.11-.37c-.26-.8-.17-.6-.55.09-.06.1-.1.22-.19.38a1.46,1.46,0,0,1-.61.71l-.08,0s-.06,0-.09,0-.11-.1-.14-.29a6.61,6.61,0,0,1-.17-1.08c0-.55.56-1.14-.62-.19l-.24.15c-.14.1-1.05.49-1.3.61-.09,0-.39,0-.39,0a.58.58,0,0,1,0-.1,0,0,0,0,1,0,0c.13-.5.37-.38-.45-.3H46c-.21,0-.5,0-.65-.09a.47.47,0,0,1-.12-.35,1.19,1.19,0,0,1,.92-1.21c.5-.1,2.43-.31,3.28-.38A3.37,3.37,0,0,0,52.05,26a6.13,6.13,0,0,0,.33-3.07c-.08-.31-.4-.79-.2.09a5.52,5.52,0,0,1-.48,2.77,3,3,0,0,1-2.33,1.27c-.84.07-2.8.28-3.33.39a1.61,1.61,0,0,0-1.13.95c-.18.27-.61.86-1,.85S43,28.66,43,28.17c0-1.48.69-1.53,2.46-1.62m-2.83,1.91a1.42,1.42,0,0,0,1.23,1.21,1.32,1.32,0,0,0,.93-.47.8.8,0,0,0,.25.51.86.86,0,0,0,.42.2,2.31,2.31,0,0,0-.28.79l-2-.11a12.86,12.86,0,0,0-1.07-2.13h.49m2.77,4a3.56,3.56,0,0,1-.58.24,4.24,4.24,0,0,0-.93.35,12.89,12.89,0,0,0-.53-2l1.8.11a4.81,4.81,0,0,0,.24,1.33m-5.15-9.65a.34.34,0,1,1,.34-.34.34.34,0,0,1-.34.34m.92-1a.47.47,0,0,1,0-.93.47.47,0,1,1,0,.93m1.58-1.92a.63.63,0,1,1-1.26,0,.63.63,0,1,1,1.26,0m-.46-2.56a.63.63,0,0,1,.63.63.64.64,0,0,1-.63.64.64.64,0,0,1-.64-.64.64.64,0,0,1,.64-.63m-1.53-1.4a.72.72,0,1,1-.73.71.72.72,0,0,1,.73-.71m-1.84-.07a.47.47,0,0,1,.47.47.47.47,0,0,1-.93,0,.47.47,0,0,1,.46-.47m-1.42.52a.34.34,0,0,1,0,.68.34.34,0,1,1,0-.68m-.72.61h0a.76.76,0,0,0,.71.49.74.74,0,0,0,.73-.62.88.88,0,0,0,.69.36.87.87,0,0,0,.72-.39,1.14,1.14,0,0,0,1.12,1,1.08,1.08,0,0,0,.53-.14,1.13,1.13,0,0,0,0,.32,1,1,0,0,0,.57.92,1.06,1.06,0,0,0-.74,1,1,1,0,0,0,.19.59h-.09a.87.87,0,0,0-.86.87.82.82,0,0,0,.09.38h-.15a.76.76,0,0,0-.75.75,1.11,1.11,0,0,0,0,.19,2,2,0,0,1-.14.16,8.11,8.11,0,0,0-.93-.36v0a8.23,8.23,0,0,0,1.62-1.79,2,2,0,0,0,.38-2.09,1.59,1.59,0,0,0-1.25-.78,4.39,4.39,0,0,0-2.72.78ZM39,24a9.46,9.46,0,0,0-7.86,0,2.16,2.16,0,0,0-.25-.79,10.3,10.3,0,0,1,4.17-.85,10.51,10.51,0,0,1,4.21.87A2,2,0,0,0,39,24m.06,1.39a7.64,7.64,0,0,0-4-1.14,7.79,7.79,0,0,0-4,1.11,3.87,3.87,0,0,0,.12-.95,9.06,9.06,0,0,1,7.79,0,3.92,3.92,0,0,0,.1,1m-7-3.09a7.38,7.38,0,0,1-1.74-1.83A1.69,1.69,0,0,1,30,18.68a1.14,1.14,0,0,1,.93-.57A4.45,4.45,0,0,1,33.7,19l.53,2.88a10.83,10.83,0,0,0-2.12.38Zm3.78-.36h0L36.41,19a4.4,4.4,0,0,1,2.75-.93,1.14,1.14,0,0,1,.93.57,1.69,1.69,0,0,1-.34,1.77A7.19,7.19,0,0,1,38,22.28v0a11.07,11.07,0,0,0-2.13-.38M34.39,16c0-.11.12-.12.21-.12h.89c.08,0,.2,0,.2.12a.83.83,0,0,0,.73.77l-1,5.15h-.82l-1-5.15a.83.83,0,0,0,.7-.77m-1.79.38a.34.34,0,1,1-.34.34.35.35,0,0,1,.34-.34m-1.42-.52a.47.47,0,0,1,.45.47.46.46,0,0,1-.45.46.47.47,0,0,1-.48-.46.48.48,0,0,1,.48-.47m-1.84.07a.72.72,0,1,1-.71.71.71.71,0,0,1,.71-.71m-2.16,2a.63.63,0,0,1,.63-.63.64.64,0,0,1,.64.63.64.64,0,0,1-.64.64.64.64,0,0,1-.63-.64M28,20.5a.64.64,0,0,1-.64-.63.65.65,0,1,1,.64.63m.94,1.29a.47.47,0,1,1,.47-.46.47.47,0,0,1-.47.46m.93,1a.34.34,0,1,1,.34-.34.34.34,0,0,1-.34.34m.85,0a.62.62,0,0,0-.12-.17,1,1,0,0,0,0-.17.76.76,0,0,0-.75-.75H29.7a.83.83,0,0,0,.1-.38.87.87,0,0,0-.88-.87h-.07a1.08,1.08,0,0,0,.18-.59,1,1,0,0,0-.74-1,1,1,0,0,0,.57-.92.87.87,0,0,0-.06-.32,1.13,1.13,0,0,0,1.66-.82.87.87,0,0,0,.72.39.88.88,0,0,0,.69-.36.74.74,0,0,0,.73.62.73.73,0,0,0,.7-.49h0l.29,1.57a4.4,4.4,0,0,0-2.73-.78,1.58,1.58,0,0,0-1.24.78A2,2,0,0,0,30,20.63a9.15,9.15,0,0,0,1.61,1.79l0,0a9.11,9.11,0,0,0-.95.35M28.77,28a7.57,7.57,0,0,1,12.52,0,11.89,11.89,0,0,1,2.24,5.38l-.21.2a2.22,2.22,0,0,0-.68.87v0a2.64,2.64,0,0,0-.14.65.55.55,0,0,0,.06.27.59.59,0,0,0,.46.31s.06.11.06.19a.08.08,0,0,1,0,0,.13.13,0,0,0,0,.06c0,.16.08.4.47.55a.19.19,0,0,0,.08,0C43,41.67,39.41,45.66,35,45.66c-4.15,0-7.62-3.58-8.45-8.32a.84.84,0,0,0,.28-.92v-.17a11.36,11.36,0,0,1,0-1.36A8.27,8.27,0,0,1,27,33.62c.06-.27.1-.52.13-.7a.94.94,0,0,0-.28-.92,11.64,11.64,0,0,1,2-4.05M46.69,35.1h0a3.35,3.35,0,0,0,1.61.72,3.9,3.9,0,0,1,1,.38,1.65,1.65,0,0,1,.06.46,5.56,5.56,0,0,1-2.9.1l-.08,0a.88.88,0,0,0-.69-.08,1.15,1.15,0,0,0-.58.69,2.67,2.67,0,0,0,.09,2.56,5.21,5.21,0,0,0,.55.65,2.13,2.13,0,0,1,.51.7.24.24,0,0,1,0,.18,1.18,1.18,0,0,1-.78.2H45.2a7.92,7.92,0,0,0-1.51,0,10.36,10.36,0,0,0-.78-.81l-.12-.12A12,12,0,0,0,44,36.58c.07,0,.13,0,.17,0l0,.07A1,1,0,0,0,45,37c.37,0,.64-.62.7-1.13,0-.26.1-.28.27-.35l.15-.07.22-.11a2.17,2.17,0,0,0,.36-.19M52.5,46.71H48.73l-1.1.87c-1.14-.35-2.32-.65-3.53-.9l.21-.19a3.09,3.09,0,0,0,.52-1.65h0l.24-.36a2.87,2.87,0,0,1,.86-1,5.74,5.74,0,0,1,1.57-.43h.09c.46,0,1.4,0,1.64-.57a.73.73,0,0,0-.21-.88.45.45,0,0,1-.1-.13l-.07-.1a.89.89,0,0,1,.07-1.19l0,0,.06-.07a5.11,5.11,0,0,0,1.47,2.11,4.23,4.23,0,0,0,2.17,1,7.78,7.78,0,0,1,1.06.18.89.89,0,0,1,.36.63,1,1,0,0,1-.43,1.07,2.34,2.34,0,0,0-1.17,1.53v.09M42.77,45c0,.12,0,.17-.08.19-.19.17-.77.08-1.19,0-.21,0-.4-.07-.55-.08a2,2,0,0,0-1.43.64l-.13.14c-.79-.09-1.57-.15-2.34-.2h.13a9,9,0,0,0,4.51-3.19A3.33,3.33,0,0,1,42.77,45m-.84-2.82c.24-.35.46-.7.67-1.08l0,0a5.82,5.82,0,0,1,.61.61,1.6,1.6,0,0,0-.47.19,1,1,0,0,0-.51.59,2.88,2.88,0,0,0-.33-.35m-1,3.36a3.65,3.65,0,0,1,.51.06c.56.09,1.18.2,1.53-.08a.7.7,0,0,0,.22-.5,2.82,2.82,0,0,0,0-.78.57.57,0,0,0,.56.13,1.06,1.06,0,0,0,.06.19v.07a.66.66,0,0,0,.46.43h.18A2.35,2.35,0,0,1,44,46.23a2.3,2.3,0,0,1-.46.33c-1.17-.23-2.36-.42-3.55-.56a1.62,1.62,0,0,1,.94-.42m7.95-6a.24.24,0,0,0,0,.08l-.2.18c-.33.15-.83-.2-1.07-.36l0,0c-.53-.41-1-.49-.23.24h0a2.42,2.42,0,0,0,1,.54,1.35,1.35,0,0,0,.13,1.33l0,.07a1.12,1.12,0,0,0,.19.24c.14.14.21.2.12.43s-.94.32-1.26.32h-.09a6.37,6.37,0,0,0-1.73.46,2.79,2.79,0,0,0-1,1.07c-.08.1-.31.42-.37.47a.28.28,0,0,1-.13,0,.19.19,0,0,1-.14-.13l-.1-.34c-.08-.32,0-.51-.42-.22h0a.23.23,0,0,1-.21,0c-.11-.06-.21-.17-.16-.26s.08-.18.08-.18c.25-.46.08-.44-.32-.4l-.09,0c-.05,0-.21-.09-.28-.28s0-.41.3-.56a2.06,2.06,0,0,1,.54-.2,2.23,2.23,0,0,1,.46-.08,8.48,8.48,0,0,1,1.22,0h.34a1.46,1.46,0,0,0,1.1-.37.63.63,0,0,0,.09-.54,2.35,2.35,0,0,0-.61-.87,4.34,4.34,0,0,1-.51-.61,2.24,2.24,0,0,1-.05-2.16A.85.85,0,0,1,45.9,37c.1,0,.21,0,.37.08l.11,0a5.91,5.91,0,0,0,3,0,.6.6,0,0,1-.09.22,5.06,5.06,0,0,0-.38,2.28M15,45.54l-.05,0-.39-.33c-.22-.17-.46-.39-.54-.46a1.7,1.7,0,0,1-.15-.75.61.61,0,0,1,0-.14A3.76,3.76,0,0,1,14,43.2L14,43a1,1,0,0,1,.59-.08,2.93,2.93,0,0,0,1.3-.06,1.24,1.24,0,0,0,.75-.82,2.12,2.12,0,0,0,1.53-.72,2.78,2.78,0,0,0,.39-.76h.05a2.47,2.47,0,0,0,1.62.29.34.34,0,0,0,.15,0,3.73,3.73,0,0,0-.67.75,1.11,1.11,0,0,0-.27.66,1,1,0,0,0,0,.16c.1.43.53.66.86.83l.05,0a7.25,7.25,0,0,0,1,.41l.51.19a1.73,1.73,0,0,1,.49.34,2.92,2.92,0,0,0,.62.45A1.49,1.49,0,0,0,24,45h0c0,.07,0,.18,0,.22.06.53.64.6,1,.66l.16,0,.18,0a1.76,1.76,0,0,0,.32.59l.23.19c-1.19.25-2.35.55-3.49.89l-1.15-.86H15.45v0A1.24,1.24,0,0,0,15,45.54m10.59-9.9c-.16.29-.2.38-.45.47a.28.28,0,0,1-.22,0,.62.62,0,0,0-.45,0c-.58.21-.56.51-.54.95l0,.28a.93.93,0,0,0,.11.45.79.79,0,0,0,.19.21.75.75,0,0,0,.65,0,3.13,3.13,0,0,1,.47-.18c.28-.1.6-.21.86-.32a11.9,11.9,0,0,0,1.08,3.26l-.09.09a5.41,5.41,0,0,0-1.77,2.75,2.06,2.06,0,0,1-.32-.22,2.71,2.71,0,0,0-1.29-.6,5.83,5.83,0,0,1-1.48-.52c-.15-.06-.24-.14-.26-.22a.33.33,0,0,1,.08-.27A4.53,4.53,0,0,1,23,41.3c.42-.23,1.64-1.27,1.53-1.92a3.19,3.19,0,0,0-.43-.9l-.18-.33a1.06,1.06,0,0,0-1.24-.48,10.67,10.67,0,0,1-2.5.18A3.13,3.13,0,0,1,22,37.13a3.92,3.92,0,0,0,2.16-1,8.37,8.37,0,0,0,1.41-1.85.26.26,0,0,0,.05-.09.71.71,0,0,1,0,.15v.13a4,4,0,0,1,0,1.21m-2.79,2.44a.64.64,0,0,1,.77.27l.2.35a4.34,4.34,0,0,1,.38.74c.05.31-.81,1.21-1.33,1.49-.12.09-.89.51-1,.62a.92.92,0,0,0-.16.48.34.34,0,0,0,0,.14.79.79,0,0,0,.5.48,5.32,5.32,0,0,0,1.59.55,2.35,2.35,0,0,1,1.08.52,1.6,1.6,0,0,0,.58.34l.21,0a2.59,2.59,0,0,1,.47,1.21v.1a.31.31,0,0,1-.07.14.75.75,0,0,1-.4,0l-.15,0-.12,0-.18,0c-.37,0-.63-.09-.66-.3s0-.2,0-.28c-.18-.71-.15-.4-.46-.29l-.07,0c-.16,0-.31,0-.81-.25a3.44,3.44,0,0,1-.54-.4,1.92,1.92,0,0,0-.59-.4l-.54-.21a7.3,7.3,0,0,1-.92-.38l0,0c-.26-.13-.61-.31-.66-.56a.61.61,0,0,1,.18-.47c.48-.64.57-.63.62-.68s.34-.27.28-.47-.22-.34-.78-.24a2.21,2.21,0,0,1-1.39-.26l-.06,0c.15-.37.32-.77.54-1.2a4.36,4.36,0,0,1,.46-.69l.11-.13a8.3,8.3,0,0,0,3-.12M25.94,46a.53.53,0,0,0,.31-.09.53.53,0,0,0,.24-.4,2.4,2.4,0,0,0-.69-1.75,5.07,5.07,0,0,1,1.66-2.56v0a9.2,9.2,0,0,0,.68,1.07,3.65,3.65,0,0,0-1.24,2.83.67.67,0,0,0,.22.5c.34.28,1,.17,1.52.08a4,4,0,0,1,.51-.06,1.83,1.83,0,0,1,1,.42c-1.2.15-2.4.33-3.58.58a2.25,2.25,0,0,1-.45-.35,1.18,1.18,0,0,1-.15-.25m3.2-.82c-.16,0-.35.05-.55.08-.43.07-1,.16-1.2,0,0,0-.07-.07-.07-.19a3.27,3.27,0,0,1,1.07-2.48,8.82,8.82,0,0,0,4.49,3.18h.18c-.79,0-1.56.12-2.36.2l-.11-.1,0,0a2,2,0,0,0-1.42-.64M16.64,19.64a1.19,1.19,0,0,1-.5-.94.52.52,0,0,1,.3-.42,2.11,2.11,0,0,1,1.54.1.8.8,0,0,0,.31.05h.09l-.2-.63.46-.14.2.62.08-.05a1.26,1.26,0,0,0,.21-.26,2,2,0,0,1,1.16-.92.55.55,0,0,1,.49.15.93.93,0,0,1,.2.61,1.76,1.76,0,0,1-.07.45,6.47,6.47,0,0,1-.4,1.2l-.11,0h-.26a5.83,5.83,0,0,0,.44-1.27,1.56,1.56,0,0,0,.05-.36.59.59,0,0,0-.11-.38.19.19,0,0,0-.18,0c-.29,0-.63.34-1,.89a1.62,1.62,0,0,1-.33.32c.05.12.26.76.26.76s0,.13.09.26h0l-.58-.11,0-.08-.22-.71h0a2.46,2.46,0,0,1-.51,0v0a1.91,1.91,0,0,0-1.37-.12.25.25,0,0,0-.15.19v0a1,1,0,0,0,.41.67,7.79,7.79,0,0,0,.84.61s0,0,0,0a.76.76,0,0,0-.3,0l-.1,0c-.18-.14-.38-.28-.58-.45m3.21-.37h0v0a.48.48,0,0,1-.18.2l-.26-.79a2.29,2.29,0,0,0,.21-.23h0a2,2,0,0,1,.68-.71s0,0,0,0a1.1,1.1,0,0,1,0,.28,4.56,4.56,0,0,1-.41,1.18m-1.55.2h0a.47.47,0,0,0-.38.18.13.13,0,0,1,0,.05,6.52,6.52,0,0,1-.77-.58,1,1,0,0,1-.23-.26,2.16,2.16,0,0,1,1,.18l0,0h0l.33.05Zm1.27,9.17a5.75,5.75,0,0,0-.44-.75h0a.55.55,0,0,0-.06-.08c-.8-1-.61-.61-.71.14a1,1,0,0,0,0,.17,1,1,0,0,1,0,.26.4.4,0,0,1-.07.16,1.1,1.1,0,0,1-.23,0,1.57,1.57,0,0,1-1.07-1.09v0a.56.56,0,0,0-.09-.22c-.38-1-.27-.61-.59-.25h0a.34.34,0,0,0-.08.09l0,0a.5.5,0,0,1-.08.08l0,0a3.38,3.38,0,0,1-.52-.84.93.93,0,0,1,0-.25,3.7,3.7,0,0,1,.1-.69v-.17c.1-.33.15-.5,0-.64s-.29-.09-.59,0l-.06,0-.17,0a4.53,4.53,0,0,0,.09-.88,1.12,1.12,0,0,0-.6-1.16.72.72,0,0,1-.18-.1,5.17,5.17,0,0,0,2.44-1.24l.17-.17a1.64,1.64,0,0,1,.72-.55.68.68,0,0,1,.52.17c.06,0,.17.14.25.21s.26.23.39.1.15-.13,0-.3c-.25-.32-.4-.68-.35-.75s.08-.07.53,0h0c.36.09,1.36.55.81.09l.37-.1.17,0a.88.88,0,0,1,.28,0l.56.1h.2l0,.08a.11.11,0,0,0,0,.08c0,.25.5.73.51.74s.51.47.92.89c.63.6,1.32,1.29,1.6,1.52s.31.6.25.69-.19.21-.29.19l-.12-.05c-.17-.08-.38-.18-.55,0a.35.35,0,0,0-.1.26,1.1,1.1,0,0,0,.09.39c0,.08,0,.13.05.16s-.33.12-.5,0a4.64,4.64,0,0,1-.53-.42l-.35-.3a3.47,3.47,0,0,0-1.22-.49l-.24-.08-.18-.06a1.27,1.27,0,0,1-.52-.87c0-.11-.1-.15-.11,0a1.65,1.65,0,0,0,.29,1.23,2.42,2.42,0,0,0,.35.48l.18.22a4.83,4.83,0,0,0,1.68,1.52l.58.31c1.06.53,2.61,1.12,3.23,2.81a4.16,4.16,0,0,1,.09,2.27c-.43-.31-1-.67-1.52-1l-1-.65.21-.1a1.16,1.16,0,0,0,.59-.69c.07-.37-.21-.7-.46-1.1-.59-1-2-1.17-2.9-1.28l-.61-.1a6.27,6.27,0,0,1-2.79-1.24,3.59,3.59,0,0,1-.74-3c0-.11,0-.36-.09-.09-.13.54-.58,2.4.56,3.42a7.09,7.09,0,0,0,3,1.37l.58.07c.83.11,2.13.34,2.62,1.13.22.33.42.58.4.77a1,1,0,0,1-.42.43l-.39.17a5.48,5.48,0,0,1-.58-.45,1.1,1.1,0,0,0-.21-.23c-.66-.53-.36-.2-.41.11-.08.06-.39.06-.95-.14-.34-.14-.35-.15-.5-.34-.4-.54-.32-.31-.42.12,0,.17-.06.22-.21.19a.84.84,0,0,1-.43-.16m-8,4-.2.32c-.3.51-.56,1-.74,1.38l-.08.17c-.15.31-.18.32-.27.3a1.15,1.15,0,0,1,0-.22,1.36,1.36,0,0,0,.06-.36v-.06a4.45,4.45,0,0,0-.78-1.53l-.06-.08a1.38,1.38,0,0,1-.14-.69c0-.2,0-.4,0-.55h0a1.18,1.18,0,0,0,.93-.23v0a3.15,3.15,0,0,0,.14.85l0,.08c.05.19.14.52.42.55s.48-.17.79-.68a2,2,0,0,0,.4-1.13v0l0,0h.06a3.07,3.07,0,0,1-.64,1.9m.92,5.56c-.42-.85-.06-2.16,1-3.49l.28-.39.13-.14a2.5,2.5,0,0,0,.55-1.31,1.64,1.64,0,0,0,0-.23.74.74,0,0,0-.48-.48.41.41,0,0,1-.2-.09,2.23,2.23,0,0,1,.24-.19l.1-.06a.88.88,0,0,1,.64-.14l.11,0a.51.51,0,0,0,.45,0c.17-.1.29-.32.39-.77a2.9,2.9,0,0,0-.44-2.1,2.34,2.34,0,0,0-1.91-1.06,1,1,0,0,0-.79.79,1.78,1.78,0,0,0-.08.44A1.83,1.83,0,0,0,13,30.28l0,0-.07,0h-.12c-.24,0-1-.2-1.13.42v.05a1.8,1.8,0,0,1-.35.89,1.66,1.66,0,0,1-.32.44A1.11,1.11,0,0,1,11,31.9l0-.09a2.07,2.07,0,0,1-.1-.68s0,0,0-.05a.77.77,0,0,1,0-.25.56.56,0,0,0,.07-.24.21.21,0,0,0-.1-.19c-.17-.14-.33,0-.72.29a.78.78,0,0,1-.61.18,2.75,2.75,0,0,1-.41-.11l-.19-.06a4.33,4.33,0,0,0,1-1.24.27.27,0,0,0,0-.2,1.53,1.53,0,0,0-.76-.59,7.27,7.27,0,0,1,1.08-.3,4.32,4.32,0,0,0,1.66-.68A5.54,5.54,0,0,1,13.46,27c.83-.18,1.56.27,2.44,1.53a2.86,2.86,0,0,1,.44,1.7A4.84,4.84,0,0,1,16,32l0,.1a1.12,1.12,0,0,0-.18.54.59.59,0,0,0,.32.53c.19.13.28.22.28.34a.73.73,0,0,1-.14.34l-.29.48a7.65,7.65,0,0,0-.48.78s-.15.26-.16.21l0-.15-.07-.31c-.11-.63-.21-.75-.38-.79a.25.25,0,0,0-.27.16l-.19.31-.17.3-.19.24-.2.28c-.53.73-1.35,1.83-.49,2.87a1.7,1.7,0,0,0,1.88.3c0,.3,0,.54-.07.77-1.3,0-2.28-.39-2.63-1.12m.3,8h-.38c-.05,0-.07,0-.07,0s0-.29,0-.42a1.9,1.9,0,0,0,0-.4,3.4,3.4,0,0,1,.06-.39,6.07,6.07,0,0,0,.15-1.4c0-.16,0-.36,0-.56s0-.32,0-.45c0-.36.05-.48.07-.5s.06,0,.14,0H13l.12,0a2.38,2.38,0,0,0,2-1A5.4,5.4,0,0,0,15.63,38a4.32,4.32,0,0,1,1.69-3l.27-.15c.38-.2.82-.49,1.2-.72a.77.77,0,0,0,.43-.42c.08-.22.17-.43.28-.69A7,7,0,0,0,20,31.84a4.56,4.56,0,0,0-.16-2.66.28.28,0,0,0,.15,0,.54.54,0,0,0,.56-.27,1.26,1.26,0,0,0,.47.26c.48.18,1.08.32,1.37.07l0,.06a13.69,13.69,0,0,0,2.05,1.47c.8.54,1.63,1.09,2,1.39.2.17.28.24.28.47,0,.06,0,.11,0,.18s-.08.42-.13.68a9,9,0,0,0-.17,1.33,11.23,11.23,0,0,0,.05,1.39l0,.23c0,.09,0,.17,0,.23s0,.24-.13.3a10,10,0,0,1-1.16.44l-.51.18a.3.3,0,0,1-.28,0c-.08,0-.1-.21-.11-.33V37c0-.41,0-.43.28-.53.07,0,.11,0,.19,0a.62.62,0,0,0,.47,0,1.13,1.13,0,0,0,.67-.65,3.51,3.51,0,0,0,.1-1.22l0-.43c0-.3.2-.74-.61-1A25.16,25.16,0,0,0,23,32.48a2.59,2.59,0,0,1-.88-.32.2.2,0,0,0-.27,0,.22.22,0,0,0,0,.3,2.44,2.44,0,0,0,1.09.42c.18,0,.73.19,2.39.7a.37.37,0,0,1,.12.07c-.07.13-.13.26-.21.4a7.83,7.83,0,0,1-1.32,1.73,3.41,3.41,0,0,1-1.92.93,3.73,3.73,0,0,0-3.09,2.12,12.49,12.49,0,0,0-.61,1.37,4.12,4.12,0,0,1-.43.91c-.26.31-1,.68-1.32.52s-.74-.22-1,0-.1.22-.43.19c-.11,0-.52,0-.54.08s.29.22.4.22c.63.06.55,0,.77-.14s.2-.12.56,0a.82.82,0,0,1-.51.56,2.55,2.55,0,0,1-1.1,0c-.4,0-1,.07-1,.39l0,.17a5,5,0,0,0-.12.64A2,2,0,0,0,13.68,45l.58.49.37.32.06.06c.18.14.36.29.34.89s-.21.56-.85.59h-.09a1.19,1.19,0,0,1-.71-.16c-.12-.08.08-.35.1-.44a.42.42,0,0,0,0-.12c.11-.47.42-.46-.43-.46l-.29,0M9,51.67l1.2-2.34L9,47.12h4s0,0,0,.05a.48.48,0,0,0,.07.26.55.55,0,0,0,.44.26,2.81,2.81,0,0,0,.69.05h.08c.49,0,1,0,1.2-.62h5.84s.42.31.81.6c-.58.18-1.15.37-1.71.58l-.17.06,1,3.31ZM47.88,54a40.29,40.29,0,0,0-12.8-2.18h0a40.08,40.08,0,0,0-12.81,2.19l-1.57-5.44A44,44,0,0,1,35.05,46.1h0a43.83,43.83,0,0,1,14.39,2.52ZM56,47.51a1.92,1.92,0,0,0,.14-.39H61c-.28.46-1.29,2.21-1.29,2.21l1.21,2.34H49l1-3.3-.17-.07c-.55-.2-1.12-.39-1.69-.58.37-.28.74-.59.76-.6h3.77a.77.77,0,0,0,.18.18.68.68,0,0,0,.59,0,.88.88,0,0,0,.15.31.8.8,0,0,0,1,.23l.18-.12h0a.8.8,0,0,0,.64.17.75.75,0,0,0,.57-.38m-1.14-5.57L55,42c.24.16.72.53.69.86s0,1.36,0,1.39a6.57,6.57,0,0,0,.13.81c0,.25.1.52.12.65a4.86,4.86,0,0,1-.23,1.59.36.36,0,0,1-.27.15.4.4,0,0,1-.3,0L55,47.37c-.23-.65-.33-.3-.54.06l-.09,0c-.23.16-.45-.07-.5-.13a.26.26,0,0,1-.08-.17v-.06c.1-.59.08-.53-.38-.28a.18.18,0,0,1-.08,0h0c-.06,0-.26.1-.29.07s-.15-.14-.15-.34h0a2.15,2.15,0,0,1,1-1.18,1.32,1.32,0,0,0,.63-1.24.75.75,0,0,0,0-.21,1.2,1.2,0,0,0-.62-1,5.85,5.85,0,0,0-1.16-.19,4.07,4.07,0,0,1-2-.92,5.2,5.2,0,0,1-1.5-2.38,1.4,1.4,0,0,1,0-.23,5.45,5.45,0,0,1,.37-1.75,2,2,0,0,0,.22-.93v-.1a6,6,0,0,1,.67.59c.74.72.62.39.23-.15a3.42,3.42,0,0,0-.81-.87,4.17,4.17,0,0,0-1.52-.65,3.54,3.54,0,0,1-1.34-.53l.14-.08.65-.45a1,1,0,0,0,.46.35,1,1,0,0,0,1-.32,3,3,0,0,0,.25-.51l.09-.2a6.33,6.33,0,0,1,.83-.61c.19-.09.14-.12,0-.1s-1,.25-1.14.5l-.12.25a3.45,3.45,0,0,1-.2.43.64.64,0,0,1-.53.15.43.43,0,0,1-.23-.19.75.75,0,0,0,.13-.15.2.2,0,0,0-.06-.27.2.2,0,0,0-.29.07h0a7.23,7.23,0,0,1-1,.71,5.21,5.21,0,0,1-.82.46l-.24.11-.11.06a.72.72,0,0,0-.54.69c0,.42-.2.75-.33.75a.51.51,0,0,1-.4-.2.4.4,0,0,1-.09-.11c-.12-.36-.19-.36-.4-.08-.07.08-.33,0-.41,0s-.2-.1-.17-.25c.14-.7.14-.75-.38-.61-.08,0-.14,0-.19-.11s0-.28.12-.59l0,0a1.86,1.86,0,0,1,.56-.69L44,33.5a2.86,2.86,0,0,1,1-.44,3.26,3.26,0,0,0,1.17-.62,7.49,7.49,0,0,1,1.34-.9c.21-.09.2-.17-.14-.08a6,6,0,0,0-1.48.68l-.08.07a2.33,2.33,0,0,1,.17-2.27l0,0h.15l.38,0a.45.45,0,0,0,.13.34.92.92,0,0,0,.84.09s1.15-.49,1.37-.64l.24-.14a6.77,6.77,0,0,0,.16,1c.08.38.25.53.38.57a.48.48,0,0,0,.45,0l0,0a1.67,1.67,0,0,0,.82-.91A.83.83,0,0,1,51,30a.18.18,0,0,0,0,.06s0,.11.07.12l.06.16a12.06,12.06,0,0,1,1.44,4.53l.08.77a2.36,2.36,0,0,0,.71,1.56c.06.05.11.08.13.13a3.7,3.7,0,0,1,.35,1.19s0,0,0,0a1.26,1.26,0,0,0,0,.27A2.92,2.92,0,0,1,53.75,40l-.23-.35c-.47-.72-1.45-1.34-.34.23a10.3,10.3,0,0,0,1.67,2m1-7.95a2.66,2.66,0,0,0,.1-.38,2.32,2.32,0,0,1,.56-.91h0l0,.11,0,.16a6.73,6.73,0,0,0,.24.69c.21.58.13.65.77.38l.16-.07s0,0,0,0a1.11,1.11,0,0,1,0,.13v0c0,.16.24,1.08.3,1.31.2.79,0,.73.65.46.46-.19.72-.14.74-.1.16.27-.64,1.55-1,1.87a3.62,3.62,0,0,0-.61.95l0,0a4.49,4.49,0,0,1-.58,1.09,2.45,2.45,0,0,1-3.13.61l0,0a3.1,3.1,0,0,0,.2-.85,1.82,1.82,0,0,0,1.26.42,2,2,0,0,0,1.88-2,1.58,1.58,0,0,0-1.53-1.55,1.6,1.6,0,0,0-.93.18v-.19c0-.3.05-.82.41-1l.2-.07c.62-.16.6-.16.18-.46,0,0,0,0-.06,0h0a.17.17,0,0,1,0-.09,3.41,3.41,0,0,1,.14-.65m4.85-2.36a4.58,4.58,0,0,0-.5,1.74.79.79,0,0,0,.4.63s0,.07,0,.09l-.15.08a1.58,1.58,0,0,1-.59.19.48.48,0,0,1-.4-.13,2.75,2.75,0,0,1-.55-1.65c.28.27.46.37.63.32s.24-.26.26-.42l0-.15a8.92,8.92,0,0,0,.38-1.61,1.53,1.53,0,0,1,.08-.47h0l0,0,.15.06a2.26,2.26,0,0,1,.25.95,1.21,1.21,0,0,1-.05.34m.59-2s.06.08.06.12v0a.5.5,0,0,1-.25.17.68.68,0,0,1-.58-.05h0l-.06,0c-.75-.29-.47-.21-.58.49,0,.09,0,.2-.05.3a9,9,0,0,1-.34,1.52l-.07.23v.05l-.29-.27L58.91,32A3.72,3.72,0,0,1,57.63,30a1.07,1.07,0,0,1,.3-.74.49.49,0,0,0,.24-.37v0c0-.22-.26-.34-.44-.42l-.08-.05a2.64,2.64,0,0,0-2,0,2.15,2.15,0,0,0-1.11,1.75h0a3,3,0,0,0,1.15,3,1.3,1.3,0,0,0-.16.44,2.51,2.51,0,0,1-.09.34c0,.15-.09.29-.12.44-.4-.63-1-1.58-1.14-1.91A4.06,4.06,0,0,1,54,28.88a2.63,2.63,0,0,1,1.31-1.19,2.42,2.42,0,0,1,1.77-.09,3.24,3.24,0,0,0,.94.31,2.69,2.69,0,0,0,1-.14,2.35,2.35,0,0,1,.53-.1,6.84,6.84,0,0,1,.75.26,3.6,3.6,0,0,0,.46.17H61a.93.93,0,0,1,.34,0h0a1,1,0,0,1-.14.29h0a1.3,1.3,0,0,0-.17.63.89.89,0,0,0,.19.57"/><path class="cls-1" d="M47.88,20a1.29,1.29,0,0,1,.9.17,1.37,1.37,0,0,0,.26.17c.05,0,.08.12-.09.16a2.69,2.69,0,0,0-.4.13.61.61,0,0,1-.49-.05c-.13-.08-.36-.29-.36-.39a.22.22,0,0,1,.18-.19"/><path class="cls-1" d="M20.39,21.57a4.39,4.39,0,0,0,.51.29c.29.12.33,0,.42-.29s-.09-.28-.19-.28-.41,0-.61,0c-.43,0-.22.21-.13.25"/></g></svg>