<svg xmlns="http://www.w3.org/2000/svg" viewBox="0 0 70 70"><title>logo</title><g id="IQOS"><path d="M36.29,29.57c-2.8,0-5.66.5-5.66,4.19V36c0,3.69,2.86,4.19,5.66,4.19h2.44c2.8,0,5.66-.5,5.66-4.19V33.76c0-3.69-2.86-4.19-5.66-4.19Zm-3.86,6.34v-2c0-2.32,1.33-2.8,3.34-2.8h3.48c2,0,3.34.48,3.34,2.8v2c0,2.32-1.33,2.8-3.34,2.8H35.77c-2,0-3.34-.48-3.34-2.8"/><path d="M15.09,29.57a.82.82,0,0,0-.91.81V36a3.87,3.87,0,0,0,1.07,3c1.08,1.06,2.86,1.26,4.62,1.26h6.49l2,2A.89.89,0,0,0,29.6,41L28,39.35V33.78a3.85,3.85,0,0,0-1.06-3c-1.08-1.06-2.86-1.26-4.62-1.26Zm1.73,8.55L16.7,38A2.73,2.73,0,0,1,16,36V31.09h7.21a3.66,3.66,0,0,1,2.11.58l.13.11a2.67,2.67,0,0,1,.68,2V38.7H18.93a3.54,3.54,0,0,1-2.11-.58"/><path d="M10.37,29.57h0a.83.83,0,0,0-.88.89v8.87a.83.83,0,0,0,.88.89h0a.83.83,0,0,0,.88-.89V30.46a.83.83,0,0,0-.88-.89h0"/><path d="M52.08,29.57c-4.16,0-5,1-5,2.63v.6c0,2,.93,2.78,3.31,2.78h5.21c2.09,0,2.26.61,2.26,1.48v.08c0,1.26-.33,1.58-3.3,1.58H50.66c-1,0-1.62-.14-1.91-.66a1.06,1.06,0,0,0-.94-.68.75.75,0,0,0-.85.72.37.37,0,0,0,0,.15c.16,1,.85,1.87,3.79,2h4.17c1.87,0,4.7,0,4.7-3v0c0-2.85-1.87-3.08-4.31-3.08H50.85c-1.69,0-2-.43-2-1.28v-.38c0-1.13.49-1.36,2.91-1.36H54.7c1.43,0,2.29,0,2.65.67l.06.13a.87.87,0,0,0,.87.55.76.76,0,0,0,.86-.72.74.74,0,0,0,0-.15c-.17-1.05-.92-1.95-4.23-2Z"/></g></svg>