<svg xmlns="http://www.w3.org/2000/svg" viewBox="0 0 70 70"><title>logo</title><g id="Layer_6" data-name="Layer 6"><path d="M35,38H5.26C5.05,38,5,37.91,5,37.7a6.59,6.59,0,0,0,0-.77c0-.1,0-.14.13-.13a.85.85,0,0,0,.16,0H64.76c.2,0,.25.05.24.24a6.77,6.77,0,0,0,0,.78c0,.11,0,.15-.15.14H35Z"/><path d="M12.76,31.43A1.75,1.75,0,0,1,13.91,31a1.69,1.69,0,0,1,1.08.37.2.2,0,0,0,.26,0,2.64,2.64,0,0,1,2-.31,1.46,1.46,0,0,1,1.15,1.36c.08,1,0,2.06,0,3.09,0,.09,0,.12-.11.12H17.16c-.15,0-.12-.1-.12-.18V33.07a1.76,1.76,0,0,0,0-.4c-.09-.46-.32-.65-.95-.52l-.08,0c-.43.16-.41.16-.4.62,0,.91,0,1.81,0,2.72,0,.12-.06.11-.14.11H14.39c-.13,0-.17,0-.17-.18V33.12c0-.12,0-.25,0-.37a.61.61,0,0,0-.85-.61l-.19.07a.58.58,0,0,0-.39.6c0,.87,0,1.74,0,2.62,0,.16-.05.19-.2.19h-1c-.11,0-.14,0-.14-.15V31.23c0-.13,0-.15.16-.15.29,0,.59,0,.89,0,.15,0,.26,0,.24.2C12.71,31.32,12.74,31.37,12.76,31.43Z"/><path d="M11.21,35.61H9.87c-.1,0-.12-.06-.15-.13-.13-.32-.27-.63-.39-1-.05-.1-.1-.15-.22-.14h-2c-.12,0-.17,0-.22.14-.12.32-.26.63-.39,1,0,.08-.06.13-.17.13H5c.15-.35.28-.69.42-1,.7-1.67,1.4-3.33,2.09-5,0-.12.1-.18.25-.17h.69c.14,0,.2,0,.26.17.78,1.89,1.58,3.79,2.37,5.68C11.12,35.38,11.16,35.49,11.21,35.61ZM8.86,33.23l-.73-1.91H8.08l-.72,1.9Z"/><path d="M31.45,35.36a1.65,1.65,0,0,1-.88.34,1.79,1.79,0,0,1-1.68-.85,2.65,2.65,0,0,1-.11-2.79,2.18,2.18,0,0,1,2.5-1l.11,0c0-.48,0-.95,0-1.43,0-.16,0-.21.2-.2h1c.15,0,.2,0,.2.19,0,1.71,0,3.43,0,5.15,0,.24,0,.49,0,.73s0,.13-.12.13h-1C31.55,35.61,31.55,35.61,31.45,35.36Zm-.06-2.13v-.89c0-.06,0-.12-.07-.16a1.2,1.2,0,0,0-1.15.19,1.52,1.52,0,0,0,0,2,.89.89,0,0,0,1.19,0,.25.25,0,0,0,.08-.21C31.39,33.83,31.39,33.53,31.39,33.23Z"/><path d="M58.22,33.1a1.23,1.23,0,0,1,.34,2.13,1.77,1.77,0,0,1-1.1.38h-3c-.13,0-.16,0-.16-.17q0-2.12,0-4.23c0-.14,0-.17.18-.17h2.78a1.71,1.71,0,0,1,1,.28A1,1,0,0,1,58.22,33.1Zm-2,1.75h.52a1.74,1.74,0,0,0,.81-.14.53.53,0,0,0,.33-.48.54.54,0,0,0-.33-.49,1.46,1.46,0,0,0-.68-.14H56s-.11,0-.1-.06a.81.81,0,0,1,.61-.62,4.61,4.61,0,0,0,.53,0c.37-.07.62-.28.63-.53s-.22-.49-.6-.55a11.07,11.07,0,0,0-1.52,0c-.11,0-.1.06-.1.13v2.81c0,.12,0,.14.15.14Z"/><path d="M25.13,31.44a2,2,0,0,1,.92-.44,1.6,1.6,0,0,1,2,1.39,7.12,7.12,0,0,1,0,1.13c0,.65,0,1.29,0,1.94,0,.12,0,.16-.15.16-.33,0-.67,0-1,0-.16,0-.21,0-.21-.2,0-.77,0-1.54,0-2.3a2.12,2.12,0,0,0,0-.44.7.7,0,0,0-1-.54l-.2.09a.54.54,0,0,0-.35.58c0,.88,0,1.75,0,2.62,0,.15,0,.19-.18.19H24c-.11,0-.16,0-.16-.15,0-1.42,0-2.83,0-4.24,0-.11,0-.15.15-.15a8.81,8.81,0,0,0,.89,0c.19,0,.26.05.27.23A.78.78,0,0,0,25.13,31.44Z"/><path d="M21.86,35.24a1.73,1.73,0,0,1-.89.43,1.59,1.59,0,0,1-2-1.42c-.1-.9,0-1.8,0-2.69,0-.15-.05-.36,0-.44s.3,0,.45,0,.47,0,.7,0,.21,0,.21.2c0,.85,0,1.69,0,2.54,0,.37.17.64.43.7a1.19,1.19,0,0,0,1-.26c.07-.06,0-.14,0-.21,0-.92,0-1.83,0-2.75,0-.19.06-.23.23-.22.34,0,.67,0,1,0,.1,0,.14,0,.14.13v4.28c0,.12-.05.13-.14.13h-.93c-.16,0-.22,0-.22-.19A.29.29,0,0,0,21.86,35.24Z"/><path d="M65,35.61c-.36,0-.7,0-1,0a.28.28,0,0,1-.3-.19c-.47-1.11-1-2.22-1.45-3.33a.51.51,0,0,0-.11-.18c-.16.33-.31.66-.46,1s-.23.5-.36.75,0,.18.11.18h1.4a1.39,1.39,0,0,1-.3.55.64.64,0,0,1-.47.22H61a.23.23,0,0,0-.25.16c-.1.26-.23.51-.33.76a.15.15,0,0,1-.18.11h-.93c-.12,0-.13,0-.08-.13l2.07-4.34a.16.16,0,0,1,.17-.1h1.31a.15.15,0,0,1,.16.09c.67,1.48,1.35,3,2,4.45C65,35.58,65,35.59,65,35.61Z"/><path d="M49.08,35.61H47.94c-.12,0-.14-.07-.17-.15-.5-1.13-1-2.27-1.49-3.4,0,0,0-.09-.07-.14s-.08.12-.11.18c-.25.51-.48,1-.73,1.53-.07.14-.07.19.11.19h1.25c.11,0,.15,0,.09.14a.82.82,0,0,1-.93.63h-.81a.18.18,0,0,0-.21.13l-.34.78c0,.07-.06.12-.16.11H43.28l.52-1.08c.53-1.11,1.06-2.21,1.58-3.33a.26.26,0,0,1,.27-.16c.41,0,.81,0,1.21,0,.1,0,.16,0,.2.11l2,4.38A.28.28,0,0,0,49.08,35.61Z"/><path d="M53.64,32.24A4.24,4.24,0,0,0,52,31.89a2.16,2.16,0,0,0-.62.09,1.38,1.38,0,0,0-1,1.56,1.42,1.42,0,0,0,1.22,1.24,4.38,4.38,0,0,0,1.8-.13c.27-.06.27-.06.27.21v0c0,.54,0,.55-.52.67a4.23,4.23,0,0,1-2.44,0A2.26,2.26,0,0,1,49,33.36a2.32,2.32,0,0,1,1.64-2.19,4.18,4.18,0,0,1,2.45,0c.18,0,.42.05.51.16s0,.36,0,.54Z"/><path d="M39.73,30.06v5.36c0,.16,0,.22-.2.19h0c-.16,0-.36.07-.47,0s0-.3,0-.45-.06-.15-.14-.19l-1.25-.59a.26.26,0,0,1-.18-.28V31.53a.25.25,0,0,1,.15-.26ZM39,31.22l-.94.53c-.07,0-.05.1-.05.16v1.82c0,.05,0,.11,0,.14l1,.46Z"/><path d="M40.88,31.23v3.09l1.55-.74c0,.21,0,.4,0,.58s-.07.13-.14.17l-1.23.58a.3.3,0,0,0-.2.31c0,.39,0,.39-.38.39s-.34,0-.34-.35v-5c0-.22,0-.22.2-.11l1.94,1.1a.24.24,0,0,1,.15.25q0,.69,0,1.38a.23.23,0,0,1-.16.26c-.13.05-.26.12-.41.19,0-.49,0-1,0-1.41a.24.24,0,0,0-.14-.23Z"/><path d="M34.85,33.35v2.1c0,.13,0,.17-.16.17h-1c-.13,0-.15,0-.15-.16V31.22c0-.11,0-.14.14-.14.36,0,.71,0,1.07,0,.12,0,.15,0,.15.15Z"/><path d="M34.17,30.78a.74.74,0,1,1,0-1.47A.73.73,0,0,1,35,30,.73.73,0,0,1,34.17,30.78Z"/><path d="M29.93,39.94a3.08,3.08,0,0,0-.29.62s0,.11-.11.11-.1-.05-.12-.11-.17-.38-.27-.63a1.56,1.56,0,0,0,0,.56c0,.16-.08.16-.19.16s-.19,0-.19-.16c0-.39,0-.77,0-1.15,0-.06-.06-.19.07-.18s.29-.1.36.09.19.45.29.68c0,0,0,.08.06.09s.06-.06.08-.1c.09-.22.17-.44.25-.66s.25-.09.37-.1.08.11.08.18c0,.38,0,.77,0,1.16,0,.18-.1.15-.2.15s-.2,0-.18-.15S29.93,40.17,29.93,39.94Z"/><path d="M19.82,40c.09-.23.2-.46.28-.71s.24-.16.38-.15.07.14.07.22c0,.36,0,.72,0,1.09,0,.14,0,.18-.18.19s-.18-.07-.18-.2a1.7,1.7,0,0,0,0-.45,1.54,1.54,0,0,0-.24.48c0,.06,0,.18-.15.18s-.11-.12-.15-.19a1.15,1.15,0,0,0-.28-.47c0,.17,0,.35,0,.52s-.1.12-.19.12-.18,0-.18-.12c0-.4,0-.8,0-1.19,0-.06-.06-.19.07-.18s.29-.11.37.11.21.51.32.76Z"/><path d="M23.47,39.89c0-.2,0-.4,0-.59s.11-.14.2-.15.19,0,.18.15c0,.39,0,.77,0,1.15,0,.07.07.19-.06.19s-.25.07-.34-.07-.25-.41-.37-.61a.25.25,0,0,0-.14-.12c0,.24,0,.46,0,.68s-.11.13-.2.13-.2,0-.19-.13q0-.62,0-1.23c0-.1,0-.14.13-.14a.36.36,0,0,1,.41.21A1.49,1.49,0,0,0,23.47,39.89Z"/><path d="M33,39.91c0-.18,0-.37,0-.55s0-.21.19-.22.19.09.19.23c0,.36,0,.71,0,1.07,0,.07.06.19,0,.2s-.27.07-.37-.09-.23-.39-.35-.58l-.14-.16c0,.27,0,.48,0,.7s-.11.14-.21.14-.19,0-.18-.14c0-.41,0-.81,0-1.21,0-.11,0-.15.14-.15a.35.35,0,0,1,.39.21c.1.19.23.38.34.56Z"/><path d="M27,40.24c0,.42,0,.44-.46.45s-.69-.13-.8-.48a.78.78,0,0,1,.54-1.08.65.65,0,0,1,.64.23c0,.06.05.1,0,.13s-.21.17-.34,0-.28-.06-.38.07a.71.71,0,0,0,0,.69.41.41,0,0,0,.36.14c.08,0,.1,0,.09-.12s0-.15-.08-.14-.12-.09-.12-.18.1-.08.17-.09h0C27,39.86,27,39.86,27,40.24Z"/><path d="M12.82,40.65h-.3c-.08,0-.12,0-.14-.1s-.11-.16-.23-.15h-.27a.13.13,0,0,0-.12.05c-.15.21-.15.21-.46.19l.39-1,.11-.26c.08-.21.15-.25.38-.21.07,0,.08.05.1.1Zm-.77-1-.14.37s0,.09,0,.1a.53.53,0,0,0,.25,0c.07,0,0-.1,0-.15Z"/><path d="M22.33,40.65H22c-.07,0-.12,0-.13-.09s-.13-.17-.26-.16h-.26a.11.11,0,0,0-.1,0c-.19.22-.19.22-.47.2l.56-1.43c.05-.12.17,0,.26-.06a.13.13,0,0,1,.16.08C22,39.7,22.14,40.16,22.33,40.65Zm-.78-.54c.06,0,.18,0,.16-.07s0-.34-.16-.34-.14.22-.16.34S21.5,40.09,21.55,40.11Z"/><path d="M24.09,40.65c.19-.49.37-.95.54-1.42a.13.13,0,0,1,.16-.08c.09,0,.21-.06.26.07.19.46.37.93.56,1.42-.2,0-.41.11-.48-.18,0-.05,0-.06-.09-.06h-.39s-.09,0-.1.05C24.5,40.73,24.29,40.64,24.09,40.65Zm.74-.54c.05,0,.19.06.16-.08s-.06-.36-.14-.35-.14.23-.17.36S24.77,40.09,24.83,40.11Z"/><path d="M15.8,39.9c0-.2,0-.4,0-.6s0-.15.14-.15h.79c.13,0,.14.05.14.15s0,.18-.15.17-.24,0-.36,0-.18,0-.18.15.1.14.19.14h.2c.11,0,.18,0,.18.15s-.07.16-.18.15h-.2c-.09,0-.19,0-.19.14s.09.15.2.15h.4c.13,0,.13.06.13.15s0,.17-.13.16h-.85c-.1,0-.13,0-.13-.12S15.8,40.11,15.8,39.9Z"/><path d="M27.34,39.9v-.63c0-.09,0-.12.11-.12h.83c.12,0,.13.05.12.14s0,.18-.11.17h-.44c-.11,0-.14,0-.14.15s.05.15.15.14h.24c.11,0,.17,0,.18.16s-.08.15-.19.14a1.61,1.61,0,0,1-.22,0c-.11,0-.17,0-.17.15s.07.15.18.14h.45c.13,0,.12.07.12.15s0,.16-.11.16h-.89c-.09,0-.11,0-.11-.12Z"/><path d="M30.68,39.9c0-.21,0-.41,0-.62s0-.13.13-.13h.8c.12,0,.13.05.13.15s0,.18-.14.17-.24,0-.36,0-.18,0-.18.15.09.14.19.14h.19c.11,0,.18,0,.18.15s-.06.16-.17.15h-.22c-.1,0-.17,0-.17.14s.06.16.18.15h.43c.13,0,.11.08.11.15s0,.17-.11.16h-.89c-.09,0-.1,0-.1-.12Z"/><path d="M14.35,40.44c.11-.11.22-.26.4-.09a.2.2,0,0,0,.15,0c.09,0,.2,0,.23-.1s-.07-.17-.17-.21a2.79,2.79,0,0,1-.37-.14.37.37,0,0,1-.24-.37.39.39,0,0,1,.26-.38.71.71,0,0,1,.86.18l-.14.11c-.06.06-.12.09-.19,0l-.08,0c-.12,0-.27-.08-.33.07s.1.17.2.21l.26.09a.45.45,0,0,1,.32.43.43.43,0,0,1-.36.42A.73.73,0,0,1,14.35,40.44Z"/><path d="M13,40.44c.13-.12.25-.25.43-.08a.19.19,0,0,0,.13,0c.09,0,.2,0,.23-.1s-.07-.17-.17-.21a2.5,2.5,0,0,1-.38-.15.37.37,0,0,1-.23-.36.41.41,0,0,1,.22-.37.72.72,0,0,1,.89.17c-.11.11-.21.25-.39.07s-.13,0-.21,0-.11,0-.13.09a.13.13,0,0,0,.08.16l.35.13a.46.46,0,0,1,.35.47.45.45,0,0,1-.39.41A.77.77,0,0,1,13,40.44Z"/><path d="M17.5,40.07a2.41,2.41,0,0,1,0-.38c0-.19-.06-.24-.24-.23s-.21,0-.2-.14,0-.18.18-.17h.93c.13,0,.13.06.13.16s0,.18-.13.16h-.08c-.19,0-.23.06-.22.23s0,.5,0,.75,0,.21-.18.21-.21-.06-.2-.22A2.29,2.29,0,0,0,17.5,40.07Z"/><path d="M34.23,39.15h.49c.13,0,.12.07.12.15s0,.18-.12.16h-.14c-.13,0-.16,0-.16.16,0,.3,0,.6,0,.89s-.1.14-.19.14-.21,0-.2-.13,0-.53,0-.8,0-.25-.26-.26c-.09,0-.18,0-.18-.12s0-.21.18-.19Z"/></g></svg>