<svg xmlns="http://www.w3.org/2000/svg" viewBox="0 0 70 70"><defs><style>.cls-1{fill:#030303;}</style></defs><title>logo</title><g id="Nabu"><path class="cls-1" d="M52.19,50.27l-.81-.18a2.12,2.12,0,0,1-1.74-2.19,11.29,11.29,0,0,1,.26-2.17c.2-1.27.43-2.55.63-3.83,0-.15.07-.21.23-.21.72,0,1.43,0,2.14,0,.18,0,.2.07.18.22l-.54,3.31c-.11.67-.21,1.34-.31,2a2.67,2.67,0,0,0,0,.4.9.9,0,0,0,.76.91,2.81,2.81,0,0,0,1.41,0,1.55,1.55,0,0,0,1-.94,8.35,8.35,0,0,0,.36-1.72c.22-1.32.44-2.65.64-4,0-.15.07-.2.22-.2q1.08,0,2.16,0c.14,0,.2,0,.17.19-.32,1.82-.54,3.66-.94,5.46a3.41,3.41,0,0,1-3.12,2.84,1.15,1.15,0,0,0-.44.09Z"/><path class="cls-1" d="M38.76,33.86a9.87,9.87,0,0,0,1.11,1.81c.05.06.16.14.1.21s-.19,0-.28,0a3,3,0,0,1-.57-.56,9.47,9.47,0,0,1-.74-1c0-.06-.05-.15-.17-.16a3.35,3.35,0,0,0,.46,1.12l.36.57s.09.08,0,.14-.11,0-.16,0a1.15,1.15,0,0,1-.52-.43,6.14,6.14,0,0,1-.51-.81.54.54,0,0,0-.16-.22,1,1,0,0,0,.1.63,1.08,1.08,0,0,0,.08.19c0,.07,0,.13,0,.17s-.12,0-.16-.05a1.36,1.36,0,0,1-.24-.35A2.62,2.62,0,0,0,35,33.57c-.61,0-1.22,0-1.83,0a16.17,16.17,0,0,1-4.41-.9c-.3-.1-.35-.08-.37.25a9.32,9.32,0,0,1-.1,1.05,2.25,2.25,0,0,1-.14.44.71.71,0,0,1-.78.44c-.43,0-.85-.12-1.27-.19-.1,0-.19,0-.16-.17s.07-.2.21-.18l.89.13c.68.11.77.06.89-.62a6.68,6.68,0,0,0,.13-1.2c-.14,0-.2.14-.31.18-.09-.36-.07-.41.2-.63A13,13,0,0,0,30,30a4,4,0,0,0,.62-1.25,2.7,2.7,0,0,1,.79-1.23c.29-.3.58-.59.88-.87a3.69,3.69,0,0,1,1.18-.61.8.8,0,0,0,.51-.72c0-.14,0-.2-.16-.16a.82.82,0,0,1-.55-.07c-.16-.08-.24,0-.29.15a6.86,6.86,0,0,1-1.56,1.83,2.47,2.47,0,0,1-2.8.5,10.59,10.59,0,0,1-2.92-1.84c-.42-.35-.85-.69-1.24-1.07a3.47,3.47,0,0,0-1.64-.86,5.66,5.66,0,0,1-1.55-.57,2.14,2.14,0,0,0-.42-.16.32.32,0,0,0-.4.14.31.31,0,0,1-.4.14c-.21-.07-.31,0-.34.23a.85.85,0,0,0,.46.9,4.34,4.34,0,0,0,1.35.43,2.33,2.33,0,0,1,1.51,1,14.1,14.1,0,0,0,2.19,2.68c.36.32.74.61,1.11.91.11.08.16,0,.23,0a3.51,3.51,0,0,0,.81-1.17,1.46,1.46,0,0,1-.18.89,4.36,4.36,0,0,1-.93,1.16,19.19,19.19,0,0,1-2.22,1.7c-.27.19-.28.25-.07.51s.28.38.43.56a.21.21,0,0,1,0,.28c-.06.1-.11.13-.2,0-.25-.32-.51-.62-.76-.93a.35.35,0,0,1,.09-.57c.45-.32.93-.59,1.36-.93,0,0,0-.05-.05-.06a20.06,20.06,0,0,1-4.51-3.48,12.65,12.65,0,0,0-1.67-1.35,1.56,1.56,0,0,0-1.39-.28.83.83,0,0,1-.56,0c-.05,0-.13,0-.12-.11s.08-.09.13-.1l.48-.11a.64.64,0,0,0,.36-.19h-.91a2.58,2.58,0,0,1-.83-.14c-.1,0-.27-.06-.25-.2s.18-.08.29-.08a5.79,5.79,0,0,0,1.1-.05,3,3,0,0,0,.63-.17c-.39,0-.78,0-1.17-.06a3.4,3.4,0,0,1-1.17-.28c-.07,0-.18,0-.17-.14s.13-.05.2-.05a13.49,13.49,0,0,0,2,0,.78.78,0,0,0,.33-.07A6,6,0,0,1,15,23.35a.29.29,0,0,1-.15-.24.88.88,0,0,1,.48,0,7.9,7.9,0,0,0,2.58.23,4.23,4.23,0,0,0-.84-.26,6,6,0,0,1-1.82-.84c-.14-.09-.31-.22-.24-.36s.25,0,.38.05a17.88,17.88,0,0,0,2.59.76.66.66,0,0,0,.14,0c0-.12-.1-.12-.16-.14a7.62,7.62,0,0,1-1.89-1.16,2.75,2.75,0,0,1-.54-.59,1.15,1.15,0,0,1-.12-.25c0-.09-.08-.21,0-.28s.18,0,.25.09a15.06,15.06,0,0,0,2.26,1.42l.17.07s0,0,.1,0c-.13-.11-.23-.21-.35-.3a5,5,0,0,1-1.06-1.19,1.28,1.28,0,0,1-.21-.46c0-.06,0-.14,0-.18s.13,0,.19.06l.12.11a16.71,16.71,0,0,0,6.64,3.77,4.06,4.06,0,0,1,1.35.87,24.59,24.59,0,0,0,2.24,1.81,7.48,7.48,0,0,0,2.08,1,1.77,1.77,0,0,0,1.62-.3,8.18,8.18,0,0,0,1.78-1.84l.06-.1a.91.91,0,0,1,1.48-.32.45.45,0,0,0,.42,0c.84-.3,1.69-.58,2.54-.87.08,0,.15-.09.24,0s-.11.11-.17.15l-3.37,2.17a.51.51,0,0,1-.16.09,4.82,4.82,0,0,0-2.25,1.84l-.26.35a8.35,8.35,0,0,0,2.06.54,16,16,0,0,0,3.32.11.8.8,0,0,1,.54.18,19.36,19.36,0,0,0,3.29,2.07,9.86,9.86,0,0,0,2.39.79s.14,0,.14.07-.08.09-.14.11a2.15,2.15,0,0,1-1,0,5.84,5.84,0,0,1-1.23-.31c-.07,0-.14-.07-.23,0a8.37,8.37,0,0,0,2,1.07l.7.27c.1,0,.19.1.17.22s-.13.11-.23.12a3.87,3.87,0,0,1-2-.51,10.17,10.17,0,0,1-1.14-.66c0,.13.05.17.1.23a19.32,19.32,0,0,0,1.87,1.63.31.31,0,0,1,.09.07c.07.09.27.12.2.25s-.23.06-.36,0a2.48,2.48,0,0,1-.82-.39,9.49,9.49,0,0,1-1.31-1.06l-.2-.17c0,.12,0,.18.06.24a10.78,10.78,0,0,0,1.54,1.89c.06.06.21.13.14.23s-.22.05-.33,0a2.67,2.67,0,0,1-.89-.63,11.33,11.33,0,0,1-1-1.1s0-.08-.07,0S38.73,33.84,38.76,33.86ZM29.92,30.7l.39.12a9.46,9.46,0,0,0,3.69.5c.35-.05.71-.06,1.07-.11a1.85,1.85,0,0,1,1.65.5.87.87,0,0,0,1.14.06.34.34,0,0,0,.1-.58.28.28,0,0,1-.06-.36c.12-.26.09-.37-.14-.54s-.62-.44-.93-.66a.57.57,0,0,0-.42-.1c-.3,0-.61,0-.91,0a12.6,12.6,0,0,1-4.35-.66c-.17-.06-.21,0-.26.14a4.65,4.65,0,0,1-.63,1.21C30.16,30.41,30,30.54,29.92,30.7Zm9.72,1.87-.06,0,.05,0,0,0Zm-.4.6-.06,0,0,0,.06,0Z"/><path class="cls-1" d="M22.2,44.41c-.05.33-.08.66-.13,1-.23,1.52-.45,3-.67,4.55,0,.13-.07.19-.22.19h-2c-.16,0-.18,0-.16-.19q.66-4,1.3-8c0-.21.11-.28.34-.28,1.05,0,2.11,0,3.16,0,.12,0,.2,0,.24.15.48,1.73,1,3.44,1.4,5.2a1.21,1.21,0,0,0,.1.42,4.06,4.06,0,0,0,.15-.82c.23-1.59.49-3.19.75-4.79,0-.14.09-.17.21-.16.66,0,1.32,0,2,0,.22,0,.25.07.22.26-.17.93-.33,1.87-.49,2.81-.29,1.7-.59,3.4-.87,5.11,0,.2-.09.27-.31.27-1,0-2,0-3,0-.2,0-.29,0-.34-.25-.54-1.78-1.07-3.55-1.47-5.37a1,1,0,0,0,0-.1Z"/><path class="cls-1" d="M39.3,50.13c.24-1.47.47-2.92.71-4.37l.63-3.86c0-.15.06-.21.22-.21,1.54,0,3.08,0,4.62,0a5.64,5.64,0,0,1,1.57.28,1.43,1.43,0,0,1,1,1.87,2.17,2.17,0,0,1-1.87,1.7l-.43.07c.34.06.61.1.87.17a1.47,1.47,0,0,1,1.26,1.25A2.37,2.37,0,0,1,47,49.33a4.11,4.11,0,0,1-1.91.71,10.21,10.21,0,0,1-1.66.09H39.3Zm4.18-3.48h-.87c-.12,0-.16,0-.18.16-.07.49-.14,1-.23,1.46,0,.15,0,.18.17.18h1.36a3.16,3.16,0,0,0,.81-.11.9.9,0,0,0,.74-.87c0-.37-.29-.63-.78-.74A4.53,4.53,0,0,0,43.48,46.65ZM44,43.41h-.8c-.11,0-.16,0-.18.15-.06.4-.14.8-.22,1.19,0,.13,0,.19.14.19.5,0,1,0,1.48,0a1.22,1.22,0,0,0,.74-.25.82.82,0,0,0,.3-.82c-.06-.29-.33-.35-.58-.4A4.46,4.46,0,0,0,44,43.41Z"/><path class="cls-1" d="M28.85,50.13c.34-.68.65-1.33,1-2q1.53-3.12,3-6.25a.33.33,0,0,1,.34-.21q1.56,0,3.12,0c.15,0,.23,0,.25.21.25,1.68.52,3.36.78,5,.15,1,.3,2,.46,2.92,0,.2,0,.29-.23.28-.75,0-1.5,0-2.25,0-.19,0-.24,0-.25-.24,0-.47-.08-.94-.11-1.4,0-.14,0-.19-.19-.19H32.52a.22.22,0,0,0-.23.15c-.2.51-.41,1-.62,1.52a.21.21,0,0,1-.22.16ZM33,46.61c.54,0,1.05,0,1.55,0,.2,0,.25,0,.23-.25-.09-1-.16-2-.24-3a.45.45,0,0,0-.09-.31C34,44.3,33.56,45.44,33,46.61Z"/><path class="cls-1" d="M12.23,50.11H11.17c-.13,0-.18,0-.17-.18a9.16,9.16,0,0,1,.3-1.63,28.44,28.44,0,0,1,5.8-11.54,24.75,24.75,0,0,1,2.77-2.84c.09-.09.15-.09.24,0,.4.37.8.74,1.22,1.1.12.12.11.17,0,.29a26.27,26.27,0,0,0-4.72,5.73A25.65,25.65,0,0,0,14,47.74c-.19.72-.36,1.44-.49,2.17,0,.15-.08.22-.25.21C12.9,50.1,12.56,50.11,12.23,50.11Z"/><path class="cls-1" d="M42.08,30.11c.16-.3.33-.56.47-.84s.18-.21.36-.14a20.09,20.09,0,0,1,3.28,1.64,21.38,21.38,0,0,1,7.65,8.17.2.2,0,0,1,0,.13c-.16.08-.21-.06-.26-.15a21.4,21.4,0,0,0-3.51-4.2,21,21,0,0,0-7.81-4.54Z"/><path class="cls-1" d="M26.1,31.44a1.45,1.45,0,0,1-.09,1c-.39.64-.79,1.27-1.24,1.87,0,0-.12.09-.06.15s.12,0,.15-.06l1.47-1.35c.25-.24.52-.47.78-.71.15.38.14.45-.15.71-1.38,1.27-2.8,2.49-4.2,3.73l-.09.06v-.76c0-.08,0-.11.09-.15a16.64,16.64,0,0,0,3.29-4.44Zm-1.45,3.13,0,0-.06,0s0,0,0,0S24.63,34.58,24.65,34.57Z"/><path class="cls-1" d="M39.64,32.57l0,0,0,0-.05,0Z"/><path class="cls-1" d="M39.24,33.17l0,0-.06,0,0,0Z"/><path class="cls-1" d="M38.76,33.86s-.06-.06,0-.09,0,0,.07,0Z"/><path class="cls-1" d="M24.65,34.57s0,0,0,0-.05,0,0,0l.06,0Z"/></g></svg>