<svg xmlns="http://www.w3.org/2000/svg" viewBox="0 0 70 70"><defs><style>.cls-1{fill:#1b1c20;}</style></defs><title>logo</title><g id="patchi"><path class="cls-1" d="M39.26,24.94H36.74v-4.8a2.48,2.48,0,0,1,1.37-2.43,2.63,2.63,0,0,1,3.64,2.66c0,1.43-1.09,2.62-3,2.62h-1v1.24h1.56a3.86,3.86,0,0,0,4-3.73v-.15c0-2.82-1.77-4.13-4.27-4.13a3.59,3.59,0,0,0-3.68,3.43V23h-.85V19.65a3.6,3.6,0,0,0-3.68-3.43c-2.5,0-4.27,1.31-4.27,4.13a3.86,3.86,0,0,0,3.83,3.88H33v.46h0v1.73h0V29a2.47,2.47,0,0,1-1.37,2.43,2.63,2.63,0,0,1-3.44-1.39A2.56,2.56,0,0,1,28,28.77c0-1.42,1.09-2.61,3-2.61h1V24.94H30.48a3.85,3.85,0,0,0-4,3.72.75.75,0,0,0,0,.15c0,2.83,1.76,4.13,4.27,4.13a3.6,3.6,0,0,0,3.68-3.43V26.2h.84v3.31A3.6,3.6,0,0,0,39,32.94c2.5,0,4.27-1.31,4.27-4.13a3.86,3.86,0,0,0-3.83-3.88ZM33,20.14V23H31a2.71,2.71,0,0,1-3-2.62,2.62,2.62,0,0,1,2.36-2.86,2.66,2.66,0,0,1,1.28.2A2.49,2.49,0,0,1,33,20.14ZM35.29,25h-.85v-.72h.85Zm2.82,6.49A2.48,2.48,0,0,1,36.74,29V26.18h2c1.91,0,3,1.18,3,2.61a2.6,2.6,0,0,1-2.33,2.86,2.55,2.55,0,0,1-1.31-.2Z"/><path class="cls-1" d="M9,53.56H6.89V43.24A6.35,6.35,0,0,1,8.35,38.8a5,5,0,0,1,3.9-1.6,5.28,5.28,0,0,1,3.84,1.5,5.36,5.36,0,0,1,.12,7.43,5.14,5.14,0,0,1-3.76,1.42H9.85V45.7h2.31a3.26,3.26,0,0,0,2.39-.87,3.13,3.13,0,0,0,.88-2.36,3.32,3.32,0,0,0-.9-2.39,3.06,3.06,0,0,0-2.34-.93,2.77,2.77,0,0,0-2.31,1.07A4.61,4.61,0,0,0,9,43.16V53.57Z"/><path class="cls-1" d="M30.39,53.56H28.46V48.78a4.81,4.81,0,0,0-1-3.24,3.45,3.45,0,0,0-2.75-1.21A3.62,3.62,0,0,0,22,45.44a3.68,3.68,0,0,0-1.09,2.69A3.62,3.62,0,0,0,22,50.8a3.68,3.68,0,0,0,2.69,1.08,4.51,4.51,0,0,0,2.94-1.32v2a4.47,4.47,0,0,1-3.18,1.18,5.27,5.27,0,0,1-3.92-1.64,5.74,5.74,0,0,1,4.14-9.73,5.37,5.37,0,0,1,4.06,1.69,5.91,5.91,0,0,1,1.61,4.28v5.18Z"/><path class="cls-1" d="M34.38,44.37v5.11a2.66,2.66,0,0,0,.5,1.89,3.15,3.15,0,0,0,2,.48h.93v1.71h-1a5.13,5.13,0,0,1-3.44-.87,4.22,4.22,0,0,1-.93-3.15V39.36h1.92v3.33h3.48v1.68Z"/><path class="cls-1" d="M46.3,51.85v1.71H44.87a7.53,7.53,0,0,1-2.58-.36,6.12,6.12,0,0,1-2.2-1.6,4.86,4.86,0,0,1-1.2-3.51,5.62,5.62,0,0,1,.55-2.35,6.16,6.16,0,0,1,1.74-2.12,5.5,5.5,0,0,1,3.52-1h1.58v1.69H45.15a4.47,4.47,0,0,0-3.12,1,3.58,3.58,0,0,0-1.16,2.8A3.39,3.39,0,0,0,42,50.89a4.58,4.58,0,0,0,3.1,1h1.2Z"/><path class="cls-1" d="M57.88,53.56H56V47.64q0-3.35-2.65-3.35a2.57,2.57,0,0,0-2.13,1,4.41,4.41,0,0,0-.8,2.77v5.48H48.45V37.49h1.92v6.78a3.8,3.8,0,0,1,3.45-1.88,3.68,3.68,0,0,1,3,1.31,5.22,5.22,0,0,1,1.11,3.48Z"/><path class="cls-1" d="M61.72,38a1.4,1.4,0,0,1,1.4,1.4h0a1.4,1.4,0,0,1-1.4,1.43,1.41,1.41,0,0,1-1-.41,1.4,1.4,0,0,1-.41-1,1.33,1.33,0,0,1,.41-1A1.37,1.37,0,0,1,61.72,38Zm1,15.52H60.78V42.62h1.93Z"/></g></svg>