<svg xmlns="http://www.w3.org/2000/svg" viewBox="0 0 70 70"><title>logo</title><g id="yeraz"><path d="M35.76,10.5A9,9,0,0,1,39.65,15a10.33,10.33,0,0,1,1,4.49V29.7c0,.84-.45,1.15-1.28,1a7.71,7.71,0,0,1-4.07-1.84c-.26-.22-.42-.08-.6.07a7.39,7.39,0,0,1-3.36,1.66,7.63,7.63,0,0,1-1.07.13.81.81,0,0,1-.84-.83c0-3.65-.1-7.3,0-10.94a10.6,10.6,0,0,1,4-8,6,6,0,0,1,.93-.52Zm2.39,8.31A3.06,3.06,0,0,0,35,15.62a3.1,3.1,0,0,0-3.16,3.13,3.15,3.15,0,1,0,6.29.06Z"/><path d="M53.46,54.55a3.37,3.37,0,0,1-.84.55c-.51.14-.88-.15-1.22-.82H47.14c-.19.44-.43.85-1,.85A1,1,0,0,1,45,54.06c0-.49,0-1,0-1.48,0-.76.33-1.25.91-1.35s1,.24,1.24.92a3.64,3.64,0,0,0,4-3.78,1.75,1.75,0,0,0-1.76-1.72,1.8,1.8,0,0,0-1.78,1.73,1.11,1.11,0,0,1-.64,1,.94.94,0,0,1-1.06-.14,1.2,1.2,0,0,1-.39-1.16,3.93,3.93,0,0,1,4.36-3.53,4,4,0,0,1,3.37,4.55,6.36,6.36,0,0,1-1.1,2.78l-.2.3a2.14,2.14,0,0,1,1.56,1.3Z"/><path d="M16.54,45.13a1.29,1.29,0,0,1,1.07-.57,1,1,0,0,1,.93.9c0,.42,0,.85,0,1.32l.59,0h3.95a1,1,0,0,1,1.05.64,1.55,1.55,0,0,1-.11,1,.92.92,0,0,1-1,.45H18.51a22.22,22.22,0,0,0,.22,3,1.66,1.66,0,0,0,2,1.14,1.79,1.79,0,0,0,1.41-1.73,1.08,1.08,0,0,1,.81-1,1,1,0,0,1,1.14.54,2,2,0,0,1,.1,1.06,3.88,3.88,0,0,1-7.58.42,1.89,1.89,0,0,0-.09-.21Z"/><path d="M34.05,48.57V45.72a1,1,0,0,1,1-1.16,1.07,1.07,0,0,1,1.07,1.15v5.51a1.77,1.77,0,1,0,3.53,0V45.71a1.11,1.11,0,0,1,.79-1.12,1,1,0,0,1,1.18.48,1.43,1.43,0,0,1,.15.64c0,2,0,4-.07,6a1,1,0,0,0,.56,1.06,3.6,3.6,0,0,1,.95.83.92.92,0,0,1-.21,1.2,1,1,0,0,1-1.18.18,8,8,0,0,1-1-.66.41.41,0,0,0-.61,0,3.84,3.84,0,0,1-6.17-2.57,24.85,24.85,0,0,1,0-3.23Z"/><path d="M25.3,51.07c0-.92,0-1.84,0-2.76a3.6,3.6,0,0,1,2.19-3.38,3.63,3.63,0,0,1,3.94.39,3.74,3.74,0,0,1,1.58,3,1.07,1.07,0,0,1-1,1.15,1.1,1.1,0,0,1-1.1-1.12,1.78,1.78,0,0,0-1.48-1.72,1.76,1.76,0,0,0-2,1.2,2,2,0,0,0-.09.69c0,1.78,0,3.55,0,5.33,0,.83-.4,1.27-1.13,1.25a.92.92,0,0,1-.94-1C25.29,53.13,25.3,52.1,25.3,51.07Z"/><path d="M35,38.57a2.45,2.45,0,0,1-2.47-3A20.66,20.66,0,0,1,33.82,32a1.28,1.28,0,0,1,2.32,0,22.16,22.16,0,0,1,1.33,3.71A2.44,2.44,0,0,1,35,38.57Z"/></g></svg>