<svg xmlns="http://www.w3.org/2000/svg" viewBox="0 0 70 70"><defs><style>.cls-1{fill:none;}.cls-1,.cls-2{stroke:#000;stroke-miterlimit:10;stroke-width:0.25px;}</style></defs><title>logo</title><g id="mikro_Kapital" data-name="mikro Kapital"><path class="cls-1" d="M38.46,35.65a5.25,5.25,0,0,1-2.29,1.44,14,14,0,0,1,.14,2.54l2.06-2.07c0-.69.09-1.74.09-1.74v-.17"/><path class="cls-2" d="M38.36,37.56,36.3,39.62a18.75,18.75,0,0,1-.2,2.26h2.36c0-.08,0-.93,0-.93s0-.56,0-.56c0-.5-.06-1.86-.08-2.42,0-.11,0-.25,0-.41"/><path class="cls-1" d="M33.44,37.93l-2.16,2.14c0,.13,0,.23,0,.32s0,.49,0,.56,0,.85,0,.93H33.6a17.64,17.64,0,0,1-.16-4"/><path class="cls-2" d="M33.44,37.93q0-.42.09-.84a5.24,5.24,0,0,1-2.29-1.43,1.6,1.6,0,0,0,0,.17s.1,1.58.09,2.14,0,1.49-.06,2.11Z"/><path d="M8.83,37.92c.42.81.87,1.64,1.34,2.5l.26-.5c.12-.21.25-.46.4-.74s.31-.58.49-.9.35-.66.53-1,.35-.66.53-1l.49-.9H13c.07.58.13,1.15.19,1.69l.18,1.6.18,1.56c.06.51.13,1,.2,1.52l-.21,0h-.43l-.21,0c-.07-.81-.14-1.59-.2-2.35s-.15-1.53-.25-2.32h0c-.41.77-.83,1.52-1.23,2.28s-.79,1.55-1.15,2.37H10c-.37-.76-.74-1.53-1.14-2.3s-.8-1.55-1.2-2.35h0c0,.38-.09.78-.14,1.22s-.1.88-.14,1.3-.08.84-.11,1.21,0,.7,0,.94l-.32,0H6.52l.25-1.55L7,38.57c.08-.55.16-1.09.22-1.63s.12-1,.17-1.53h.16c.42.86.84,1.69,1.27,2.51"/><path d="M15.1,39.16c0-.28,0-.56,0-.86s0-.58-.06-.85a2.63,2.63,0,0,0,.41,0,2.5,2.5,0,0,0,.41,0c0,.27-.05.55-.06.85s0,.58,0,.86v1c0,.27,0,.56,0,.86s0,.57.06.81l-.41,0-.41,0q0-.36.06-.81c0-.3,0-.59,0-.86ZM15,35.87a.45.45,0,0,1,.14-.33.47.47,0,0,1,.66.66.47.47,0,0,1-.8-.33"/><path d="M17.46,36.86c0-.24,0-.48,0-.72s0-.46,0-.68a4.33,4.33,0,0,0,0-.55,2.51,2.51,0,0,0,.41,0,2.33,2.33,0,0,0,.41,0c0,.15,0,.34,0,.55s0,.44,0,.68,0,.48,0,.72,0,.47,0,.67v1.66c0,.12,0,.18.11.18a.29.29,0,0,0,.16-.06,1.57,1.57,0,0,1,.19-.15,2.18,2.18,0,0,0,.28-.25l.43-.42.5-.51c.17-.18.32-.36.46-.52a1.45,1.45,0,0,0,.35,0h.2l.26,0c-.39.31-.75.61-1.09.92s-.68.6-1,.91c.35.42.7.84,1.07,1.26s.74.83,1.12,1.23l-.27,0h-.46l-.24,0c-.14-.15-.29-.33-.46-.53l-.5-.61-.48-.56c-.15-.18-.28-.32-.39-.43a.17.17,0,0,0-.06-.06.13.13,0,0,0-.08,0c-.06,0-.09,0-.09.11v.55c0,.27,0,.53,0,.79a6.85,6.85,0,0,0,.07.78,3,3,0,0,0-.41,0,2.82,2.82,0,0,0-.41,0c0-.14,0-.32,0-.53s0-.43,0-.67,0-.48,0-.72,0-.47,0-.68V37.54c0-.21,0-.43,0-.68"/><path d="M23.85,38.1a.84.84,0,0,0-.27,0,.71.71,0,0,0-.39.1.94.94,0,0,0-.3.26,1.32,1.32,0,0,0-.18.4,2,2,0,0,0-.06.5v1c0,.4,0,.71,0,.93a3.7,3.7,0,0,0,0,.53l-.37,0-.38,0q0-.31,0-.84c0-.36,0-.79,0-1.31v-.29c0-.24,0-.51,0-.82s0-.67,0-1.07l.19,0a.58.58,0,0,0,.19,0l.17,0,.19,0c0,.22,0,.39,0,.52s0,.25,0,.37h0c.36-.65.76-1,1.2-1H24l.15.05a.87.87,0,0,0-.05.33c0,.14,0,.28,0,.4l-.06,0a.52.52,0,0,0-.17-.09"/><path d="M25.05,39.63a4.42,4.42,0,0,0,.07.74,1.82,1.82,0,0,0,.23.63,1.39,1.39,0,0,0,.43.44,1.32,1.32,0,0,0,.68.16,1.26,1.26,0,0,0,.67-.16,1.21,1.21,0,0,0,.43-.44,1.9,1.9,0,0,0,.23-.63,3.95,3.95,0,0,0,0-1.48,1.75,1.75,0,0,0-.23-.63,1.29,1.29,0,0,0-.43-.44,1.26,1.26,0,0,0-.67-.17,1.32,1.32,0,0,0-.68.17,1.21,1.21,0,0,0-.43.44,2.05,2.05,0,0,0-.23.63,3.57,3.57,0,0,0-.07.74m-.8,0a2.52,2.52,0,0,1,.2-1.05,1.84,1.84,0,0,1,.51-.7,2,2,0,0,1,.71-.4,2.69,2.69,0,0,1,1.59,0,2.09,2.09,0,0,1,.71.4,1.79,1.79,0,0,1,.51.7,2.5,2.5,0,0,1,.19,1.05,2.56,2.56,0,0,1-.19,1,2,2,0,0,1-.51.7,1.89,1.89,0,0,1-.71.38,2.93,2.93,0,0,1-1.59,0,1.69,1.69,0,0,1-.71-.38,1.77,1.77,0,0,1-.51-.7,2.4,2.4,0,0,1-.2-1"/><path d="M40.93,41.82c0-.33,0-.66,0-1s0-.69,0-1V38.39c0-.35,0-.69,0-1s0-.69,0-1l.2,0h.38l.2,0c0,.35,0,.69,0,1s0,.68,0,1v.44c0,.05,0,.07.05.07a.33.33,0,0,0,.11-.08c.19-.16.38-.34.58-.54s.41-.42.63-.63.41-.44.61-.67.4-.44.59-.66l.16,0,.16,0,.19,0a.63.63,0,0,0,.19,0c-.19.16-.39.35-.63.57l-.71.67-.67.68c-.22.22-.4.42-.54.58l1.31,1.49c.44.5.88,1,1.33,1.51l-.23,0h-.46l-.22,0c-.19-.22-.41-.47-.64-.75l-.68-.82-.59-.71-.4-.45a.18.18,0,0,0-.1-.06,0,0,0,0,0,0,0v.7c0,.35,0,.69,0,1s0,.68,0,1l-.39,0-.39,0"/><path d="M47.76,39.83a2,2,0,0,1-.31.08l-.37.07-.37.09a1,1,0,0,0-.31.15.75.75,0,0,0-.23.24.7.7,0,0,0-.09.37.71.71,0,0,0,.22.56.68.68,0,0,0,.48.19,1,1,0,0,0,.56-.17,1.32,1.32,0,0,0,.39-.39Zm-2-1.43a2.28,2.28,0,0,1,.67-.37,2.16,2.16,0,0,1,.62-.09,1.78,1.78,0,0,1,.53.08,1.38,1.38,0,0,1,.41.24,1,1,0,0,1,.26.38,1.25,1.25,0,0,1,.1.48c0,.31,0,.61,0,.91s0,.62,0,1a1.34,1.34,0,0,0,0,.2.38.38,0,0,0,0,.19.19.19,0,0,0,.09.14.22.22,0,0,0,.17.06h.09l.09,0v.18a1.33,1.33,0,0,1-.52.08.53.53,0,0,1-.39-.13.52.52,0,0,1-.16-.34,2.08,2.08,0,0,1-.57.42,1.57,1.57,0,0,1-.69.13,1.31,1.31,0,0,1-.39-.05,1,1,0,0,1-.34-.18,1,1,0,0,1-.24-.31.91.91,0,0,1-.09-.41,1,1,0,0,1,.3-.75,1.71,1.71,0,0,1,.83-.35l.68-.12a2,2,0,0,0,.36-.11.24.24,0,0,0,.14-.14.53.53,0,0,0,0-.19,1.67,1.67,0,0,0,0-.39.91.91,0,0,0-.16-.31.59.59,0,0,0-.27-.22.86.86,0,0,0-.41-.09,1.24,1.24,0,0,0-.6.15,1,1,0,0,0-.41.39h-.09Z"/><path d="M52.51,39.9a2.6,2.6,0,0,0-.1-.8,1.56,1.56,0,0,0-.25-.5.81.81,0,0,0-.36-.26,1.07,1.07,0,0,0-.39-.07,1,1,0,0,0-.92.5,1.47,1.47,0,0,0-.21.53,3.52,3.52,0,0,0-.06.66c0,1.11.39,1.66,1.17,1.66a.91.91,0,0,0,.5-.13,1,1,0,0,0,.35-.37,1.58,1.58,0,0,0,.21-.55,3.48,3.48,0,0,0,.06-.67m-2.89.45v-.59c0-.22,0-.43,0-.64s0-.41,0-.6,0-.36,0-.5a1.87,1.87,0,0,0,.37,0,1.94,1.94,0,0,0,.36,0,3.12,3.12,0,0,0-.05.4,2.48,2.48,0,0,0,0,.38h0a1.35,1.35,0,0,1,.16-.27,1.13,1.13,0,0,1,.26-.28,1.53,1.53,0,0,1,.4-.22,1.44,1.44,0,0,1,.53-.09,1.61,1.61,0,0,1,.6.12,1.49,1.49,0,0,1,.52.35,1.84,1.84,0,0,1,.37.61,2.64,2.64,0,0,1,.14.89,2.4,2.4,0,0,1-.15.89,2.14,2.14,0,0,1-.4.62,1.71,1.71,0,0,1-.56.37,1.66,1.66,0,0,1-.62.11,1.29,1.29,0,0,1-1.26-.76h0v.51c0,.17,0,.36,0,.58s0,.42,0,.63,0,.4,0,.59,0,.35,0,.49a1.91,1.91,0,0,0-.36,0,2,2,0,0,0-.36,0c0-.14,0-.3,0-.49s0-.39,0-.59,0-.42,0-.63,0-.41,0-.58v-1.3Z"/><path d="M54.36,39.51c0-.24,0-.49,0-.75A5.5,5.5,0,0,0,54.3,38l.36,0A1.94,1.94,0,0,0,55,38c0,.23,0,.47-.06.74s0,.51,0,.75v.83c0,.24,0,.5,0,.76s0,.5.06.72a2.23,2.23,0,0,0-.36,0,2.17,2.17,0,0,0-.36,0c0-.22,0-.46.05-.72s0-.51,0-.76Zm-.11-2.88a.41.41,0,0,1,.13-.29.38.38,0,0,1,.28-.12.41.41,0,1,1,0,.82.38.38,0,0,1-.28-.12.41.41,0,0,1-.13-.29"/><path d="M57.11,37c0,.2,0,.4,0,.6l0,.58h.33l.52,0a.17.17,0,0,0,0,.08v.17a.19.19,0,0,0,0,.08l-.22,0h-.63s0,.1,0,.26,0,.32,0,.53,0,.42,0,.64v.6c0,.14,0,.29,0,.44a1.59,1.59,0,0,0,.07.39.69.69,0,0,0,.19.27.58.58,0,0,0,.37.11l.17,0,.19,0v.19l-.3.06a1.73,1.73,0,0,1-.32,0,1,1,0,0,1-.74-.25,1,1,0,0,1-.24-.72v-.47c0-.17,0-.36,0-.55s0-.43,0-.67,0-.51,0-.81H55.9a.29.29,0,0,0,0-.09v-.17a.31.31,0,0,0,0-.08l.53,0c0-.11,0-.24,0-.4s0-.32,0-.5l.66-.28h0Z"/><path d="M60.66,39.83a2,2,0,0,1-.31.08L60,40l-.37.09a1,1,0,0,0-.31.15.75.75,0,0,0-.23.24.7.7,0,0,0-.09.37.71.71,0,0,0,.22.56.68.68,0,0,0,.48.19,1,1,0,0,0,.56-.17,1.32,1.32,0,0,0,.39-.39Zm-2-1.43A1.94,1.94,0,0,1,60,37.94a1.78,1.78,0,0,1,.53.08,1.33,1.33,0,0,1,.4.24,1.05,1.05,0,0,1,.27.38,1.24,1.24,0,0,1,.09.48c0,.31,0,.61,0,.91s0,.62,0,1v.2a.49.49,0,0,0,0,.19.28.28,0,0,0,.09.14.26.26,0,0,0,.18.06h.09a.13.13,0,0,0,.08,0v.18a1,1,0,0,1-.22.06,1.28,1.28,0,0,1-.29,0,.53.53,0,0,1-.39-.13.52.52,0,0,1-.16-.34,2.08,2.08,0,0,1-.57.42,1.6,1.6,0,0,1-.69.13,1.27,1.27,0,0,1-.39-.05.92.92,0,0,1-.34-.18,1,1,0,0,1-.24-.31.91.91,0,0,1-.09-.41.93.93,0,0,1,.3-.75,1.67,1.67,0,0,1,.83-.35l.67-.12a1.89,1.89,0,0,0,.37-.11.27.27,0,0,0,.14-.14.92.92,0,0,0,0-.19,1.67,1.67,0,0,0-.05-.39.75.75,0,0,0-.15-.31.62.62,0,0,0-.28-.22.86.86,0,0,0-.41-.09,1.2,1.2,0,0,0-.59.15.87.87,0,0,0-.41.39h-.09Z"/><path d="M62.81,37.5c0-.22,0-.43,0-.63s0-.41,0-.6a3.23,3.23,0,0,0,0-.48l.36,0a2,2,0,0,0,.37,0c0,.13,0,.29,0,.48s0,.39,0,.6,0,.42,0,.63v2.63c0,.21,0,.42,0,.63s0,.4,0,.59,0,.34,0,.47a2.36,2.36,0,0,0-.37,0,2.3,2.3,0,0,0-.36,0c0-.13,0-.28,0-.47s0-.38,0-.59,0-.42,0-.63,0-.41,0-.59V38.09c0-.18,0-.38,0-.59"/></g></svg>