<svg xmlns="http://www.w3.org/2000/svg" viewBox="0 0 70 70"><title>logo</title><g id="Coca_Cola" data-name="Coca Cola"><path d="M30.55,44.41A7.87,7.87,0,0,0,25.78,43a2.91,2.91,0,0,0-2.32,1.26c-.73-1.26-2.16-2-4.38-2C15.51,42.31,12,44,9.15,44a4.3,4.3,0,0,1-4.59-4.71c.11-5.27,4.56-10,7.9-12.16A7.45,7.45,0,0,1,17,25.61a1.53,1.53,0,0,1,1.11,2.27c-.85,1.91-2,1.75-2,.84a1.51,1.51,0,0,1,.71-1.17,1.42,1.42,0,0,1,.7-.17c.17-.14.3-1.19-1.08-.84s-3,1.69-4.59,3.43-4,5-4.63,8.48C7,40.05,7.16,43,11,42.93c3.22,0,8-2.14,12.32-2.11A8.47,8.47,0,0,1,27.59,42a12,12,0,0,1,3,2.41m1-9.56h.66s-3.3,4.77-5.17,4.56c-1-.12-.73-1.41-.73-1.41s-1.47,1.72-2.81,1.37S23.1,37,23.1,37s-2.78,3-4.63,2.32-.94-3.24-.57-4,.66-1.24.66-1.24l-.48.12-.47.1s-.92,1.49-1.48,2.24-2.94,3.3-4.35,2.79-1-2.47-.26-4c1.27-2.54,4.31-5.65,6.14-5.18s.32,3.47.32,3.47.37,0,1.25-.56c1.27-.86,2.94-3.19,4.75-2.92.85.13,1.64,1,.56,2.66-.35.53-.93,1-1.38.54-.27-.29,0-.82.26-1.19a1.15,1.15,0,0,1,1-.45s.3-.69-.46-.67-2.18,1.45-3.06,2.9-2,3.6-.8,4.1,3.27-2.09,4.26-3.43,3.25-4.36,5.15-4.48a1.27,1.27,0,0,1,1,.55l.22-.34h1.9L28.8,36.76c-.22.35-.52,1.14.29.7a15.27,15.27,0,0,0,2.49-2.61m-14.71-.61a4.28,4.28,0,0,1-1-.44,2.1,2.1,0,0,1-.7-.78s0,0-.06,0-.11.16-.79,1.15-1.68,3-.74,3.37c.6.23,1.61-.83,2.16-1.53a17.54,17.54,0,0,0,1.13-1.7c0-.06,0-.08,0-.09m.75-3.17c-.49-.38-1.76.5-1.77,1.4s1.15,1.19,1.3,1.19a.15.15,0,0,0,.18-.07,8.77,8.77,0,0,0,.36-.81c.18-.46.4-1.36-.07-1.71m9.66,5c.77-1,2.88-4.73,2.88-4.73a.3.3,0,0,0-.28-.27c-.29,0-.78.09-1.75,1.3a22.07,22.07,0,0,0-2.26,3.18c-.6,1.1-.87,1.87-.52,2.08a.49.49,0,0,0,.36,0,2.14,2.14,0,0,0,.92-.75c.19-.22.4-.51.65-.85m8.53-5.7H34L33,32h1.8ZM59.47,42.76a.51.51,0,0,0-.37.15.51.51,0,0,0-.16.38.52.52,0,0,0,.16.38.53.53,0,0,0,.74,0,.52.52,0,0,0,.16-.38.51.51,0,0,0-.16-.38.5.5,0,0,0-.37-.15m.61.53a.55.55,0,0,1-.18.43.58.58,0,0,1-.43.18.6.6,0,0,1-.44-.18.61.61,0,0,1-.17-.43.6.6,0,0,1,.18-.44.6.6,0,0,1,.86,0,.57.57,0,0,1,.18.44m-.45-.14a.11.11,0,0,0-.05-.1l-.14,0h-.1v.24h.22a.12.12,0,0,0,.07-.11m-.41-.2h.24l.18,0a.18.18,0,0,1,.11.17.14.14,0,0,1-.07.13.23.23,0,0,1-.1,0,.17.17,0,0,1,.12.06.25.25,0,0,1,0,.11v.13h-.11v-.08q0-.12-.06-.15a.26.26,0,0,0-.14,0h-.09v.26h-.12Zm3.16-15.57a8.16,8.16,0,0,1-4.94,1.47c-.45.46-.93,1-1.41,1.58,3.07.61,5.76-1.29,7.19-2.92a9.64,9.64,0,0,0,1.33-1.91,11.63,11.63,0,0,1-2.17,1.78m-5.26,14c-.26.41-.55,1.19.29.7a11.83,11.83,0,0,0,2.49-2.81h.66a21.83,21.83,0,0,1-2,2.64c-1,1.15-2.3,2.19-3.2,2.09s-.71-1.49-.71-1.49-1.5,1.59-2.53,1.48c-1.39-.16-1-1.88-1-1.88S49.57,44,48.5,44c-1.69-.1-1.27-2.16-.8-3.59.25-.77.48-1.38.48-1.38s-.16,0-.52.09c-.19,0-.53.05-.53.05a22.31,22.31,0,0,1-1.26,2c-.56.75-2.95,3.31-4.35,2.8s-.87-2.46-.11-4c1.1-2.3,4.2-5.61,6-5.18s0,3.84,0,3.84l0,0a.88.88,0,0,0,.35,0,3.67,3.67,0,0,0,.68-.21,39.11,39.11,0,0,1,3.92-6.45c2.06-2.56,6.16-6.95,7.78-5.89.39.26.21,1.16-.32,2.26-.23.07-.48.13-.73.19a5.82,5.82,0,0,0,.66-1.57c.24-1.32-2.84,1.46-5,4.46A41.28,41.28,0,0,0,51.25,37a9.36,9.36,0,0,0,1.13-.81,33.85,33.85,0,0,0,2.8-2.61,29.34,29.34,0,0,0,2.37-2.75,5.19,5.19,0,0,0,.7-.07,28.89,28.89,0,0,1-2.62,3.1c-.87.89-1.83,1.85-2.65,2.54a21.62,21.62,0,0,1-2.33,1.73s-1.93,3.88-.88,4.13c.62.15,1.83-1.72,1.83-1.72a43.06,43.06,0,0,1,2.54-3.51c1.31-1.49,2.43-2.34,3.55-2.36a1.35,1.35,0,0,1,1,.68L59,34.9h1.89s-3.53,6-3.81,6.45M46.47,39a4.43,4.43,0,0,1-.87-.56,2.81,2.81,0,0,1-.66-.79s0,0,0,0a9.79,9.79,0,0,0-.77,1.08c-.68,1-1.72,3-.77,3.39.6.22,1.6-.83,2.14-1.53a13.43,13.43,0,0,0,1-1.53c0-.06,0-.07,0-.08m1-1.68c.17-.46.39-1.35-.07-1.7s-1.77.5-1.77,1.4A1.53,1.53,0,0,0,46.7,38.4c.12,0,.16,0,.22-.07a7.47,7.47,0,0,0,.51-1M58.3,36a.57.57,0,0,0,.06-.12.32.32,0,0,0-.29-.27c-.29,0-.69,0-1.73,1.2A15.18,15.18,0,0,0,54.11,40c-.6,1.09-.84,1.91-.49,2.12a.54.54,0,0,0,.36,0,2.16,2.16,0,0,0,.9-.74c.19-.22.4-.53.65-.87.69-1,2.42-3.92,2.77-4.52m4.08-8.66a8.16,8.16,0,0,1-4.94,1.47c-.45.46-.93,1-1.41,1.58,3.07.61,5.76-1.29,7.19-2.92a9.64,9.64,0,0,0,1.33-1.91,11.63,11.63,0,0,1-2.17,1.78m-8.63,2.23c-1.46-.74-2.52-1.65-3.62-2.22a4.17,4.17,0,0,0-2.59-.65,2.9,2.9,0,0,0-.36.09s.45,1.5-1.3,4-3.38,2.54-3.83,1.83.14-2.25,1.17-3.59a13,13,0,0,1,3-2.58s-.6-.36-2.09.48a21,21,0,0,0-6.25,6.06,16.58,16.58,0,0,0-3.1,6.53c-.34,1.42,0,3,1.55,3s3.42-2.41,3.94-3.25c1-1.56,1.59-4,.28-3.63A2.76,2.76,0,0,0,39,37.22a6.79,6.79,0,0,0-.48,1.39,5.43,5.43,0,0,0-1.28.74,9.54,9.54,0,0,0-1.21,1.08,7.57,7.57,0,0,1,.91-3,4.88,4.88,0,0,1,3.52-2.76c.85-.07,2,.65,1,3.32s-3.7,5.9-6.61,5.94c-2.68,0-4.44-3.38-.71-9.36,4.13-6.61,9-8.64,10.55-8.87s2.09.47,2.09.47a6.78,6.78,0,0,1,3-.5c1.93.13,3.41,1.49,5.38,2.45-.52.49-1,1-1.44,1.48M46.59,27a7.49,7.49,0,0,0-2.44,1.89c-1.31,1.45-2.06,3.07-1.5,3.5.22.16.71.19,1.62-.63a7.14,7.14,0,0,0,1.92-2.66,3.71,3.71,0,0,0,.4-2.1"/></g></svg>