<svg xmlns="http://www.w3.org/2000/svg" viewBox="0 0 70 70"><defs><style>.cls-1{fill-rule:evenodd;}</style></defs><title>logo</title><g id="Acba"><path class="cls-1" d="M21.17,23.28V40l8.68,4.72V48h4.52V16.2l-13.2,7.08ZM35.63,16.2V48h4.52V44.7L48.83,40V35.26L40,40.16V23.1L45.22,26v9.26l3.61-1.82V23.28L35.63,16.2ZM30,40.16a23.77,23.77,0,0,1-2.71-1.27c-.72-.55-1.81-.91-2.53-1.45V26l2.53-1.45L30,23.1Z"/><path class="cls-1" d="M15.91,52.54H13.72v-2.7h2.21a.69.69,0,0,1,.53.52.6.6,0,0,1-.23.69s-.08,0,0,0c.44.07.5.66.41,1a.82.82,0,0,1-.66.51Zm-1.19-1.18h-.1l.23-.52h.59c.41-.06.41-.52,0-.54h-1V52h1.14c.23,0,.29-.11.32-.21a.33.33,0,0,0-.31-.44Zm6.79.23H20.16V51.1h1.36v.49Zm3.72-1.75v2.7h.65V50.39h.91c.52,0,.61.74,0,.73h-.39l-.28.49h.61l.62.94H28l-.75-1.1a.83.83,0,0,0-.39-1.61Zm-16.55,0h.87l1.26,2.7h-.73l-1-2.08-.44,1h.81l-.26.49H8.48l-.28.61H7.48l1.2-2.68Zm4.73.15a1.87,1.87,0,0,0-2.55.7,1.35,1.35,0,0,0,.65,1.7,2.7,2.7,0,0,0,1.9,0v-.51a1.74,1.74,0,0,1-1.56,0,.86.86,0,0,1,0-1.38,1.74,1.74,0,0,1,1.56,0V50Zm4.44-.15-1.2,2.68h.72l.28-.61h.75l.25-.49h-.81l.44-1,1,2.08H20l-1.26-2.7Zm22.8,0h.88l1.26,2.7h-.73l-1-2.08-.44,1h.81l-.25.49h-.75l-.28.61h-.72l1.2-2.68Zm4.82.15a1.87,1.87,0,0,0-2.55.7,1.35,1.35,0,0,0,.65,1.7,2.62,2.62,0,0,0,1.37.14,3.91,3.91,0,0,0,.81-.19V51.12H44.53l-.22.49h.85V52a1.54,1.54,0,0,1-1.25-.1.86.86,0,0,1,0-1.38,1.74,1.74,0,0,1,1.56,0V50Zm11.88-.16h.7v2.22h1.52l-.23.48h-2V49.84Zm-19.76.55v2.15h-.7V50.39h-1l.28-.55h2.49l-.28.55Zm12-.55h.69v2.7h-.69v-2.7Zm-14.79,0h.7v2.7h-.7v-2.7ZM62,50.92l-.41.51h-1l.42-.51Zm-2.21-1.08v2.7h2.49l.23-.49h-2V50.38h1.84l-.19-.53ZM53.48,50v.53a1.76,1.76,0,0,0-1.57,0,.86.86,0,0,0,0,1.38,1.77,1.77,0,0,0,1.57,0v.51a2.72,2.72,0,0,1-1.91,0,1.35,1.35,0,0,1-.64-1.7,1.87,1.87,0,0,1,2.55-.7Zm-7.11-.17v2.7H47V50.38h.91a.37.37,0,1,1,0,.73h-.39l-.28.49h.61l.61.95h.73l-.75-1.11a.83.83,0,0,0-.4-1.61ZM24.74,50v.53a1.74,1.74,0,0,0-1.56,0,.85.85,0,0,0,0,1.37,1.71,1.71,0,0,0,1.56,0v.51a2.67,2.67,0,0,1-1.91,0,1.36,1.36,0,0,1-.64-1.7,1.88,1.88,0,0,1,2.55-.7Zm5.88.9-.41.51h-1l.42-.51ZM28.4,49.84v2.7h2.49l.23-.49h-2V50.38H31l-.19-.53Zm3.11,0v2.68H33a1.35,1.35,0,0,0,0-2.69Zm.68.54h1l0,0h0l0,0a1,1,0,0,1,.06,1.43l0,0h0l0,0h0l0,0h0l-.11,0h-.91V50.39Zm23.09-.59a1.42,1.42,0,1,1-1.63,1.4,1.53,1.53,0,0,1,1.63-1.4Zm0,.48a.92.92,0,1,0,.92.92A.92.92,0,0,0,55.28,50.28Z"/><rect x="7.47" y="53.36" width="55.06" height="0.44"/></g></svg>