<svg xmlns="http://www.w3.org/2000/svg" viewBox="0 0 70 70"><defs><style>.cls-1{fill-rule:evenodd;}</style></defs><title>logo</title><g id="moe"><path d="M62.61,42V38h.82v-.45H61.3V38h.81v4ZM58.9,38.44,60,42h.51V37.59h-.44V40.8l-1-3.21h-.63V42h.44Zm-2.63,1.11V38H57.6v-.45H55.77V42H57.6v-.45H56.27V40h1.08v-.45Zm-1.88-1.09V42h.47V37.59h-.69l-.71,3.54-.73-3.54H52V42h.43V38.49L53.21,42h.47Zm-4.91,0L50.62,42h.51V37.59H50.7V40.8l-1-3.21H49V42h.44Zm-2.86.19c0-.4.17-.64.53-.64s.52.24.52.64V41c0,.41-.16.64-.52.64s-.53-.23-.53-.64ZM46.13,41c0,.68.34,1.12,1,1.12s1-.44,1-1.12V38.66c0-.68-.34-1.12-1-1.12s-1,.44-1,1.12Zm-2.37-1.27V38h.48c.37,0,.52.21.52.61v.42c0,.48-.24.61-.63.61Zm-.49-2.09V42h.49v-1.9h.35c.41,0,.65.16.65.66v.7a1.14,1.14,0,0,0,.08.54h.5a1.18,1.18,0,0,1-.09-.54V40.8c0-.47-.15-.8-.56-.92.38-.12.55-.43.55-.92V38.6c0-.66-.29-1-1-1Zm-1.41,0V42h.49V37.59Zm-3.19,0L39.51,42h.73l.83-4.44h-.46l-.72,3.86-.72-3.86Zm-2.44.85L37.37,42h.51V37.59h-.44V40.8l-1-3.21h-.63V42h.44ZM33.6,39.55V38h1.33v-.45H33.1V42h1.83v-.45H33.6V40h1.08v-.45Zm24.71-5.77V32.16h1.26v-.45H57.81v4.44h.5V34.23h1v-.45Zm-2.92-1c0-.39.17-.64.52-.64s.53.25.53.64V35.1c0,.41-.17.64-.53.64s-.52-.23-.52-.64Zm-.49,2.33c0,.67.34,1.11,1,1.11s1-.44,1-1.11v-2.3c0-.68-.33-1.12-1-1.12s-1,.44-1,1.12Zm-3.14,1.07h.49V34.56l.94-2.85h-.47L52,33.89l-.69-2.18h-.51l.94,2.85ZM48.62,33.8V32.16h.48c.37,0,.52.21.52.61v.42c0,.48-.24.61-.63.61Zm-.49-2.09v4.44h.49v-1.9H49c.41,0,.65.16.65.66v.7a1.14,1.14,0,0,0,.08.54h.5a1.18,1.18,0,0,1-.09-.54v-.69c0-.47-.15-.8-.56-.92a.84.84,0,0,0,.56-.92v-.36c0-.66-.3-1-1-1Zm-1.57,4.44v-4h.82v-.45H45.25v.45h.81v4Zm-3-4.49c-.66,0-1,.43-1,1.11,0,1.25,1.48,1.35,1.48,2.34,0,.4-.16.63-.52.63s-.52-.23-.52-.63v-.28h-.46v.25c0,.67.32,1.11,1,1.11s1-.44,1-1.11c0-1.25-1.49-1.34-1.49-2.34,0-.39.15-.63.51-.63s.5.24.5.64v.14h.47v-.12C44.57,32.1,44.25,31.66,43.58,31.66Zm-2.34.05v4.44h.49V31.71Zm-2.56.85,1.13,3.59h.51V31.71h-.43v3.21l-1-3.21h-.63v4.44h.45Zm-1.85-.85v4.44h.49V31.71Zm-1.39.87v3.57h.47V31.71h-.69l-.7,3.54-.73-3.54H33.1v4.44h.43V32.61l.73,3.53h.48Z"/><path d="M55.93,28.23l.24,1.26h-.49Zm.28,1.47.08.44h.25L56.12,28h-.36l-.42,2.19h.23l.08-.44ZM54.71,28v2.19H55V28Zm-1.27.42L54,30.14h.26V28H54v1.59L53.53,28h-.31v2.19h.22Zm-1.3.55v-.75h.66V28h-.91v2.19h.91v-.22h-.66v-.78h.53v-.22Zm-.93-.54v1.76h.23V28H51.1l-.35,1.75L50.39,28h-.34v2.19h.21V28.4l.37,1.74h.23ZM48.86,29v-.82h.24c.18,0,.25.11.25.3v.21c0,.24-.11.31-.31.31Zm-.24-1v2.19h.24v-.93H49c.21,0,.32.08.32.32v.35a.66.66,0,0,0,0,.26h.25a.53.53,0,0,1,0-.26v-.34c0-.24-.08-.4-.28-.46a.41.41,0,0,0,.28-.45v-.18a.44.44,0,0,0-.49-.5Zm-1,.28.25,1.26h-.49Zm.29,1.47.08.44h.24L47.81,28h-.36L47,30.14h.23l.08-.44ZM45.59,29v-.8h.62V28h-.87v2.19h.25V29.2h.5V29Zm-1.45-.5c0-.2.09-.32.26-.32s.26.12.26.32v1.16c0,.2-.08.31-.26.31s-.26-.11-.26-.31Zm-.24,1.14c0,.34.17.56.5.56s.51-.22.51-.56V28.48a.51.51,0,1,0-1,0Zm-1.38-1.68c-.34,0-.5.22-.5.55v1.13c0,.34.16.56.5.56S43,30,43,29.61v-.27h-.23v.29c0,.19-.08.31-.26.31s-.26-.12-.26-.31V28.47c0-.2.09-.32.26-.32s.26.12.26.32v.21H43v-.2C43,28.15,42.85,27.93,42.52,27.93Zm-1.17,0v2.19h.24V28ZM41,30.14v-.22h-.63V28h-.24v2.19Zm-2.06-.22V29.1h.21c.21,0,.31.09.31.33v.19c0,.21-.08.3-.26.3Zm0-1v-.71h.24c.18,0,.24.1.24.29v.13c0,.23-.1.29-.29.29ZM38.66,28v2.19h.5a.45.45,0,0,0,.5-.51v-.18c0-.25-.08-.41-.29-.47.19-.06.26-.21.26-.44v-.1c0-.33-.14-.49-.48-.49Zm-1.19,0h-.24v1.66c0,.34.16.56.49.56s.49-.22.49-.56V28H38v1.68c0,.19-.08.31-.26.31s-.26-.12-.26-.31Zm-1.36,1.11v-.89h.24c.18,0,.25.1.25.3v.3c0,.21-.09.29-.27.29ZM35.87,28v2.19h.24v-.86h.22c.35,0,.51-.18.51-.53v-.26c0-.33-.15-.54-.49-.54Zm-1.09,1v-.75h.66V28h-.9v2.19h.9v-.22h-.66v-.78h.54v-.22ZM33.35,29v-.82h.24c.18,0,.25.11.25.3v.21c0,.24-.12.31-.31.31Zm-.25-1v2.19h.25v-.93h.17c.2,0,.32.08.32.32v.35a.51.51,0,0,0,0,.26h.25a.53.53,0,0,1-.05-.26v-.34c0-.24-.07-.4-.27-.46.19-.06.27-.21.27-.45v-.18c0-.32-.14-.5-.49-.5Z"/><path class="cls-1" d="M8.34,40.87a10.59,10.59,0,0,1-1.63-4.15l6.31.74ZM27,39.11a10.63,10.63,0,0,1-17.88,2.8l5.8-4.22Zm-.74-9.67a10.75,10.75,0,0,1,1.18,8.41l-11-1.3ZM24.22,27a10.3,10.3,0,0,1,1.29,1.35l-10.93,8-8-.95c0-.13,0-.25,0-.38a10.57,10.57,0,0,1,.29-2.47Zm-7-2.65A10.57,10.57,0,0,1,23,26.06L7.35,31A10.64,10.64,0,0,1,17.2,24.37Z"/></g></svg>