<svg xmlns="http://www.w3.org/2000/svg" viewBox="0 0 70 70"><title>logo</title><g id="qit.am"><path d="M35.5,39.43a.82.82,0,0,0-.81-.81.81.81,0,0,0-.7.4.81.81,0,0,0-1.51.41.82.82,0,0,0,.08.35h0A4.14,4.14,0,0,0,34,41.36a5.2,5.2,0,0,0,1.37-1.46A.82.82,0,0,0,35.5,39.43Z"/><rect x="18.78" y="28.53" width="3.13" height="12.62"/><polygon points="58.96 28.54 56.17 34.03 53.4 28.54 50.28 28.54 50.28 41.16 53.4 41.16 53.4 35.11 55.22 38.25 57.26 38.25 58.96 35.15 58.96 41.16 62.09 41.16 62.09 28.54 58.96 28.54"/><polygon points="26.8 28.54 23.72 28.54 23.72 31.66 26.8 31.66 26.8 41.16 29.92 41.16 29.92 31.66 33.08 31.66 33.08 28.54 29.92 28.54 26.8 28.54"/><path d="M42,28.53,37.35,41.15h3.32l.64-1.89h3.78l.64,1.89h3.32L44.41,28.53Zm.18,8.19,1-3.12,1,3.12Z"/><path d="M15.89,39.1c.91-.91.76-3.17.76-4.6s.19-2.85-1.17-4.58a4.66,4.66,0,0,0-3.78-1.51,4.06,4.06,0,0,0-3.18,1.21C6.88,31.22,7,33,7,34.65A13.83,13.83,0,0,0,7.27,38a4.58,4.58,0,0,0,4.63,3.28,4,4,0,0,0,2.41-.63l1,1,1.56-1.55ZM12.7,35.93l-1.61,1.61.95,1s-1.44.09-1.68-1.07a14.26,14.26,0,0,1-.17-2.83V33.1s-.07-2,1.69-2,1.64,2,1.64,3v1l0,1.66Z"/></g></svg>