<svg id="undp" xmlns="http://www.w3.org/2000/svg" viewBox="0 0 70 70"><defs><style>.cls-1{fill:#fff;}</style></defs><title>logo</title><rect x="35.57" y="23.36" width="11.29" height="11.29"/><path class="cls-1" d="M38.44,25.21v4.44c0,2.35,1.16,3.22,2.71,3.22S44,31.93,44,29.62V25.21H43v4.47c0,1.66-.72,2.4-1.83,2.4s-1.76-.72-1.76-2.4V25.21Z"/><rect x="47.56" y="23.36" width="11.29" height="11.29"/><path class="cls-1" d="M51.3,32.78V29.56c0-1.26,0-2.16-.07-3.12h0A22.7,22.7,0,0,0,52.66,29l2.4,3.83h1V25.24h-.91V28.4c0,1.17,0,2.08.11,3.09h0a19.05,19.05,0,0,0-1.34-2.45l-2.4-3.81H50.38v7.54Z"/><rect x="47.56" y="35.34" width="11.29" height="11.29"/><path class="cls-1" d="M55.12,37.77A3.12,3.12,0,0,0,53,37.14a10,10,0,0,0-1.87.16v7.44h1v-3a3.1,3.1,0,0,0,.78.07,3.14,3.14,0,0,0,2.3-.83,2.15,2.15,0,0,0,.6-1.61,2,2,0,0,0-.67-1.58"/><path d="M52.91,41.05a3.08,3.08,0,0,1-.8-.08V38A5.16,5.16,0,0,1,53,38c1.08,0,1.79.48,1.79,1.49s-.71,1.6-1.9,1.6"/><rect x="35.56" y="35.36" width="11.29" height="11.29"/><path class="cls-1" d="M43.5,38.06a4.33,4.33,0,0,0-3-.93,14.09,14.09,0,0,0-2.08.16v7.42a13.07,13.07,0,0,0,1.78.09,4.67,4.67,0,0,0,3.34-1.09,4,4,0,0,0,1.09-2.93,3.49,3.49,0,0,0-1.08-2.72"/><path d="M40.34,44a5.75,5.75,0,0,1-1-.05V38a5.3,5.3,0,0,1,1.14-.1c2.06,0,3.07,1.1,3.06,2.91A2.9,2.9,0,0,1,40.34,44"/><rect x="11.14" y="23.35" width="23.3" height="23.3"/><path class="cls-1" d="M31.13,35.48c-.33.46-.72.9-1,1.37A2.64,2.64,0,0,0,30,35.66a10.24,10.24,0,0,1-.55-2.37V33c.19.86,1,1.44,1,2.4a2.13,2.13,0,0,1-.1.63l0,0,0-.05a11.12,11.12,0,0,1,.38-1.4,3.34,3.34,0,0,0,.48-2,3.46,3.46,0,0,1-.16,2.93"/><path class="cls-1" d="M30.61,30.65a2.9,2.9,0,0,1,.27,2.78,5,5,0,0,0-.31,1.15,1.68,1.68,0,0,1-.06-.24c-.22-.83-1-1.43-1.34-2.22a4.35,4.35,0,0,1-.24-.8c.35.64,1.21,1,1.44,1.68a2.93,2.93,0,0,1,.15.6s0,0,0,0a7.86,7.86,0,0,1,0-2.22,1.76,1.76,0,0,0-.26-1.07,1.16,1.16,0,0,1,.3.36"/><path class="cls-1" d="M30.22,30.51c.15.65-.06,1.28.07,1.94h0c-.35-.7-1.1-1-1.62-1.59a2.26,2.26,0,0,1-.51-1.16c.3.71,1.1.87,1.56,1.47a1.62,1.62,0,0,1,.3.5l0,0a15,15,0,0,1-.54-1.8,1.4,1.4,0,0,0-.52-.69,1.82,1.82,0,0,1,1.25,1.34"/><path class="cls-1" d="M28.61,29a2.76,2.76,0,0,1,.79,1.48l.08.17a6.46,6.46,0,0,1-1.68-1.78l-.52-.53a4.59,4.59,0,0,1,1.33.66"/><path class="cls-1" d="M20,28.5a6.66,6.66,0,0,1,2.83-.67,6.25,6.25,0,0,1,5.59,3.55,6.12,6.12,0,0,1,.41,4.36A6.24,6.24,0,1,1,20,28.5"/><path class="cls-1" d="M18.18,28.44a7.23,7.23,0,0,0-1.11,1.38,11.71,11.71,0,0,1-1,.95,6.2,6.2,0,0,1,.46-1.2,2.91,2.91,0,0,1,1.69-1.13"/><path class="cls-1" d="M15.68,29.83a1.58,1.58,0,0,1,.82-.54c-.61.42-.57,1.17-.77,1.81-.06.23-.17.44-.22.68h0a2.29,2.29,0,0,1,.51-.74c.44-.41,1.08-.66,1.3-1.25A2.65,2.65,0,0,1,16,31.74a2.8,2.8,0,0,0-.69.82c0-.21,0-.42,0-.64a2.57,2.57,0,0,1,.38-2.09"/><path class="cls-1" d="M14.44,32.31a2.87,2.87,0,0,1,.71-1.88.05.05,0,0,1,0,0c-.47.72-.08,1.63-.1,2.44l-.07.84s0,0,0,0,0-.19,0-.29a3.12,3.12,0,0,1,1.21-1.62,1.35,1.35,0,0,0,.26-.38,3.45,3.45,0,0,1-.29,1c-.4.77-1.13,1.41-1.27,2.3-.06-.85-.64-1.49-.58-2.39"/><path class="cls-1" d="M14.08,33.35a3,3,0,0,1,.19-.67c-.19,1,.47,1.66.68,2.5a6.94,6.94,0,0,0,.24,1s0,0,0,0a2.73,2.73,0,0,1,.6-2.42,2.25,2.25,0,0,0,.23-.61,5.08,5.08,0,0,1-.11,1.28c-.11.54-.28,1-.42,1.56a2.38,2.38,0,0,0,0,1l-.05,0c-.34-.62-1-1.11-1.21-1.79a3.9,3.9,0,0,1-.16-1.77"/><path class="cls-1" d="M14.05,35.25c.07,1,1.18,1.57,1.69,2.42a3.14,3.14,0,0,0,.39.51c0-.11-.13-.2-.16-.31a2.19,2.19,0,0,1-.21-1.22A6.23,6.23,0,0,0,16,35.09c.45,1,.31,2.18.56,3.23.07.23.2.44.29.66-.93-.63-2.19-1.23-2.6-2.39a2.87,2.87,0,0,1-.15-1.34"/><path class="cls-1" d="M14.6,37.6c.52,1.17,1.81,1.27,2.68,2a1.85,1.85,0,0,0,.5.34h0a3,3,0,0,1-.57-.61c-.5-.71-.33-1.7-.71-2.45a5.53,5.53,0,0,1,.87,1.31,4.68,4.68,0,0,0,1.15,2.2,8.17,8.17,0,0,1-2.37-.66,3.27,3.27,0,0,1-1.56-2.1"/><path class="cls-1" d="M15.93,39.78c.82.94,2.17.63,3.28.87a1.17,1.17,0,0,0,.46.06c-.13-.08-.31-.07-.46-.15-.86-.3-1-1.24-1.46-1.87a14,14,0,0,1,1.66,1.46,2.92,2.92,0,0,0,1.38.61c-.13,0-.28,0-.41.06a5,5,0,0,1-2.87.26,2.71,2.71,0,0,1-1.58-1.3"/><path class="cls-1" d="M27.15,42a2.76,2.76,0,0,1-2.63-.57c-.3-.18-.56-.45-.94-.43a1.61,1.61,0,0,0-.39,0,7.17,7.17,0,0,1,2,1.36,3.7,3.7,0,0,1-.36.33,6.88,6.88,0,0,0-1.94-1.58,1.27,1.27,0,0,0-.4.17,6,6,0,0,0-1.59,1.43l-.38-.31a7,7,0,0,1,2-1.41c-.71-.22-1.17.37-1.71.67a2.51,2.51,0,0,1-2.28.35,2.58,2.58,0,0,1-1.1-.76,2.42,2.42,0,0,0,2.16.19,4.76,4.76,0,0,1,2.95-.65c.17,0,.34.17.5,0a3.54,3.54,0,0,1,2.44.31l.72.29a2.38,2.38,0,0,0,2.11-.23,2.46,2.46,0,0,1-1.11.78"/><path class="cls-1" d="M28.15,41c-1,.39-2.1-.09-3.11-.25l-.19,0h0a2.78,2.78,0,0,0,1.33-.6,14.07,14.07,0,0,1,1.68-1.52c-.46.59-.51,1.44-1.27,1.82-.19.12-.43.14-.63.24a7.18,7.18,0,0,0,.81-.12c1-.16,2.2,0,2.92-.87A2.73,2.73,0,0,1,28.15,41"/><path class="cls-1" d="M28.73,40c-.54.14-1.11.18-1.63.36.88-.75.83-1.92,1.42-2.81a7.68,7.68,0,0,1,.56-.75c-.36.71-.2,1.64-.61,2.34a3.27,3.27,0,0,1-.64.76c.08,0,.16-.08.23-.12a16.43,16.43,0,0,1,2.25-1.39,2.09,2.09,0,0,0,.68-.86A3.38,3.38,0,0,1,28.73,40"/><path class="cls-1" d="M30.05,38.07c-.42.27-.84.52-1.23.82v0c.61-1,.31-2.4.68-3.51l.14-.37c-.08.69.23,1.27.21,2a2.34,2.34,0,0,1-.38,1.13h0a13.89,13.89,0,0,1,.88-1.18,3.08,3.08,0,0,0,1.16-1.78,3.05,3.05,0,0,1-1.49,3"/><path d="M25.37,38l.05-.06a4.88,4.88,0,0,0,.55-.47h0s-.08,0-.13,0a.21.21,0,0,1-.1-.21l-.38-.39,0-.06a.79.79,0,0,1-.14.18s0,.12,0,.15.29.13.32.27-.31.26-.15.41-.08.1-.06.17"/><path d="M23.15,33c.08,0,.12,0,.18-.05a.35.35,0,0,1,.2.14.22.22,0,0,0,.16,0c0-.26.36-.22.45-.46l-.05,0s-.09,0-.09-.07a.45.45,0,0,1,.19-.15,3,3,0,0,0-.89-.41c-.12,0-.25,0-.37-.07a4.31,4.31,0,0,1,0,.64l.23.07c.06-.1.21-.12.27-.23s.08,0,.12,0a.73.73,0,0,1,0,.25c-.09.17-.28.19-.4.31"/><path d="M26.46,35a4,4,0,0,1-.54,1.19,1.4,1.4,0,0,1-.34.38l.28.25s0,0,0-.06,0-.09.07-.08.14.14.22.22.08.21.05.32a4.62,4.62,0,0,0,1.24-3l.05,0a8.38,8.38,0,0,1-.87,0l-.06,0a2.65,2.65,0,0,1-.05.56l.1.11a.1.1,0,0,1-.16.13"/><path d="M25.71,32.29a3.65,3.65,0,0,0-.41-.56l0,0c-.28.3-.6.61-.87.91a.2.2,0,0,0,.09.09c0-.07.05-.14.06-.22s.18,0,.28,0a1.63,1.63,0,0,1,.44,0c.11.06.12.2.22.25a.09.09,0,0,1,0,.12c0,.23.14-.06.26,0a.22.22,0,0,1,.15.06c0,.1.14.08.14.17s-.06.06-.09.09-.09.15-.05.25.19-.18.27-.27a1.88,1.88,0,0,0-.17-.47c-.11,0-.17-.14-.27-.16s0-.21,0-.32"/><path d="M23,38.77a4.4,4.4,0,0,1,.74-.11.29.29,0,0,1-.14-.08c-.14,0-.21-.16-.26-.27s0-.16.07-.23-.25,0-.36-.08-.06-.06-.1-.07L23,38a6.59,6.59,0,0,1,0,.77"/><path d="M23.15,36.35c.08,0,0,.1.08.13s.22.11.32,0,.16-.14.25-.17.3-.2.29-.39l0,0c-.09,0-.14.07-.21.13s-.13-.09-.21-.06,0,0,0,0,0,.07,0,.09-.16,0-.26,0v0s0,0,0,0-.19-.06-.25-.15-.08,0-.1,0-.12,0-.1.07-.09.11-.14.16-.14.1-.23.09,0,0,0,.06a.35.35,0,0,0,.18,0c.09-.15.24,0,.38-.08"/><path d="M24.06,35.13a.27.27,0,0,0,.05.15c.12,0,.07.15.18.14s0-.08,0-.12-.11-.1-.18-.15a.08.08,0,0,1,0,0c-.05,0-.07,0-.1,0"/><path d="M23.92,30.85a5.38,5.38,0,0,0-1-.21l0,.07v.84l.08,0a2.75,2.75,0,0,1,1.39.57l0,.07a5.38,5.38,0,0,1,.52-.55l.15-.09-.07,0a3.42,3.42,0,0,0-1.12-.65"/><path d="M18.15,34.31l.07.58a5,5,0,0,1,.11.64s0-.14.1-.15.07-.12,0-.18a.59.59,0,0,1,.18-.41c.15,0,.17-.22.33-.23s.13.11.16.15a.62.62,0,0,1-.07-.46l-.07,0a6.1,6.1,0,0,1-.86,0Z"/><path d="M23.71,35.77c.08-.08.23-.08.24-.19s-.16,0-.24.1,0,.07,0,.09"/><path d="M25.69,34.21l.09.09c.1.07,0,.21.14.27s.16.2.22.3,0-.06,0-.09,0-.36.09-.53a1.31,1.31,0,0,1-.56,0"/><path d="M24.44,36.38c.1,0,.17.16.31.12s.29,0,.37-.08.09-.2.14-.3h0c.07.07.06.17.09.24.09-.1.16-.2.23-.29a2.83,2.83,0,0,0,.46-1,.69.69,0,0,0-.25,0c-.09,0-.2,0-.27,0s-.05,0-.05,0-.06.11-.13.09-.06-.09-.08-.13,0,.06,0,.09a1.28,1.28,0,0,0-.14.21c-.06.07-.17,0-.24.11s-.17.11-.26.16,0,0,0,0a.13.13,0,0,0,.13,0c.13,0,.11-.13.18-.19s.13-.06.2,0a.46.46,0,0,1,.07.31c-.07.08,0,.2-.09.29s-.11.15-.1.25a.25.25,0,0,1-.17,0,3.21,3.21,0,0,0-.77-.18.05.05,0,0,0,0,.06c.11.06.25.06.37.11"/><path d="M22.59,39.1l0,0-.1,0a4.87,4.87,0,0,1-3.16-1.36v0l-.64.65A6.4,6.4,0,0,0,22,40a4.2,4.2,0,0,1,.62.07l0-.07Z"/><path d="M21.33,35.76a2.43,2.43,0,0,0,1.12.51c0-.08,0-.19,0-.26s.12-.06.18,0a.05.05,0,0,0,0-.08c-.09,0-.05-.12-.08-.18s.05,0,0-.06,0-.11,0-.16l0,0a.67.67,0,0,1-.55-.11c-.08,0-.2-.09-.22-.19a4.19,4.19,0,0,1-.58.62"/><path d="M21,34.79s0,0-.06,0,0,0-.05,0c0-.18-.2-.07-.27-.17.08.16.13.35.22.51s.18.25.24.39a1.8,1.8,0,0,1,.26-.3.21.21,0,0,0,0-.12c0-.07,0-.16,0-.21s0,.1,0,.15a0,0,0,0,1-.07,0,.18.18,0,0,1-.15-.14c.06,0,0,0,0-.08"/><path d="M21.61,34.88a.44.44,0,0,1-.13.2h0c.08-.06.13-.15.23-.16Z"/><path d="M22.51,37.9a3.62,3.62,0,0,1-2-.76c0,.08.12.13.09.22a.25.25,0,0,1-.25.08c-.18,0-.31.11-.47.13s-.21-.14-.35-.13a4.84,4.84,0,0,0,3,1.29l.08.06,0-.11v-.82Z"/><path d="M19.16,37.49a1.38,1.38,0,0,1-.29-.3.38.38,0,0,1-.26-.19s0-.1,0-.12l0,0c-.1,0-.14-.06-.22-.1s0-.24-.18-.21-.06,0-.09-.09-.16-.12-.22-.18,0,.06,0,.08-.17-.12-.25-.19,0,0-.07,0a.41.41,0,0,1-.13-.26c-.1-.11,0-.3,0-.44s.07-.05.06-.1.1-.07.16-.08a.17.17,0,0,1,.06.06s.13,0,.1-.08a.36.36,0,0,1,.2-.08c.05.06.07.14.14.19l0-.06a4.28,4.28,0,0,1-.15-.95s0,0,0,0h0a1,1,0,0,1,0-.18l-.09,0h-.86A6.29,6.29,0,0,0,17.64,37a9.13,9.13,0,0,0,.83,1.16l.61-.64Z"/><path d="M20.15,30.24c-.19.14-.37.31-.57.43a4.92,4.92,0,0,1,.63.58l0,.06a3.66,3.66,0,0,1,1.87-.94,1.36,1.36,0,0,1,.49,0,5.41,5.41,0,0,1,0-.9,4.89,4.89,0,0,0-2.43.81"/><path d="M19.41,33.49a2.44,2.44,0,0,1-.07.46.85.85,0,0,1,.39,0c-.07,0,0-.13-.06-.17s0-.18.06-.23.12-.19.14-.31.18,0,.25-.11,0-.07,0-.1.16-.08.23-.13a.6.6,0,0,1,.21-.21c.19,0,.19-.26.37-.27a5.93,5.93,0,0,1-.69-.63,3.66,3.66,0,0,0-.84,1.72"/><path d="M19.53,34.74c0-.05-.07-.07-.06-.12s0-.3.15-.35a.35.35,0,0,1-.3,0l.05.07a2.09,2.09,0,0,1,0,.61c0-.06.05-.14.12-.18"/><polygon points="20.39 36.99 20.38 36.96 20.39 37 20.39 36.99"/><path d="M19.36,30.93l-.34.43a4.93,4.93,0,0,0-.89,2.57H19l.08,0s0-.06,0-.09a3.64,3.64,0,0,1,1-2.33,5.88,5.88,0,0,1-.66-.66Z"/><path d="M22,36.74a.57.57,0,0,1,.23-.16c-.28.06-.52-.14-.75-.25a1.14,1.14,0,0,1-.39-.33,4.71,4.71,0,0,1-.62.64c.1,0,.15.11.23.15a3.85,3.85,0,0,0,1.59.71l-.15-.07a.82.82,0,0,1-.28-.45c.11,0,.1-.16.14-.24"/><path d="M19.85,34.27l0,.16c0,.1-.16,0-.21.09s0,.13,0,.18.2.26.19.44,0,.27.12.37,0,.48.15.64l0,.19c0,.13-.16.1-.14.22s.05,0,.05,0h0a8.73,8.73,0,0,1,.8-.81l-.12-.12a3.05,3.05,0,0,1-.47-1.06l-.09-.05a2.74,2.74,0,0,0-.05.28l0,0c-.06,0-.11,0-.16-.09s-.05-.09,0-.11a.06.06,0,0,1,.07,0s0-.09,0-.13-.06-.14,0-.21.1.07.13.11.1,0,.15-.06.08-.12,0-.15a.77.77,0,0,0,0-.37c0-.1-.15-.08-.23-.07-.25.08,0,.27,0,.42s-.13,0-.2.05"/><path d="M27.81,34.25l0,0,0,.09a5,5,0,0,1-1,2.76,2.29,2.29,0,0,1-.36.4,4.93,4.93,0,0,1,.69.68l0,0A5.92,5.92,0,0,0,28.7,34.3l0-.08,0,0Z"/><path d="M19.4,30.45v0a5,5,0,0,1,3.18-1.34l0-.07v-.75l0-.08a6.06,6.06,0,0,0-3.34,1.18c-.19.13-.35.33-.55.44h0a5.38,5.38,0,0,1,.69.66"/><path d="M22.54,30.66a3.68,3.68,0,0,0-2.07.88,7.79,7.79,0,0,1,.66.62l.05-.07a3,3,0,0,1,.95-.49,1.45,1.45,0,0,1,.47-.05,3.54,3.54,0,0,1,0-.92Z"/><path d="M22.59,31.89a2.16,2.16,0,0,0-1.33.63h.07c.07.07.19.06.25.16s0,0,0,.09a.1.1,0,0,1,0,0c.06,0,.05,0,.07-.06s.09.07.16.07a.13.13,0,0,1,.17,0c.05-.05.15,0,.17-.09s0-.26.19-.32,0,.07,0,.11.21-.08.28,0a1.91,1.91,0,0,1,0-.68"/><path d="M22.62,33.28a.63.63,0,0,1-.4.24s0,.15-.12.14-.14.11-.1.21a1.49,1.49,0,0,0-.05.36c-.19.12-.13-.15-.23-.21l0,.06a.12.12,0,0,1-.08,0s-.08,0-.1,0-.11.13-.09.22-.11,0-.1.1a1.67,1.67,0,0,0,.31,0c.08,0,.13,0,.21,0a.06.06,0,0,1,0,.07h0A.13.13,0,0,0,22,34.2c0-.06.08-.06.12-.08s0,.06,0,.09,0,.15-.06.23,0,.19-.11.17,0,0,0,0h0a.16.16,0,0,0,.08.14c.09-.07.09-.19.22-.21s0-.17.07-.23.33-.07.46.06,0,.08,0,.13a.61.61,0,0,1-.11.21.09.09,0,0,1,0,.11c0,.19-.26.1-.39.17a1,1,0,0,0,.69.18c.13,0,.07-.17.14-.24,0-.22.24-.07.36-.13a.73.73,0,0,0,.11-.29.19.19,0,0,1-.08-.23c-.06-.07-.05-.2-.17-.21a.08.08,0,0,1,0-.08c0-.07.06-.09.08-.14s-.05-.15-.05-.21-.13-.12-.22-.16-.1-.08-.16-.09-.17-.12-.29-.16,0-.08,0-.11.13,0,.2,0l-.05,0c-.05-.05-.16,0-.23,0s0,.18.08.25"/><path d="M17.83,33.94l0-.12a5.11,5.11,0,0,1,.93-2.66,2.78,2.78,0,0,1,.42-.48c-.2-.18-.41-.4-.63-.61l0-.09a6.18,6.18,0,0,0-1.59,3.39c0,.19,0,.38-.05.57a7.69,7.69,0,0,1,1,0"/><path d="M26.23,37.65a1.82,1.82,0,0,1-.42.41c-.21.2-.54.25-.64.54-.11.1-.14.25-.3.31s-.21.14-.3.25c-.26.23-.43-.15-.66-.2l-.48.08a1.55,1.55,0,0,1-.48,0,8,8,0,0,1,0,1L23,40a6,6,0,0,0,3.89-1.64l-.65-.62Z"/><path d="M22.93,29a.11.11,0,0,1,0-.07s.08,0,.1,0,0,.12,0,.15.06,0,.09,0a4.68,4.68,0,0,1,2,.6v0c.12-.06.28-.13.4,0s.18.13.3.15a.66.66,0,0,1,.33.42c0,.06.11.1.13.16a2.37,2.37,0,0,1,.47-.55l.1,0a5.82,5.82,0,0,0-3.29-1.56,4.07,4.07,0,0,1-.61-.07,4,4,0,0,1,0,.85"/><path d="M22.93,30.33a1.09,1.09,0,0,1,.36,0A3.71,3.71,0,0,1,25,31a.48.48,0,0,1-.15-.22s0,0,0,0-.09-.15-.11-.24a.09.09,0,0,1,.07,0,2.69,2.69,0,0,1,.27.32.2.2,0,0,1,.18.06c.09.05,0,.16.1.23s.23.28.22.47c0,0,.06,0,.08,0l.18.23s0,.09,0,.12.13-.07.22,0,0,.15,0,.22.11,0,.15,0-.06.12-.09.16.06,0,.11.07.09.06.07.11c.16.16-.05.33,0,.5a.3.3,0,0,1-.08.31c0,.14-.12.22-.17.33l-.16,0c-.09.09.07.19,0,.24h.34l0,0a.52.52,0,0,1,0-.44c.06-.11.07-.24.17-.34s.06-.05.08,0a.57.57,0,0,1-.05.32,1,1,0,0,1,.09.51c.31,0,.61,0,.91,0l0-.06a4.29,4.29,0,0,0-.4-1.61c-.06,0-.11.05-.19,0a.06.06,0,0,1,0-.07c-.13-.11-.21-.27-.34-.38s-.23-.16-.38-.18,0-.26-.22-.2a.32.32,0,0,1-.2-.21.52.52,0,0,0-.17-.44c-.11,0-.16.11-.27.08s0-.11-.06-.16-.07-.08-.06-.15-.18-.18-.11-.37-.16-.19-.23-.3a4.8,4.8,0,0,0-1.5-.43c-.14,0-.26,0-.37-.06l0,.06c0,.29,0,.6,0,.87"/><path d="M26.33,30.65c.06,0,.08.09.13.14.22.12.28.36.48.5s.37.41.38.68a4.9,4.9,0,0,1,.47,1.93l0,0a.11.11,0,0,0,.08,0h.89c-.06-.09,0-.22-.05-.32A6.12,6.12,0,0,0,27.05,30a6.39,6.39,0,0,1-.62.67Z"/><path class="cls-1" d="M23.06,28.84s.09,0,.13,0l.45-.19a.58.58,0,0,1,.48.18v0a.38.38,0,0,1-.4.11c-.21,0-.49.16-.66-.05,0,0,0,0,0-.06"/><path class="cls-1" d="M25.72,29.41a.18.18,0,0,1,.14.11c0,.07.07.13,0,.19s-.18-.15-.31-.2a.12.12,0,0,1,0-.09c.06-.07.12,0,.18,0"/></svg>