<svg xmlns="http://www.w3.org/2000/svg" viewBox="0 0 70 70"><title>logo</title><g id="armat"><path d="M14.18,21.67h2.46v8.76H14.18Zm-2.54-.6V37.71h2.54V31h2.46v6.68h2.54V21.07Z"/><path d="M44.15,21.67H46.6v8.76H44.15Zm-2.54-.6V37.71h2.54V31H46.6v6.68h2.54V21.07Z"/><polygon points="35.16 22.83 33.72 21.07 31.18 21.07 31.18 37.71 33.72 37.71 33.72 23.01 35.16 24.77 36.53 23.09 36.53 37.71 39.07 37.71 39.07 21.07 36.53 21.07 35.16 22.83"/><polygon points="58.35 21.07 50.83 21.07 50.83 21.66 53.32 21.66 53.32 37.71 55.86 37.71 55.86 21.66 58.35 21.66 58.35 21.07"/><path d="M24.25,21.67h1.87v8.76H24.25ZM28.08,31h.57v-10H21.71V37.71h2.54V31h.61L27,37.71h2.54L27.4,31Z"/><path d="M52.05,46.54,53,44l.94,2.55Zm1.18-3.19h-.48l-2,5.51h.48L51.88,47h2.21l.7,1.88h.47Z"/><polygon points="17.05 48.19 15.23 43.35 14.74 43.35 16.81 48.86 17.28 48.86 19.3 43.35 18.82 43.35 17.05 48.19"/><path d="M26,43.72c.76,0,1.65.3,1.65,1.17v2.42c0,.81-.85,1.18-1.64,1.18s-1.64-.37-1.64-1.18V44.89c0-.86.88-1.17,1.63-1.17m0-.44c-1,0-2.08.5-2.08,1.61v2.42c0,1.06,1.05,1.62,2.08,1.62s2.08-.56,2.08-1.62V44.89c0-1.11-1.08-1.61-2.08-1.61"/><path d="M35,48.41H33.59V43.8H35c.52,0,1.38.14,1.38,1.09v2.44c0,.94-.86,1.08-1.38,1.08m0-5.06H33.15v5.51H35c1.13,0,1.82-.59,1.82-1.53V44.89c0-1-.68-1.54-1.82-1.54"/><polygon points="45.47 43.35 42.55 46.35 42.55 43.35 42.1 43.35 42.1 48.86 42.55 48.86 42.55 46.98 43.2 46.33 45.49 48.86 46.05 48.86 43.51 46.01 46.06 43.35 45.47 43.35"/></g></svg>