<svg xmlns="http://www.w3.org/2000/svg" viewBox="0 0 70 70"><defs><style>.cls-1{font-size:1.39px;font-family:HelveticaNeueCyr-Bold, HelveticaNeueCyr;font-weight:700;}</style></defs><title>logo</title><g id="Dobry"><path d="M12.81,27.87h4.62c-.15.68-.34,1.36-.46,2.06a16.5,16.5,0,0,0-.11,4.44,19.76,19.76,0,0,0,1.29,5.46,1.42,1.42,0,0,0,.34.4s.07,0,.1.06c.61.38.63.42.5,1.11l-.48,2.45c0,.09-.05.17-.08.28-.39,0-.77,0-1.15,0-.08,0-.19-.14-.21-.24-.12-.47-.2-1-.32-1.44a4.43,4.43,0,0,0-.2-.58.62.62,0,0,0-.53-.37,15.41,15.41,0,0,0-4.29,0,.62.62,0,0,0-.6.5c-.16.66-.31,1.32-.46,2l0,.17c-.34,0-.68,0-1,0A.25.25,0,0,1,9.55,44c-.24-1.21-.47-2.41-.69-3.62,0-.06.07-.18.13-.21.3-.11.62-.2.92-.32a.38.38,0,0,0,.21-.24,44.25,44.25,0,0,1,2.7-9.85A2,2,0,0,0,12.81,27.87ZM15,39.4a26.4,26.4,0,0,1-.59-9.11,27.56,27.56,0,0,0-2.15,9.11Z"/><path d="M32.75,25.74a1.91,1.91,0,0,1,.63,1.94,1.65,1.65,0,0,1-1.64,1.16c-.67,0-1.35,0-2,.06a2.45,2.45,0,0,0-2.25,2.25c0,.18-.05.36-.08.63l.26-.23a2.75,2.75,0,0,1,4.09.15A5.81,5.81,0,0,1,33.16,36a5.6,5.6,0,0,1-1.28,3.59,2.78,2.78,0,0,1-4.48,0,5.34,5.34,0,0,1-1.26-3.09,26.42,26.42,0,0,1,0-5,7.16,7.16,0,0,1,.5-2,3.56,3.56,0,0,1,2.08-2,21.71,21.71,0,0,1,2.06-.7A3.73,3.73,0,0,0,32.75,25.74Zm-2.06,9.87a8.42,8.42,0,0,0-.45-2.87c-.11-.28-.23-.63-.58-.63s-.48.34-.59.62a7.27,7.27,0,0,0-.44,2.3A9.57,9.57,0,0,0,29,38.36a3,3,0,0,0,.39.78.34.34,0,0,0,.6,0,2.93,2.93,0,0,0,.37-.7A9.21,9.21,0,0,0,30.69,35.61Z"/><path d="M56.91,30.73a12.61,12.61,0,0,1,1.38,0,1,1,0,0,1,1,1,5.67,5.67,0,0,1,.07.82v7.64c0,.08,0,.16,0,.25a12.15,12.15,0,0,1-1.48,0,1.18,1.18,0,0,1-1-1.28c0-1.24,0-2.48,0-3.72v-.32l-.07,0c-.75.94-1.51,1.88-2.25,2.83a.7.7,0,0,0-.11.41c0,.7,0,1.39,0,2.13a4.77,4.77,0,0,1-1.81-.13,1,1,0,0,1-.6-.85,5.39,5.39,0,0,1-.06-.8q0-3.86,0-7.73c0-.08,0-.15,0-.3a15.45,15.45,0,0,1,1.55.12,1.15,1.15,0,0,1,.9,1.26c0,1,0,2,0,3v.32l.1.07a.81.81,0,0,1,.1-.21c.54-.64,1.09-1.27,1.61-1.91a2.4,2.4,0,0,0,.62-1.88A5.14,5.14,0,0,1,56.91,30.73Z"/><path d="M36.17,40.33c0,.55,0,1.07,0,1.59a5.75,5.75,0,0,1-.2,1.16,1.61,1.61,0,0,1-1.5,1.17c-.24,0-.49,0-.75,0,0-.1,0-.18,0-.26q0-4.12,0-8.26a6.07,6.07,0,0,1,1-3.44,5,5,0,0,1,.77-.89,2.66,2.66,0,0,1,3.77.12,5.62,5.62,0,0,1,1.57,3.6,4.21,4.21,0,0,1-1.19,3.47,5.8,5.8,0,0,1-3,1.64Zm0-1.2a2.7,2.7,0,0,0,1.4-1.34,6.27,6.27,0,0,0,.62-3.66A7.1,7.1,0,0,0,38,33a1.67,1.67,0,0,0-.21-.45.63.63,0,0,0-1.13,0,2.82,2.82,0,0,0-.43,1.57c0,1.6,0,3.2-.06,4.8C36.17,39,36.18,39,36.19,39.13Z"/><path d="M25.48,35.58a6.17,6.17,0,0,1-1.1,3.75,2.87,2.87,0,0,1-4.9,0,5.63,5.63,0,0,1-1.05-2.93,6.23,6.23,0,0,1,.91-4.06,3.16,3.16,0,0,1,1.9-1.5,2.81,2.81,0,0,1,3,1.13,5.47,5.47,0,0,1,1.14,2.78A8.42,8.42,0,0,1,25.48,35.58ZM23,35.72a18.49,18.49,0,0,0-.19-1.84,6.33,6.33,0,0,0-.51-1.52c-.17-.37-.51-.36-.73,0a2.41,2.41,0,0,0-.34.75,10.1,10.1,0,0,0,0,5.15,2.79,2.79,0,0,0,.36.83c.21.33.5.32.71,0a2.25,2.25,0,0,0,.3-.6A9.18,9.18,0,0,0,23,35.72Z"/><path d="M41.39,35.13c0-1.41,0-2.81,0-4.22,0-.18.08-.2.23-.21a1.9,1.9,0,0,1,2.22,2,3,3,0,0,1,0,.41.92.92,0,0,0,.62,1c.53.25,1.06.48,1.58.74a10.81,10.81,0,0,1,1.2.67,2.26,2.26,0,0,1,.94,1.39,3.67,3.67,0,0,1,0,1.86,2.2,2.2,0,0,1-2.1,1.71,31.72,31.72,0,0,1-3.65.06c-.64,0-1-.5-1.06-1.23,0-1,0-2,0-2.95V35.13Zm2.51-.28c0,1.08,0,2.11,0,3.13a2,2,0,0,0,.37.94.69.69,0,0,0,.91.25A1.2,1.2,0,0,0,45.86,38,3.5,3.5,0,0,0,43.9,34.85Z"/><path d="M51.21,40.45a14.29,14.29,0,0,1-1.61,0c-.58-.06-.79-.34-.84-.92,0-.17,0-.34,0-.5V30.65c.53.05,1,.05,1.49.14.65.13.85.65.93,1.23a6.84,6.84,0,0,1,.06.91v7.32A1.41,1.41,0,0,1,51.21,40.45Z"/><path d="M55.27,30.43c-.27-.73-.54-1.46-.8-2.2a.86.86,0,0,1,.13-.84.72.72,0,0,1,1.18-.1,3.39,3.39,0,0,1,.71-.26c.45-.05.8.38.8,1a2.9,2.9,0,0,1-1.95,2.45S55.3,30.44,55.27,30.43Z"/><path d="M61.15,28.62a1.12,1.12,0,0,1-2.24,0A1.12,1.12,0,0,1,60,27.5,1.1,1.1,0,0,1,61.15,28.62Zm-.23,0a.89.89,0,1,0-1.78,0,.89.89,0,1,0,1.78,0Z"/><text class="cls-1" transform="translate(59.53 29.1)">R</text></g></svg>